<svg width="44" height="44" viewBox="0 0 44 44" fill="none" xmlns="http://www.w3.org/2000/svg">
<rect x="1" y="1" width="42" height="42" rx="21" stroke="#EBEBEB" stroke-width="2"/>
<rect x="2" y="2" width="40" height="40" rx="20" fill="#AAAAAA"/>
<path d="M15.692 29H10.958V15.842H15.566C19.454 15.842 22.136 18.524 22.136 22.448C22.136 26.318 19.508 29 15.692 29ZM15.35 17.966H13.262V26.876H15.476C18.104 26.876 19.706 25.184 19.706 22.448C19.706 19.658 18.068 17.966 15.35 17.966ZM29.4842 24.464H26.5862V29H24.2822V15.842H29.4842C32.1302 15.842 33.8402 17.57 33.8402 20.144C33.8402 22.682 32.1122 24.464 29.4842 24.464ZM29.0342 17.894H26.5862V22.412H28.9982C30.5822 22.412 31.4282 21.566 31.4282 20.126C31.4282 18.686 30.5642 17.894 29.0342 17.894Z" fill="white"/>
</svg>
