<svg width="24" height="24" viewBox="0 0 24 24" fill="none" xmlns="http://www.w3.org/2000/svg">
<path opacity="0.993" d="M12.3066 1.71777C12.5056 1.7905 12.6952 1.88765 12.877 2.01074L12.9326 2.06641C12.9386 2.0724 12.9452 2.078 12.9512 2.08398C12.9572 2.08998 12.9627 2.09654 12.9688 2.10254L13.2207 2.35449C13.2267 2.36049 13.2333 2.36607 13.2393 2.37207C13.2452 2.37806 13.2508 2.38463 13.2568 2.39062L13.3467 2.48047C13.3527 2.48647 13.3592 2.49205 13.3652 2.49805C13.3712 2.50405 13.3768 2.5106 13.3828 2.5166L13.4727 2.60645C13.4786 2.61243 13.4852 2.61804 13.4912 2.62402C13.4972 2.63002 13.5028 2.63658 13.5088 2.64258L13.7607 2.89453C13.7667 2.90053 13.7733 2.90611 13.7793 2.91211C13.7853 2.9181 13.7909 2.92467 13.7969 2.93066L13.8867 3.02051C13.8927 3.0265 13.8993 3.03209 13.9053 3.03809C13.9113 3.04409 13.9169 3.05064 13.9229 3.05664L14.0127 3.14648C14.0187 3.15247 14.0253 3.15808 14.0312 3.16406C14.0373 3.17006 14.0428 3.17662 14.0488 3.18262L14.1748 3.30859C14.1808 3.31459 14.1874 3.32017 14.1934 3.32617C14.1993 3.33216 14.205 3.33874 14.2109 3.34473L14.3008 3.43457C14.3068 3.44057 14.3133 3.44615 14.3193 3.45215C14.3253 3.45815 14.3309 3.46471 14.3369 3.4707L14.4268 3.56055C14.4328 3.56654 14.4393 3.57213 14.4453 3.57812C14.4513 3.58413 14.4569 3.59068 14.4629 3.59668L14.7148 3.84863C14.7208 3.85463 14.7274 3.86021 14.7334 3.86621C14.7394 3.8722 14.745 3.87878 14.751 3.88477L14.8408 3.97461C14.8468 3.98061 14.8534 3.98619 14.8594 3.99219C14.8654 3.99819 14.871 4.00474 14.877 4.01074L14.9668 4.10059C14.9728 4.10658 14.9794 4.11217 14.9854 4.11816C14.9914 4.12416 14.9969 4.13072 15.0029 4.13672L15.2549 4.38867C15.2609 4.39467 15.2674 4.40025 15.2734 4.40625C15.2794 4.41224 15.285 4.41881 15.291 4.4248L15.3809 4.51465C15.3869 4.52065 15.3934 4.52623 15.3994 4.53223C15.4054 4.53823 15.411 4.54478 15.417 4.55078L15.5068 4.64062C15.5128 4.64661 15.5194 4.65222 15.5254 4.6582C15.5314 4.6642 15.537 4.67076 15.543 4.67676L15.7949 4.92871C15.8009 4.93471 15.8075 4.94029 15.8135 4.94629C15.8195 4.95228 15.8251 4.95885 15.8311 4.96484L15.9209 5.05469C15.9269 5.06068 15.9335 5.06627 15.9395 5.07227C15.9455 5.07827 15.951 5.08482 15.957 5.09082L16.0469 5.18066C16.0529 5.18665 16.0594 5.19226 16.0654 5.19824C16.0714 5.20424 16.077 5.2108 16.083 5.2168L16.209 5.34277C16.215 5.34877 16.2215 5.35435 16.2275 5.36035C16.2335 5.36634 16.2391 5.37292 16.2451 5.37891L16.335 5.46875C16.341 5.47475 16.3475 5.48033 16.3535 5.48633C16.3595 5.49232 16.3651 5.49889 16.3711 5.50488L16.4609 5.59473C16.4669 5.60072 16.4735 5.60631 16.4795 5.6123C16.4855 5.61831 16.4911 5.62486 16.4971 5.63086L16.749 5.88281C16.755 5.88881 16.7616 5.89439 16.7676 5.90039C16.7736 5.90638 16.7792 5.91296 16.7852 5.91895L16.875 6.00879C16.881 6.01479 16.8876 6.02037 16.8936 6.02637C16.8996 6.03237 16.9051 6.03892 16.9111 6.04492L17.001 6.13477C17.007 6.14076 17.0135 6.14635 17.0195 6.15234C17.0255 6.15834 17.0311 6.1649 17.0371 6.1709L17.2891 6.42285C17.2951 6.42885 17.3016 6.43443 17.3076 6.44043C17.3136 6.44642 17.3192 6.453 17.3252 6.45898L17.415 6.54883C17.421 6.55483 17.4276 6.56041 17.4336 6.56641C17.4396 6.57241 17.4452 6.57896 17.4512 6.58496L17.541 6.6748C17.547 6.68079 17.5536 6.68639 17.5596 6.69238C17.5656 6.69838 17.5711 6.70494 17.5771 6.71094L17.8291 6.96289C17.8351 6.96889 17.8417 6.97447 17.8477 6.98047C17.8536 6.98646 17.8592 6.99303 17.8652 6.99902L17.9551 7.08887C17.9611 7.09487 17.9676 7.10045 17.9736 7.10645C17.9796 7.11245 17.9852 7.119 17.9912 7.125L18.0811 7.21484C18.087 7.22083 18.0936 7.22644 18.0996 7.23242C18.1056 7.23842 18.1112 7.24498 18.1172 7.25098L18.3691 7.50293C18.3751 7.50893 18.3817 7.51451 18.3877 7.52051C18.3937 7.5265 18.3993 7.53307 18.4053 7.53906L18.4951 7.62891C18.5011 7.6349 18.5077 7.64049 18.5137 7.64648C18.5197 7.65248 18.5252 7.65904 18.5312 7.66504L18.6211 7.75488C18.6271 7.76087 18.6337 7.76648 18.6396 7.77246C18.6456 7.77846 18.6512 7.78502 18.6572 7.79102L18.7832 7.91699C18.7892 7.92299 18.7958 7.92857 18.8018 7.93457C18.8077 7.94056 18.8134 7.94714 18.8193 7.95312L18.9092 8.04297C18.9152 8.04897 18.9217 8.05455 18.9277 8.06055C18.9337 8.06654 18.9393 8.0731 18.9453 8.0791L19.0352 8.16895C19.0411 8.17494 19.0477 8.18053 19.0537 8.18652C19.0597 8.19252 19.0653 8.19908 19.0713 8.20508L19.3232 8.45703C19.3292 8.46303 19.3358 8.46861 19.3418 8.47461C19.3478 8.4806 19.3534 8.48718 19.3594 8.49316L19.4492 8.58301C19.4552 8.58901 19.4618 8.59459 19.4678 8.60059C19.4738 8.60659 19.4794 8.61314 19.4854 8.61914L19.5752 8.70898C19.5812 8.71497 19.5878 8.72057 19.5938 8.72656C19.5998 8.73256 19.6053 8.73912 19.6113 8.74512L19.8633 8.99707C19.8693 9.00307 19.8758 9.00865 19.8818 9.01465C19.8878 9.02064 19.8934 9.02721 19.8994 9.0332L19.9893 9.12305C19.9953 9.12905 20.0018 9.13463 20.0078 9.14062C20.0138 9.14663 20.0194 9.15318 20.0254 9.15918L20.1152 9.24902C20.1212 9.25501 20.1278 9.26061 20.1338 9.2666C20.1398 9.2726 20.1454 9.27916 20.1514 9.28516L20.4033 9.53711C20.4093 9.54311 20.4159 9.54869 20.4219 9.55469C20.4279 9.56068 20.4335 9.56725 20.4395 9.57324L20.5293 9.66309C20.5353 9.66908 20.5419 9.67467 20.5479 9.68066C20.5539 9.68666 20.5594 9.69322 20.5654 9.69922L20.6553 9.78906C20.6613 9.79505 20.6678 9.80066 20.6738 9.80664C20.6798 9.81264 20.6854 9.81919 20.6914 9.8252L20.8174 9.95117C20.8234 9.95717 20.8299 9.96275 20.8359 9.96875C20.8419 9.97473 20.8475 9.98132 20.8535 9.9873L20.9434 10.0771C20.9494 10.0831 20.9559 10.0887 20.9619 10.0947C20.9679 10.1007 20.9735 10.1073 20.9795 10.1133L21.0693 10.2031C21.0753 10.2091 21.0819 10.2147 21.0879 10.2207C21.0939 10.2267 21.0995 10.2333 21.1055 10.2393L21.3574 10.4912C21.3634 10.4972 21.37 10.5028 21.376 10.5088C21.382 10.5148 21.3876 10.5214 21.3936 10.5273L21.4834 10.6172C21.4894 10.6232 21.496 10.6288 21.502 10.6348C21.508 10.6408 21.5135 10.6473 21.5195 10.6533L21.6094 10.7432C21.6154 10.7492 21.6219 10.7548 21.6279 10.7607C21.6339 10.7667 21.6395 10.7733 21.6455 10.7793L21.8975 11.0312C21.9035 11.0373 21.91 11.0428 21.916 11.0488C21.922 11.0548 21.9276 11.0614 21.9336 11.0674L21.9883 11.1221C22.1116 11.3039 22.2094 11.4933 22.2822 11.6924V12.3096C22.143 12.7027 21.9541 12.9454 21.7422 13.0947C21.5126 13.2563 21.1846 13.3605 20.7021 13.3457L19.9561 13.3223L19.9619 14.0684C19.9814 16.3798 19.9611 18.6905 19.9004 21C19.7948 21.3672 19.6349 21.6358 19.4355 21.833C19.2374 22.0289 18.9709 22.1837 18.6104 22.2822H14.8438C14.8401 20.4648 14.8114 18.6485 14.7578 16.834L14.7549 16.7305L14.7227 16.6318L14.6504 16.4434C14.4606 16.0186 14.1296 15.7018 13.6846 15.5234L13.5908 15.4863L13.4912 15.4756L13.1172 15.4434C12.7483 15.4161 12.3782 15.4036 12.0068 15.4072H11.9922C11.4956 15.4024 11.0009 15.4252 10.5088 15.4756L10.3877 15.4883L10.2783 15.54C9.71433 15.8041 9.34564 16.2685 9.21484 16.877L9.19922 16.9482L9.19824 17.0215C9.19109 17.9452 9.18392 18.8692 9.17676 19.793C9.17032 20.6226 9.16365 21.4526 9.15723 22.2822H5.36328C4.71025 22.0863 4.30705 21.6894 4.09863 21.0273C4.03822 18.7087 4.01863 16.3889 4.03809 14.0684L4.04395 13.3232L3.29883 13.3457C2.81555 13.36 2.4876 13.2554 2.25781 13.0938C2.04564 12.9444 1.85663 12.7022 1.71777 12.3096V11.6777C1.77945 11.4838 1.87122 11.3035 1.99805 11.1348C2.0027 11.1301 2.00804 11.1257 2.0127 11.1211L2.06641 11.0674C2.0724 11.0614 2.078 11.0548 2.08398 11.0488C2.08998 11.0428 2.09654 11.0373 2.10254 11.0312L2.35449 10.7793C2.36049 10.7733 2.36607 10.7667 2.37207 10.7607C2.37806 10.7548 2.38463 10.7492 2.39062 10.7432L2.48047 10.6533C2.48647 10.6473 2.49205 10.6408 2.49805 10.6348C2.50405 10.6288 2.5106 10.6232 2.5166 10.6172L2.60645 10.5273C2.61243 10.5214 2.61804 10.5148 2.62402 10.5088C2.63002 10.5028 2.63658 10.4972 2.64258 10.4912L2.89453 10.2393C2.90053 10.2333 2.90611 10.2267 2.91211 10.2207C2.9181 10.2147 2.92467 10.2091 2.93066 10.2031L3.02051 10.1133C3.0265 10.1073 3.03209 10.1007 3.03809 10.0947C3.04409 10.0887 3.05064 10.0831 3.05664 10.0771L3.14648 9.9873C3.15247 9.98132 3.15808 9.97473 3.16406 9.96875C3.17006 9.96275 3.17662 9.95717 3.18262 9.95117L3.30859 9.8252C3.31459 9.81919 3.32017 9.81264 3.32617 9.80664C3.33216 9.80066 3.33874 9.79505 3.34473 9.78906L3.43457 9.69922C3.44057 9.69322 3.44615 9.68666 3.45215 9.68066C3.45815 9.67467 3.46471 9.66908 3.4707 9.66309L3.56055 9.57324C3.56654 9.56725 3.57213 9.56068 3.57812 9.55469C3.58413 9.54869 3.59068 9.54311 3.59668 9.53711L3.84863 9.28516C3.85463 9.27916 3.86021 9.2726 3.86621 9.2666C3.8722 9.26061 3.87878 9.25501 3.88477 9.24902L3.97461 9.15918C3.98061 9.15318 3.98619 9.14663 3.99219 9.14062C3.99819 9.13463 4.00474 9.12905 4.01074 9.12305L4.10059 9.0332C4.10658 9.02721 4.11217 9.02064 4.11816 9.01465C4.12416 9.00865 4.13072 9.00307 4.13672 8.99707L4.38867 8.74512C4.39467 8.73912 4.40025 8.73256 4.40625 8.72656C4.41224 8.72057 4.41881 8.71497 4.4248 8.70898L4.51465 8.61914C4.52065 8.61314 4.52623 8.60659 4.53223 8.60059C4.53823 8.59459 4.54478 8.58901 4.55078 8.58301L4.64062 8.49316C4.64661 8.48718 4.65222 8.4806 4.6582 8.47461C4.6642 8.46861 4.67076 8.46303 4.67676 8.45703L4.92871 8.20508C4.93471 8.19908 4.94029 8.19252 4.94629 8.18652C4.95228 8.18053 4.95885 8.17494 4.96484 8.16895L5.05469 8.0791C5.06068 8.0731 5.06627 8.06654 5.07227 8.06055C5.07827 8.05455 5.08482 8.04897 5.09082 8.04297L5.18066 7.95312C5.18665 7.94714 5.19226 7.94056 5.19824 7.93457C5.20424 7.92857 5.2108 7.92299 5.2168 7.91699L5.34277 7.79102C5.34877 7.78502 5.35435 7.77846 5.36035 7.77246C5.36634 7.76648 5.37292 7.76087 5.37891 7.75488L5.46875 7.66504C5.47475 7.65904 5.48033 7.65248 5.48633 7.64648C5.49232 7.64049 5.49889 7.6349 5.50488 7.62891L5.59473 7.53906C5.60072 7.53307 5.60631 7.5265 5.6123 7.52051C5.61831 7.51451 5.62486 7.50893 5.63086 7.50293L5.88281 7.25098C5.88881 7.24498 5.89439 7.23842 5.90039 7.23242C5.90638 7.22644 5.91296 7.22083 5.91895 7.21484L6.00879 7.125C6.01479 7.119 6.02037 7.11245 6.02637 7.10645C6.03237 7.10045 6.03892 7.09487 6.04492 7.08887L6.13477 6.99902C6.14076 6.99303 6.14635 6.98646 6.15234 6.98047C6.15834 6.97447 6.1649 6.96889 6.1709 6.96289L6.42285 6.71094C6.42885 6.70494 6.43443 6.69838 6.44043 6.69238C6.44642 6.68639 6.453 6.68079 6.45898 6.6748L6.54883 6.58496C6.55483 6.57896 6.56041 6.57241 6.56641 6.56641C6.57241 6.56041 6.57896 6.55483 6.58496 6.54883L6.6748 6.45898C6.68079 6.453 6.68639 6.44642 6.69238 6.44043C6.69838 6.43443 6.70494 6.42885 6.71094 6.42285L6.96289 6.1709C6.96889 6.1649 6.97447 6.15834 6.98047 6.15234C6.98646 6.14635 6.99303 6.14076 6.99902 6.13477L7.08887 6.04492C7.09487 6.03892 7.10045 6.03237 7.10645 6.02637C7.11245 6.02037 7.119 6.01479 7.125 6.00879L7.21484 5.91895C7.22083 5.91296 7.22644 5.90638 7.23242 5.90039C7.23842 5.89439 7.24498 5.88881 7.25098 5.88281L7.50293 5.63086C7.50893 5.62486 7.51451 5.61831 7.52051 5.6123C7.5265 5.60631 7.53307 5.60072 7.53906 5.59473L7.62891 5.50488C7.6349 5.49889 7.64049 5.49232 7.64648 5.48633C7.65248 5.48033 7.65904 5.47475 7.66504 5.46875L7.75488 5.37891C7.76087 5.37292 7.76648 5.36634 7.77246 5.36035C7.77846 5.35435 7.78502 5.34877 7.79102 5.34277L7.91699 5.2168C7.92299 5.2108 7.92857 5.20424 7.93457 5.19824C7.94056 5.19226 7.94714 5.18665 7.95312 5.18066L8.04297 5.09082C8.04897 5.08482 8.05455 5.07827 8.06055 5.07227C8.06654 5.06627 8.0731 5.06068 8.0791 5.05469L8.16895 4.96484C8.17494 4.95885 8.18053 4.95228 8.18652 4.94629C8.19252 4.94029 8.19908 4.93471 8.20508 4.92871L8.45703 4.67676C8.46303 4.67076 8.46861 4.6642 8.47461 4.6582C8.4806 4.65222 8.48718 4.64661 8.49316 4.64062L8.58301 4.55078C8.58901 4.54478 8.59459 4.53823 8.60059 4.53223C8.60659 4.52623 8.61314 4.52065 8.61914 4.51465L8.70898 4.4248C8.71497 4.41881 8.72057 4.41224 8.72656 4.40625C8.73256 4.40025 8.73912 4.39467 8.74512 4.38867L8.99707 4.13672C9.00307 4.13072 9.00865 4.12416 9.01465 4.11816C9.02064 4.11217 9.02721 4.10658 9.0332 4.10059L9.12305 4.01074C9.12905 4.00474 9.13463 3.99819 9.14062 3.99219C9.14663 3.98619 9.15318 3.98061 9.15918 3.97461L9.24902 3.88477C9.25501 3.87878 9.26061 3.8722 9.2666 3.86621C9.2726 3.86021 9.27916 3.85463 9.28516 3.84863L9.53711 3.59668C9.54311 3.59068 9.54869 3.58413 9.55469 3.57812C9.56068 3.57213 9.56725 3.56654 9.57324 3.56055L9.66309 3.4707C9.66908 3.46471 9.67467 3.45815 9.68066 3.45215C9.68666 3.44615 9.69322 3.44057 9.69922 3.43457L9.78906 3.34473C9.79505 3.33874 9.80066 3.33216 9.80664 3.32617C9.81264 3.32017 9.81919 3.31459 9.8252 3.30859L9.95117 3.18262C9.95717 3.17662 9.96275 3.17006 9.96875 3.16406C9.97473 3.15808 9.98132 3.15247 9.9873 3.14648L10.0771 3.05664C10.0831 3.05064 10.0887 3.04409 10.0947 3.03809C10.1007 3.03209 10.1073 3.0265 10.1133 3.02051L10.2031 2.93066C10.2091 2.92467 10.2147 2.9181 10.2207 2.91211C10.2267 2.90611 10.2333 2.90053 10.2393 2.89453L10.4912 2.64258C10.4972 2.63658 10.5028 2.63002 10.5088 2.62402C10.5148 2.61804 10.5214 2.61243 10.5273 2.60645L10.6172 2.5166C10.6232 2.5106 10.6288 2.50405 10.6348 2.49805C10.6408 2.49205 10.6473 2.48647 10.6533 2.48047L10.7432 2.39062C10.7492 2.38463 10.7548 2.37806 10.7607 2.37207C10.7667 2.36607 10.7733 2.36049 10.7793 2.35449L11.0312 2.10254C11.0373 2.09654 11.0428 2.08998 11.0488 2.08398C11.0548 2.078 11.0614 2.0724 11.0674 2.06641L11.1211 2.0127L11.1221 2.01074C11.304 1.88743 11.4941 1.79059 11.6934 1.71777H12.3066Z" stroke="#E8B600" stroke-width="1.43478"/>
</svg>
