<svg width="32" height="26" viewBox="0 0 32 26" fill="none" xmlns="http://www.w3.org/2000/svg">
<g clip-path="url(#clip0_2508_12252)">
<path d="M16.6826 0.0729772C17.1686 0.318472 17.5519 0.782621 17.9319 1.16419C17.9805 1.2128 18.0291 1.2614 18.0777 1.30998C18.208 1.44025 18.3381 1.57068 18.4682 1.70113C18.6048 1.83806 18.7416 1.97484 18.8783 2.11163C19.1365 2.36996 19.3945 2.62841 19.6525 2.88691C19.9465 3.18151 20.2407 3.47596 20.5349 3.77041C21.1394 4.37542 21.7437 4.98062 22.3478 5.58592C22.3646 5.03291 22.3814 4.4799 22.3986 3.91014C22.03 3.91014 21.6613 3.91014 21.2814 3.91014C21.2814 2.9717 21.2814 2.03326 21.2814 1.06639C23.0243 1.06639 24.7671 1.06639 26.5627 1.06639C26.5627 2.00482 26.5627 2.94326 26.5627 3.91014C26.194 3.91014 25.8253 3.91014 25.4455 3.91014C25.0324 6.76927 24.5764 6.08514 25.4455 8.70896C26.0898 9.51531 27.3579 10.8921 28.1803 11.5115C28.5322 11.7781 28.8053 12.0078 28.9494 12.4414C28.9662 12.4917 28.9829 12.5419 29.0002 12.5937C29.0428 13.2026 29.0135 13.7216 28.6098 14.2124C28.2108 14.6216 27.7921 14.7546 27.2228 14.7773C26.9947 14.7566 26.7692 14.7282 26.5627 14.625C26.5459 18.3787 26.5292 22.1325 26.5119 26C19.4904 26 12.4689 26 5.23457 26C5.23457 22.263 5.23457 18.526 5.23457 14.6758C5.08375 14.7093 4.93293 14.7428 4.77754 14.7773C4.25431 14.7728 3.84379 14.627 3.45583 14.2786C3.07141 13.8771 2.96838 13.4531 2.97651 12.9114C3.01175 12.0981 3.58914 11.6405 4.13682 11.0985C4.18042 11.0551 4.22401 11.0117 4.26893 10.9669C4.4066 10.8299 4.54444 10.693 4.68232 10.5561C4.86457 10.3752 5.04664 10.1942 5.22862 10.013C5.29036 9.9519 5.29036 9.9519 5.35335 9.88955C5.39252 9.85055 5.43168 9.81156 5.47203 9.77138C5.50595 9.73773 5.53987 9.70408 5.57481 9.6694C5.67108 9.56839 5.76224 9.46568 5.85321 9.35998C6.03532 9.15143 6.2262 8.95381 6.42184 8.75801C6.45787 8.72176 6.4939 8.68551 6.53102 8.64816C6.65072 8.52779 6.77059 8.4076 6.89047 8.2874C6.97676 8.20071 7.06305 8.11401 7.14932 8.0273C7.40726 7.76814 7.66543 7.5092 7.92365 7.25032C7.99668 7.17711 8.06969 7.10389 8.1427 7.03068C8.59705 6.57505 9.05147 6.11951 9.50614 5.6642C9.61113 5.55907 9.71612 5.45393 9.82111 5.34878C9.8472 5.32266 9.87329 5.29653 9.90017 5.26961C10.3232 4.84596 10.7457 4.42179 11.1679 3.9974C11.6023 3.56086 12.0372 3.12479 12.4725 2.68919C12.7166 2.44494 12.9605 2.20048 13.2038 1.95547C13.4326 1.72513 13.662 1.49539 13.8919 1.26611C13.976 1.18201 14.0599 1.0977 14.1436 1.01315C14.2581 0.897472 14.3734 0.782611 14.4889 0.667913C14.5215 0.634549 14.5542 0.601186 14.5878 0.566811C15.1344 0.0295315 15.9452 -0.186178 16.6826 0.0729772Z" fill="#FED05C"/>
<path d="M16.6823 0.0729772C17.1683 0.318472 17.5516 0.782621 17.9316 1.16419C17.9802 1.2128 18.0288 1.2614 18.0774 1.30998C18.2077 1.44025 18.3378 1.57068 18.4679 1.70113C18.6045 1.83806 18.7413 1.97484 18.878 2.11163C19.1362 2.36996 19.3942 2.62841 19.6522 2.88691C19.9462 3.18151 20.2404 3.47596 20.5346 3.77041C21.1391 4.37542 21.7433 4.98062 22.3475 5.58592C22.3643 5.03291 22.3811 4.4799 22.3983 3.91014C22.0296 3.91014 21.661 3.91014 21.2811 3.91014C21.2811 2.9717 21.2811 2.03326 21.2811 1.06639C23.0239 1.06639 24.7668 1.06639 26.5624 1.06639C26.5624 2.00482 26.5624 2.94326 26.5624 3.91014C26.1937 3.91014 25.825 3.91014 25.4452 3.91014C25.4452 6.77927 24.9892 6.06975 25.4452 8.65818C26.0895 9.46453 27.3576 10.8921 28.18 11.5115C28.5319 11.7781 28.805 12.0078 28.9491 12.4414C28.9659 12.4917 28.9826 12.5419 28.9999 12.5937C29.0425 13.2026 29.0132 13.7216 28.6095 14.2124C28.209 14.6232 27.7928 14.7512 27.2225 14.7773C26.2024 14.7365 25.4229 13.645 24.7558 12.9765C24.6606 12.8813 24.5655 12.7862 24.4704 12.6911C24.2663 12.4871 24.0624 12.283 23.8586 12.0789C23.5638 11.7837 23.2689 11.4887 22.974 11.1937C22.4954 10.715 22.0169 10.2362 21.5385 9.75731C21.0741 9.2924 20.6096 8.82754 20.145 8.36276C20.1163 8.33406 20.0877 8.30536 20.0581 8.27579C19.9142 8.13179 19.7702 7.9878 19.6263 7.84381C18.4343 6.65124 17.2424 5.45848 16.0507 4.2656C15.8954 4.33494 15.7889 4.41327 15.6692 4.53346C15.6346 4.56797 15.5999 4.60248 15.5643 4.63803C15.5266 4.67606 15.489 4.71408 15.4503 4.75326C15.41 4.79357 15.3697 4.83388 15.3282 4.87541C15.1928 5.01099 15.0578 5.14693 14.9227 5.28287C14.8259 5.38 14.7291 5.47705 14.6322 5.5741C14.4234 5.7834 14.2147 5.99288 14.0062 6.20247C13.7042 6.5059 13.4019 6.80899 13.0995 7.11197C12.6084 7.60409 12.1174 8.09638 11.6266 8.58883C11.5972 8.61831 11.5678 8.64778 11.5376 8.67815C11.21 9.00678 10.8825 9.33545 10.5551 9.66416C10.4365 9.78323 10.3179 9.9023 10.1993 10.0214C10.17 10.0507 10.1407 10.0801 10.1106 10.1104C9.62198 10.6008 9.1331 11.091 8.64399 11.5809C8.34249 11.8829 8.04124 12.1852 7.74032 12.4878C7.5339 12.6954 7.3272 12.9027 7.12029 13.1097C7.00104 13.2291 6.88197 13.3486 6.76314 13.4684C6.63402 13.5985 6.50443 13.7281 6.37472 13.8576C6.31913 13.914 6.31913 13.914 6.26242 13.9715C5.80065 14.4301 5.29484 14.7754 4.62488 14.7773C4.11742 14.744 3.71257 14.5494 3.3617 14.1806C2.98084 13.7007 2.93428 13.1865 2.99988 12.5937C3.12404 11.9696 3.70349 11.527 4.13651 11.0985C4.1801 11.0551 4.2237 11.0117 4.26862 10.9669C4.40629 10.8299 4.54413 10.693 4.68201 10.5561C4.86426 10.3752 5.04633 10.1942 5.22831 10.013C5.29005 9.9519 5.29005 9.9519 5.35304 9.88955C5.39221 9.85055 5.43137 9.81156 5.47172 9.77138C5.50564 9.73773 5.53956 9.70408 5.5745 9.6694C5.67077 9.56839 5.76193 9.46568 5.8529 9.35998C6.03501 9.15143 6.22588 8.95381 6.42153 8.75801C6.45756 8.72176 6.49359 8.68551 6.53071 8.64816C6.65041 8.52779 6.77028 8.4076 6.89016 8.2874C6.97645 8.20071 7.06273 8.11401 7.14901 8.0273C7.40695 7.76814 7.66512 7.5092 7.92334 7.25032C7.99636 7.17711 8.06938 7.10389 8.14239 7.03068C8.59674 6.57505 9.05116 6.11951 9.50583 5.6642C9.61082 5.55907 9.71581 5.45393 9.8208 5.34878C9.84689 5.32266 9.87298 5.29653 9.89986 5.26961C10.3229 4.84596 10.7453 4.42179 11.1676 3.9974C11.602 3.56086 12.0369 3.12479 12.4722 2.68919C12.7163 2.44494 12.9602 2.20048 13.2035 1.95547C13.4323 1.72513 13.6617 1.49539 13.8916 1.26611C13.9757 1.18201 14.0596 1.0977 14.1433 1.01315C14.2578 0.897472 14.3731 0.782611 14.4886 0.667913C14.5212 0.634549 14.5539 0.601186 14.5875 0.566811C15.1341 0.0295315 15.9448 -0.186178 16.6823 0.0729772Z" fill="#FE4E19"/>
<path d="M15.8984 16.5039C18.6467 16.5039 21.395 16.5039 24.2266 16.5039C24.2266 18.917 24.2266 21.3302 24.2266 23.8164C21.4783 23.8164 18.73 23.8164 15.8984 23.8164C15.8984 21.4033 15.8984 18.9902 15.8984 16.5039Z" fill="#354B5E"/>
<path d="M10.7314 16.5325C10.7876 16.5328 10.8438 16.5332 10.9018 16.5335C11.3157 16.5416 11.6584 16.5864 12.039 16.7578C12.0826 16.7756 12.1263 16.7934 12.1713 16.8118C13.0113 17.1868 13.542 17.8966 13.8737 18.7301C14.086 19.3923 14.0456 20.0805 14.04 20.7682C14.0388 20.9526 14.0386 21.137 14.0384 21.3214C14.0378 21.6694 14.0361 22.0174 14.0341 22.3654C14.0314 22.8364 14.0303 23.3075 14.0291 23.7786C14.0272 24.5191 14.0231 25.2595 14.0194 26C11.908 26 9.79647 26 7.62101 26C7.61487 24.3181 7.61487 24.3181 7.61357 23.6109C7.61266 23.1234 7.61161 22.636 7.60951 22.1486C7.60799 21.7935 7.60701 21.4384 7.60667 21.0833C7.60647 20.8955 7.60601 20.7077 7.6049 20.5199C7.60366 20.3097 7.60364 20.0994 7.60371 19.8891C7.60316 19.8277 7.60262 19.7663 7.60205 19.703C7.60521 18.8269 7.91862 18.0491 8.53507 17.418C8.87376 17.1252 9.23613 16.8754 9.65226 16.707C9.69933 16.6874 9.69933 16.6874 9.74735 16.6673C10.0755 16.5424 10.3827 16.5292 10.7314 16.5325Z" fill="#415A6A"/>
<path d="M15.9492 4.21484C16.1044 4.28418 16.211 4.36251 16.3307 4.4827C16.3653 4.51721 16.3999 4.55172 16.4356 4.58727C16.4732 4.6253 16.5109 4.66332 16.5496 4.7025C16.5899 4.74281 16.6302 4.78312 16.6717 4.82465C16.8071 4.96023 16.9421 5.09617 17.0772 5.23211C17.1739 5.32924 17.2708 5.42629 17.3677 5.52334C17.5765 5.73264 17.7852 5.94212 17.9937 6.15171C18.2957 6.45514 18.598 6.75823 18.9003 7.06121C19.3915 7.55333 19.8825 8.04562 20.3733 8.53807C20.4027 8.56755 20.4321 8.59702 20.4623 8.62739C20.7899 8.95602 21.1173 9.28468 21.4448 9.6134C21.5634 9.73247 21.682 9.85154 21.8006 9.97061C21.8299 9.99999 21.8592 10.0294 21.8893 10.0596C22.3779 10.5501 22.8668 11.0402 23.3559 11.5302C23.6574 11.8322 23.9586 12.1345 24.2596 12.4371C24.466 12.6446 24.6727 12.8519 24.8796 13.059C24.9988 13.1783 25.1179 13.2978 25.2367 13.4176C25.3659 13.5477 25.4955 13.6773 25.6252 13.8069C25.6622 13.8444 25.6993 13.882 25.7375 13.9207C25.9502 14.132 26.1623 14.2994 26.4218 14.4506C26.5325 14.5403 26.5461 14.5959 26.5636 14.7352C26.5635 14.8153 26.561 14.8954 26.5563 14.9753C26.5554 15.0389 26.5554 15.0389 26.5544 15.1038C26.5518 15.2385 26.5461 15.3728 26.5403 15.5073C26.538 15.5989 26.5359 15.6905 26.534 15.7821C26.529 16.0059 26.5211 16.2294 26.5117 16.4531C26.2357 16.2229 25.9796 15.9789 25.726 15.7243C25.684 15.6824 25.642 15.6404 25.5988 15.5972C25.4831 15.4816 25.3676 15.3659 25.2521 15.2501C25.1272 15.125 25.0021 15 24.8771 14.8751C24.6608 14.6588 24.4445 14.4424 24.2284 14.2259C23.9158 13.913 23.6032 13.6002 23.2904 13.2874C22.783 12.7799 22.2757 12.2722 21.7685 11.7645C21.2759 11.2715 20.7833 10.7785 20.2906 10.2856C20.2602 10.2552 20.2298 10.2248 20.1985 10.1934C20.046 10.0409 19.8935 9.88833 19.741 9.73577C18.4769 8.47115 17.213 7.20634 15.9492 5.94141C15.7896 6.01217 15.6818 6.0947 15.5588 6.21804C15.5039 6.27274 15.5039 6.27274 15.4479 6.32854C15.408 6.36875 15.3682 6.40896 15.3271 6.45039C15.2845 6.49299 15.2419 6.53559 15.198 6.57947C15.0798 6.69776 14.9618 6.81626 14.8439 6.93486C14.7167 7.06271 14.5892 7.19026 14.4617 7.31785C14.2409 7.53895 14.0203 7.76023 13.7998 7.98163C13.4809 8.30178 13.1617 8.6216 12.8424 8.94134C12.3243 9.46016 11.8064 9.97917 11.2887 10.4983C11.2422 10.5449 11.2422 10.5449 11.1947 10.5925C10.9747 10.8131 10.7547 11.0338 10.5347 11.2544C10.2832 11.5066 10.0317 11.7588 9.78014 12.011C9.74916 12.0421 9.71817 12.0731 9.68625 12.1052C9.17031 12.6225 8.65418 13.1396 8.13791 13.6566C7.81925 13.9757 7.50078 14.295 7.18254 14.6145C6.96469 14.8332 6.74666 15.0517 6.52849 15.2701C6.40246 15.3963 6.27652 15.5225 6.1508 15.649C6.0148 15.7858 5.87842 15.9222 5.74199 16.0586C5.70192 16.099 5.66185 16.1395 5.62057 16.1811C5.58423 16.2173 5.54789 16.2535 5.51045 16.2908C5.46323 16.3382 5.46323 16.3382 5.41507 16.3865C5.33594 16.4531 5.33594 16.4531 5.23438 16.4531C5.23438 15.8498 5.23438 15.2466 5.23438 14.625C5.40195 14.5412 5.56953 14.4574 5.74219 14.3711C5.89252 14.2611 5.89252 14.2611 6.01922 14.135C6.05636 14.0997 6.05636 14.0997 6.09425 14.0636C6.18082 13.9807 6.26625 13.8967 6.35156 13.8125C6.3847 13.78 6.41783 13.7475 6.45197 13.714C6.73702 13.4338 7.01945 13.151 7.30178 12.8681C7.39641 12.7734 7.49106 12.6788 7.58572 12.5841C7.78837 12.3815 7.99094 12.1788 8.19344 11.976C8.48621 11.6828 8.77912 11.3898 9.07207 11.0968C9.54751 10.6212 10.0228 10.1455 10.4981 9.6698C10.9594 9.20805 11.4207 8.74635 11.8821 8.28472C11.9249 8.24194 11.9249 8.24194 11.9685 8.19829C12.1116 8.05519 12.2546 7.91209 12.3976 7.76899C13.5817 6.58443 14.7655 5.3997 15.9492 4.21484Z" fill="#F7B64C"/>
<path d="M21.2812 1.06641C23.0241 1.06641 24.7669 1.06641 26.5625 1.06641C26.5625 2.00484 26.5625 2.94328 26.5625 3.91016C26.1938 3.91016 25.8252 3.91016 25.4453 3.91016C25.4453 5.48539 25.4453 7.06063 25.4453 8.68359C25.2455 8.58368 25.1175 8.47138 24.9635 8.31573C24.9364 8.28863 24.9092 8.26154 24.8812 8.23363C24.7916 8.14424 24.7024 8.05449 24.6132 7.96472C24.551 7.90247 24.4888 7.84024 24.4266 7.77803C24.2963 7.64773 24.1663 7.51726 24.0364 7.38666C23.8696 7.21905 23.7025 7.05178 23.5353 6.88462C23.4069 6.75621 23.2787 6.62767 23.1505 6.49908C23.0889 6.43734 23.0273 6.37562 22.9656 6.31394C22.8797 6.22788 22.7939 6.14165 22.7081 6.05537C22.6825 6.02977 22.6569 6.00418 22.6305 5.97782C22.4327 5.77816 22.3927 5.68777 22.3927 5.40501C22.3929 5.36666 22.3932 5.3283 22.3935 5.28879C22.3936 5.24948 22.3936 5.21018 22.3937 5.16968C22.394 5.04394 22.3946 4.91821 22.3953 4.79248C22.3955 4.70732 22.3958 4.62215 22.396 4.53699C22.3965 4.32804 22.3975 4.1191 22.3984 3.91016C22.0298 3.91016 21.6611 3.91016 21.2812 3.91016C21.2812 2.97172 21.2812 2.03328 21.2812 1.06641Z" fill="#FE4E19"/>
<path d="M20.4688 17.3672C21.4239 17.3672 22.3791 17.3672 23.3633 17.3672C23.3633 19.2105 23.3633 21.0539 23.3633 22.9531C22.4081 22.9531 21.4529 22.9531 20.4688 22.9531C20.4688 21.1098 20.4688 19.2664 20.4688 17.3672Z" fill="#88D5F6"/>
<path d="M16.7617 17.3672C17.7169 17.3672 18.6721 17.3672 19.6562 17.3672C19.6562 19.2105 19.6562 21.0539 19.6562 22.9531C18.7011 22.9531 17.7459 22.9531 16.7617 22.9531C16.7617 21.1098 16.7617 19.2664 16.7617 17.3672Z" fill="#88D5F6"/>
<path d="M22.3983 3.91016C23.4038 3.91016 24.4093 3.91016 25.4452 3.91016C25.4452 5.48539 25.4452 7.06063 25.4452 8.68359C25.2454 8.58368 25.1174 8.47138 24.9634 8.31573C24.9362 8.28863 24.9091 8.26154 24.881 8.23363C24.7915 8.14424 24.7023 8.05449 24.6131 7.96472C24.5509 7.90247 24.4887 7.84024 24.4264 7.77803C24.2962 7.64773 24.1662 7.51726 24.0363 7.38666C23.8695 7.21905 23.7024 7.05178 23.5352 6.88462C23.4068 6.75621 23.2786 6.62767 23.1504 6.49908C23.0888 6.43734 23.0272 6.37562 22.9655 6.31394C22.8796 6.22788 22.7938 6.14165 22.708 6.05537C22.6824 6.02977 22.6568 6.00418 22.6304 5.97782C22.4321 5.77765 22.3925 5.6869 22.3926 5.4035C22.3928 5.36565 22.3931 5.32779 22.3934 5.28879C22.3934 5.25395 22.3935 5.21911 22.3935 5.18322C22.3938 5.05297 22.3945 4.92273 22.3952 4.79248C22.3962 4.50131 22.3972 4.21015 22.3983 3.91016Z" fill="#E3021E"/>
</g>
<defs>
<clipPath id="clip0_2508_12252">
<rect width="26" height="26" fill="white" transform="translate(3)"/>
</clipPath>
</defs>
</svg>
