<svg width="70" height="46" viewBox="0 0 70 46" fill="none" xmlns="http://www.w3.org/2000/svg">
<path fill-rule="evenodd" clip-rule="evenodd" d="M36.7813 15.111H36.8496C38.7371 15.111 39.9892 14.9852 40.5839 14.7411C41.6107 14.3138 42.1186 13.3095 42.1186 11.7189C42.1186 9.80826 41.7751 8.59494 41.0862 8.06227C40.5014 7.60604 39.1994 7.37854 37.1802 7.37978H22.5903V11.4C27.379 12.2139 32.8317 13.7621 37.5 15.1056M13.5169 9.64242C13.5169 13.7985 13.5169 0 13.5169 0H39.3724C42.3513 0 44.4991 0.164611 45.7956 0.503082C48.1669 1.11961 49.733 2.4143 50.4939 4.38718C51.0184 5.75092 51.2807 7.55734 51.2807 9.80641C51.2807 13.4118 50.4324 15.8163 48.7357 17.0197C47.8936 17.6208 47.129 18.6954 46.5196 18.3533C55.8091 23.4784 55.8091 23.9501 63.0708 30.0407L53.5578 30.0037C43.0586 22.0617 31.7924 13.4713 0.499878 9.7C0.499878 9.7 6.49988 9.35107 13.5169 9.9C13.5169 9.9 13.5169 9.52864 13.5169 9.64242Z" fill="white"/>
<path d="M43.5 29.9982H39.4665C35.8453 27.1097 31.9531 24.5794 27.8445 22.4427H22.5848V29.9982H13.5132V15.9168C10.5996 14.4314 8.08941 13.7127 5.5 12.8511C2.74523 11.9344 0 10.9218 0 10.9218C8.62693 12.0152 16.1784 13.9775 22.5848 16.2404C39.199 22.109 48.1113 29.9997 48.1059 30.0038" fill="white"/>
<path d="M1.27985 40.8608V44.4341H0V36.2738H5.62357C6.45833 36.2738 7.11149 36.4748 7.58304 36.8768C7.81996 37.0842 8.00673 37.3428 8.12927 37.6331C8.2518 37.9234 8.30689 38.2378 8.29037 38.5525C8.30182 39.1075 8.10399 39.6464 7.73633 40.0618C7.36008 40.4889 6.84279 40.766 6.27919 40.8423L8.54523 44.4341H7.15827L4.84421 40.8608H1.27985ZM1.27985 39.6641H5.62357C5.98266 39.688 6.33893 39.5867 6.63193 39.3774C6.74967 39.2762 6.84244 39.149 6.90299 39.0059C6.96354 38.8628 6.99023 38.7076 6.98098 38.5525C6.99139 38.3975 6.96522 38.2422 6.90458 38.0992C6.84394 37.9563 6.75054 37.8296 6.63193 37.7295C6.33806 37.5223 5.98212 37.4224 5.62357 37.4465H1.27985V39.6641Z" fill="white"/>
<path d="M10.6211 36.2738H11.9028V41.5137C11.9028 42.2979 12.0875 42.8287 12.4568 43.1024C12.8262 43.3762 13.5649 43.5149 14.6564 43.5149C15.7479 43.5149 16.5032 43.378 16.8726 43.1024C17.2419 42.8269 17.4266 42.2979 17.4266 41.5137V36.2738H18.6991V41.8484C18.6991 42.8509 18.3814 43.5753 17.7461 44.0217C17.1108 44.468 16.0766 44.6918 14.6435 44.6931C13.2165 44.6931 12.1897 44.473 11.563 44.0328C10.9363 43.5926 10.6223 42.8645 10.6211 41.8484V36.2738Z" fill="white"/>
<path d="M21.5173 44.4341V36.2738H22.799V39.9045L27.1224 36.2738H28.8067L25.3827 39.1758L29.322 44.4341H27.887L24.4722 39.923L22.7879 41.3509V44.4341H21.5173Z" fill="white"/>
<path d="M32.0773 40.6314V44.4341H30.7957V36.2498H32.0773V39.4292H37.8154V36.2498H39.0879V44.4286H37.8154V40.6314H32.0773Z" fill="white"/>
<path d="M41.8804 44.434V36.2349H43.1731V44.434H41.8804Z" fill="white"/>
<path d="M48.3461 44.4341V40.2578L44.6248 36.2498H46.2647L48.9722 39.1518L51.6371 36.2498H53.338L49.6001 40.2338V44.4286L48.3461 44.4341Z" fill="white"/>
<path d="M52.2095 44.4341L56.3611 36.2498H57.1608L61.3494 44.4286H59.9809L58.9245 42.3534H54.6103L53.5576 44.4323L52.2095 44.4341ZM55.1644 41.2732H58.3594L56.7711 38.1419L55.1644 41.2732Z" fill="white"/>
<path d="M61.8704 43.3909L62.4909 42.3181C63.0587 42.6973 63.6774 42.9937 64.3285 43.1985C64.9425 43.4014 65.5841 43.5081 66.2307 43.5148C66.9583 43.5148 67.5438 43.3668 67.9907 43.0691C68.1926 42.9536 68.3606 42.7871 68.4779 42.5862C68.5953 42.3852 68.6578 42.1569 68.6593 41.9242C68.6683 41.7103 68.6154 41.4984 68.507 41.314C68.3985 41.1296 68.2391 40.9805 68.048 40.8847C67.6404 40.6591 66.9965 40.5358 66.1162 40.5148C64.6289 40.4963 63.6088 40.3237 63.056 39.9969C62.5032 39.6702 62.2256 39.1307 62.2231 38.3786C62.2187 38.0413 62.3003 37.7085 62.4603 37.4117C62.6203 37.1149 62.8533 36.8639 63.1373 36.6825C63.7529 36.2546 64.5704 36.0407 65.5899 36.0407C66.2816 36.0396 66.9697 36.14 67.6324 36.3385C68.3033 36.5413 68.9433 36.8351 69.5347 37.2115L68.8994 38.2842C68.3914 37.9411 67.8374 37.6721 67.2538 37.4852C66.7111 37.3038 66.1435 37.2084 65.5714 37.2022C65.0542 37.1793 64.54 37.2915 64.0792 37.5278C63.7024 37.7435 63.514 38.0278 63.514 38.3804C63.5113 38.5541 63.5655 38.7238 63.6682 38.8638C63.7709 39.0037 63.9166 39.1061 64.0829 39.1554C64.4633 39.3089 65.1208 39.3866 66.0589 39.3866C67.3591 39.3866 68.341 39.6067 69.0046 40.0469C69.6682 40.4871 69.9994 41.1418 69.9982 42.0111C69.9989 42.3899 69.9074 42.7632 69.7318 43.0987C69.5561 43.4341 69.3014 43.7217 68.9898 43.9365C68.3176 44.447 67.4459 44.7022 66.3748 44.7022C65.5765 44.7015 64.7824 44.5869 64.0164 44.3619C63.2582 44.1432 62.5354 43.8161 61.8704 43.3909Z" fill="white"/>
</svg>
