<svg width="24" height="24" viewBox="0 0 24 24" fill="none" xmlns="http://www.w3.org/2000/svg">
<path d="M9.07042 3.30317C9.17996 3.30304 9.2895 3.30286 9.39905 3.30263C9.62711 3.30235 9.85517 3.30275 10.0832 3.30363C10.3751 3.3047 10.667 3.30408 10.9589 3.30296C11.1845 3.30228 11.41 3.3025 11.6356 3.30298C11.7433 3.30311 11.8509 3.30296 11.9586 3.30252C12.1088 3.30204 12.2589 3.30277 12.4091 3.30381C12.4752 3.30324 12.4752 3.30324 12.5427 3.30266C12.8588 3.30672 13.0621 3.372 13.3003 3.59046C13.5322 3.89033 13.5454 4.17634 13.4999 4.54682C13.394 4.79716 13.2399 5.0017 12.9843 5.10932C12.8545 5.14737 12.739 5.16211 12.604 5.16235C12.5659 5.16254 12.5279 5.16273 12.4887 5.16292C12.4474 5.1629 12.4061 5.16287 12.3635 5.16285C12.3196 5.16301 12.2758 5.16317 12.2306 5.16334C12.1354 5.16369 12.0401 5.16394 11.9449 5.1641C11.7936 5.16444 11.6424 5.16518 11.4912 5.16604C11.0613 5.1685 10.6313 5.17075 10.2014 5.17148C9.93825 5.17195 9.67514 5.17333 9.41202 5.17529C9.31218 5.17586 9.21233 5.17611 9.11249 5.176C8.30507 5.17536 7.64853 5.22583 7.03136 5.80677C6.59788 6.26821 6.45362 6.80599 6.45645 7.42487C6.45627 7.46717 6.45609 7.50947 6.45591 7.55305C6.45543 7.6937 6.45561 7.83434 6.4558 7.97499C6.45559 8.07628 6.45535 8.17757 6.45507 8.27885C6.45445 8.55323 6.45442 8.8276 6.45454 9.10198C6.45459 9.33134 6.45436 9.5607 6.45413 9.79006C6.45361 10.3313 6.45359 10.8726 6.45388 11.4138C6.45416 11.9715 6.45358 12.5292 6.45258 13.0869C6.45176 13.5664 6.45148 14.0459 6.45163 14.5253C6.45171 14.8114 6.45159 15.0975 6.45094 15.3836C6.45035 15.6527 6.45044 15.9217 6.45105 16.1908C6.45116 16.2893 6.45104 16.3878 6.45065 16.4863C6.44167 17.1854 6.44167 17.1854 6.6093 17.8593C6.62894 17.9101 6.62894 17.9101 6.64899 17.9619C6.83668 18.4138 7.24135 18.7944 7.68742 18.9843C8.14297 19.1665 8.61629 19.1449 9.09828 19.1442C9.24925 19.144 9.40019 19.1447 9.55116 19.1455C9.92572 19.1475 10.3003 19.1481 10.6748 19.1486C10.9923 19.1492 11.3098 19.1503 11.6273 19.1521C11.7757 19.1528 11.9241 19.1526 12.0725 19.1524C12.1637 19.1528 12.2548 19.1533 12.346 19.1538C12.4075 19.1534 12.4075 19.1534 12.4702 19.1529C12.786 19.1561 13.0085 19.2119 13.2538 19.4238C13.4885 19.6975 13.5255 19.8856 13.5162 20.2423C13.4864 20.514 13.3727 20.6735 13.1689 20.8535C13.0016 20.9744 12.8889 21.0057 12.688 21.0068C12.6466 21.0072 12.6052 21.0075 12.5626 21.0079C12.5173 21.008 12.472 21.0081 12.4253 21.0082C12.3775 21.0086 12.3297 21.0089 12.2804 21.0092C12.1217 21.0101 11.9631 21.0107 11.8044 21.0111C11.7229 21.0114 11.7229 21.0114 11.6397 21.0117C11.3517 21.0127 11.0637 21.0133 10.7757 21.0138C10.4795 21.0143 10.1834 21.0159 9.88725 21.0178C9.6585 21.019 9.42976 21.0194 9.20101 21.0196C9.09195 21.0198 8.98289 21.0203 8.87384 21.0212C7.63048 21.0305 6.63811 20.7539 5.71867 19.8749C5.68925 19.849 5.65982 19.8231 5.6295 19.7964C4.98444 19.2069 4.62234 18.2418 4.57625 17.3803C4.56716 17.1017 4.56828 16.8232 4.56941 16.5445C4.56916 16.4381 4.56882 16.3317 4.56842 16.2253C4.56757 15.9385 4.56789 15.6517 4.56849 15.3649C4.56896 15.0635 4.56852 14.762 4.56823 14.4605C4.56786 13.9221 4.56844 13.3837 4.5694 12.8453C4.57024 12.3588 4.57009 11.8723 4.56923 11.3857C4.56822 10.8185 4.56785 10.2512 4.56841 9.68398C4.5687 9.38454 4.56874 9.0851 4.56812 8.78566C4.56757 8.50401 4.56796 8.22238 4.56903 7.94073C4.56928 7.83796 4.56921 7.73519 4.5688 7.63242C4.56611 6.90309 4.59709 6.16875 4.95695 5.51362C4.97313 5.48294 4.9893 5.45227 5.00597 5.42066C5.39721 4.69688 5.93034 4.14099 6.65617 3.74995C6.71898 3.71605 6.71898 3.71605 6.78306 3.68147C7.52329 3.31524 8.26251 3.29986 9.07042 3.30317Z" fill="white"/>
<path d="M16.2064 7.99979C16.7133 8.30003 17.144 8.83961 17.559 9.25439C17.6229 9.31814 17.6868 9.38189 17.7507 9.44563C17.8834 9.57811 18.0161 9.71068 18.1487 9.84331C18.3183 10.0129 18.4881 10.1821 18.6581 10.3513C18.7897 10.4823 18.921 10.6136 19.0523 10.7449C19.1149 10.8074 19.1776 10.8699 19.2403 10.9322C19.3277 11.0192 19.4149 11.1065 19.502 11.1939C19.5276 11.2193 19.5532 11.2446 19.5796 11.2707C19.8407 11.5339 20.0209 11.774 20.0272 12.1553C20.029 12.2203 20.029 12.2203 20.0309 12.2866C19.9624 12.8894 19.1801 13.4547 18.772 13.8657C18.7399 13.8981 18.7078 13.9305 18.6747 13.9638C18.505 14.1348 18.3352 14.3055 18.1652 14.4762C18.0254 14.6165 17.886 14.7572 17.7469 14.8983C17.5777 15.0698 17.4078 15.2408 17.2376 15.4114C17.1733 15.476 17.1092 15.5409 17.0453 15.6059C16.2611 16.4032 16.2611 16.4032 15.788 16.4297C15.491 16.3908 15.2644 16.2838 15.0468 16.0782C14.8728 15.8297 14.8141 15.5843 14.8593 15.2813C14.9914 14.9173 15.211 14.663 15.4857 14.3976C15.5228 14.3608 15.5599 14.3241 15.5982 14.2861C15.7156 14.17 15.8338 14.0548 15.952 13.9395C16.0323 13.8604 16.1125 13.7812 16.1927 13.702C16.3882 13.5091 16.5844 13.3168 16.7811 13.1251C16.7476 13.1249 16.714 13.1248 16.6794 13.1247C15.8625 13.1219 15.0457 13.1184 14.2288 13.114C13.8337 13.1119 13.4387 13.1101 13.0436 13.1088C12.6993 13.1077 12.355 13.1062 12.0106 13.104C11.8283 13.1029 11.646 13.102 11.4637 13.1017C11.292 13.1014 11.1204 13.1005 10.9487 13.0991C10.8558 13.0985 10.763 13.0985 10.6701 13.0987C10.5867 13.0978 10.5867 13.0978 10.5016 13.0969C10.4535 13.0967 10.4053 13.0964 10.3557 13.0962C10.0733 13.0591 9.8851 12.9148 9.703 12.7032C9.52968 12.4522 9.53152 12.2008 9.56238 11.9063C9.64654 11.6328 9.85207 11.4623 10.078 11.2969C10.2254 11.2478 10.3299 11.2436 10.4847 11.2426C10.5401 11.2422 10.5955 11.2417 10.6526 11.2412C10.7134 11.241 10.7743 11.2407 10.837 11.2404C10.9017 11.24 10.9664 11.2395 11.031 11.239C11.2067 11.2378 11.3824 11.2368 11.558 11.2358C11.7416 11.2348 11.9252 11.2335 12.1087 11.2323C12.4563 11.2299 12.804 11.2278 13.1516 11.2258C13.5473 11.2235 13.9431 11.2209 14.3388 11.2183C15.1529 11.213 15.967 11.208 16.7811 11.2032C16.7598 11.1824 16.7385 11.1616 16.7165 11.1402C16.4938 10.9226 16.2719 10.7042 16.0504 10.4854C15.9678 10.4039 15.885 10.3227 15.8019 10.2416C15.6822 10.1248 15.5633 10.0072 15.4445 9.8894C15.389 9.83576 15.389 9.83576 15.3324 9.78104C15.0682 9.51698 14.8572 9.23942 14.8387 8.85357C14.8719 8.56035 14.9749 8.31636 15.1874 8.10943C15.5198 7.9119 15.8365 7.84681 16.2064 7.99979Z" fill="white"/>
</svg>
