<svg width="24" height="24" viewBox="0 0 24 24" fill="none" xmlns="http://www.w3.org/2000/svg">
<path d="M13.6562 1.04694C14.2883 1.5295 14.7765 2.19319 15.0244 2.95306C15.1382 3.11092 15.3207 3.16358 15.4957 3.23839C17.0166 3.92142 18.2303 5.16664 18.8261 6.72871C19.1992 7.80543 19.3355 8.88451 19.3578 10.0186C19.4018 12.1506 19.5459 14.0585 20.9471 15.76C21.538 16.4779 21.8816 16.9287 21.7949 17.8875C21.7003 18.3816 21.4133 18.7366 21.0247 19.0458C20.4812 19.41 19.9237 19.3926 19.2962 19.3869C19.2027 19.3866 19.1093 19.3864 19.0158 19.3863C18.7712 19.3857 18.5266 19.3842 18.282 19.3825C18.0318 19.3809 17.7817 19.3802 17.5315 19.3794C17.0417 19.3778 16.5518 19.3752 16.062 19.3719C16.0626 19.4291 16.0626 19.4291 16.0633 19.4875C16.0636 19.5378 16.064 19.5881 16.0643 19.6399C16.065 19.7146 16.065 19.7146 16.0656 19.7907C16.0405 20.7772 15.488 21.6959 14.807 22.3715C13.941 23.1896 12.8822 23.4931 11.7169 23.4777C10.6103 23.4447 9.62928 22.9271 8.87358 22.1362C8.2851 21.4474 7.86375 20.5815 7.87004 19.6637C7.87033 19.6089 7.87061 19.5541 7.87091 19.4976C7.87147 19.4354 7.87147 19.4354 7.87204 19.3719C7.82017 19.3725 7.76831 19.3731 7.71488 19.3737C7.22394 19.3789 6.733 19.3827 6.24204 19.3852C5.98969 19.3865 5.73735 19.3883 5.48501 19.3912C5.24107 19.394 4.99714 19.3956 4.75319 19.3962C4.66054 19.3967 4.5679 19.3976 4.47526 19.399C3.78979 19.4089 3.20971 19.3541 2.68914 18.8541C2.29586 18.43 2.08878 18.0132 2.08789 17.4268C2.13935 16.8262 2.42853 16.4078 2.81493 15.969C4.30905 14.2698 4.51875 12.3588 4.56471 10.1634C4.61109 7.982 5.0727 5.91935 6.69553 4.35611C7.20817 3.90118 7.76229 3.56139 8.37291 3.25278C8.4099 3.23407 8.44689 3.21536 8.48501 3.19608C8.57616 3.15169 8.66938 3.1116 8.76281 3.07223C8.93157 2.97046 8.96029 2.89167 9.02375 2.70732C9.22842 2.16909 9.5164 1.7641 9.91952 1.35406C9.95218 1.32074 9.98484 1.28742 10.0185 1.25309C11.0164 0.309146 12.5484 0.321117 13.6562 1.04694ZM10.9333 2.71612C10.7276 2.98851 10.5994 3.30344 10.4628 3.61429C10.1713 4.24686 9.77405 4.48639 9.15986 4.76567C7.99852 5.296 7.1072 6.2176 6.65734 7.41714C6.3257 8.36335 6.2738 9.31791 6.25124 10.3112C6.19183 12.9181 5.80871 15.0347 4.11078 17.0669C4.0735 17.1118 4.03622 17.1566 3.99781 17.2029C3.96488 17.2415 3.93196 17.2802 3.89804 17.32C3.80958 17.4341 3.80958 17.4341 3.82825 17.6316C3.95825 17.6966 4.04836 17.6892 4.19395 17.6893C4.25008 17.6895 4.30621 17.6897 4.36404 17.6898C4.42621 17.6898 4.48838 17.6897 4.55243 17.6896C4.61808 17.6897 4.68373 17.6898 4.75137 17.6899C4.9342 17.6903 5.11702 17.6903 5.29985 17.6902C5.49678 17.6902 5.69372 17.6905 5.89065 17.6907C6.27669 17.6911 6.66272 17.6913 7.04875 17.6913C7.36237 17.6913 7.67599 17.6914 7.98961 17.6916C8.87792 17.692 9.76622 17.6923 10.6545 17.6922C10.7264 17.6922 10.7264 17.6922 10.7997 17.6922C10.8477 17.6922 10.8957 17.6922 10.9452 17.6922C11.7233 17.6922 12.5014 17.6927 13.2795 17.6934C14.0776 17.6942 14.8757 17.6945 15.6738 17.6945C16.1222 17.6945 16.5707 17.6946 17.0191 17.6951C17.4008 17.6956 17.7825 17.6957 18.1642 17.6954C18.3591 17.6952 18.554 17.6952 18.7489 17.6956C18.9598 17.6961 19.1707 17.6958 19.3816 17.6954C19.4748 17.6958 19.4748 17.6958 19.57 17.6962C19.6261 17.696 19.6822 17.6957 19.7401 17.6955C19.8132 17.6955 19.8132 17.6955 19.8877 17.6955C20.0137 17.6938 20.0137 17.6938 20.1058 17.5804C20.0882 17.4125 20.0195 17.3174 19.9108 17.1923C19.8665 17.1403 19.8665 17.1403 19.8213 17.0873C19.7895 17.0505 19.7578 17.0137 19.7251 16.9757C18.1073 15.051 17.7301 12.8768 17.6851 10.4207C17.6545 8.77058 17.468 7.21594 16.3691 5.90972C16.3415 5.87692 16.3139 5.84413 16.2855 5.81034C15.8119 5.29741 15.1858 4.96831 14.5643 4.67253C13.9762 4.39202 13.625 4.07997 13.3984 3.46173C13.2241 3.00026 12.972 2.60838 12.5397 2.34901C11.9472 2.0818 11.369 2.24369 10.9333 2.71612ZM9.56121 19.3719C9.56121 20.0998 9.78063 20.6055 10.2828 21.1199C10.7981 21.6088 11.3611 21.7981 12.0622 21.7967C12.6756 21.7797 13.2465 21.5162 13.6946 21.0995C14.1484 20.6115 14.3728 20.0327 14.3728 19.3719C12.785 19.3719 11.1972 19.3719 9.56121 19.3719Z" fill="#EBEBEB"/>
</svg>
