<svg width="24" height="24" viewBox="0 0 24 24" fill="none" xmlns="http://www.w3.org/2000/svg">
<path d="M9.27943 13.0232C9.34575 13.0231 9.41206 13.0229 9.47838 13.0227C9.65601 13.0223 9.83362 13.0225 10.0112 13.0228C10.1987 13.023 10.3862 13.0228 10.5736 13.0226C10.8882 13.0225 11.2027 13.0227 11.5173 13.0231C11.879 13.0236 12.2407 13.0235 12.6024 13.023C12.9151 13.0225 13.2278 13.0225 13.5404 13.0227C13.7263 13.0229 13.9121 13.0229 14.0979 13.0226C14.2727 13.0223 14.4476 13.0225 14.6224 13.023C14.7157 13.0232 14.8091 13.023 14.9024 13.0227C15.5423 13.0256 15.9874 13.0515 16.6015 13.2313C17.6032 13.5235 18.5319 14.0348 19.2728 14.7757C20.8797 16.4243 20.9761 19.5304 21.0154 21.0897C21.0143 21.4226 21.005 21.9548 20.9528 22.0591C20.7754 22.4765 20.505 22.6847 20.2015 22.6748C19.867 22.7165 19.5143 22.4999 19.3041 22.2365C19.0733 21.8613 18.9735 21.2763 18.9665 20.8445C18.95 19.4918 18.7673 17.3037 17.791 16.247C17.107 15.5977 16.1183 15.1408 15.1702 15.1382C15.1123 15.1379 15.0544 15.1376 14.9948 15.1373C14.9315 15.1373 14.8682 15.1372 14.8049 15.1372C14.7376 15.137 14.6702 15.1367 14.6029 15.1365C14.4206 15.1359 14.2383 15.1356 14.056 15.1354C13.9418 15.1352 13.8277 15.135 13.7135 15.1348C13.3554 15.1342 12.9973 15.1337 12.6392 15.1335C12.2274 15.1333 11.8156 15.1325 11.4039 15.1311C11.0845 15.1301 10.7652 15.1297 10.4459 15.1296C10.2557 15.1295 10.0654 15.1293 9.87523 15.1284C9.69597 15.1277 9.51672 15.1276 9.33746 15.128C9.2722 15.128 9.20694 15.1278 9.14168 15.1273C8.03831 15.1199 7.018 15.491 6.20715 16.2503C5.44012 17.0126 5.06066 19.4922 5.05409 20.8487C5.05409 21.2765 4.95631 21.913 4.69904 22.2365C4.49267 22.496 4.13834 22.721 3.7967 22.6643C3.44706 22.5643 3.22336 22.4765 3.04406 22.0591C2.99676 21.9514 2.98746 21.3594 2.98621 21.2425C2.95209 19.0602 3.11914 16.4295 4.7223 14.7774C5.46959 14.0358 6.39121 13.5268 7.40022 13.2346C8.00971 13.0537 8.64713 13.0212 9.27943 13.0232Z" fill="white"/>
<path d="M15.2796 2.22515C16.2256 3.04624 16.9058 4.2249 17.0147 5.48845C17.1092 6.9445 16.7544 8.26115 15.7959 9.37908C15.7623 9.42204 15.7623 9.42204 15.728 9.46587C15.0209 10.3533 13.811 10.9115 12.7022 11.0666C11.6453 11.1431 10.6461 11.0572 9.70217 10.551C9.65763 10.5288 9.6131 10.5066 9.56722 10.4838C9.25207 10.322 8.98698 10.1237 8.71779 9.8947C8.68661 9.87035 8.65543 9.846 8.62331 9.82091C7.68034 9.06002 7.11454 7.79605 6.98342 6.61345C6.88446 5.21917 7.22264 3.90786 8.12599 2.82537C9.95151 0.722103 13.1312 0.428062 15.2796 2.22515ZM9.64357 4.20525C9.1046 4.915 8.98167 5.69649 9.04592 6.56658C9.13672 7.22331 9.47818 7.74646 9.93654 8.2072C9.96428 8.23657 9.99201 8.26594 10.0206 8.29619C10.5376 8.80064 11.2912 9.04419 11.999 9.06853C12.8363 9.03974 13.5774 8.71817 14.1553 8.11345C14.1997 8.0704 14.1997 8.0704 14.245 8.02648C14.8014 7.45171 14.976 6.69364 14.972 5.91979C14.9515 5.13027 14.6061 4.45926 14.0615 3.8947C13.3713 3.28742 12.5923 3.03408 11.6819 3.08792C10.8723 3.16449 10.1684 3.59645 9.64357 4.20525Z" fill="white"/>
</svg>
