<svg width="98" height="64" viewBox="0 0 98 64" fill="none" xmlns="http://www.w3.org/2000/svg">
<path fill-rule="evenodd" clip-rule="evenodd" d="M54.4951 20.9583H54.5908C57.2332 20.9583 58.9863 20.7838 59.8189 20.4452C61.2565 19.8526 61.9675 18.4597 61.9675 16.2535C61.9675 13.6036 61.4866 11.9208 60.5221 11.182C59.7034 10.5492 57.8805 10.2337 55.0536 10.2354H34.6272V15.8113C41.3316 16.9402 48.9656 19.0875 55.5013 20.9508M21.9241 13.3736C21.9241 19.138 21.9241 0 21.9241 0H58.1227C62.2933 0 65.3004 0.228309 67.1155 0.697753C70.4354 1.55284 72.628 3.34853 73.6933 6.08482C74.4276 7.97628 74.7947 10.4817 74.7947 13.6011C74.7947 18.6016 73.6071 21.9365 71.2318 23.6056C70.0527 24.4393 68.9823 25.9297 68.129 25.4552C81.1347 32.5635 81.1347 33.2177 91.3013 41.6651L77.9828 41.6138C63.2836 30.5985 47.5105 18.6841 3.69983 13.4535C3.69983 13.4535 12.1 12.9695 21.9241 13.7309C21.9241 13.7309 21.9241 13.2158 21.9241 13.3736Z" fill="#14141B"/>
<path d="M63.9015 41.6061H58.2545C53.1846 37.5999 47.7354 34.0905 41.9833 31.127H34.6195V41.6061H21.9189V22.0759C17.8398 20.0156 14.3255 19.0189 10.7002 17.8238C6.84343 16.5524 3 15.1479 3 15.1479C15.078 16.6646 25.6504 19.3861 34.6195 22.5246C57.88 30.6641 70.3575 41.6083 70.35 41.6138" fill="#14141B"/>
<path d="M1.79183 56.6719V61.628H0V50.3101H7.87319C9.04189 50.3101 9.95634 50.5888 10.6165 51.1463C10.9482 51.434 11.2097 51.7927 11.3813 52.1953C11.5528 52.5979 11.6299 53.034 11.6068 53.4705C11.6228 54.2402 11.3459 54.9876 10.8311 55.5637C10.3044 56.1561 9.58015 56.5404 8.79109 56.6463L11.9636 61.628H10.0218L6.78206 56.6719H1.79183ZM1.79183 55.0122H7.87319C8.37593 55.0453 8.87473 54.9048 9.28494 54.6146C9.44978 54.4742 9.57966 54.2978 9.66444 54.0994C9.74921 53.9009 9.78657 53.6856 9.77362 53.4705C9.7882 53.2555 9.75156 53.0401 9.66666 52.8418C9.58176 52.6435 9.45099 52.4678 9.28494 52.3289C8.87351 52.0416 8.37518 51.9031 7.87319 51.9364H1.79183V55.0122Z" fill="#14141B"/>
<path d="M14.8699 50.3101H16.6643V57.5775C16.6643 58.6651 16.9229 59.4014 17.44 59.781C17.9571 60.1607 18.9913 60.3531 20.5194 60.3531C22.0475 60.3531 23.1051 60.1633 23.6222 59.781C24.1393 59.3988 24.3979 58.6651 24.3979 57.5775V50.3101H26.1793V58.0418C26.1793 59.4322 25.7346 60.4369 24.8452 61.056C23.9557 61.6751 22.5078 61.9855 20.5013 61.9872C18.5035 61.9872 17.0659 61.6819 16.1885 61.0714C15.3112 60.4608 14.8716 59.451 14.8699 58.0418V50.3101Z" fill="#14141B"/>
<path d="M30.125 61.628V50.3101H31.9194V55.3457L37.9723 50.3101H40.3304L35.5367 54.335L41.0518 61.628H39.0428L34.262 55.3713L31.9039 57.3517V61.628H30.125Z" fill="#14141B"/>
<path d="M44.9094 56.354V61.6282H43.115V50.2769H44.9094V54.6866H52.9429V50.2769H54.7244V61.6205H52.9429V56.354H44.9094Z" fill="#14141B"/>
<path d="M58.634 61.6282V50.2563H60.444V61.6282H58.634Z" fill="#14141B"/>
<path d="M67.6862 61.6282V55.8358L62.4762 50.2769H64.7722L68.5627 54.3018L72.2938 50.2769H74.6751L69.4418 55.8024V61.6205L67.6862 61.6282Z" fill="#14141B"/>
<path d="M73.0951 61.6282L78.9076 50.2769H80.0271L85.8913 61.6205H83.9753L82.4964 58.7422H76.4564L74.9826 61.6256L73.0951 61.6282ZM77.2321 57.2441H81.7052L79.4816 52.9011L77.2321 57.2441Z" fill="#14141B"/>
<path d="M86.6207 60.1812L87.4895 58.6934C88.2844 59.2192 89.1506 59.6304 90.0622 59.9144C90.9218 60.1958 91.8202 60.3438 92.7254 60.3531C93.7441 60.3531 94.5637 60.1479 95.1895 59.7349C95.4721 59.5748 95.7073 59.3438 95.8716 59.0651C96.0358 58.7864 96.1234 58.4698 96.1254 58.1469C96.1381 57.8504 96.0641 57.5565 95.9122 57.3007C95.7604 57.0449 95.5372 56.8381 95.2696 56.7053C94.699 56.3923 93.7975 56.2213 92.565 56.1922C90.4828 56.1666 89.0547 55.9271 88.2807 55.4739C87.5067 55.0207 87.118 54.2725 87.1146 53.2293C87.1084 52.7616 87.2227 52.3 87.4467 51.8883C87.6707 51.4766 87.9969 51.1285 88.3945 50.877C89.2563 50.2835 90.4009 49.9868 91.8282 49.9868C92.7966 49.9854 93.76 50.1245 94.6878 50.3998C95.627 50.6812 96.523 51.0886 97.351 51.6106L96.4616 53.0985C95.7505 52.6226 94.9748 52.2495 94.1578 51.9903C93.398 51.7388 92.6033 51.6063 91.8023 51.5978C91.0782 51.566 90.3583 51.7216 89.7131 52.0493C89.1857 52.3486 88.9219 52.7428 88.9219 53.2319C88.9182 53.4728 88.994 53.7082 89.1378 53.9023C89.2816 54.0964 89.4855 54.2384 89.7183 54.3067C90.2509 54.5197 91.1714 54.6274 92.4849 54.6274C94.3052 54.6274 95.6799 54.9327 96.609 55.5432C97.538 56.1537 98.0017 57.0618 98 58.2675C98.001 58.7929 97.8729 59.3106 97.627 59.7759C97.381 60.2412 97.0245 60.6401 96.5883 60.938C95.6471 61.646 94.4267 62 92.927 62C91.8094 61.9989 90.6977 61.84 89.6252 61.528C88.5637 61.2246 87.5518 60.771 86.6207 60.1812Z" fill="#14141B"/>
</svg>
