<svg width="32" height="32" viewBox="0 0 32 32" fill="none" xmlns="http://www.w3.org/2000/svg">
<g clip-path="url(#clip0_2508_12264)">
<path d="M16 1.21875C16.0619 1.21778 16.0619 1.21778 16.125 1.2168C16.3093 1.26575 16.3815 1.3522 16.5 1.5C16.5244 1.68848 16.5244 1.68848 16.5156 1.89062C16.5134 1.95798 16.5111 2.02533 16.5088 2.09473C16.5059 2.14597 16.503 2.19721 16.5 2.25C16.559 2.24944 16.6179 2.24889 16.6786 2.24832C17.2341 2.24325 17.7895 2.2395 18.345 2.23705C18.6306 2.23574 18.9162 2.23397 19.2017 2.23114C19.4773 2.22842 19.7528 2.22693 20.0284 2.22628C20.1336 2.22582 20.2387 2.22492 20.3439 2.22357C20.4911 2.22175 20.6383 2.2215 20.7856 2.22162C20.8509 2.22027 20.8509 2.22027 20.9175 2.21889C21.1243 2.22066 21.2335 2.2378 21.4016 2.36242C21.5198 2.52772 21.543 2.65907 21.5325 2.86148C21.4676 3.13802 21.289 3.35042 21.1211 3.57422C21.0492 3.67084 20.9781 3.76808 20.908 3.86597C20.8762 3.90828 20.8445 3.95059 20.8118 3.99419C20.729 4.16956 20.7528 4.25531 20.8125 4.4375C20.8808 4.56467 20.8808 4.56467 20.969 4.68286C20.9998 4.72754 21.0306 4.77221 21.0624 4.81824C21.1273 4.91039 21.1927 5.0022 21.2587 5.09363C21.4761 5.41142 21.5615 5.61347 21.5 6C21.4017 6.13771 21.4017 6.13771 21.25 6.25C21.0862 6.27341 20.949 6.28176 20.7856 6.27838C20.716 6.27844 20.716 6.27844 20.6451 6.27849C20.4922 6.27832 20.3394 6.27637 20.1865 6.27441C20.0804 6.27395 19.9742 6.27359 19.8681 6.27334C19.589 6.27239 19.31 6.26993 19.0309 6.26717C18.746 6.26461 18.4612 6.26347 18.1763 6.26221C17.6175 6.25953 17.0588 6.25526 16.5 6.25C16.319 7.03644 16.104 7.61219 16.5 8.3125C17.0056 9.11671 18.0415 10.0276 18.9945 10.2512C20.3349 10.5151 21.7618 10.4062 23.1175 10.3482C23.8351 10.3177 24.5532 10.3035 25.2713 10.29C25.3777 10.2879 25.4841 10.2859 25.5905 10.2839C25.6684 10.2825 25.6684 10.2825 25.7479 10.281C26.0547 10.2749 26.3612 10.2655 26.6678 10.2529C26.8575 10.2453 27.0471 10.2395 27.2368 10.2339C27.3244 10.2309 27.4121 10.2271 27.4997 10.2225C28.1615 10.1878 28.1615 10.1878 28.384 10.3441C28.4801 10.4543 28.5538 10.5602 28.625 10.6875C28.6572 10.7327 28.6894 10.7778 28.7225 10.8244C28.7464 10.8631 28.7703 10.9018 28.7949 10.9417C28.8371 11.0092 28.8371 11.0092 28.8801 11.0782C28.9094 11.1259 28.9386 11.1735 28.9688 11.2227C29.0346 11.3285 29.1006 11.4343 29.1665 11.54C29.2006 11.5949 29.2347 11.6499 29.2698 11.7064C29.4462 11.9891 29.6255 12.2699 29.8047 12.5508C29.8787 12.6671 29.9528 12.7834 30.0269 12.8997C30.0637 12.9576 30.1006 13.0155 30.1386 13.0751C30.2489 13.2482 30.3591 13.4213 30.4692 13.5945C30.5053 13.6512 30.5414 13.7078 30.5786 13.7663C30.6509 13.8799 30.723 13.9936 30.7949 14.1074C30.9847 14.4072 31.1773 14.7045 31.3745 14.9995C31.4151 15.0611 31.4557 15.1226 31.4976 15.186C31.5752 15.3037 31.6538 15.4207 31.7334 15.5371C31.9541 15.8738 32.0708 16.0951 32 16.5C31.9175 16.5825 31.835 16.665 31.75 16.75C31.3375 16.75 30.925 16.75 30.5 16.75C30.5 21.04 30.5 25.33 30.5 29.75C30.9125 29.75 31.325 29.75 31.75 29.75C32 30 32 30 32.0332 30.125C32.0326 30.1663 32.0319 30.2075 32.0312 30.25C32.0319 30.2913 32.0325 30.3325 32.0332 30.375C31.983 30.5642 31.9055 30.6309 31.75 30.75C31.5681 30.7745 31.4099 30.7836 31.228 30.7815C31.1746 30.7818 31.1212 30.7822 31.0662 30.7826C30.886 30.7835 30.7059 30.7826 30.5258 30.7817C30.3958 30.782 30.2658 30.7824 30.1358 30.7829C29.7777 30.784 29.4197 30.7835 29.0615 30.7827C28.6757 30.7821 28.2899 30.783 27.9041 30.7837C27.1916 30.7847 26.4791 30.7846 25.7667 30.7839C25.1085 30.7833 24.4504 30.7832 23.7923 30.7835C23.7487 30.7835 23.705 30.7835 23.6601 30.7835C23.4831 30.7836 23.306 30.7837 23.129 30.7838C21.4674 30.7845 19.8058 30.7838 18.1442 30.7825C16.6673 30.7813 15.1903 30.7814 13.7134 30.7826C12.0549 30.7839 10.3964 30.7845 8.73789 30.7837C8.56117 30.7836 8.38444 30.7835 8.20772 30.7835C8.1642 30.7834 8.12069 30.7834 8.07585 30.7834C7.41805 30.7831 6.76026 30.7834 6.10246 30.7841C5.35469 30.7848 4.60692 30.7846 3.85915 30.7833C3.47735 30.7826 3.09556 30.7823 2.71376 30.7832C2.36464 30.7839 2.01554 30.7835 1.66641 30.7822C1.53974 30.7819 1.41306 30.782 1.28638 30.7826C1.1149 30.7834 0.943488 30.7826 0.772011 30.7815C0.697298 30.7823 0.697298 30.7823 0.621076 30.7832C0.397803 30.7802 0.274275 30.7686 0.094449 30.6308C-0.0078906 30.4891 -0.0339504 30.4228 -0.03125 30.25C-0.0318945 30.2087 -0.0325391 30.1675 -0.0332031 30.125C0 30 0 30 0.25 29.75C0.641875 29.75 1.03375 29.75 1.4375 29.75C1.4375 25.46 1.4375 21.17 1.4375 16.75C1.04563 16.75 0.65375 16.75 0.25 16.75C0 16.5 0 16.5 -0.0410156 16.2771C-0.0203337 15.9034 0.204647 15.619 0.40625 15.3164C0.469386 15.2187 0.469386 15.2187 0.533798 15.1189C0.622734 14.9814 0.712136 14.8441 0.801971 14.7071C0.975703 14.4416 1.1462 14.1741 1.3167 13.9065C1.44171 13.7105 1.56722 13.5147 1.69287 13.3191C1.88865 13.014 2.08339 12.7083 2.27763 12.4023C2.45551 12.1221 2.63391 11.8422 2.8125 11.5625C2.85038 11.5031 2.88825 11.4437 2.92728 11.3826C3.03972 11.2066 3.1526 11.031 3.26562 10.8555C3.29996 10.8017 3.3343 10.7479 3.36967 10.6924C3.4014 10.6433 3.43313 10.5943 3.46582 10.5437C3.49364 10.5004 3.52145 10.4571 3.55011 10.4125C3.625 10.3125 3.625 10.3125 3.75 10.25C3.87032 10.248 3.99071 10.2505 4.11097 10.2548C4.18791 10.2574 4.26486 10.2599 4.34414 10.2626C4.38584 10.2641 4.42755 10.2656 4.47053 10.2672C4.69915 10.2754 4.92781 10.2824 5.15648 10.2895C5.20538 10.291 5.25428 10.2925 5.30466 10.2941C5.99057 10.3148 6.67672 10.3242 7.36287 10.3338C7.91991 10.3419 8.47631 10.3541 9.033 10.3758C11.9495 10.5888 11.8842 11.1877 14.4375 10.0312C15.3547 9.10156 15.75 7.9375 15.6572 6.15908C15.6517 5.7223 15.6286 5.28716 15.6021 4.85122C15.5774 4.40313 15.5684 3.95448 15.5571 3.50589C15.548 3.15803 15.5367 2.81075 15.5183 2.46324C15.5153 2.40011 15.5123 2.33697 15.5093 2.27193C15.5037 2.15433 15.497 2.03678 15.4892 1.9193C15.4724 1.53769 15.4724 1.53769 15.6172 1.34018C15.7597 1.24343 15.8295 1.21609 16 1.21875Z" fill="#FED05C"/>
<path d="M16.0002 1.21875C16.0621 1.21778 16.0621 1.21778 16.1252 1.2168C16.3095 1.26575 16.3817 1.3522 16.5002 1.5C16.5246 1.68848 16.5246 1.68848 16.5158 1.89062C16.5136 1.95798 16.5113 2.02533 16.509 2.09473C16.5061 2.14597 16.5032 2.19721 16.5002 2.25C16.5592 2.24944 16.6181 2.24889 16.6789 2.24832C17.2343 2.24325 17.7898 2.2395 18.3452 2.23705C18.6308 2.23574 18.9164 2.23397 19.2019 2.23114C19.4775 2.22842 19.7531 2.22693 20.0286 2.22628C20.1338 2.22582 20.239 2.22492 20.3441 2.22357C20.4914 2.22175 20.6385 2.2215 20.7858 2.22162C20.8511 2.22027 20.8511 2.22027 20.9177 2.21889C21.1245 2.22066 21.2338 2.2378 21.4018 2.36242C21.5201 2.52772 21.5432 2.65907 21.5327 2.86148C21.4678 3.13802 21.2892 3.35042 21.1213 3.57422C21.0494 3.67084 20.9783 3.76808 20.9082 3.86597C20.8764 3.90828 20.8447 3.95059 20.812 3.99419C20.7292 4.16956 20.753 4.25531 20.8127 4.4375C20.8811 4.56467 20.8811 4.56467 20.9692 4.68286C21 4.72754 21.0309 4.77221 21.0626 4.81824C21.1275 4.91039 21.193 5.0022 21.2589 5.09363C21.4764 5.41142 21.5617 5.61347 21.5002 6C21.4019 6.13771 21.4019 6.13771 21.2502 6.25C21.0864 6.27341 20.9492 6.28176 20.7858 6.27838C20.7163 6.27844 20.7163 6.27844 20.6453 6.27849C20.4924 6.27832 20.3396 6.27637 20.1867 6.27441C20.0806 6.27395 19.9745 6.27359 19.8683 6.27334C19.5893 6.27239 19.3102 6.26993 19.0311 6.26717C18.7463 6.26461 18.4614 6.26347 18.1765 6.26221C17.6177 6.25953 17.059 6.25526 16.5002 6.25C16.1252 7.78125 16.7815 9.0625 16.7815 9.0625C16.7815 9.0625 18.0418 10.0276 18.9947 10.2512C20.7858 10.3758 21.762 10.4062 23.1177 10.3482C23.8354 10.3177 24.5534 10.3035 25.2716 10.29C25.378 10.2879 25.4843 10.2859 25.5907 10.2839C25.6686 10.2825 25.6686 10.2825 25.7481 10.281C26.0549 10.2749 26.3614 10.2655 26.6681 10.2529C26.8577 10.2453 27.0473 10.2395 27.237 10.2339C27.3247 10.2309 27.4123 10.2271 27.4999 10.2225C28.1617 10.1878 28.1617 10.1878 28.3842 10.3441C28.4804 10.4543 28.554 10.5602 28.6252 10.6875C28.6574 10.7327 28.6896 10.7778 28.7228 10.8244C28.7466 10.8631 28.7705 10.9018 28.7951 10.9417C28.8373 11.0092 28.8373 11.0092 28.8803 11.0782C28.9096 11.1259 28.9388 11.1735 28.969 11.2227C29.0349 11.3285 29.1008 11.4343 29.1667 11.54C29.2008 11.5949 29.2349 11.6499 29.2701 11.7064C29.4464 11.9891 29.6257 12.2699 29.8049 12.5508C29.879 12.6671 29.953 12.7834 30.0271 12.8997C30.064 12.9576 30.1008 13.0155 30.1388 13.0751C30.2491 13.2482 30.3593 13.4213 30.4695 13.5945C30.5056 13.6512 30.5416 13.7078 30.5788 13.7663C30.6511 13.8799 30.7232 13.9936 30.7951 14.1074C30.9849 14.4072 31.1776 14.7045 31.3747 14.9995C31.4153 15.0611 31.4559 15.1226 31.4978 15.186C31.5755 15.3037 31.654 15.4207 31.7336 15.5371C31.9544 15.8738 32.0711 16.0951 32.0002 16.5C31.9133 16.6374 31.9133 16.6374 31.7502 16.75C31.5343 16.7866 31.3207 16.7815 31.1022 16.7784C31.0363 16.7784 30.9705 16.7785 30.9026 16.7785C30.6848 16.7783 30.467 16.7764 30.2492 16.7744C30.0983 16.7739 29.9473 16.7736 29.7963 16.7733C29.3989 16.7724 29.0014 16.7699 28.604 16.7672C28.1985 16.7646 27.793 16.7635 27.3874 16.7622C26.5917 16.7595 25.796 16.7553 25.0002 16.75C24.988 16.8075 24.988 16.8075 24.9756 16.8662C24.9222 17.0549 24.8433 17.1323 24.6877 17.25C24.468 17.2764 24.3535 17.2768 24.1665 17.1538C24.1198 17.1085 24.0731 17.0632 24.025 17.0165C23.9709 16.9648 23.9168 16.913 23.8612 16.8597C23.8039 16.8029 23.7467 16.7461 23.6877 16.6875C23.629 16.6302 23.5702 16.5729 23.5097 16.5138C23.3105 16.3186 23.1137 16.1212 22.9168 15.9237C22.8416 15.8485 22.7664 15.7733 22.6912 15.6981C22.4889 15.4958 22.2867 15.2933 22.0846 15.0908C21.8727 14.8784 21.6606 14.6663 21.4485 14.4541C21.0478 14.0532 20.6472 13.6521 20.2467 13.2509C19.7903 12.7939 19.3338 12.337 18.8772 11.8802C17.9389 10.9411 17.0007 10.0019 16.0627 9.0625C15.8198 9.16209 15.6666 9.31835 15.4826 9.50303C15.4501 9.53546 15.4176 9.56789 15.3841 9.60131C15.2753 9.71003 15.167 9.81918 15.0587 9.92834C14.9808 10.0064 14.9028 10.0844 14.8249 10.1624C14.6571 10.3304 14.4895 10.4986 14.322 10.6669C14.0574 10.9329 13.7923 11.1985 13.5271 11.4641C13.1079 11.884 12.6889 12.3043 12.2701 12.7247C11.5198 13.4777 10.7691 14.2305 10.0181 14.9829C9.7545 15.247 9.49103 15.5114 9.2277 15.7759C9.06403 15.9402 8.90024 16.1044 8.73642 16.2686C8.66035 16.3449 8.58434 16.4212 8.50838 16.4976C8.40487 16.6017 8.30117 16.7056 8.19743 16.8095C8.13939 16.8677 8.08135 16.926 8.02156 16.986C7.85208 17.147 7.74182 17.2418 7.50804 17.2773C7.24731 17.2408 7.16088 17.1407 7.00022 16.9375C7.00022 16.8756 7.00022 16.8137 7.00022 16.75C6.96567 16.7502 6.93111 16.7505 6.8955 16.7507C6.05464 16.7562 5.21378 16.7603 4.3729 16.763C3.96626 16.7643 3.55963 16.766 3.153 16.7689C2.76072 16.7716 2.36846 16.7731 1.97617 16.7737C1.82636 16.7742 1.67654 16.7751 1.52673 16.7764C1.31722 16.7782 1.10775 16.7785 0.898234 16.7784C0.836016 16.7793 0.773797 16.7802 0.709693 16.7811C0.291506 16.7786 0.291506 16.7786 0.0872869 16.6372C-0.0169248 16.473 -0.0442112 16.3389 -0.0334673 16.1447C0.0389816 15.8335 0.231474 15.5791 0.406474 15.3164C0.46961 15.2187 0.46961 15.2187 0.534022 15.1189C0.622958 14.9814 0.71236 14.8441 0.802196 14.7071C0.975927 14.4416 1.14643 14.1741 1.31692 13.9065C1.44193 13.7105 1.56745 13.5147 1.6931 13.3191C1.88887 13.014 2.08362 12.7083 2.27786 12.4023C2.45574 12.1221 2.63414 11.8422 2.81272 11.5625C2.8506 11.5031 2.88848 11.4437 2.9275 11.3826C3.03994 11.2066 3.15282 11.031 3.26585 10.8555C3.30019 10.8017 3.33452 10.7479 3.3699 10.6924C3.40163 10.6433 3.43335 10.5943 3.46604 10.5437C3.49386 10.5004 3.52168 10.4571 3.55033 10.4125C3.62522 10.3125 3.62522 10.3125 3.75022 10.25C3.87054 10.248 3.99094 10.2505 4.11119 10.2548C4.18814 10.2574 4.26508 10.2599 4.34436 10.2626C4.38607 10.2641 4.42778 10.2656 4.47075 10.2672C4.69938 10.2754 4.92804 10.2824 5.1567 10.2895C5.2056 10.291 5.2545 10.2925 5.30488 10.2941C5.9908 10.3148 6.67695 10.3242 7.36309 10.3338C7.92013 10.3419 8.47654 10.3541 9.03323 10.3758C12.2701 10.3758 14.0002 10.2339 14.0002 10.2339C14.0002 10.2339 15.6104 9.71225 15.6174 8.4375C15.6119 8.00072 15.6288 5.28716 15.6023 4.85122C15.5776 4.40313 15.5686 3.95448 15.5573 3.50589C15.5482 3.15803 15.5369 2.81075 15.5185 2.46324C15.5155 2.40011 15.5126 2.33697 15.5095 2.27193C15.5039 2.15433 15.4973 2.03678 15.4895 1.9193C15.4726 1.53769 15.4726 1.53769 15.6174 1.34018C15.7599 1.24343 15.8297 1.21609 16.0002 1.21875Z" fill="#FE4E19"/>
<path d="M14.088 21.7238C14.1327 21.7232 14.1775 21.7227 14.2236 21.7222C14.3708 21.7207 14.5179 21.7206 14.665 21.7207C14.7681 21.7203 14.8712 21.7198 14.9742 21.7193C15.19 21.7184 15.4059 21.7183 15.6217 21.7187C15.8968 21.7191 16.1719 21.7171 16.4471 21.7146C16.66 21.713 16.8728 21.7128 17.0857 21.7131C17.1871 21.7129 17.2884 21.7123 17.3898 21.7112C18.015 21.7051 18.5746 21.7209 19.056 22.174C19.4509 22.5974 19.5273 22.9858 19.5213 23.5487C19.5213 23.6158 19.5213 23.6829 19.5214 23.752C19.5212 23.9732 19.5198 24.1944 19.5183 24.4155C19.518 24.5691 19.5177 24.7227 19.5175 24.8763C19.5168 25.2801 19.515 25.6839 19.5129 26.0877C19.511 26.5 19.5101 26.9122 19.5092 27.3245C19.5071 28.133 19.504 28.9415 19.5 29.75C19.5629 29.7498 19.6258 29.7495 19.6906 29.7493C21.22 29.7438 22.7493 29.7396 24.2787 29.737C25.0182 29.7358 25.7578 29.734 26.4974 29.7311C27.1419 29.7287 27.7863 29.727 28.4308 29.7265C28.7722 29.7262 29.1136 29.7254 29.4549 29.7236C29.7761 29.7219 30.0972 29.7213 30.4183 29.7217C30.5363 29.7217 30.6543 29.7212 30.7724 29.7202C30.9332 29.719 31.094 29.7193 31.2549 29.7199C31.3018 29.7192 31.3487 29.7185 31.3971 29.7177C31.6149 29.7202 31.7293 29.7339 31.9039 29.8691C32.0081 30.011 32.034 30.0761 32.0312 30.25C32.0319 30.2913 32.0325 30.3325 32.0332 30.375C31.983 30.5642 31.9055 30.6309 31.75 30.75C31.5681 30.7745 31.4099 30.7836 31.228 30.7815C31.1746 30.7818 31.1212 30.7822 31.0662 30.7826C30.886 30.7835 30.7059 30.7826 30.5258 30.7817C30.3958 30.782 30.2658 30.7824 30.1359 30.7829C29.7777 30.784 29.4197 30.7835 29.0615 30.7827C28.6757 30.7821 28.2899 30.783 27.9041 30.7837C27.1916 30.7847 26.4791 30.7846 25.7667 30.7839C25.1085 30.7833 24.4504 30.7832 23.7923 30.7835C23.7487 30.7835 23.705 30.7835 23.6601 30.7835C23.4831 30.7836 23.306 30.7837 23.129 30.7838C21.4674 30.7845 19.8058 30.7838 18.1442 30.7825C16.6673 30.7813 15.1903 30.7814 13.7134 30.7826C12.0549 30.7839 10.3964 30.7845 8.73789 30.7837C8.56117 30.7836 8.38444 30.7835 8.20772 30.7835C8.1642 30.7834 8.12069 30.7834 8.07585 30.7834C7.41805 30.7831 6.76026 30.7834 6.10246 30.7841C5.35469 30.7848 4.60692 30.7846 3.85915 30.7833C3.47735 30.7826 3.09556 30.7823 2.71376 30.7832C2.36464 30.7839 2.01554 30.7835 1.66641 30.7822C1.53974 30.7819 1.41306 30.782 1.28638 30.7826C1.1149 30.7834 0.943488 30.7826 0.772011 30.7815C0.697298 30.7823 0.697298 30.7823 0.621076 30.7832C0.397803 30.7802 0.274276 30.7686 0.09445 30.6308C-0.00788965 30.4891 -0.0339504 30.4228 -0.03125 30.25C-0.0322168 30.1881 -0.0322168 30.1881 -0.0332031 30.125C0.0167541 29.9369 0.0962606 29.869 0.25 29.75C0.423436 29.726 0.571863 29.7172 0.745121 29.7199C0.795358 29.7197 0.845596 29.7195 0.897355 29.7193C1.06589 29.7189 1.23436 29.7203 1.40289 29.7216C1.52362 29.7217 1.64434 29.7217 1.76507 29.7215C2.09305 29.7214 2.421 29.7229 2.74898 29.7247C3.09164 29.7262 3.43431 29.7264 3.77697 29.7267C4.42597 29.7274 5.07495 29.7295 5.72394 29.732C6.46275 29.7348 7.20155 29.7362 7.94036 29.7374C9.46025 29.74 10.9801 29.7444 12.5 29.75C12.4996 29.6976 12.4996 29.6976 12.4991 29.6442C12.4922 28.7928 12.4871 27.9414 12.4838 27.09C12.4822 26.6782 12.48 26.2665 12.4764 25.8548C12.473 25.4572 12.4712 25.0597 12.4704 24.6621C12.4698 24.5106 12.4686 24.3592 12.467 24.2077C12.4647 23.9951 12.4644 23.7826 12.4645 23.57C12.4628 23.4766 12.4628 23.4766 12.4611 23.3813C12.4646 22.906 12.5905 22.5433 12.9241 22.1966C13.2757 21.8732 13.6055 21.7269 14.088 21.7238Z" fill="#7E5C62"/>
<path d="M18.75 10.25C19.9822 10.2398 21.2143 10.2321 22.4465 10.2274C23.0186 10.2251 23.5908 10.222 24.1629 10.217C24.6615 10.2127 25.1602 10.2098 25.6589 10.2089C25.923 10.2083 26.187 10.207 26.451 10.2038C26.6996 10.2008 26.9481 10.1999 27.1968 10.2005C27.2879 10.2004 27.3791 10.1996 27.4702 10.1979C28.1589 10.1858 28.1589 10.1858 28.3861 10.346C28.4819 10.4557 28.5547 10.5604 28.625 10.6875C28.6733 10.7553 28.6733 10.7553 28.7225 10.8244C28.7464 10.8631 28.7703 10.9018 28.7949 10.9417C28.823 10.9867 28.8511 11.0318 28.8801 11.0782C28.9094 11.1259 28.9386 11.1736 28.9688 11.2227C29.0346 11.3285 29.1006 11.4343 29.1665 11.5401C29.2177 11.6224 29.2177 11.6224 29.2698 11.7064C29.4462 11.9891 29.6255 12.2699 29.8047 12.5508C29.8787 12.6671 29.9528 12.7834 30.0269 12.8997C30.0637 12.9576 30.1006 13.0155 30.1386 13.0751C30.2489 13.2482 30.3591 13.4214 30.4692 13.5945C30.5053 13.6512 30.5414 13.7079 30.5786 13.7663C30.6509 13.8799 30.723 13.9936 30.7949 14.1074C30.9847 14.4072 31.1773 14.7046 31.3745 14.9995C31.4151 15.0611 31.4557 15.1226 31.4976 15.1861C31.5752 15.3037 31.6538 15.4208 31.7334 15.5371C31.9541 15.8738 32.0708 16.0952 32 16.5C31.913 16.6374 31.913 16.6374 31.75 16.75C31.5341 16.7866 31.3205 16.7816 31.102 16.7784C31.0361 16.7784 30.9702 16.7785 30.9024 16.7785C30.6846 16.7783 30.4668 16.7764 30.249 16.7744C30.098 16.774 29.9471 16.7736 29.7961 16.7734C29.3986 16.7724 29.0012 16.77 28.6038 16.7672C28.1983 16.7646 27.7927 16.7635 27.3872 16.7622C26.5915 16.7596 25.7957 16.7553 25 16.75C24.9707 16.6902 24.9414 16.6304 24.9112 16.5687C24.7193 16.2346 24.4433 15.9817 24.1708 15.7131C24.1116 15.654 24.0525 15.595 23.9934 15.5358C23.8337 15.3764 23.6734 15.2175 23.5131 15.0587C23.3452 14.8922 23.1779 14.7252 23.0106 14.5583C22.694 14.2426 22.3769 13.9273 22.0597 13.6123C21.4906 13.047 20.9222 12.481 20.354 11.9148C20.1546 11.7161 19.9549 11.5175 19.755 11.3192C19.6609 11.2257 19.5669 11.1322 19.4729 11.0387C19.3581 10.9244 19.2431 10.8102 19.128 10.6962C19.0779 10.6463 19.0277 10.5963 18.9761 10.5449C18.9322 10.5013 18.8883 10.4576 18.843 10.4127C18.75 10.3125 18.75 10.3125 18.75 10.25Z" fill="#FE4E19"/>
<path d="M16.0001 1.21875C16.0414 1.21811 16.0826 1.21746 16.1251 1.2168C16.3094 1.26575 16.3816 1.3522 16.5001 1.5C16.5245 1.68848 16.5245 1.68848 16.5157 1.89062C16.5135 1.95798 16.5112 2.02533 16.5089 2.09473C16.506 2.14597 16.5031 2.19721 16.5001 2.25C16.5591 2.24944 16.618 2.24889 16.6787 2.24832C17.2342 2.24325 17.7896 2.2395 18.3451 2.23705C18.6307 2.23574 18.9163 2.23397 19.2018 2.23114C19.4774 2.22842 19.7529 2.22693 20.0285 2.22628C20.1337 2.22582 20.2388 2.22492 20.344 2.22357C20.4912 2.22175 20.6384 2.2215 20.7857 2.22162C20.851 2.22027 20.851 2.22027 20.9176 2.21889C21.1244 2.22066 21.2336 2.2378 21.4017 2.36242C21.5199 2.52772 21.5431 2.65907 21.5326 2.86148C21.4677 3.13802 21.2891 3.35042 21.1212 3.57422C21.0493 3.67084 20.9782 3.76808 20.9081 3.86597C20.8763 3.90828 20.8446 3.95059 20.8119 3.99419C20.7291 4.16956 20.7529 4.25531 20.8126 4.4375C20.8809 4.56467 20.8809 4.56467 20.9691 4.68286C20.9999 4.72754 21.0307 4.77221 21.0625 4.81824C21.1274 4.91039 21.1928 5.0022 21.2588 5.09363C21.4762 5.41142 21.5616 5.61347 21.5001 6C21.4018 6.13771 21.4018 6.13771 21.2501 6.25C21.0863 6.27341 20.9491 6.28176 20.7857 6.27838C20.7161 6.27844 20.7161 6.27844 20.6452 6.27849C20.4923 6.27832 20.3395 6.27637 20.1866 6.27441C20.0805 6.27395 19.9743 6.27359 19.8682 6.27334C19.5891 6.27239 19.3101 6.26993 19.031 6.26717C18.7461 6.26461 18.4613 6.26347 18.1764 6.26221C17.6176 6.25953 17.0589 6.25526 16.5001 6.25C16.3965 7.34473 16.1309 7.0033 16.5001 8C17.3931 9.04647 18.7809 10.2931 19.7574 11.2634C19.8127 11.3186 19.8681 11.3739 19.9251 11.4308C20.0444 11.5499 20.1638 11.669 20.2833 11.7879C20.4723 11.9761 20.6611 12.1645 20.8498 12.3529C21.25 12.7524 21.6504 13.1516 22.0509 13.5508C22.4844 13.9829 22.9179 14.4151 23.351 14.8476C23.5386 15.0349 23.7264 15.222 23.9143 15.4091C24.0582 15.5525 24.202 15.696 24.3458 15.8396C24.3978 15.8913 24.4499 15.943 24.5035 15.9963C24.5509 16.0437 24.5983 16.0911 24.6471 16.1399C24.709 16.2016 24.709 16.2016 24.7721 16.2645C24.9171 16.4201 24.9951 16.5299 25.0274 16.7422C25.0001 16.9375 25.0001 16.9375 24.8673 17.1172C24.653 17.2755 24.5731 17.2807 24.3126 17.25C24.1664 17.1538 24.1664 17.1538 24.0248 17.0165C23.9708 16.9648 23.9167 16.913 23.861 16.8597C23.8038 16.8029 23.7466 16.7461 23.6876 16.6875C23.6289 16.6302 23.5701 16.5729 23.5096 16.5138C23.3104 16.3186 23.1136 16.1212 22.9167 15.9237C22.8415 15.8485 22.7663 15.7733 22.6911 15.6981C22.4887 15.4958 22.2866 15.2933 22.0845 15.0908C21.8726 14.8784 21.6605 14.6663 21.4484 14.4541C21.0477 14.0532 20.6471 13.6521 20.2465 13.2509C19.7902 12.7939 19.3337 12.337 18.8771 11.8802C17.9388 10.9411 17.0006 10.0019 16.0626 9.0625C15.8196 9.16209 15.6665 9.31835 15.4825 9.50303C15.45 9.53546 15.4175 9.56789 15.384 9.60131C15.2752 9.71003 15.1669 9.81918 15.0586 9.92834C14.9807 10.0064 14.9027 10.0844 14.8248 10.1624C14.657 10.3304 14.4894 10.4986 14.3219 10.6669C14.0573 10.9329 13.7922 11.1985 13.527 11.4641C13.1077 11.884 12.6888 12.3043 12.27 12.7247C11.5197 13.4777 10.769 14.2305 10.018 14.9829C9.75438 15.247 9.49091 15.5114 9.22757 15.7759C9.06391 15.9402 8.90012 16.1044 8.7363 16.2686C8.66023 16.3449 8.58421 16.4212 8.50826 16.4976C8.40475 16.6017 8.30105 16.7056 8.19731 16.8095C8.11025 16.8969 8.11025 16.8969 8.02144 16.986C7.85196 17.147 7.7417 17.2418 7.50792 17.2773C7.3126 17.25 7.3126 17.25 7.13292 17.1172C6.97436 16.9027 6.96848 16.8233 7.0001 16.5625C7.103 16.4095 7.103 16.4095 7.24552 16.2628C7.29716 16.2088 7.34881 16.1548 7.40201 16.0992C7.45501 16.0459 7.508 15.9925 7.5626 15.9375C7.60897 15.8898 7.65533 15.842 7.7031 15.7929C7.84617 15.6467 7.99079 15.5023 8.13588 15.3581C8.19012 15.304 8.24436 15.2498 8.30025 15.194C8.41691 15.0776 8.53362 14.9612 8.65043 14.845C8.8356 14.6607 9.02052 14.4761 9.20541 14.2915C9.59772 13.8999 9.99031 13.5085 10.3829 13.1172C10.8074 12.6941 11.2319 12.2709 11.656 11.8474C11.8394 11.6644 12.0229 11.4815 12.2065 11.2987C12.348 11.1578 12.4892 11.0168 12.6305 10.8757C12.7057 10.801 12.7057 10.801 12.7824 10.7247C13.694 9.81327 14.6233 8.9441 15.5001 8C15.6441 7.09028 15.621 5.79288 15.5765 4.87696C15.5565 4.42588 15.549 3.97443 15.54 3.52301C15.5329 3.17273 15.5239 2.82289 15.5087 2.47286C15.5064 2.40912 15.504 2.34538 15.5016 2.2797C15.4972 2.16091 15.4917 2.04216 15.4852 1.92347C15.4723 1.53791 15.4723 1.53791 15.6176 1.33981C15.7599 1.24334 15.8299 1.21609 16.0001 1.21875Z" fill="#E3021E"/>
<path d="M0.772011 29.7185C0.825408 29.7182 0.878805 29.7178 0.933821 29.7174C1.11398 29.7165 1.29409 29.7174 1.47424 29.7182C1.60421 29.718 1.73418 29.7176 1.86415 29.7171C2.22226 29.716 2.58035 29.7165 2.93846 29.7173C3.32428 29.7179 3.71011 29.717 4.09593 29.7163C4.8084 29.7153 5.52086 29.7154 6.23333 29.716C6.89146 29.7167 7.54959 29.7168 8.20772 29.7165C8.25133 29.7165 8.29495 29.7165 8.33989 29.7165C8.51693 29.7164 8.69398 29.7163 8.87102 29.7162C10.5326 29.7155 12.1942 29.7162 13.8558 29.7175C15.3327 29.7187 16.8097 29.7186 18.2866 29.7174C19.9451 29.7161 21.6036 29.7155 23.2621 29.7163C23.4388 29.7164 23.6156 29.7165 23.7923 29.7165C23.8358 29.7166 23.8793 29.7166 23.9241 29.7166C24.5819 29.7169 25.2397 29.7166 25.8975 29.7159C26.6453 29.7152 27.3931 29.7154 28.1409 29.7167C28.5227 29.7174 28.9044 29.7177 29.2862 29.7168C29.6354 29.7161 29.9845 29.7165 30.3336 29.7178C30.4603 29.7181 30.5869 29.718 30.7136 29.7174C30.8851 29.7166 31.0565 29.7174 31.228 29.7185C31.3027 29.7177 31.3027 29.7177 31.3789 29.7168C31.6022 29.7198 31.7257 29.7314 31.9056 29.8691C32.0079 30.0109 32.034 30.0772 32.0312 30.25C32.0319 30.2912 32.0325 30.3325 32.0332 30.375C31.983 30.5642 31.9055 30.6309 31.75 30.75C31.5681 30.7745 31.4099 30.7836 31.228 30.7815C31.1746 30.7818 31.1212 30.7822 31.0662 30.7826C30.886 30.7835 30.7059 30.7826 30.5258 30.7817C30.3958 30.782 30.2658 30.7824 30.1359 30.7829C29.7777 30.784 29.4197 30.7834 29.0615 30.7827C28.6757 30.7821 28.2899 30.783 27.9041 30.7837C27.1916 30.7847 26.4791 30.7846 25.7667 30.7839C25.1085 30.7833 24.4504 30.7831 23.7923 30.7834C23.7487 30.7835 23.705 30.7835 23.6601 30.7835C23.4831 30.7836 23.306 30.7837 23.129 30.7837C21.4674 30.7845 19.8058 30.7838 18.1442 30.7825C16.6673 30.7813 15.1903 30.7814 13.7134 30.7826C12.0549 30.7839 10.3964 30.7845 8.73789 30.7837C8.56117 30.7836 8.38444 30.7835 8.20772 30.7834C8.1642 30.7834 8.12069 30.7834 8.07585 30.7834C7.41805 30.7831 6.76026 30.7834 6.10246 30.7841C5.35469 30.7848 4.60692 30.7846 3.85915 30.7832C3.47735 30.7826 3.09556 30.7823 2.71376 30.7832C2.36464 30.7839 2.01554 30.7835 1.66641 30.7822C1.53974 30.7819 1.41306 30.782 1.28638 30.7826C1.1149 30.7834 0.943488 30.7826 0.772011 30.7815C0.697298 30.7823 0.697298 30.7823 0.621075 30.7832C0.397803 30.7802 0.274275 30.7686 0.0944495 30.6308C-0.00789013 30.4891 -0.0339504 30.4228 -0.03125 30.25C-0.0322168 30.1881 -0.0322168 30.1881 -0.0332031 30.125C0.075524 29.7157 0.410228 29.7143 0.772011 29.7185Z" fill="#5C546A"/>
<path d="M15.9999 1.21875C16.0411 1.21811 16.0824 1.21746 16.1249 1.2168C16.3092 1.26575 16.3813 1.3522 16.4999 1.5C16.5243 1.68848 16.5243 1.68848 16.5155 1.89062C16.5132 1.95798 16.511 2.02533 16.5086 2.09473C16.5043 2.17159 16.5043 2.17159 16.4999 2.25C16.5588 2.24944 16.6178 2.24889 16.6785 2.24832C17.234 2.24325 17.7894 2.2395 18.3449 2.23705C18.6304 2.23574 18.916 2.23397 19.2016 2.23114C19.4771 2.22842 19.7527 2.22693 20.0283 2.22628C20.1334 2.22582 20.2386 2.22492 20.3437 2.22357C20.491 2.22175 20.6382 2.2215 20.7854 2.22162C20.8507 2.22027 20.8507 2.22027 20.9173 2.21889C21.1242 2.22066 21.2334 2.2378 21.4014 2.36242C21.5197 2.52772 21.5428 2.65907 21.5324 2.86148C21.4675 3.13802 21.2888 3.35042 21.1209 3.57422C21.0491 3.67084 20.978 3.76808 20.9078 3.86597C20.8761 3.90828 20.8443 3.95059 20.8116 3.99419C20.7288 4.16956 20.7527 4.25531 20.8124 4.4375C20.8807 4.56467 20.8807 4.56467 20.9688 4.68286C20.9997 4.72754 21.0305 4.77221 21.0622 4.81824C21.1272 4.91039 21.1926 5.0022 21.2585 5.09363C21.476 5.41142 21.5614 5.61347 21.4999 6C21.4016 6.13771 21.4016 6.13771 21.2499 6.25C21.086 6.27341 20.9489 6.28176 20.7854 6.27838C20.7159 6.27844 20.7159 6.27844 20.6449 6.27849C20.4921 6.27832 20.3392 6.27637 20.1864 6.27441C20.0802 6.27395 19.9741 6.27359 19.868 6.27334C19.5889 6.27239 19.3098 6.26993 19.0308 6.26717C18.7459 6.26461 18.461 6.26347 18.1761 6.26221C17.6174 6.25953 17.0586 6.25513 16.4999 6.25C16.4999 6.8275 16.4999 7.405 16.4999 8C16.3967 7.93812 16.2936 7.87625 16.1874 7.8125C15.8892 7.77523 15.7478 7.84166 15.4999 8C15.4941 7.15683 15.4896 6.31366 15.4869 5.47047C15.4856 5.07896 15.4838 4.68746 15.481 4.29596C15.4783 3.91827 15.4768 3.5406 15.4761 3.1629C15.4757 3.01867 15.4748 2.87443 15.4734 2.73021C15.4716 2.52848 15.4714 2.3268 15.4715 2.12506C15.4701 2.03524 15.4701 2.03524 15.4688 1.9436C15.4713 1.53892 15.4713 1.53892 15.6188 1.33801C15.7602 1.24306 15.8311 1.21611 15.9999 1.21875Z" fill="#FF4F19"/>
<path d="M17.6797 14.8555C18.2248 15.3779 18.4558 15.9743 18.4975 16.7146C18.5053 17.4266 18.2346 18.0525 17.7514 18.5737C17.1664 19.1 16.5188 19.2415 15.75 19.25C15.0835 19.2001 14.5104 18.8635 14.0625 18.375C13.6102 17.7432 13.455 17.1006 13.5132 16.324C13.6115 15.731 13.9342 15.2159 14.375 14.8125C15.3983 14.0902 16.6773 14.0288 17.6797 14.8555Z" fill="#FDE9B6"/>
<path d="M17.994 13.8428C18.0589 13.8897 18.0589 13.8897 18.1251 13.9375C18.1833 13.9786 18.1833 13.9786 18.2426 14.0205C18.9099 14.5401 19.3426 15.3671 19.5001 16.1875C19.5923 17.1658 19.3956 18.0681 18.8126 18.875C18.7715 18.9332 18.7715 18.9332 18.7296 18.9925C18.1915 19.6836 17.347 20.0889 16.5001 20.25C15.5077 20.3586 14.6157 20.1087 13.8014 19.5279C13.0845 18.9448 12.5872 18.0459 12.4863 17.1237C12.4294 16.1209 12.6822 15.2155 13.3243 14.4258C14.5597 13.1008 16.4832 12.844 17.994 13.8428ZM14.1786 14.9983C13.6581 15.567 13.5084 16.1848 13.5001 16.9375C13.5512 17.6114 13.8733 18.2369 14.3751 18.6875C15.0324 19.1504 15.7074 19.3468 16.5158 19.211C17.2046 19.0404 17.7732 18.6624 18.1486 18.0586C18.5028 17.4481 18.5938 16.705 18.4242 16.0188C18.1965 15.3517 17.7613 14.8642 17.1581 14.5142C16.1142 14.0076 15.0121 14.238 14.1786 14.9983Z" fill="#805E63"/>
<path d="M23.2106 18.5147C23.6211 18.79 23.8454 19.1598 24.0001 19.625C24.0338 19.8454 24.0367 20.0615 24.0355 20.2842C24.0361 20.3755 24.0361 20.3755 24.0367 20.4687C24.0371 20.5964 24.0369 20.7242 24.0361 20.8519C24.0353 21.0473 24.0374 21.2424 24.0398 21.4378C24.0398 21.5623 24.0397 21.6869 24.0394 21.8115C24.0402 21.8697 24.0411 21.9278 24.0419 21.9877C24.0381 22.2522 24.0223 22.4013 23.8819 22.6303C23.6015 22.8031 23.3629 22.7949 23.0392 22.7915C22.9452 22.792 22.9452 22.792 22.8494 22.7924C22.7172 22.7926 22.585 22.7921 22.4529 22.7907C22.2508 22.7891 22.0489 22.7907 21.8468 22.7927C21.7182 22.7925 21.5896 22.7921 21.461 22.7915C21.3706 22.7925 21.3706 22.7925 21.2783 22.7934C21.0076 22.7887 20.8522 22.7745 20.6186 22.6299C20.4509 22.3576 20.454 22.1325 20.4564 21.8181C20.456 21.7579 20.4555 21.6977 20.4551 21.6357C20.4546 21.5083 20.4549 21.3809 20.4559 21.2535C20.4571 21.0607 20.4547 20.8682 20.4519 20.6754C20.4487 19.9355 20.4703 19.332 20.984 18.7521C21.6243 18.1269 22.4508 18.0901 23.2106 18.5147Z" fill="#7E5C62"/>
<path d="M27.6176 18.4783C28.0486 18.7526 28.3222 19.0635 28.4406 19.5674C28.5045 19.8646 28.5191 20.149 28.5188 20.4522C28.5192 20.531 28.5192 20.531 28.5196 20.6114C28.5199 20.7215 28.52 20.8316 28.5197 20.9417C28.5195 21.1098 28.521 21.2779 28.5225 21.446C28.5227 21.5536 28.5227 21.6611 28.5227 21.7686C28.5232 21.8185 28.5238 21.8684 28.5244 21.9199C28.5214 22.28 28.4482 22.4893 28.1875 22.75C28.0654 22.7671 28.0654 22.7671 27.9143 22.7692C27.8295 22.7707 27.8295 22.7707 27.743 22.7722C27.6511 22.7727 27.6511 22.7727 27.5573 22.7732C27.463 22.774 27.463 22.774 27.3667 22.7749C27.2335 22.7758 27.1002 22.7764 26.9669 22.7766C26.7631 22.7773 26.5595 22.7804 26.3558 22.7836C26.2264 22.7842 26.0969 22.7846 25.9675 22.7849C25.9066 22.7861 25.8457 22.7874 25.783 22.7886C25.5108 22.7868 25.3537 22.7752 25.1179 22.6314C24.9489 22.3536 24.955 22.1198 24.9585 21.8001C24.9582 21.7382 24.9579 21.6763 24.9576 21.6125C24.9573 21.4816 24.9579 21.3508 24.9592 21.2199C24.9609 21.0213 24.9592 20.8228 24.9572 20.6241C24.9574 20.4966 24.9578 20.369 24.9585 20.2415C24.9578 20.1828 24.9572 20.1241 24.9565 20.0636C24.965 19.5784 25.103 19.1697 25.432 18.805C26.0598 18.2052 26.8463 18.0359 27.6176 18.4783Z" fill="#7E5C62"/>
<path d="M6.11764 18.4783C6.54861 18.7526 6.82219 19.0635 6.94064 19.5674C7.00454 19.8646 7.01911 20.149 7.01876 20.4522C7.01916 20.531 7.01916 20.531 7.01957 20.6114C7.01993 20.7215 7.01997 20.8316 7.01969 20.9417C7.01949 21.1098 7.02097 21.2779 7.02255 21.446C7.02269 21.5536 7.02273 21.6611 7.02267 21.7686C7.02324 21.8185 7.02382 21.8684 7.02441 21.9199C7.02143 22.28 6.94819 22.4893 6.68746 22.75C6.56539 22.7671 6.56539 22.7671 6.41432 22.7692C6.3295 22.7707 6.3295 22.7707 6.24298 22.7722C6.15109 22.7727 6.15109 22.7727 6.05734 22.7732C5.96299 22.774 5.96299 22.774 5.86674 22.7749C5.73345 22.7758 5.60016 22.7764 5.46687 22.7766C5.26313 22.7773 5.05951 22.7804 4.8558 22.7836C4.72636 22.7842 4.59693 22.7846 4.46749 22.7849C4.40661 22.7861 4.34573 22.7874 4.283 22.7886C4.01083 22.7868 3.85374 22.7752 3.61787 22.6314C3.44893 22.3536 3.45505 22.1198 3.45846 21.8001C3.45816 21.7382 3.45786 21.6763 3.45755 21.6125C3.45734 21.4816 3.45792 21.3508 3.45922 21.2199C3.46089 21.0213 3.45924 20.8228 3.45724 20.6241C3.45745 20.4966 3.45785 20.369 3.45846 20.2415C3.45783 20.1828 3.45719 20.1241 3.45654 20.0636C3.465 19.5784 3.60296 19.1697 3.93199 18.805C4.55983 18.2052 5.34631 18.0359 6.11764 18.4783Z" fill="#7E5C62"/>
<path d="M10.6857 18.4997C11.0905 18.7569 11.3474 19.1641 11.4736 19.6214C11.5225 19.8602 11.519 20.0993 11.5187 20.3423C11.519 20.3978 11.5192 20.4533 11.5195 20.5105C11.5199 20.6272 11.5199 20.7439 11.5196 20.8606C11.5194 21.039 11.5209 21.2172 11.5225 21.3955C11.5226 21.5093 11.5227 21.623 11.5226 21.7368C11.5232 21.7899 11.5238 21.8429 11.5243 21.8976C11.5221 22.1894 11.5085 22.3924 11.3124 22.625C11.1337 22.733 11 22.7659 10.7923 22.7672C10.7395 22.7678 10.6867 22.7683 10.6323 22.769C10.5476 22.7689 10.5476 22.7689 10.4611 22.7688C10.3732 22.7692 10.3732 22.7692 10.2836 22.7696C10.1599 22.77 10.0362 22.77 9.91248 22.7697C9.72346 22.7695 9.5345 22.771 9.34548 22.7726C9.22516 22.7727 9.10484 22.7728 8.98452 22.7727C8.92813 22.7733 8.87174 22.7738 8.81364 22.7744C8.48229 22.772 8.24626 22.7463 7.9999 22.5C7.99247 22.4113 7.98927 22.3222 7.98784 22.2332C7.98684 22.1764 7.98584 22.1196 7.9848 22.0611C7.98202 21.7989 7.97945 21.5367 7.97802 21.2746C7.97699 21.1368 7.97529 20.999 7.97289 20.8612C7.96944 20.6621 7.9681 20.4631 7.96718 20.2639C7.96577 20.2031 7.96435 20.1422 7.96289 20.0796C7.96457 19.5284 8.14855 19.1057 8.51552 18.6953C9.14904 18.1165 9.94191 18.1242 10.6857 18.4997Z" fill="#7E5D62"/>
<path d="M25.9612 24.2085C26.0551 24.2081 26.0551 24.2081 26.151 24.2076C26.2831 24.2074 26.4153 24.208 26.5475 24.2093C26.7496 24.211 26.9515 24.2093 27.1536 24.2073C27.2821 24.2075 27.4107 24.2079 27.5393 24.2085C27.5996 24.2079 27.6599 24.2073 27.722 24.2066C27.987 24.2112 28.1493 24.2279 28.3819 24.3615C28.5649 24.6723 28.5449 24.9658 28.5417 25.3203C28.542 25.3941 28.5423 25.4678 28.5426 25.5438C28.5429 25.6995 28.5423 25.8552 28.541 26.0109C28.5393 26.2492 28.541 26.4873 28.543 26.7256C28.5427 26.877 28.5423 27.0283 28.5417 27.1797C28.5424 27.2509 28.543 27.3222 28.5437 27.3956C28.5393 27.6897 28.5328 27.8821 28.3819 28.1385C28.1007 28.3 27.8587 28.2949 27.5393 28.2915C27.4453 28.292 27.4453 28.292 27.3495 28.2924C27.2173 28.2926 27.0852 28.2921 26.953 28.2908C26.7509 28.2891 26.549 28.2908 26.3469 28.2927C26.2183 28.2925 26.0897 28.2921 25.9612 28.2915C25.8707 28.2925 25.8707 28.2925 25.7785 28.2934C25.5135 28.2888 25.3512 28.2721 25.1185 28.1385C24.9356 27.8277 24.9556 27.5342 24.9587 27.1797C24.9584 27.106 24.9581 27.0323 24.9578 26.9563C24.9576 26.8006 24.9582 26.6449 24.9595 26.4892C24.9612 26.2509 24.9595 26.0127 24.9575 25.7744C24.9577 25.6231 24.9581 25.4717 24.9587 25.3203C24.9581 25.2491 24.9575 25.1779 24.9568 25.1045C24.9612 24.8103 24.9676 24.6179 25.1185 24.3615C25.3998 24.2 25.6418 24.2052 25.9612 24.2085Z" fill="#7E5C62"/>
<path d="M21.4611 24.2085C21.5551 24.2081 21.5551 24.2081 21.6509 24.2076C21.7831 24.2074 21.9153 24.208 22.0474 24.2093C22.2495 24.211 22.4514 24.2093 22.6535 24.2073C22.7821 24.2075 22.9107 24.2079 23.0393 24.2085C23.0995 24.2079 23.1598 24.2073 23.222 24.2066C23.4882 24.2112 23.6491 24.2276 23.8822 24.3632C24.062 24.6668 24.0425 24.9463 24.0373 25.293C24.0373 25.3639 24.0373 25.4349 24.0373 25.508C24.037 25.6578 24.0359 25.8077 24.0341 25.9575C24.0315 26.1867 24.0315 26.4158 24.0319 26.645C24.0313 26.7907 24.0305 26.9364 24.0295 27.0821C24.0295 27.1506 24.0295 27.219 24.0295 27.2896C24.0285 27.3537 24.0275 27.4177 24.0264 27.4837C24.0259 27.5398 24.0254 27.5959 24.0248 27.6537C23.9857 27.9059 23.8657 28.072 23.6877 28.25C23.5656 28.2672 23.5656 28.2672 23.4145 28.2692C23.3297 28.2707 23.3297 28.2707 23.2432 28.2722C23.1513 28.2727 23.1513 28.2727 23.0576 28.2732C22.9632 28.2741 22.9632 28.2741 22.867 28.2749C22.7337 28.2758 22.6004 28.2764 22.4671 28.2766C22.2634 28.2774 22.0597 28.2804 21.856 28.2836C21.7266 28.2842 21.5972 28.2846 21.4677 28.2849C21.4068 28.2862 21.346 28.2874 21.2832 28.2886C21.016 28.2869 20.853 28.2731 20.6181 28.139C20.4359 27.8277 20.4555 27.5342 20.4587 27.1797C20.4584 27.106 20.4581 27.0323 20.4578 26.9563C20.4576 26.8006 20.4581 26.6449 20.4595 26.4892C20.4611 26.2509 20.4595 26.0127 20.4575 25.7744C20.4577 25.6231 20.4581 25.4717 20.4587 25.3203C20.4581 25.2491 20.4574 25.1779 20.4568 25.1045C20.4611 24.8103 20.4676 24.6179 20.6185 24.3615C20.8998 24.2 21.1417 24.2052 21.4611 24.2085Z" fill="#7E5C62"/>
<path d="M8.96117 24.2085C9.05511 24.2081 9.05511 24.2081 9.15096 24.2076C9.28313 24.2074 9.4153 24.208 9.54747 24.2093C9.74957 24.211 9.95146 24.2093 10.1536 24.2073C10.2821 24.2075 10.4107 24.2079 10.5393 24.2085C10.5996 24.2079 10.6599 24.2073 10.722 24.2066C10.987 24.2112 11.1493 24.2279 11.3819 24.3615C11.5649 24.6723 11.5449 24.9658 11.5417 25.3203C11.542 25.3941 11.5423 25.4678 11.5426 25.5438C11.5429 25.6995 11.5423 25.8552 11.541 26.0109C11.5393 26.2492 11.541 26.4873 11.543 26.7256C11.5427 26.877 11.5423 27.0283 11.5417 27.1797C11.5424 27.2509 11.543 27.3222 11.5437 27.3956C11.5393 27.6897 11.5328 27.8821 11.3819 28.1385C11.1007 28.3 10.8587 28.2949 10.5393 28.2915C10.4453 28.292 10.4453 28.292 10.3495 28.2924C10.2173 28.2926 10.0852 28.2921 9.95299 28.2908C9.75089 28.2891 9.549 28.2908 9.34691 28.2927C9.21833 28.2925 9.08975 28.2921 8.96117 28.2915C8.87073 28.2925 8.87073 28.2925 8.77846 28.2934C8.51346 28.2888 8.3512 28.2721 8.11855 28.1385C7.93559 27.8277 7.95558 27.5342 7.95873 27.1797C7.95843 27.106 7.95813 27.0323 7.95782 26.9563C7.95761 26.8006 7.95818 26.6449 7.95949 26.4892C7.96116 26.2509 7.9595 26.0127 7.95751 25.7744C7.95771 25.6231 7.95811 25.4717 7.95873 25.3203C7.95809 25.2491 7.95746 25.1779 7.95681 25.1045C7.96116 24.8103 7.96762 24.6179 8.11855 24.3615C8.3998 24.2 8.64177 24.2052 8.96117 24.2085Z" fill="#7E5C62"/>
<path d="M4.46113 24.2085C4.55508 24.2081 4.55508 24.2081 4.65092 24.2076C4.78309 24.2074 4.91527 24.208 5.04743 24.2093C5.24954 24.211 5.45142 24.2093 5.65351 24.2073C5.78209 24.2075 5.91068 24.2079 6.03926 24.2085C6.09955 24.2079 6.15984 24.2073 6.22196 24.2066C6.48817 24.2112 6.64912 24.2276 6.88215 24.3632C7.06197 24.6668 7.04249 24.9463 7.0373 25.293C7.03731 25.3639 7.03731 25.4349 7.03731 25.508C7.03698 25.6578 7.03588 25.8077 7.03407 25.9575C7.03145 26.1867 7.0315 26.4158 7.03193 26.645C7.03128 26.7907 7.03047 26.9364 7.02949 27.0821C7.02948 27.1506 7.02947 27.219 7.02945 27.2896C7.02846 27.3537 7.02746 27.4177 7.02644 27.4837C7.02591 27.5398 7.02539 27.5959 7.02484 27.6537C6.9857 27.9059 6.86571 28.072 6.68769 28.25C6.56562 28.2672 6.56562 28.2672 6.41455 28.2692C6.32973 28.2707 6.32973 28.2707 6.24321 28.2722C6.15132 28.2727 6.15132 28.2727 6.05757 28.2732C5.96322 28.2741 5.96322 28.2741 5.86697 28.2749C5.73368 28.2758 5.60039 28.2764 5.4671 28.2766C5.26336 28.2774 5.05974 28.2804 4.85603 28.2836C4.72659 28.2842 4.59716 28.2846 4.46772 28.2849C4.40684 28.2862 4.34596 28.2874 4.28323 28.2886C4.01603 28.2869 3.85304 28.2731 3.6181 28.139C3.43592 27.8277 3.45554 27.5342 3.45869 27.1797C3.45839 27.106 3.45809 27.0323 3.45778 26.9563C3.45757 26.8006 3.45815 26.6449 3.45945 26.4892C3.46112 26.2509 3.45947 26.0127 3.45747 25.7744C3.45768 25.6231 3.45808 25.4717 3.45869 25.3203C3.45806 25.2491 3.45742 25.1779 3.45677 25.1045C3.46113 24.8103 3.46759 24.6179 3.61851 24.3615C3.89976 24.2 4.14173 24.2052 4.46113 24.2085Z" fill="#7E5C62"/>
<path d="M16.5 24.75C17.16 24.75 17.82 24.75 18.5 24.75C18.5 26.4 18.5 28.05 18.5 29.75C17.84 29.75 17.18 29.75 16.5 29.75C16.5 28.1 16.5 26.45 16.5 24.75Z" fill="#996459"/>
<path d="M13.5 24.75C14.16 24.75 14.82 24.75 15.5 24.75C15.5 26.4 15.5 28.05 15.5 29.75C14.84 29.75 14.18 29.75 13.5 29.75C13.5 28.1 13.5 26.45 13.5 24.75Z" fill="#986359"/>
<path d="M15.9999 1.21875C16.0411 1.21811 16.0824 1.21746 16.1249 1.2168C16.3186 1.26826 16.3803 1.33721 16.4999 1.5C16.5369 1.70812 16.5314 1.91419 16.5282 2.12506C16.5283 2.1885 16.5283 2.25193 16.5283 2.31729C16.5282 2.52698 16.5262 2.73661 16.5243 2.94629C16.5238 3.09166 16.5234 3.23704 16.5232 3.38241C16.5222 3.76506 16.5198 4.14768 16.517 4.53032C16.5145 4.92076 16.5133 5.31121 16.5121 5.70166C16.5094 6.46778 16.5051 7.23389 16.4999 8C16.4522 7.96955 16.4045 7.93909 16.3553 7.90771C16.1522 7.7926 16.0427 7.78371 15.8124 7.8125C15.7067 7.87241 15.6022 7.93462 15.4999 8C15.4941 7.15683 15.4896 6.31366 15.4869 5.47047C15.4856 5.07896 15.4838 4.68746 15.481 4.29596C15.4783 3.91827 15.4768 3.5406 15.4761 3.1629C15.4757 3.01867 15.4748 2.87443 15.4734 2.73021C15.4716 2.52848 15.4714 2.3268 15.4715 2.12506C15.4701 2.03524 15.4701 2.03524 15.4688 1.9436C15.4713 1.53892 15.4713 1.53892 15.6188 1.33801C15.7602 1.24306 15.8311 1.21611 15.9999 1.21875Z" fill="#5C5369"/>
<path d="M14.2446 22.7096C14.2868 22.709 14.3291 22.7085 14.3726 22.7079C14.5114 22.7065 14.6502 22.7074 14.7891 22.7085C14.886 22.7083 14.9828 22.708 15.0797 22.7076C15.2825 22.7071 15.4853 22.7078 15.6881 22.7093C15.9477 22.711 16.2072 22.71 16.4667 22.7081C16.6667 22.707 16.8667 22.7074 17.0667 22.7082C17.1624 22.7084 17.2581 22.7081 17.3538 22.7074C17.4877 22.7066 17.6215 22.7078 17.7554 22.7096C17.8315 22.7098 17.9075 22.7101 17.9859 22.7103C18.1875 22.75 18.1875 22.75 18.3708 22.8658C18.5 23.0625 18.5 23.0625 18.5 23.75C16.85 23.75 15.2 23.75 13.5 23.75C13.5 23.0625 13.5 23.0625 13.6292 22.8658C13.852 22.725 13.9819 22.7104 14.2446 22.7096Z" fill="#88D5F6"/>
<path d="M16 14.7109C16.2537 14.7638 16.3375 14.863 16.5 15.0625C16.5404 15.2651 16.5404 15.2651 16.5415 15.4922C16.5421 15.6155 16.5421 15.6155 16.5427 15.7412C16.5421 15.7837 16.5414 15.8262 16.5407 15.87C16.5391 15.9997 16.5407 16.1291 16.5427 16.2588C16.5423 16.341 16.5419 16.4231 16.5415 16.5078C16.541 16.6202 16.541 16.6202 16.5404 16.7349C16.4875 17.0001 16.4046 17.0913 16.1875 17.25C15.9849 17.2904 15.9849 17.2904 15.7578 17.2915C15.6756 17.2919 15.5935 17.2923 15.5088 17.2927C15.4663 17.2921 15.4238 17.2914 15.38 17.2907C15.2503 17.2891 15.1209 17.2907 14.9912 17.2927C14.8679 17.2921 14.8679 17.2921 14.7422 17.2915C14.6298 17.291 14.6298 17.291 14.5151 17.2904C14.2562 17.2388 14.1626 17.1415 14 16.9375C13.9609 16.75 13.9609 16.75 14 16.5625C14.1285 16.3845 14.2269 16.2657 14.4495 16.2249C14.6093 16.2192 14.766 16.2227 14.9258 16.2305C14.981 16.2319 15.0362 16.2333 15.0931 16.2347C15.2288 16.2384 15.3644 16.244 15.5 16.25C15.4964 16.1679 15.4927 16.0858 15.489 16.0012C15.4861 15.8927 15.4832 15.7843 15.4805 15.6758C15.4779 15.6218 15.4752 15.5677 15.4725 15.5121C15.4671 15.2278 15.4689 15.1035 15.6458 14.8704C15.8125 14.75 15.8125 14.75 16 14.7109Z" fill="#5D556A"/>
<path d="M27 19.25C27.2294 19.3771 27.4249 19.5571 27.5 19.8125C27.5 19.9569 27.5 20.1013 27.5 20.25C27.005 20.25 26.51 20.25 26 20.25C26 19.722 26 19.722 26.1875 19.4375C26.4278 19.2315 26.6927 19.1851 27 19.25Z" fill="#88D5F6"/>
<path d="M5.5 19.25C5.72945 19.3771 5.92487 19.5571 6 19.8125C6 19.9569 6 20.1013 6 20.25C5.505 20.25 5.01 20.25 4.5 20.25C4.5 19.722 4.5 19.722 4.6875 19.4375C4.92781 19.2315 5.19267 19.1851 5.5 19.25Z" fill="#88D5F6"/>
<path d="M9.9375 19.25C10.169 19.3766 10.2909 19.4675 10.4375 19.6875C10.4375 19.8731 10.4375 20.0587 10.4375 20.25C9.96312 20.25 9.48875 20.25 9 20.25C9 19.6875 9 19.6875 9.14453 19.5039C9.43252 19.2829 9.57065 19.2127 9.9375 19.25Z" fill="#88D5F6"/>
<path d="M22.7383 19.4219C23.0026 19.6937 23 19.8662 23 20.25C22.505 20.25 22.01 20.25 21.5 20.25C21.5728 19.5947 21.5728 19.5947 21.8125 19.375C22.1296 19.1864 22.4309 19.2306 22.7383 19.4219Z" fill="#88D5F6"/>
<path d="M26 26.75C26.495 26.75 26.99 26.75 27.5 26.75C27.5 26.915 27.5 27.08 27.5 27.25C27.005 27.25 26.51 27.25 26 27.25C26 27.085 26 26.92 26 26.75Z" fill="#88D5F6"/>
<path d="M21.5 26.75C21.995 26.75 22.49 26.75 23 26.75C23 26.915 23 27.08 23 27.25C22.505 27.25 22.01 27.25 21.5 27.25C21.5 27.085 21.5 26.92 21.5 26.75Z" fill="#88D5F6"/>
<path d="M9 26.75C9.495 26.75 9.99 26.75 10.5 26.75C10.5 26.915 10.5 27.08 10.5 27.25C10.005 27.25 9.51 27.25 9 27.25C9 27.085 9 26.92 9 26.75Z" fill="#88D5F6"/>
<path d="M4.5 26.75C4.995 26.75 5.49 26.75 6 26.75C6 26.915 6 27.08 6 27.25C5.505 27.25 5.01 27.25 4.5 27.25C4.5 27.085 4.5 26.92 4.5 26.75Z" fill="#88D5F6"/>
<path d="M26 25.25C26.495 25.25 26.99 25.25 27.5 25.25C27.5 25.415 27.5 25.58 27.5 25.75C27.005 25.75 26.51 25.75 26 25.75C26 25.585 26 25.42 26 25.25Z" fill="#88D5F6"/>
<path d="M21.5 25.25C21.995 25.25 22.49 25.25 23 25.25C23 25.415 23 25.58 23 25.75C22.505 25.75 22.01 25.75 21.5 25.75C21.5 25.585 21.5 25.42 21.5 25.25Z" fill="#88D5F6"/>
<path d="M9 25.25C9.495 25.25 9.99 25.25 10.5 25.25C10.5 25.415 10.5 25.58 10.5 25.75C10.005 25.75 9.51 25.75 9 25.75C9 25.585 9 25.42 9 25.25Z" fill="#88D5F6"/>
<path d="M4.5 25.25C4.995 25.25 5.49 25.25 6 25.25C6 25.415 6 25.58 6 25.75C5.505 25.75 5.01 25.75 4.5 25.75C4.5 25.585 4.5 25.42 4.5 25.25Z" fill="#88D5F6"/>
<path d="M26 21.25C26.495 21.25 26.99 21.25 27.5 21.25C27.5 21.415 27.5 21.58 27.5 21.75C27.005 21.75 26.51 21.75 26 21.75C26 21.585 26 21.42 26 21.25Z" fill="#88D5F6"/>
<path d="M21.5 21.25C21.995 21.25 22.49 21.25 23 21.25C23 21.415 23 21.58 23 21.75C22.505 21.75 22.01 21.75 21.5 21.75C21.5 21.585 21.5 21.42 21.5 21.25Z" fill="#88D5F6"/>
<path d="M9 21.25C9.495 21.25 9.99 21.25 10.5 21.25C10.5 21.415 10.5 21.58 10.5 21.75C10.005 21.75 9.51 21.75 9 21.75C9 21.585 9 21.42 9 21.25Z" fill="#88D5F6"/>
<path d="M4.5 21.25C4.995 21.25 5.49 21.25 6 21.25C6 21.415 6 21.58 6 21.75C5.505 21.75 5.01 21.75 4.5 21.75C4.5 21.585 4.5 21.42 4.5 21.25Z" fill="#88D5F6"/>
</g>
<defs>
<clipPath id="clip0_2508_12264">
<rect width="32" height="32" fill="white"/>
</clipPath>
</defs>
</svg>
