<svg width="24" height="24" viewBox="0 0 24 24" fill="none" xmlns="http://www.w3.org/2000/svg">
<g clip-path="url(#clip0_2602_22161)">
<path d="M9.81016 -0.00664693C9.8499 -0.00698233 9.88965 -0.00731774 9.93059 -0.00766331C9.97382 -0.00778935 10.017 -0.00791539 10.0616 -0.00804525C10.1074 -0.00835328 10.1532 -0.0086613 10.2005 -0.00897866C10.3522 -0.00990273 10.5039 -0.0104502 10.6556 -0.0109177C10.7076 -0.0111088 10.7595 -0.0112998 10.813 -0.0114966C11.0881 -0.0124742 11.3631 -0.0131446 11.6382 -0.0135842C11.9214 -0.0141019 12.2047 -0.0157135 12.488 -0.0175766C12.7065 -0.0188058 12.925 -0.019195 13.1435 -0.019363C13.2478 -0.0195905 13.3522 -0.0201333 13.4566 -0.0210054C14.253 -0.0272455 14.8149 0.0196164 15.4103 0.595161C15.7518 0.963069 15.8372 1.4049 15.9172 1.88697C16.053 2.85951 16.053 2.85951 16.5588 3.67115C16.9351 3.90205 17.2779 3.99155 17.7189 3.93775C17.9912 3.86888 18.2519 3.76176 18.5129 3.65943C18.617 3.61957 18.7211 3.57997 18.8253 3.54051C18.8896 3.51607 18.9538 3.49136 19.0178 3.46632C19.5786 3.24965 20.1193 3.2827 20.6721 3.51588C21.1928 3.80479 21.5013 4.32542 21.7795 4.83131C21.8121 4.88958 21.8447 4.94783 21.8774 5.00603C21.9274 5.09495 21.9773 5.18388 22.027 5.27293C22.1832 5.55257 22.3441 5.82938 22.5061 6.10572C22.5324 6.15084 22.5587 6.19595 22.5858 6.24243C22.7261 6.48289 22.8676 6.72262 23.0101 6.96174C23.04 7.01215 23.0699 7.06256 23.1007 7.11449C23.1575 7.21043 23.2147 7.30617 23.2723 7.4017C23.5986 7.95362 23.7588 8.51228 23.6177 9.15406C23.394 9.87809 22.7748 10.3483 22.1858 10.781C21.8651 11.0208 21.5889 11.3098 21.5158 11.719C21.4752 12.1727 21.5463 12.5193 21.8029 12.8967C21.943 13.0491 22.108 13.1727 22.2708 13.2996C22.425 13.4212 22.5757 13.5464 22.7258 13.6731C22.751 13.6943 22.7763 13.7154 22.8023 13.7372C23.2841 14.1447 23.595 14.5638 23.6662 15.1995C23.6885 15.6108 23.6057 15.9602 23.4042 16.3192C23.3792 16.364 23.3542 16.4088 23.3285 16.4549C23.3026 16.5008 23.2768 16.5467 23.2502 16.594C23.2009 16.683 23.1515 16.7721 23.1022 16.8612C22.7724 17.4527 22.4367 18.0405 22.0933 18.6243C21.9925 18.7961 21.8936 18.9687 21.7967 19.1428C21.441 19.7796 21.0637 20.3907 20.3293 20.6194C19.6992 20.7657 19.1969 20.6016 18.6114 20.3782C18.5606 20.3592 18.5098 20.3402 18.4575 20.3206C18.3561 20.2823 18.2549 20.2433 18.1541 20.2033C17.7329 20.0443 17.3398 19.9879 16.9074 20.1389C16.4995 20.3272 16.2822 20.5802 16.1252 21.0003C16.0517 21.2851 16.0086 21.5774 15.9611 21.8674C15.8413 22.5999 15.7078 23.2446 15.0709 23.7108C14.6895 23.9502 14.3662 24.0143 13.9228 24.0139C13.877 24.0142 13.8311 24.0145 13.7839 24.0148C13.6329 24.0157 13.482 24.0159 13.331 24.016C13.2255 24.0163 13.12 24.0166 13.0145 24.0169C12.7936 24.0175 12.5726 24.0177 12.3516 24.0176C12.0694 24.0176 11.7873 24.0189 11.5051 24.0205C11.2872 24.0216 11.0693 24.0217 10.8515 24.0217C10.7475 24.0218 10.6435 24.0222 10.5395 24.0229C9.81178 24.0276 9.22581 24.0132 8.67207 23.4846C8.18679 22.9763 8.10683 22.3351 8.00274 21.6682C7.88188 20.8998 7.88188 20.8998 7.40644 20.3088C7.04526 20.0831 6.70431 20.0118 6.28144 20.0628C6.00915 20.1315 5.74852 20.2387 5.4875 20.3411C5.38343 20.3809 5.27927 20.4205 5.17506 20.46C5.11077 20.4844 5.04659 20.5091 4.98254 20.5342C4.42178 20.7509 3.88112 20.7178 3.32832 20.4846C2.80758 20.1957 2.49912 19.6751 2.2209 19.1692C2.18831 19.1109 2.15566 19.0527 2.12296 18.9945C2.073 18.9056 2.02309 18.8166 1.97336 18.7276C1.81716 18.4479 1.65629 18.1711 1.49433 17.8948C1.46802 17.8497 1.44171 17.8046 1.4146 17.7581C1.27428 17.5176 1.13283 17.2779 0.990243 17.0388C0.960371 16.9884 0.930498 16.9379 0.899721 16.886C0.84285 16.7901 0.785666 16.6943 0.728105 16.5988C0.410992 16.0624 0.240707 15.5208 0.381052 14.8948C0.511386 14.4443 0.745217 14.0743 1.11347 13.7815C1.15837 13.7452 1.20326 13.7089 1.24952 13.6715C1.36431 13.5798 1.4805 13.4902 1.59705 13.4008C2.18886 12.9484 2.18886 12.9484 2.48457 12.2815C2.52515 11.8278 2.4541 11.4812 2.19746 11.1038C2.05741 10.9514 1.89241 10.8278 1.72962 10.7009C1.57535 10.5794 1.42467 10.4541 1.27461 10.3274C1.23672 10.2957 1.23672 10.2957 1.19807 10.2633C0.716281 9.85584 0.405399 9.43674 0.334177 8.80103C0.304994 8.26333 0.483237 7.86049 0.750192 7.4065C0.783534 7.34649 0.816662 7.28636 0.849618 7.22614C1.09733 6.77363 1.35421 6.32679 1.61567 5.88209C1.76579 5.62654 1.91382 5.37003 2.05866 5.11146C2.08949 5.05679 2.12033 5.00213 2.15119 4.94749C2.20946 4.84406 2.26729 4.74037 2.32457 4.63639C2.64039 4.07834 3.04025 3.57751 3.67109 3.38111C4.3012 3.23476 4.80351 3.39895 5.38899 3.62226C5.43976 3.6413 5.49054 3.66034 5.54285 3.67995C5.64432 3.71816 5.74547 3.7572 5.84623 3.79721C6.26745 3.95616 6.66058 4.01263 7.09297 3.86158C7.5008 3.67335 7.71834 3.42032 7.87519 3.00025C7.9573 2.67983 8.00257 2.34987 8.05478 2.02357C8.16045 1.37306 8.30054 0.745328 8.85957 0.328377C9.16351 0.149841 9.45297 -0.00456789 9.81016 -0.00664693ZM10.0314 1.87525C9.93863 2.40119 9.84582 2.92713 9.75019 3.469C9.38147 4.42768 8.95238 5.12017 8.01582 5.57838C7.15997 5.92901 6.26859 5.98222 5.39082 5.67213C5.3433 5.65553 5.29578 5.63894 5.24683 5.62184C4.90302 5.50113 4.56059 5.37693 4.21894 5.25025C4.20132 5.28079 4.18371 5.31133 4.16556 5.34279C4.14057 5.38609 4.11559 5.42939 4.08985 5.47401C4.06174 5.52274 4.03363 5.57146 4.00466 5.62167C3.94164 5.7309 3.87863 5.84013 3.81561 5.94936C3.65395 6.22956 3.49231 6.50976 3.3307 6.78999C3.30106 6.84135 3.27142 6.89271 3.24088 6.94563C3.18219 7.04744 3.1236 7.1493 3.0651 7.25123C2.92931 7.48754 2.79223 7.72274 2.65064 7.95564C2.6136 8.01727 2.6136 8.01727 2.5758 8.08016C2.52995 8.15625 2.4835 8.23198 2.43636 8.30728C2.40648 8.35718 2.40648 8.35718 2.37599 8.40809C2.35837 8.43666 2.34075 8.46523 2.3226 8.49467C2.28692 8.58153 2.28692 8.58153 2.33337 8.67763C2.40579 8.78888 2.48714 8.85268 2.59297 8.93287C3.48499 9.62739 4.25614 10.3528 4.40644 11.5315C4.49033 12.4507 4.317 13.3428 3.72639 14.073C3.31273 14.554 2.80063 14.9471 2.29707 15.3284C2.36314 15.5563 2.46443 15.7482 2.58711 15.9495C2.62959 16.0204 2.672 16.0914 2.71436 16.1624C2.73756 16.2012 2.76076 16.2401 2.78465 16.28C2.92514 16.5172 3.06203 16.7564 3.19941 16.9954C3.53698 17.5817 3.87741 18.1663 4.21894 18.7503C4.28166 18.7276 4.28166 18.7276 4.34564 18.7044C4.50256 18.6478 4.65955 18.5914 4.81661 18.5351C4.88424 18.5108 4.95184 18.4865 5.0194 18.462C6.04963 18.0892 7.01243 17.9731 8.04215 18.44C8.32699 18.5766 8.55715 18.7391 8.7812 18.961C8.85362 19.042 8.85362 19.042 8.95332 19.0315C8.96564 19.0586 8.97797 19.0858 8.99067 19.1137C9.04991 19.2243 9.11814 19.3082 9.19941 19.4036C9.80505 20.1767 9.87564 21.1904 10.0314 22.1253C11.3308 22.1253 12.6302 22.1253 13.9689 22.1253C14.0618 21.5993 14.1546 21.0734 14.2502 20.5315C14.6534 19.4831 14.6534 19.4831 15.0471 19.1253C15.0471 19.0943 15.0471 19.0634 15.0471 19.0315C15.0741 19.0192 15.1012 19.0068 15.1291 18.9941C15.2401 18.9348 15.3258 18.8664 15.4221 18.7854C16.1514 18.2141 17.0032 18.0609 17.9064 18.1409C18.1504 18.1788 18.3775 18.2464 18.6096 18.3284C18.6808 18.3533 18.6808 18.3533 18.7536 18.3787C19.0974 18.4994 19.4398 18.6236 19.7814 18.7503C19.7991 18.7197 19.8167 18.6892 19.8348 18.6577C19.8598 18.6144 19.8848 18.5711 19.9105 18.5265C19.9527 18.4534 19.9527 18.4534 19.9957 18.3788C20.0587 18.2696 20.1218 18.1604 20.1848 18.0511C20.3464 17.7709 20.5081 17.4907 20.6697 17.2105C20.6993 17.1592 20.729 17.1078 20.7595 17.0549C20.8182 16.9531 20.8768 16.8512 20.9353 16.7493C21.0711 16.513 21.2082 16.2778 21.3497 16.0449C21.3744 16.0038 21.3991 15.9627 21.4246 15.9203C21.4704 15.8443 21.5169 15.7685 21.564 15.6932C21.5839 15.66 21.6039 15.6267 21.6244 15.5924C21.642 15.5638 21.6596 15.5353 21.6778 15.5058C21.7135 15.419 21.7135 15.419 21.667 15.3229C21.5946 15.2116 21.5132 15.1478 21.4074 15.0676C20.5154 14.3731 19.7442 13.6477 19.5939 12.469C19.5101 11.5498 19.6834 10.6577 20.274 9.9275C20.6877 9.44654 21.1998 9.05338 21.7033 8.67213C21.6372 8.44419 21.5359 8.25235 21.4133 8.05103C21.3708 7.98008 21.3284 7.9091 21.286 7.83808C21.2628 7.79927 21.2396 7.76045 21.2157 7.72046C21.0752 7.48331 20.9384 7.24409 20.801 7.00513C20.4634 6.41884 20.123 5.83425 19.7814 5.25025C19.7396 5.26538 19.6978 5.28051 19.6547 5.2961C19.4978 5.35274 19.3408 5.40914 19.1838 5.4654C19.1161 5.48968 19.0485 5.51404 18.981 5.53851C17.9508 5.91132 16.988 6.02743 15.9582 5.56055C15.6734 5.42394 15.4432 5.26144 15.2192 5.0395C15.1468 4.95855 15.1468 4.95855 15.0471 4.969C15.0347 4.94187 15.0224 4.91474 15.0097 4.88679C14.9505 4.7762 14.8822 4.6923 14.801 4.59693C14.1953 3.82383 14.1247 2.81009 13.9689 1.87525C12.6696 1.87525 11.3702 1.87525 10.0314 1.87525Z" fill="#E8B600"/>
<path d="M14.7532 8.21615C15.7946 9.0237 16.4584 10.125 16.6406 11.4376C16.7416 12.7284 16.4356 13.9873 15.5917 14.9913C14.7953 15.9068 13.7322 16.5063 12.5156 16.6407C11.1429 16.7132 9.89281 16.388 8.85765 15.4584C7.97653 14.6426 7.39185 13.508 7.34355 12.2958C7.32265 10.9266 7.72102 9.72142 8.6718 8.71887C10.2519 7.09818 12.9257 6.87419 14.7532 8.21615ZM9.7968 10.3595C9.35094 10.97 9.19171 11.6777 9.28117 12.422C9.42193 13.1993 9.85345 13.8084 10.4703 14.2899C11.0722 14.6861 11.8174 14.83 12.5238 14.7001C13.2888 14.5255 13.9394 14.0731 14.3642 13.4093C14.73 12.7475 14.821 11.9973 14.6484 11.2648C14.4382 10.5684 13.9833 9.99827 13.3681 9.61242C12.0937 8.93189 10.717 9.28038 9.7968 10.3595Z" fill="#E8B600"/>
</g>
<defs>
<clipPath id="clip0_2602_22161">
<rect width="24" height="24" fill="white"/>
</clipPath>
</defs>
</svg>
