<svg width="24" height="24" viewBox="0 0 24 24" fill="none" xmlns="http://www.w3.org/2000/svg">
<g clip-path="url(#clip0_2602_20645)">
<path d="M9.81016 -0.00689107C9.8499 -0.00722647 9.88965 -0.00756188 9.93059 -0.00790745C9.97382 -0.00803349 10.017 -0.00815953 10.0616 -0.00828939C10.1074 -0.00859742 10.1532 -0.00890544 10.2005 -0.0092228C10.3522 -0.0101469 10.5039 -0.0106944 10.6556 -0.0111619C10.7076 -0.0113529 10.7595 -0.0115439 10.813 -0.0117408C11.0881 -0.0127184 11.3631 -0.0133888 11.6382 -0.0138283C11.9214 -0.0143461 12.2047 -0.0159576 12.488 -0.0178208C12.7065 -0.01905 12.925 -0.0194391 13.1435 -0.0196072C13.2478 -0.0198347 13.3522 -0.0203774 13.4566 -0.0212496C14.253 -0.0274896 14.8149 0.0193723 15.4103 0.594917C15.7518 0.962825 15.8372 1.40466 15.9172 1.88673C16.053 2.85926 16.053 2.85926 16.5588 3.67091C16.9351 3.9018 17.2779 3.99131 17.7189 3.93751C17.9912 3.86863 18.2519 3.76152 18.5129 3.65919C18.617 3.61932 18.7211 3.57973 18.8253 3.54027C18.8896 3.51583 18.9538 3.49112 19.0178 3.46608C19.5786 3.24941 20.1193 3.28245 20.6721 3.51563C21.1928 3.80454 21.5013 4.32518 21.7795 4.83106C21.8121 4.88934 21.8447 4.94758 21.8774 5.00579C21.9274 5.09471 21.9773 5.18364 22.027 5.27268C22.1832 5.55232 22.3441 5.82914 22.5061 6.10548C22.5324 6.15059 22.5587 6.19571 22.5858 6.24219C22.7261 6.48264 22.8676 6.72238 23.0101 6.96149C23.04 7.0119 23.0699 7.06231 23.1007 7.11425C23.1575 7.21018 23.2147 7.30593 23.2723 7.40145C23.5986 7.95337 23.7588 8.51203 23.6177 9.15382C23.394 9.87784 22.7748 10.3481 22.1858 10.7807C21.8651 11.0206 21.5889 11.3096 21.5158 11.7188C21.4752 12.1724 21.5463 12.5191 21.8029 12.8965C21.943 13.0488 22.108 13.1724 22.2708 13.2993C22.425 13.4209 22.5757 13.5461 22.7258 13.6729C22.751 13.694 22.7763 13.7152 22.8023 13.737C23.2841 14.1444 23.595 14.5635 23.6662 15.1992C23.6885 15.6105 23.6057 15.96 23.4042 16.3189C23.3792 16.3637 23.3542 16.4085 23.3285 16.4547C23.3026 16.5006 23.2768 16.5465 23.2502 16.5938C23.2009 16.6828 23.1515 16.7718 23.1022 16.8609C22.7724 17.4525 22.4367 18.0402 22.0933 18.624C21.9925 18.7958 21.8936 18.9685 21.7967 19.1426C21.441 19.7794 21.0637 20.3905 20.3293 20.6191C19.6992 20.7655 19.1969 20.6013 18.6114 20.378C18.5606 20.359 18.5098 20.3399 18.4575 20.3203C18.3561 20.2821 18.2549 20.2431 18.1541 20.2031C17.7329 20.0441 17.3398 19.9876 16.9074 20.1387C16.4995 20.327 16.2822 20.5799 16.1252 21C16.0517 21.2849 16.0086 21.5771 15.9611 21.8672C15.8413 22.5997 15.7078 23.2443 15.0709 23.7105C14.6895 23.9499 14.3662 24.0141 13.9228 24.0136C13.877 24.0139 13.8311 24.0143 13.7839 24.0146C13.6329 24.0155 13.482 24.0157 13.331 24.0158C13.2255 24.0161 13.12 24.0164 13.0145 24.0167C12.7936 24.0173 12.5726 24.0174 12.3516 24.0174C12.0694 24.0174 11.7873 24.0187 11.5051 24.0203C11.2872 24.0213 11.0693 24.0215 10.8515 24.0214C10.7475 24.0216 10.6435 24.022 10.5395 24.0227C9.81178 24.0273 9.22581 24.013 8.67207 23.4844C8.18679 22.976 8.10683 22.3348 8.00274 21.6679C7.88188 20.8996 7.88188 20.8996 7.40644 20.3086C7.04526 20.0829 6.70431 20.0115 6.28144 20.0625C6.00915 20.1313 5.74852 20.2385 5.4875 20.3408C5.38343 20.3807 5.27927 20.4203 5.17506 20.4597C5.11077 20.4842 5.04659 20.5089 4.98254 20.5339C4.42178 20.7506 3.88112 20.7176 3.32832 20.4844C2.80758 20.1955 2.49912 19.6748 2.2209 19.169C2.18831 19.1107 2.15566 19.0524 2.12296 18.9942C2.073 18.9053 2.02309 18.8164 1.97336 18.7273C1.81716 18.4477 1.65629 18.1709 1.49433 17.8945C1.46802 17.8494 1.44171 17.8043 1.4146 17.7578C1.27428 17.5174 1.13283 17.2776 0.990243 17.0385C0.960371 16.9881 0.930498 16.9377 0.899721 16.8858C0.84285 16.7898 0.785666 16.6941 0.728105 16.5986C0.410992 16.0621 0.240707 15.5205 0.381052 14.8945C0.511386 14.444 0.745217 14.074 1.11347 13.7813C1.15837 13.7449 1.20326 13.7086 1.24952 13.6712C1.36431 13.5796 1.4805 13.4899 1.59705 13.4006C2.18886 12.9481 2.18886 12.9481 2.48457 12.2813C2.52515 11.8276 2.4541 11.4809 2.19746 11.1035C2.05741 10.9512 1.89241 10.8276 1.72962 10.7007C1.57535 10.5791 1.42467 10.4539 1.27461 10.3272C1.23672 10.2954 1.23672 10.2954 1.19807 10.263C0.716281 9.85559 0.405399 9.43649 0.334177 8.80079C0.304994 8.26309 0.483237 7.86025 0.750192 7.40626C0.783534 7.34625 0.816662 7.28612 0.849618 7.2259C1.09733 6.77338 1.35421 6.32654 1.61567 5.88185C1.76579 5.6263 1.91382 5.36979 2.05866 5.11121C2.08949 5.05655 2.12033 5.00189 2.15119 4.94724C2.20946 4.84381 2.26729 4.74013 2.32457 4.63615C2.64039 4.07809 3.04025 3.57727 3.67109 3.38087C4.3012 3.23451 4.80351 3.3987 5.38899 3.62202C5.43976 3.64105 5.49054 3.66009 5.54285 3.67971C5.64432 3.71791 5.74547 3.75696 5.84623 3.79696C6.26745 3.95592 6.66058 4.01238 7.09297 3.86134C7.5008 3.6731 7.71834 3.42008 7.87519 3.00001C7.9573 2.67959 8.00257 2.34963 8.05478 2.02332C8.16045 1.37281 8.30054 0.745084 8.85957 0.328133C9.16351 0.149597 9.45297 -0.00481203 9.81016 -0.00689107ZM10.0314 1.87501C9.93863 2.40095 9.84582 2.92688 9.75019 3.46876C9.38147 4.42744 8.95238 5.11993 8.01582 5.57813C7.15997 5.92877 6.26859 5.98198 5.39082 5.67188C5.3433 5.65529 5.29578 5.63869 5.24683 5.6216C4.90302 5.50089 4.56059 5.37669 4.21894 5.25001C4.20132 5.28054 4.18371 5.31108 4.16556 5.34254C4.14057 5.38585 4.11559 5.42915 4.08985 5.47376C4.06174 5.52249 4.03363 5.57122 4.00466 5.62143C3.94164 5.73066 3.87863 5.83989 3.81561 5.94912C3.65395 6.22931 3.49231 6.50952 3.3307 6.78974C3.30106 6.8411 3.27142 6.89246 3.24088 6.94538C3.18219 7.04719 3.1236 7.14906 3.0651 7.25098C2.92931 7.48729 2.79223 7.7225 2.65064 7.95539C2.6136 8.01703 2.6136 8.01703 2.5758 8.07991C2.52995 8.156 2.4835 8.23174 2.43636 8.30703C2.40648 8.35693 2.40648 8.35693 2.37599 8.40784C2.35837 8.43642 2.34075 8.46499 2.3226 8.49443C2.28692 8.58128 2.28692 8.58128 2.33337 8.67739C2.40579 8.78863 2.48714 8.85243 2.59297 8.93262C3.48499 9.62714 4.25614 10.3525 4.40644 11.5313C4.49033 12.4505 4.317 13.3425 3.72639 14.0728C3.31273 14.5537 2.80063 14.9469 2.29707 15.3281C2.36314 15.5561 2.46443 15.7479 2.58711 15.9492C2.62959 16.0202 2.672 16.0912 2.71436 16.1622C2.73756 16.201 2.76076 16.2398 2.78465 16.2798C2.92514 16.5169 3.06203 16.7562 3.19941 16.9951C3.53698 17.5814 3.87741 18.166 4.21894 18.75C4.28166 18.7273 4.28166 18.7273 4.34564 18.7042C4.50256 18.6475 4.65955 18.5911 4.81661 18.5349C4.88424 18.5106 4.95184 18.4862 5.0194 18.4618C6.04963 18.0889 7.01243 17.9728 8.04215 18.4397C8.32699 18.5763 8.55715 18.7388 8.7812 18.9608C8.85362 19.0417 8.85362 19.0417 8.95332 19.0313C8.96564 19.0584 8.97797 19.0855 8.99067 19.1135C9.04991 19.2241 9.11814 19.308 9.19941 19.4033C9.80505 20.1764 9.87564 21.1902 10.0314 22.125C11.3308 22.125 12.6302 22.125 13.9689 22.125C14.0618 21.5991 14.1546 21.0731 14.2502 20.5313C14.6534 19.4829 14.6534 19.4829 15.0471 19.125C15.0471 19.0941 15.0471 19.0631 15.0471 19.0313C15.0741 19.0189 15.1012 19.0066 15.1291 18.9939C15.2401 18.9345 15.3258 18.8661 15.4221 18.7852C16.1514 18.2138 17.0032 18.0606 17.9064 18.1406C18.1504 18.1785 18.3775 18.2461 18.6096 18.3281C18.6808 18.353 18.6808 18.353 18.7536 18.3784C19.0974 18.4991 19.4398 18.6233 19.7814 18.75C19.7991 18.7195 19.8167 18.6889 19.8348 18.6575C19.8598 18.6142 19.8848 18.5709 19.9105 18.5263C19.9527 18.4532 19.9527 18.4532 19.9957 18.3786C20.0587 18.2694 20.1218 18.1601 20.1848 18.0509C20.3464 17.7707 20.5081 17.4905 20.6697 17.2103C20.6993 17.1589 20.729 17.1076 20.7595 17.0546C20.8182 16.9528 20.8768 16.851 20.9353 16.749C21.0711 16.5127 21.2082 16.2775 21.3497 16.0446C21.3744 16.0035 21.3991 15.9624 21.4246 15.9201C21.4704 15.844 21.5169 15.7683 21.564 15.693C21.5839 15.6597 21.6039 15.6264 21.6244 15.5922C21.642 15.5636 21.6596 15.535 21.6778 15.5056C21.7135 15.4187 21.7135 15.4187 21.667 15.3226C21.5946 15.2114 21.5132 15.1476 21.4074 15.0674C20.5154 14.3729 19.7442 13.6475 19.5939 12.4688C19.5101 11.5495 19.6834 10.6575 20.274 9.92725C20.6877 9.4463 21.1998 9.05313 21.7033 8.67188C21.6372 8.44395 21.5359 8.25211 21.4133 8.05079C21.3708 7.97984 21.3284 7.90885 21.286 7.83784C21.2628 7.79902 21.2396 7.76021 21.2157 7.72021C21.0752 7.48307 20.9384 7.24384 20.801 7.00489C20.4634 6.41859 20.123 5.83401 19.7814 5.25001C19.7396 5.26514 19.6978 5.28027 19.6547 5.29585C19.4978 5.35249 19.3408 5.4089 19.1838 5.46516C19.1161 5.48943 19.0485 5.5138 18.981 5.53826C17.9508 5.91107 16.988 6.02718 15.9582 5.5603C15.6734 5.42369 15.4432 5.2612 15.2192 5.03925C15.1468 4.95831 15.1468 4.95831 15.0471 4.96876C15.0347 4.94163 15.0224 4.9145 15.0097 4.88654C14.9505 4.77595 14.8822 4.69206 14.801 4.59669C14.1953 3.82359 14.1247 2.80985 13.9689 1.87501C12.6696 1.87501 11.3702 1.87501 10.0314 1.87501Z" fill="white"/>
<path d="M14.7532 8.21603C15.7946 9.02357 16.4584 10.1249 16.6406 11.4375C16.7416 12.7282 16.4356 13.9871 15.5917 14.9912C14.7953 15.9067 13.7322 16.5062 12.5156 16.6406C11.1429 16.7131 9.89281 16.3878 8.85765 15.4583C7.97653 14.6425 7.39185 13.5079 7.34355 12.2957C7.32265 10.9264 7.72102 9.7213 8.6718 8.71874C10.2519 7.09806 12.9257 6.87407 14.7532 8.21603ZM9.7968 10.3594C9.35094 10.9698 9.19171 11.6776 9.28117 12.4219C9.42193 13.1992 9.85345 13.8083 10.4703 14.2897C11.0722 14.686 11.8174 14.8299 12.5238 14.7C13.2888 14.5254 13.9394 14.073 14.3642 13.4092C14.73 12.7473 14.821 11.9972 14.6484 11.2646C14.4382 10.5683 13.9833 9.99814 13.3681 9.6123C12.0937 8.93177 10.717 9.28026 9.7968 10.3594Z" fill="white"/>
</g>
<defs>
<clipPath id="clip0_2602_20645">
<rect width="24" height="24" fill="white"/>
</clipPath>
</defs>
</svg>
