<svg width="160" height="151" viewBox="0 0 160 151" fill="none" xmlns="http://www.w3.org/2000/svg">
<g clip-path="url(#clip0_149_13929)">
<path d="M80 151.004C124.183 151.004 160 130.277 160 104.708C160 79.1403 124.183 58.4132 80 58.4132C35.8172 58.4132 0 79.1403 0 104.708C0 130.277 35.8172 151.004 80 151.004Z" fill="#F5F5F5"/>
<path d="M94.363 143.092L133.611 120.384C134.471 119.887 134.471 119.079 133.611 118.582L59.3042 75.5775C58.8216 75.3321 58.2881 75.2042 57.747 75.2042C57.2059 75.2042 56.6724 75.3321 56.1899 75.5775L16.9415 98.2854C16.082 98.7828 16.082 99.5902 16.9415 100.088L91.2488 143.092C91.7313 143.337 92.2648 143.465 92.8059 143.465C93.347 143.465 93.8805 143.337 94.363 143.092Z" fill="#E0E0E0"/>
<path d="M131.231 112.66C131.792 113.092 131.731 113.709 131.055 114.102L94.0255 135.537C93.6079 135.749 93.1466 135.859 92.6787 135.859C92.2108 135.859 91.7495 135.749 91.332 135.537L20.5165 94.5656C19.8297 94.1691 19.7757 93.5455 20.3583 93.1238C20.0099 93.3874 19.723 93.7238 19.5174 94.1097C19.3119 94.4956 19.1926 94.9218 19.168 95.3585V97.1427C19.1937 97.6119 19.3291 98.0684 19.5634 98.4754C19.7976 98.8824 20.1242 99.2285 20.5165 99.4856L91.3068 140.443C91.7245 140.656 92.1866 140.767 92.6553 140.767C93.1241 140.767 93.5862 140.656 94.0039 140.443L131.044 119.011C131.437 118.755 131.763 118.409 131.998 118.003C132.232 117.596 132.367 117.14 132.393 116.671V114.869C132.367 114.439 132.251 114.02 132.05 113.639C131.85 113.258 131.571 112.924 131.231 112.66Z" fill="#455A64"/>
<path d="M131.065 112.541L60.2531 71.5694C59.8356 71.3578 59.3742 71.2475 58.9064 71.2475C58.4385 71.2475 57.9772 71.3578 57.5596 71.5694L20.5192 93.0085C19.7748 93.4374 19.7748 94.1367 20.5192 94.5656L91.3131 135.537C91.7306 135.749 92.192 135.859 92.6598 135.859C93.1277 135.859 93.5891 135.749 94.0066 135.537L131.047 114.098C131.784 113.669 131.784 112.97 131.065 112.541ZM121.46 109.228C122.096 109.589 122.096 110.194 121.46 110.562L87.7781 130.058C87.4195 130.24 87.0235 130.334 86.6219 130.334C86.2203 130.334 85.8243 130.24 85.4657 130.058L30.3295 98.1448C29.693 97.7843 29.693 97.1752 30.3295 96.8075L64.0147 77.3148C64.6512 76.9544 65.3165 76.7309 65.953 77.0985L121.46 109.228Z" fill="#37474F"/>
<path d="M20.3583 93.0986C20.0099 93.3621 19.723 93.6986 19.5174 94.0845C19.3119 94.4704 19.1926 94.8966 19.168 95.3333V97.1175C19.1939 97.5866 19.3295 98.043 19.5637 98.45C19.798 98.857 20.1244 99.203 20.5165 99.4604L91.3068 140.443C91.7232 140.663 92.1882 140.774 92.6589 140.767V135.858C92.1896 135.867 91.7257 135.756 91.3104 135.537L20.5165 94.5656C19.8297 94.1799 19.7757 93.5455 20.3583 93.0986Z" fill="#263238"/>
<path d="M42.6007 84.3939C43.1006 84.1055 43.1006 83.637 42.6007 83.3486C42.3219 83.2076 42.014 83.1342 41.7017 83.1342C41.3894 83.1342 41.0814 83.2076 40.8026 83.3486C40.3028 83.637 40.3028 84.1055 40.8026 84.3939C41.0814 84.5349 41.3894 84.6083 41.7017 84.6083C42.014 84.6083 42.3219 84.5349 42.6007 84.3939Z" fill="black"/>
<path d="M111.158 123.599C112.334 122.922 112.334 121.819 111.158 121.141C110.499 120.804 109.77 120.628 109.031 120.628C108.291 120.628 107.562 120.804 106.903 121.141C105.727 121.819 105.727 122.922 106.903 123.599C107.562 123.936 108.291 124.112 109.031 124.112C109.77 124.112 110.499 123.936 111.158 123.599Z" stroke="#E6E6E6" stroke-miterlimit="10"/>
<path d="M41.6982 87.8614L48.6747 83.828C49.0883 83.5865 49.1098 83.208 48.7214 82.981C48.4949 82.8728 48.2465 82.8188 47.9957 82.8232C47.7448 82.8276 47.4984 82.8902 47.2758 83.0062L40.2993 87.0395C39.8857 87.281 39.8641 87.6595 40.2525 87.8866C40.479 87.9947 40.7274 88.0487 40.9783 88.0444C41.2291 88.04 41.4756 87.9773 41.6982 87.8614Z" fill="black"/>
<path d="M65.9544 77.113C65.3179 76.7525 64.6526 76.958 64.0161 77.3292L30.3309 96.8219C29.6944 97.1824 29.6944 97.7879 30.3309 98.1592L85.4527 130.055C85.8113 130.236 86.2073 130.33 86.6089 130.33C87.0105 130.33 87.4065 130.236 87.7651 130.055L121.447 110.558C122.087 110.198 122.087 109.592 121.447 109.225L65.9544 77.113Z" fill="#E8B600"/>
<path opacity="0.85" d="M65.9544 77.113C65.3179 76.7525 64.6526 76.958 64.0161 77.3292L30.3309 96.8219C29.6944 97.1824 29.6944 97.7879 30.3309 98.1592L85.4527 130.055C85.8113 130.236 86.2073 130.33 86.6089 130.33C87.0105 130.33 87.4065 130.236 87.7651 130.055L121.447 110.558C122.087 110.198 122.087 109.592 121.447 109.225L65.9544 77.113Z" fill="white"/>
<path d="M34.2108 98.5737L33.8512 98.3646C33.8347 98.3585 33.8204 98.3474 33.8104 98.3329C33.8003 98.3184 33.7949 98.3012 33.7949 98.2835C33.7949 98.2659 33.8003 98.2486 33.8104 98.2341C33.8204 98.2196 33.8347 98.2086 33.8512 98.2024L33.8908 98.1808C33.9339 98.1578 33.9821 98.1457 34.031 98.1457C34.0799 98.1457 34.1281 98.1578 34.1713 98.1808L34.5309 98.3863C34.6064 98.4331 34.6064 98.5052 34.5309 98.5485L34.4913 98.5737C34.4476 98.595 34.3997 98.6061 34.3511 98.6061C34.3025 98.6061 34.2545 98.595 34.2108 98.5737Z" fill="#455A64"/>
<path d="M34.8506 98.2024L34.2285 97.842C34.153 97.7987 34.153 97.7267 34.2285 97.6798L34.2681 97.6582C34.3118 97.6368 34.3597 97.6257 34.4083 97.6257C34.4569 97.6257 34.5049 97.6368 34.5486 97.6582L35.1707 98.0186C35.2462 98.0619 35.2462 98.134 35.1707 98.1808L35.1311 98.2024C35.0875 98.2238 35.0395 98.2349 34.9909 98.2349C34.9423 98.2349 34.8943 98.2238 34.8506 98.2024Z" fill="#455A64"/>
<path d="M35.4912 97.8312L34.6101 97.323C34.531 97.2761 34.531 97.204 34.6101 97.1608L34.6497 97.1355C34.6934 97.1142 34.7413 97.1031 34.7899 97.1031C34.8385 97.1031 34.8865 97.1142 34.9302 97.1355L35.8112 97.6474C35.8278 97.6535 35.842 97.6646 35.8521 97.6791C35.8621 97.6936 35.8675 97.7108 35.8675 97.7285C35.8675 97.7461 35.8621 97.7634 35.8521 97.7779C35.842 97.7923 35.8278 97.8034 35.8112 97.8096L35.7717 97.8312C35.7285 97.8542 35.6803 97.8663 35.6314 97.8663C35.5825 97.8663 35.5344 97.8542 35.4912 97.8312Z" fill="#455A64"/>
<path d="M36.1274 97.4635L34.6062 96.5804C34.5271 96.5372 34.5271 96.4651 34.6062 96.4182L34.6458 96.3966C34.6892 96.3745 34.7373 96.3629 34.786 96.3629C34.8348 96.3629 34.8828 96.3745 34.9263 96.3966L36.4438 97.2761C36.523 97.323 36.523 97.395 36.4438 97.4383L36.4079 97.4635C36.3642 97.4849 36.3162 97.496 36.2676 97.496C36.219 97.496 36.1711 97.4849 36.1274 97.4635Z" fill="#455A64"/>
<path d="M37.9646 96.5192C37.9403 96.522 37.916 96.5156 37.8962 96.5012L37.6733 96.3714L36.9541 96.7859C36.9386 96.7963 36.9205 96.8018 36.9019 96.8018C36.8833 96.8018 36.8652 96.7963 36.8498 96.7859L36.767 96.739L36.7311 96.7138V96.6778L36.6951 95.7731C36.6928 95.76 36.6928 95.7465 36.6951 95.7334C36.707 95.7196 36.7217 95.7085 36.7383 95.701L36.8354 95.6433C36.8608 95.6284 36.8889 95.6186 36.9181 95.6145C36.9447 95.6149 36.9708 95.6223 36.9936 95.6361L37.774 96.0866L37.9322 95.9965C37.9559 95.9807 37.983 95.9708 38.0113 95.9677C38.0369 95.9676 38.0619 95.9752 38.0832 95.9893L38.1372 96.0218C38.1624 96.0218 38.1731 96.047 38.1695 96.0614C38.166 96.0758 38.1696 96.0866 38.1228 96.1047L37.9646 96.1984L38.1875 96.3281C38.2127 96.3281 38.2235 96.3534 38.2199 96.3678C38.2163 96.3822 38.2019 96.3966 38.1695 96.4147L38.0473 96.4831C38.024 96.5033 37.9952 96.5159 37.9646 96.5192ZM37.5294 96.2344L36.972 95.9136L37.008 96.5372L37.5294 96.2344Z" fill="#455A64"/>
<path d="M38.6812 95.9497C38.4295 95.9618 38.1796 95.9005 37.962 95.7731C37.7391 95.6433 37.6384 95.5027 37.6563 95.3513C37.6743 95.2 37.8146 95.0522 38.0699 94.9044C38.1706 94.8445 38.2766 94.7939 38.3864 94.753C38.4829 94.7155 38.5829 94.6878 38.6848 94.6701C38.6999 94.6643 38.7166 94.6643 38.7316 94.6701C38.7331 94.676 38.7331 94.6822 38.7316 94.6881L38.764 94.7819C38.7675 94.7858 38.7694 94.7909 38.7694 94.7963C38.7694 94.8016 38.7675 94.8067 38.764 94.8107H38.7244C38.5695 94.8414 38.4211 94.8987 38.2857 94.9801C38.113 95.0774 38.0196 95.1819 38.0052 95.2865C37.9908 95.391 38.0699 95.4955 38.2425 95.5928C38.4003 95.6896 38.5827 95.7384 38.7675 95.7334C38.9505 95.7266 39.1287 95.6733 39.2854 95.5784C39.3415 95.5457 39.3955 95.5096 39.4472 95.4703C39.4882 95.4411 39.5246 95.4059 39.5551 95.3658L39.1955 95.1567L38.897 95.3297C38.8716 95.3446 38.8435 95.3544 38.8143 95.3585C38.7889 95.3577 38.7641 95.3502 38.7424 95.3369L38.692 95.3081C38.6681 95.2937 38.6573 95.2793 38.6597 95.2648C38.6597 95.2648 38.6776 95.2396 38.7064 95.2216L39.1847 94.944C39.213 94.9269 39.2451 94.917 39.2782 94.9152C39.3076 94.9156 39.3363 94.9243 39.3609 94.9404L39.8788 95.2396C39.8933 95.2454 39.9059 95.2555 39.9147 95.2684C39.9147 95.2684 39.9147 95.2865 39.9147 95.3009C39.8017 95.4703 39.6452 95.6061 39.4616 95.6938C39.2265 95.8422 38.9584 95.9301 38.6812 95.9497Z" fill="#455A64"/>
<path d="M48.6345 88.9463L49.4796 89.4365C49.5153 89.4543 49.5547 89.4635 49.5947 89.4635C49.6346 89.4635 49.674 89.4543 49.7097 89.4365L50.562 88.9463C50.6232 88.9066 50.6232 88.849 50.562 88.8129L49.7133 88.3227C49.6781 88.3032 49.6385 88.2929 49.5983 88.2929C49.558 88.2929 49.5184 88.3032 49.4832 88.3227L48.6345 88.8129C48.5698 88.849 48.5698 88.9066 48.6345 88.9463Z" fill="#455A64"/>
<path d="M49.2203 88.2795C49.1083 88.2249 48.9851 88.1977 48.8606 88.2002C48.7361 88.1969 48.6127 88.2241 48.501 88.2795C48.3356 88.3768 48.3356 88.5246 48.501 88.6183L48.7923 88.7877L49.0045 88.7444L48.7132 88.5786C48.6873 88.5687 48.6651 88.5512 48.6494 88.5283C48.6337 88.5055 48.6253 88.4784 48.6253 88.4507C48.6253 88.4229 48.6337 88.3958 48.6494 88.373C48.6651 88.3501 48.6873 88.3326 48.7132 88.3227C48.7596 88.2975 48.8114 88.2839 48.8642 88.2831C48.9162 88.2816 48.9674 88.2954 49.0117 88.3227L49.303 88.4921L49.5187 88.4489L49.2203 88.2795Z" fill="#455A64"/>
<path d="M64.6513 79.3369C64.5088 79.332 64.3676 79.3643 64.2413 79.4306L62.0836 80.6741C61.8966 80.7787 61.8966 80.9481 62.0836 81.0562L62.8676 81.5067C62.9938 81.573 63.1351 81.6053 63.2775 81.6005C63.3438 81.6 63.41 81.594 63.4753 81.5824C63.549 81.5705 63.6197 81.5448 63.6839 81.5067L65.8416 80.2668C66.025 80.1587 66.025 79.9893 65.8416 79.8848L65.0576 79.4306C64.9327 79.3643 64.7926 79.332 64.6513 79.3369ZM63.2847 81.4995C63.2231 81.4986 63.1626 81.4825 63.1085 81.4527L62.3282 80.9985C62.2981 80.9878 62.2721 80.968 62.2537 80.9419C62.2353 80.9157 62.2255 80.8845 62.2255 80.8525C62.2255 80.8206 62.2353 80.7894 62.2537 80.7632C62.2721 80.7371 62.2981 80.7173 62.3282 80.7066L64.4858 79.4666C64.52 79.4455 64.5578 79.4308 64.5973 79.4234H64.6621C64.7229 79.4253 64.7823 79.4427 64.8347 79.4739L65.615 79.9244C65.6451 79.9352 65.6711 79.955 65.6895 79.9811C65.7078 80.0072 65.7177 80.0384 65.7177 80.0704C65.7177 80.1024 65.7078 80.1336 65.6895 80.1597C65.6711 80.1858 65.6451 80.2056 65.615 80.2164L63.4573 81.4599C63.405 81.4911 63.3456 81.5085 63.2847 81.5104V81.4995Z" fill="#455A64"/>
<path d="M63.3465 81.359L63.3177 81.341L62.5985 80.9337C62.5764 80.9255 62.5575 80.9107 62.544 80.8914C62.5306 80.8721 62.5234 80.8491 62.5234 80.8255C62.5234 80.802 62.5306 80.779 62.544 80.7597C62.5575 80.7403 62.5764 80.7256 62.5985 80.7174L64.5332 79.6C64.5452 79.5917 64.5586 79.5856 64.5728 79.582L64.6015 79.6L65.3208 80.0073C65.3416 80.0161 65.3595 80.0309 65.372 80.0498C65.3846 80.0687 65.3912 80.0909 65.3912 80.1137C65.3912 80.1364 65.3846 80.1586 65.372 80.1775C65.3595 80.1964 65.3416 80.2112 65.3208 80.22L63.386 81.341L63.3465 81.359Z" fill="#455A64"/>
<path d="M65.1708 79.3729C65.2451 79.3553 65.3222 79.3536 65.3972 79.3679C65.4721 79.3822 65.5433 79.4122 65.6059 79.4558L65.7498 79.5424C65.9116 79.6325 65.9799 79.7478 65.9044 79.7983L65.7642 79.8848L65.0449 79.4558L65.1708 79.3729Z" fill="#455A64"/>
<path d="M52.8819 100.553C53.4106 100.531 53.9272 100.387 54.3922 100.134C55.2697 99.6262 55.4963 98.9341 54.1046 98.0655C54.0578 98.3277 53.9509 98.5756 53.7924 98.7895C53.6339 99.0034 53.4281 99.1775 53.1911 99.2982C51.9972 99.9902 50.6379 100.167 49.541 99.5361C48.4442 98.9053 48.8218 97.9682 50.0229 97.2761C50.7958 96.8342 51.6708 96.6033 52.5606 96.6064C53.4504 96.6096 54.3238 96.8467 55.0935 97.2941C57.1253 98.4692 56.6686 99.7127 55.2301 100.538C54.4773 100.961 53.6389 101.207 52.7776 101.259L52.8819 100.553ZM53.3889 97.6906C52.3352 97.2328 51.4398 97.2977 50.7601 97.6906C50.1883 98.0186 50.0733 98.498 50.7062 98.862C51.0232 99.0339 51.381 99.1157 51.741 99.0985C52.101 99.0813 52.4495 98.9659 52.7488 98.7647C52.9506 98.6705 53.1194 98.5178 53.2336 98.3263C53.3477 98.1348 53.4018 97.9133 53.3889 97.6906Z" fill="#455A64"/>
<path d="M55.9062 95.4234C56.1206 95.293 56.363 95.2159 56.6132 95.1983C56.8634 95.1807 57.1142 95.2233 57.3447 95.3225C57.7043 95.5388 57.6359 95.8992 57.1756 96.1623C56.9578 96.2958 56.7112 96.3749 56.4565 96.3931C56.2018 96.4113 55.9465 96.368 55.712 96.2669C55.3416 96.0542 55.4351 95.6902 55.9062 95.4234ZM58.7148 97.049C58.9294 96.9189 59.172 96.8422 59.4222 96.8253C59.6725 96.8083 59.9231 96.8517 60.1533 96.9517C60.5129 97.1644 60.4445 97.5248 59.9842 97.7915C59.7661 97.9241 59.5195 98.0028 59.265 98.021C59.0105 98.0391 58.7553 97.9963 58.5206 97.8961C58.1538 97.6834 58.2437 97.3158 58.704 97.0634L58.7148 97.049Z" fill="#455A64"/>
<path d="M59.1896 95.0846C57.4238 94.061 57.4238 92.9977 58.8695 92.1578C60.3151 91.318 62.1636 91.3252 63.9257 92.3453C65.6878 93.3653 65.7238 94.4611 64.2853 95.3009C62.8468 96.1407 60.9589 96.1083 59.1896 95.0846ZM62.7174 93.0409C61.2394 92.1867 60.29 92.1939 59.6103 92.5868C58.9306 92.9796 58.9162 93.5311 60.3943 94.389C61.8723 95.2468 62.8864 95.2612 63.5553 94.8756C64.2242 94.4899 64.199 93.8988 62.7174 93.0409Z" fill="#455A64"/>
<path d="M64.8139 91.8298C63.0446 90.8062 63.0445 89.7429 64.4902 88.9066C65.9359 88.0704 67.7879 88.074 69.5464 89.0905C71.3049 90.1069 71.366 91.2099 69.906 92.0461C68.446 92.8823 66.5796 92.8535 64.8139 91.8298ZM68.3417 89.7897C66.8601 88.9319 65.9107 88.9391 65.231 89.332C64.5513 89.7248 64.537 90.2763 66.0186 91.1342C67.5002 91.992 68.5107 92.0028 69.176 91.6172C69.8413 91.2315 69.8197 90.644 68.3417 89.7897Z" fill="#455A64"/>
<path d="M55.7485 108.464L84.043 92.0929C84.3775 91.9235 84.7471 91.8352 85.1219 91.8352C85.4967 91.8352 85.8662 91.9235 86.2007 92.0929L93.4326 96.2777C94.0295 96.6381 94.0295 97.1824 93.4326 97.5284L65.1488 113.9C64.8144 114.069 64.4448 114.157 64.07 114.157C63.6952 114.157 63.3256 114.069 62.9912 113.9L55.7485 109.715C55.1515 109.369 55.1515 108.81 55.7485 108.464Z" fill="#E8B600"/>
<path d="M58.7825 109.019L63.8459 111.946C63.9898 112.021 64.1495 112.06 64.3116 112.06C64.4736 112.06 64.6333 112.021 64.7773 111.946L72.2393 107.621C72.4982 107.469 72.4982 107.228 72.2393 107.08L67.1759 104.15C67.0315 104.077 66.872 104.039 66.7102 104.039C66.5485 104.039 66.389 104.077 66.2445 104.15L58.7825 108.475C58.7245 108.493 58.6737 108.529 58.6376 108.578C58.6015 108.627 58.582 108.686 58.582 108.747C58.582 108.808 58.6015 108.867 58.6376 108.916C58.6737 108.965 58.7245 109.001 58.7825 109.019Z" fill="#FAFAFA"/>
<path d="M66.422 107.61L72.4239 107.372L66.4435 107.282L66.6845 104.049L65.7063 108.039L58.5859 108.742L64.3973 108.468L64.2535 112.054L64.6994 108.453L66.3644 108.378L66.422 107.61Z" fill="#E8B600"/>
<path d="M69.5726 102.621L76.8835 98.4079C77.0658 98.3154 77.2672 98.2672 77.4715 98.2672C77.6758 98.2672 77.8772 98.3154 78.0595 98.4079C78.3795 98.5917 78.3688 98.8945 78.0343 99.0891L70.7233 103.303C70.5411 103.395 70.3397 103.443 70.1354 103.443C69.9311 103.443 69.7297 103.395 69.5474 103.303C69.2309 103.119 69.2453 102.831 69.5726 102.621Z" fill="#FAFAFA"/>
<path d="M71.8271 103.912L86.6432 95.3297C86.8255 95.2372 87.0269 95.1891 87.2312 95.1891C87.4355 95.1891 87.6369 95.2372 87.8191 95.3297C88.1392 95.5135 88.1284 95.8199 87.794 96.011L72.9778 104.593C72.7948 104.685 72.5929 104.733 72.3881 104.733C72.1832 104.733 71.9813 104.685 71.7983 104.593C71.4818 104.42 71.4926 104.117 71.8271 103.912Z" fill="#FAFAFA"/>
<path d="M74.0733 105.224L88.8931 96.6417C89.0753 96.5492 89.2767 96.5011 89.481 96.5011C89.6853 96.5011 89.8867 96.5492 90.069 96.6417C90.3855 96.8255 90.3747 97.1319 90.0438 97.323L75.2241 105.905C75.0418 105.998 74.8404 106.046 74.6361 106.046C74.4318 106.046 74.2304 105.998 74.0481 105.905C73.7281 105.714 73.7425 105.418 74.0733 105.224Z" fill="#FAFAFA"/>
<path d="M52.5078 49.3193L100.473 21.5652L102.394 22.6754C102.655 22.8481 102.873 23.0799 103.029 23.3522C103.185 23.6245 103.276 23.9297 103.293 24.2433V59.7072C103.276 60.0209 103.186 60.3263 103.03 60.5986C102.873 60.871 102.656 61.1027 102.394 61.2752L56.2298 87.9839C55.9505 88.1233 55.6428 88.1958 55.3308 88.1958C55.0188 88.1958 54.7111 88.1233 54.4318 87.9839L53.4176 87.3964C53.1556 87.2237 52.9375 86.992 52.7808 86.7197C52.624 86.4475 52.533 86.1423 52.515 85.8285L52.5078 49.3193Z" fill="#E8B600"/>
<path opacity="0.05" d="M52.5078 49.3193L100.473 21.5652L102.394 22.6754C102.655 22.8481 102.873 23.0799 103.029 23.3522C103.185 23.6245 103.276 23.9297 103.293 24.2433V59.7072C103.276 60.0209 103.186 60.3263 103.03 60.5986C102.873 60.871 102.656 61.1027 102.394 61.2752L56.2298 87.9839C55.9505 88.1233 55.6428 88.1958 55.3308 88.1958C55.0188 88.1958 54.7111 88.1233 54.4318 87.9839L53.4176 87.3964C53.1556 87.2237 52.9375 86.992 52.7808 86.7197C52.624 86.4475 52.533 86.1423 52.515 85.8285L52.5078 49.3193Z" fill="black"/>
<path d="M100.207 18.4438L100.405 18.3357L99.6606 17.9032C99.5959 17.8668 99.5286 17.8354 99.4592 17.8094L78.3498 9.96983C78.0604 9.87253 77.7476 9.87002 77.4567 9.96268C77.1657 10.0553 76.9118 10.2384 76.7315 10.4853L53.1156 45.048C52.7489 45.6441 52.5398 46.3238 52.5078 47.0233V49.3193L53.227 49.7446L100.462 21.5616V19.2656C100.456 18.9732 100.367 18.6884 100.207 18.4438Z" fill="#E8B600"/>
<path opacity="0.1" d="M77.7059 10.6547C77.6119 10.7284 77.5295 10.8159 77.4614 10.9142L53.8455 45.477C53.6515 45.7827 53.5036 46.1155 53.4067 46.4646L52.6875 46.0393C52.7407 45.8614 52.8044 45.6869 52.8781 45.5166C52.9105 45.4445 52.9428 45.376 52.9788 45.3076V45.2751C53.0162 45.2028 53.0582 45.133 53.1047 45.0661L76.7278 10.4889C76.7634 10.4377 76.8031 10.3894 76.8464 10.3447L76.9723 10.2293L77.7059 10.6547Z" fill="black"/>
<path opacity="0.35" d="M100.394 18.3357C100.33 18.2968 100.262 18.2642 100.192 18.2384L79.0793 10.3951C78.8472 10.3178 78.5992 10.301 78.3589 10.3464C78.1185 10.3918 77.8936 10.4979 77.7056 10.6547L76.9863 10.2293C77.1759 10.0741 77.4014 9.96895 77.642 9.92362C77.8826 9.87828 78.1307 9.89417 78.3637 9.96983L99.4731 17.8094C99.542 17.8353 99.6083 17.8679 99.6709 17.9068L100.394 18.3357Z" fill="white"/>
<path d="M76.8496 10.3447C76.8881 10.3026 76.9302 10.264 76.9755 10.2293C76.9294 10.263 76.8872 10.3017 76.8496 10.3447Z" fill="#E8B600"/>
<path opacity="0.2" d="M52.9707 45.2932C52.9707 45.2932 52.9707 45.2679 52.9707 45.2571C52.9707 45.2463 52.9779 45.2823 52.9707 45.2932Z" fill="black"/>
<path opacity="0.2" d="M76.7305 10.4853C76.765 10.4344 76.8048 10.3873 76.8491 10.3447C76.8038 10.3863 76.7639 10.4335 76.7305 10.4853Z" fill="black"/>
<path d="M77.462 10.9178L53.8496 45.4842C53.4798 46.0777 53.2692 46.7568 53.2383 47.4558V49.7518L101.204 21.9978V19.6909C101.186 19.3802 101.082 19.0806 100.903 18.8259C100.725 18.5712 100.479 18.3714 100.193 18.2492L79.0838 10.4096C78.7944 10.3135 78.4822 10.3109 78.1913 10.402C77.9003 10.4932 77.6452 10.6736 77.462 10.9178Z" fill="#E8B600"/>
<path d="M58.4589 83.154L56.9197 82.2637C56.7927 82.1666 56.6929 82.0382 56.6299 81.8911C56.5669 81.744 56.5429 81.583 56.5601 81.4239V33.3553C56.5803 32.8673 56.7292 32.3935 56.9917 31.982L58.556 32.8831C58.2913 33.2962 58.1423 33.773 58.1244 34.2636V82.3142C58.1053 82.471 58.1259 82.6302 58.1844 82.777C58.2428 82.9238 58.3372 83.0534 58.4589 83.154Z" fill="#E0E0E0"/>
<path d="M59.4194 31.9676L97.9486 9.67787C98.6678 9.25255 99.2683 9.59497 99.2683 10.442V58.4961C99.2443 58.956 99.1123 59.4037 98.8829 59.8026C98.6536 60.2016 98.3334 60.5407 97.9486 60.7922L59.4194 83.0783C58.7002 83.5 58.0996 83.1576 58.0996 82.3106V34.2636C58.1245 33.804 58.2569 33.3566 58.4862 32.9578C58.7154 32.5589 59.0351 32.2197 59.4194 31.9676Z" fill="#F0F0F0"/>
<path d="M97.3189 8.67945L98.8293 9.55893C98.683 9.50428 98.5255 9.48719 98.371 9.50923C98.2164 9.53126 98.0699 9.59172 97.9446 9.68508L59.4191 31.9712C59.0495 32.1945 58.7426 32.5083 58.5272 32.8831L56.9629 31.982C57.1799 31.6078 57.4849 31.2923 57.8511 31.0629L96.3803 8.75514C96.5141 8.6564 96.6725 8.59644 96.838 8.58182C97.0035 8.56719 97.1699 8.59847 97.3189 8.67224V8.67945Z" fill="#FAFAFA"/>
<path d="M62.4249 34.4835L94.463 15.9424C94.8946 15.6936 95.2434 15.8703 95.2434 16.3388C95.2238 16.6008 95.143 16.8545 95.0074 17.0793C94.8718 17.3041 94.6853 17.4937 94.463 17.6328L62.4249 36.174C61.9934 36.4227 61.6445 36.2461 61.6445 35.7811C61.6635 35.5185 61.7441 35.2641 61.8797 35.0386C62.0153 34.8132 62.2021 34.623 62.4249 34.4835Z" fill="#E0E0E0"/>
<path d="M62.4249 37.8536L94.463 19.3125C94.8946 19.0638 95.2434 19.2404 95.2434 19.709C95.2238 19.9709 95.143 20.2246 95.0074 20.4494C94.8718 20.6742 94.6853 20.8639 94.463 21.003L62.4249 39.5441C61.9934 39.7928 61.6445 39.6162 61.6445 39.1512C61.6635 38.8886 61.7441 38.6343 61.8797 38.4088C62.0153 38.1833 62.2021 37.9931 62.4249 37.8536Z" fill="#E0E0E0"/>
<path d="M62.4249 41.2238L94.463 22.6826C94.8946 22.4339 95.2434 22.6105 95.2434 23.0755C95.2244 23.3381 95.1438 23.5925 95.0082 23.8179C94.8726 24.0434 94.6858 24.2336 94.463 24.3731L62.4249 42.9142C61.9934 43.1629 61.6445 42.9863 61.6445 42.5213C61.6635 42.2588 61.7441 42.0044 61.8797 41.7789C62.0153 41.5534 62.2021 41.3632 62.4249 41.2238Z" fill="#E0E0E0"/>
<path d="M62.4249 44.5939L94.463 26.0564C94.8946 25.8077 95.2434 25.9843 95.2434 26.4492C95.2244 26.7118 95.1438 26.9662 95.0082 27.1917C94.8726 27.4172 94.6858 27.6074 94.463 27.7468L62.4249 46.288C61.9934 46.5367 61.6445 46.3601 61.6445 45.8915C61.6635 45.6289 61.7441 45.3745 61.8797 45.149C62.0153 44.9236 62.2021 44.7334 62.4249 44.5939Z" fill="#E0E0E0"/>
<path d="M62.4249 47.964L94.463 29.4229C94.8946 29.1742 95.2434 29.3508 95.2434 29.8158C95.2244 30.0784 95.1438 30.3327 95.0082 30.5582C94.8726 30.7837 94.6858 30.9739 94.463 31.1134L62.4249 49.6545C61.9934 49.9032 61.6445 49.7266 61.6445 49.258C61.6641 48.996 61.7449 48.7424 61.8805 48.5176C62.0161 48.2928 62.2026 48.1031 62.4249 47.964Z" fill="#E0E0E0"/>
<path d="M62.4249 51.3342L94.463 32.793C94.8946 32.5443 95.2434 32.7209 95.2434 33.1859C95.2244 33.4485 95.1438 33.7029 95.0082 33.9283C94.8726 34.1538 94.6858 34.344 94.463 34.4835L62.4249 53.0246C61.9934 53.2733 61.6445 53.0967 61.6445 52.6281C61.6641 52.3662 61.7449 52.1125 61.8805 51.8877C62.0161 51.6629 62.2026 51.4733 62.4249 51.3342Z" fill="#E0E0E0"/>
<path d="M62.4249 54.7043L94.463 36.1487C94.8946 35.9 95.2434 36.0767 95.2434 36.5416C95.2244 36.8042 95.1438 37.0586 95.0082 37.2841C94.8726 37.5096 94.6858 37.6998 94.463 37.8392L62.4249 56.3804C61.9934 56.6291 61.6445 56.4524 61.6445 55.9839C61.6663 55.7244 61.7481 55.4736 61.8836 55.2515C62.0191 55.0294 62.2044 54.842 62.4249 54.7043Z" fill="#E0E0E0"/>
<path d="M62.4249 58.0744L94.463 39.5333C94.8946 39.281 95.2434 39.4612 95.2434 39.9262C95.2244 40.1888 95.1438 40.4431 95.0082 40.6686C94.8726 40.8941 94.6858 41.0843 94.463 41.2238L62.4249 59.7649C61.9934 60.0136 61.6445 59.837 61.6445 59.3684C61.6641 59.1065 61.7449 58.8528 61.8805 58.628C62.0161 58.4032 62.2026 58.2135 62.4249 58.0744Z" fill="#E0E0E0"/>
<path d="M102.077 60.1758C102.063 60.2015 102.046 60.2256 102.027 60.2479L82.0393 51.363C81.2805 51.0265 80.4259 50.9761 79.6329 51.2212C78.8399 51.4662 78.162 51.9902 77.724 52.6966L56.3556 87.0612L55.5645 87.5189C55.4764 87.5806 55.3743 87.6191 55.2675 87.6311C55.1607 87.6431 55.0526 87.628 54.9531 87.5874L76.9292 52.2425C77.3683 51.5372 78.046 51.0139 78.8384 50.7683C79.6308 50.5228 80.485 50.5714 81.2446 50.9052L102.077 60.1758Z" fill="#E8B600"/>
<path opacity="0.4" d="M75.749 55.8217L75.7994 55.7784L56.3478 87.0648L55.5567 87.5225C55.4682 87.5833 55.3661 87.6213 55.2595 87.6333C55.1529 87.6452 55.045 87.6307 54.9453 87.591L74.9651 55.3603L75.749 55.8217Z" fill="white"/>
<path opacity="0.4" d="M102.078 60.1794C102.063 60.2051 102.046 60.2292 102.027 60.2515L82.0362 51.363C81.2774 51.0265 80.4227 50.9761 79.6298 51.2212C78.8368 51.4663 78.1589 51.9902 77.7208 52.6966L76.9297 52.2353C77.3704 51.5318 78.0489 51.0108 78.8411 50.7673C79.6334 50.5237 80.4867 50.574 81.2451 50.9088L102.078 60.1794Z" fill="white"/>
<path d="M103.277 24.0127C103.234 23.7531 103.098 23.681 102.918 23.8036C102.829 23.8701 102.751 23.9504 102.688 24.0415L102.587 24.1821L82.8765 51.7054L79.9313 55.8181C79.7417 56.0577 79.4905 56.241 79.2047 56.3484C78.919 56.4557 78.6095 56.4829 78.3094 56.4272L75.7669 55.8217L56.3477 51.1936C56.2172 51.1669 56.0826 51.1669 55.9521 51.1936C55.9014 51.2039 55.852 51.2196 55.8047 51.2404L56.3405 50.9305L75.0405 55.3891L77.5902 55.9731C77.8902 56.0296 78.2 56.0027 78.4859 55.8953C78.7718 55.788 79.0229 55.6042 79.212 55.3639L82.1573 51.2549L101.979 23.5909C102.04 23.5087 102.115 23.4389 102.202 23.3855L100.498 22.4015L101.217 21.987L102.404 22.6718C102.631 22.8256 102.826 23.0234 102.976 23.2537C103.126 23.484 103.228 23.742 103.277 24.0127Z" fill="#E8B600"/>
<path opacity="0.4" d="M82.8772 51.7054L79.9319 55.8181C79.7423 56.0577 79.4911 56.241 79.2054 56.3484C78.9196 56.4557 78.6101 56.4829 78.3101 56.4272L75.7676 55.8217L75.8179 55.7784L75.9402 55.5838L77.6052 55.9803C77.9053 56.0368 78.2151 56.0099 78.501 55.9025C78.7869 55.7952 79.038 55.6114 79.2271 55.3711L82.1436 51.3053L82.8772 51.7054Z" fill="white"/>
<path opacity="0.1" d="M102.39 22.6718L101.203 21.987L100.484 22.4015L102.199 23.3927C102.112 23.4464 102.037 23.5161 101.976 23.5981L82.1577 51.2621L82.1289 51.3017L82.8481 51.7018L102.584 24.1821L102.685 24.0415C102.748 23.9504 102.826 23.8701 102.915 23.8036C103.091 23.681 103.228 23.7531 103.274 24.0127C103.224 23.7412 103.12 23.4826 102.968 23.2523C102.816 23.0219 102.619 22.8245 102.39 22.6718Z" fill="black"/>
<path d="M56.7369 51.7703L52.5078 49.3193V85.8285C52.5258 86.1423 52.6168 86.4475 52.7736 86.7197C52.9303 86.992 53.1484 87.2237 53.4104 87.3964L54.4246 87.9839C54.7039 88.1233 55.0116 88.1958 55.3236 88.1958C55.6356 88.1958 55.9433 88.1233 56.2226 87.9839L56.7297 87.6884L56.7369 51.7703Z" fill="#E8B600"/>
<path opacity="0.15" d="M56.7369 51.7703L52.5078 49.3193V85.8285C52.5258 86.1423 52.6168 86.4475 52.7736 86.7197C52.9303 86.992 53.1484 87.2237 53.4104 87.3964L54.4246 87.9839C54.7039 88.1233 55.0116 88.1958 55.3236 88.1958C55.6356 88.1958 55.9433 88.1233 56.2226 87.9839L56.7297 87.6884L56.7369 51.7703Z" fill="black"/>
<path d="M102.588 24.1821V59.2603C102.578 59.5852 102.481 59.9016 102.307 60.1758C102.175 60.4084 101.995 60.61 101.778 60.7669L101.746 60.7886L101.685 60.8282L55.5248 87.537C55.4694 87.5712 55.4103 87.599 55.3486 87.6199C55.3448 87.5659 55.3448 87.5117 55.3486 87.4577V52.0082C55.3406 51.8812 55.3635 51.7541 55.4153 51.638C55.4671 51.5218 55.5463 51.42 55.646 51.3413C55.7458 51.2626 55.8631 51.2093 55.988 51.1861C56.1128 51.1629 56.2414 51.1704 56.3627 51.208L75.7819 55.8361L78.3244 56.4416C78.6244 56.4974 78.9339 56.4701 79.2197 56.3628C79.5054 56.2555 79.7566 56.0721 79.9462 55.8325L82.8771 51.7054L102.588 24.1821Z" fill="#455A64"/>
<path d="M103.296 24.2541V59.718C103.285 60.0427 103.188 60.3585 103.016 60.6336C102.881 60.8657 102.702 61.0681 102.487 61.2283L102.451 61.2463C102.433 61.2607 102.413 61.274 102.393 61.286L56.2332 87.9803C56.145 88.0432 56.0424 88.0827 55.935 88.0953C55.8275 88.1079 55.7186 88.0932 55.6183 88.0524C55.5417 88.0076 55.4771 87.9449 55.4301 87.8695C55.3831 87.7942 55.3552 87.7085 55.3486 87.6199C55.3448 87.5659 55.3448 87.5117 55.3486 87.4577V52.0082C55.3406 51.8812 55.3635 51.7541 55.4153 51.638C55.4671 51.5218 55.5463 51.42 55.646 51.3413C55.7458 51.2625 55.8631 51.2093 55.988 51.1861C56.1128 51.1629 56.2414 51.1704 56.3627 51.208L75.7819 55.8361L78.3244 56.4416C78.6244 56.4974 78.9339 56.4701 79.2197 56.3628C79.5054 56.2554 79.7566 56.0721 79.9462 55.8325L82.8771 51.7054L102.602 24.1821L102.703 24.0415C103.016 23.5765 103.296 23.663 103.296 24.2541Z" fill="#E8B600"/>
<path d="M102.393 61.2715L102.451 61.2319L102.487 61.2139C102.701 61.0537 102.881 60.8513 103.015 60.6191C103.183 60.3489 103.279 60.0397 103.292 59.7216L82.877 51.7054L96.5423 64.6561L102.393 61.2715Z" fill="#E8B600"/>
<path opacity="0.2" d="M102.393 61.2715L102.451 61.2319L102.487 61.2139C102.701 61.0537 102.881 60.8513 103.015 60.6191C103.183 60.3489 103.279 60.0397 103.292 59.7216L82.877 51.7054L96.5423 64.6561L102.393 61.2715Z" fill="black"/>
<path d="M55.3302 87.4613C55.317 87.5768 55.3363 87.6936 55.3859 87.7987C55.4354 87.9038 55.5133 87.9929 55.6107 88.056C55.711 88.0968 55.8199 88.1115 55.9274 88.0989C56.0349 88.0863 56.1375 88.0468 56.2257 87.9839L72.1171 78.789L75.7456 55.8253L55.3302 86.8701V87.4613Z" fill="#E8B600"/>
<path opacity="0.15" d="M77.7088 52.693L55.6068 88.0524C55.5094 87.9893 55.4315 87.9002 55.3819 87.7951C55.3324 87.69 55.3131 87.5732 55.3263 87.4577V86.8701L74.8282 55.6126L74.9793 55.3711L76.9176 52.2569L77.7088 52.693Z" fill="black"/>
<path d="M103.014 60.6192C102.88 60.8513 102.701 61.0537 102.486 61.2139L102.45 61.2319L56.2321 87.9803C56.1439 88.0432 56.0414 88.0827 55.9339 88.0953C55.8264 88.1079 55.7175 88.0932 55.6172 88.0524L77.7191 52.6822C78.1624 51.9727 78.8459 51.447 79.6443 51.2014C80.4428 50.9558 81.3029 51.0068 82.0669 51.345L103.014 60.6192Z" fill="#E8B600"/>
<path d="M103.016 60.6227C102.884 60.8554 102.704 61.0569 102.487 61.2139L102.455 61.2355L56.2302 87.9839C56.1414 88.0456 56.0387 88.0841 55.9313 88.0961C55.824 88.108 55.7154 88.093 55.6152 88.0524L56.2302 87.072L101.653 60.7813L101.689 60.7597C101.88 60.6193 102.043 60.443 102.167 60.2407L103.016 60.6227Z" fill="#E8B600"/>
<path opacity="0.15" d="M52.669 46.0393L53.3882 46.4646C53.2863 46.7843 53.2294 47.1167 53.2192 47.4522V49.7446L52.5 49.3193V47.0233C52.5105 46.689 52.5674 46.3578 52.669 46.0393Z" fill="black"/>
<path d="M57.0142 51.0782L56.3382 50.916L55.8023 51.226L55.0615 50.7971L53.2383 49.7446L53.9467 49.3229L57.0142 51.0782Z" fill="#E8B600"/>
<path opacity="0.1" d="M57.0136 51.0782L53.9497 49.3265L53.2305 49.7482L55.0537 50.8007L55.7945 51.2296C55.8376 51.2082 55.8837 51.1936 55.9312 51.1864C56.0617 51.1597 56.1962 51.1597 56.3268 51.1864L57.8192 51.5468L74.829 55.6126L74.98 55.3711L57.0136 51.0782Z" fill="black"/>
<path d="M111.826 52.4912L108.414 50.5087L108.385 50.4907C106.896 49.6473 104.85 49.7698 102.588 51.0854C98.035 53.7203 94.3418 60.1289 94.3418 65.3986C94.3418 68.0298 95.266 69.8789 96.7512 70.744L99.8619 72.5462L100.581 71.3243C101.412 71.1397 102.21 70.8285 102.947 70.4015C107.5 67.7667 111.193 61.358 111.193 56.0884C111.193 55.3764 111.106 54.6672 110.934 53.9762L111.826 52.4912Z" fill="#BA9200"/>
<path opacity="0.15" d="M94.6429 62.6268C94.4417 63.5384 94.3368 64.4686 94.3301 65.4022C94.3301 68.0334 95.2543 69.8825 96.7395 70.7476L99.8502 72.5498L100.569 71.3279C101.401 71.1433 102.199 70.8321 102.936 70.4051C103.741 69.9325 104.495 69.3755 105.183 68.7435L94.6429 62.6268Z" fill="black"/>
<path d="M105.824 52.9633C101.271 55.5982 97.5781 62.0068 97.5781 67.2765C97.5781 72.5462 101.271 74.6836 105.824 72.0488C110.377 69.4139 114.07 63.0053 114.07 57.7356C114.07 52.4659 110.38 50.3285 105.824 52.9633Z" fill="#E8B600"/>
<path d="M109.082 60.2983V58.2727C109.082 55.9622 107.679 54.8989 105.953 55.901C104.223 56.903 102.821 59.5847 102.821 61.8951V63.6973C102.783 64.9478 102.42 66.1667 101.767 67.2333C101.606 67.516 101.519 67.8343 101.512 68.1596C101.512 68.7399 101.871 69.0102 102.299 68.7579L109.61 64.5263C109.85 64.3537 110.046 64.1271 110.183 63.8649C110.32 63.6026 110.393 63.3119 110.398 63.0161C110.409 62.9031 110.394 62.789 110.354 62.6828C110.314 62.5765 110.25 62.4809 110.168 62.4033C109.506 62.1222 109.082 61.3797 109.082 60.2983Z" fill="white"/>
<path d="M107.452 66.4259C107.452 67.536 106.78 68.8228 105.952 69.3094C105.125 69.796 104.449 69.2806 104.449 68.174L107.452 66.4259Z" fill="white"/>
<path d="M54.3122 23.8685L53.1398 21.6734L54.082 18.9629V17.3048L51.2051 18.9629V20.6209L52.4422 22.7619C52.4617 22.7961 52.4921 22.8227 52.5285 22.8376L54.3122 23.8685Z" fill="#E8B600"/>
<path opacity="0.2" d="M54.3122 23.8685L53.1398 21.6734L54.082 18.9629V17.3048L51.2051 18.9629V20.6209L52.4422 22.7619C52.4617 22.7961 52.4921 22.8227 52.5285 22.8376L54.3122 23.8685Z" fill="black"/>
<path d="M61.1957 2.10499C61.1791 1.80532 61.0919 1.51385 60.9413 1.25447C60.7907 0.995087 60.5808 0.775175 60.329 0.612756L59.6098 0.205457C59.3414 0.0703953 59.0452 6.10352e-05 58.7449 6.10352e-05C58.4446 6.10352e-05 58.1484 0.0703953 57.8801 0.205457L47.0916 6.43029C46.8403 6.5929 46.631 6.81293 46.4809 7.07234C46.3309 7.33174 46.2444 7.62311 46.2285 7.92252V21.7707C46.2453 22.0699 46.3321 22.361 46.4821 22.6202C46.632 22.8795 46.8409 23.0997 47.0916 23.2629L47.8108 23.6666C48.0792 23.8017 48.3754 23.872 48.6757 23.872C48.976 23.872 49.2722 23.8017 49.5406 23.6666L53.0109 21.6662L54.2479 23.8036C54.2663 23.8335 54.2926 23.8576 54.324 23.8733C54.3553 23.8889 54.3904 23.8954 54.4253 23.892C54.4601 23.8886 54.4933 23.8755 54.5211 23.8541C54.5489 23.8328 54.5701 23.804 54.5824 23.7712L55.9058 20.0118L60.347 17.4454C60.5935 17.2814 60.7985 17.0622 60.9458 16.8051C61.0931 16.548 61.1786 16.26 61.1957 15.964V2.10499Z" fill="#E8B600"/>
<path opacity="0.2" d="M46.2461 21.7707C46.2628 22.0699 46.3497 22.361 46.4997 22.6202C46.6496 22.8795 46.8584 23.0997 47.1092 23.2629L47.8284 23.6666C48.0725 23.789 48.3396 23.8584 48.6123 23.8702C48.8849 23.882 49.157 23.836 49.4107 23.7351C49.0043 23.8901 48.6915 23.6594 48.6915 23.1692V9.32103C48.7019 9.02178 48.7886 8.73019 48.9432 8.47399L46.5122 7.07187C46.3564 7.32887 46.2697 7.62193 46.2605 7.92251L46.2461 21.7707Z" fill="black"/>
<path opacity="0.2" d="M61.1674 1.85988C61.0667 1.49944 60.7322 1.37689 60.3331 1.60757L49.5446 7.8288C49.2886 7.9862 49.0789 8.20884 48.9369 8.474L46.5059 7.07548C46.6489 6.81102 46.8584 6.58861 47.1136 6.43029L57.9021 0.209059C58.1705 0.0739978 58.4666 0.00366211 58.7669 0.00366211C59.0673 0.00366211 59.3634 0.0739978 59.6318 0.209059L60.351 0.612754C60.5635 0.755282 60.7452 0.939108 60.8854 1.15333C61.0256 1.36756 61.1215 1.60782 61.1674 1.85988Z" fill="black"/>
<path d="M58.8471 5.87161C58.725 5.82009 58.594 5.7932 58.4616 5.79249C58.3291 5.79179 58.1979 5.81728 58.0753 5.8675C57.9527 5.91772 57.8412 5.99169 57.7471 6.08517C57.6531 6.17866 57.5784 6.28981 57.5273 6.41228L53.7189 15.4846L52.8127 14.6015C52.7207 14.4983 52.6086 14.4151 52.4832 14.3571C52.3577 14.2992 52.2218 14.2677 52.0837 14.2647C51.9456 14.2616 51.8084 14.2871 51.6806 14.3395C51.5528 14.3919 51.4371 14.47 51.3407 14.5691C51.2442 14.6682 51.1692 14.7862 51.1202 14.9156C51.0712 15.045 51.0493 15.1831 51.0558 15.3214C51.0623 15.4596 51.0972 15.5951 51.1581 15.7193C51.2191 15.8434 51.3049 15.9537 51.4102 16.0433L53.3881 17.9644C53.576 18.1471 53.8276 18.2493 54.0894 18.2492C54.1571 18.2491 54.2246 18.2419 54.2907 18.2276C54.4497 18.1942 54.5982 18.1226 54.7235 18.019C54.8487 17.9154 54.9471 17.7829 55.01 17.6328L59.3865 7.18002C59.4858 6.93461 59.485 6.65989 59.3841 6.41512C59.2831 6.17035 59.0903 5.97514 58.8471 5.87161Z" fill="white"/>
</g>
<defs>
<clipPath id="clip0_149_13929">
<rect width="160" height="151" fill="white"/>
</clipPath>
</defs>
</svg>
