<svg width="24" height="24" viewBox="0 0 24 24" fill="none" xmlns="http://www.w3.org/2000/svg">
<g clip-path="url(#clip0_2602_20610)">
<path d="M5.03339 12.7009C5.08131 12.7008 5.12923 12.7007 5.17715 12.7005C5.3055 12.7002 5.43384 12.7003 5.56218 12.7005C5.69763 12.7007 5.83308 12.7006 5.96852 12.7004C6.19582 12.7003 6.42311 12.7005 6.6504 12.7008C6.91175 12.7012 7.1731 12.7011 7.43445 12.7007C7.66039 12.7004 7.88632 12.7003 8.11226 12.7005C8.24652 12.7006 8.38078 12.7006 8.51505 12.7004C8.64138 12.7002 8.76771 12.7004 8.89404 12.7007C8.96148 12.7009 9.02892 12.7007 9.09636 12.7005C9.55872 12.7026 9.88037 12.7213 10.3241 12.8512C11.0479 13.0623 11.7189 13.4318 12.2543 13.9671C13.4154 15.1584 13.485 17.4027 13.5134 18.5294C13.5126 18.77 13.5059 19.1545 13.4682 19.2299C13.34 19.5315 13.1446 19.6819 12.9253 19.6747C12.6836 19.7049 12.4288 19.5484 12.2769 19.3581C12.1101 19.087 12.038 18.6642 12.0329 18.3522C12.021 17.3748 11.889 15.7938 11.1836 15.0302C10.6893 14.5611 9.97491 14.231 9.28983 14.229C9.24801 14.2288 9.20619 14.2287 9.16311 14.2285C9.11737 14.2284 9.07164 14.2284 9.02591 14.2283C8.97725 14.2282 8.9286 14.228 8.87995 14.2278C8.74824 14.2274 8.61652 14.2272 8.4848 14.227C8.4023 14.2269 8.31979 14.2268 8.23729 14.2266C7.97854 14.2262 7.71978 14.2258 7.46103 14.2257C7.16349 14.2256 6.86597 14.225 6.56843 14.224C6.3377 14.2232 6.10697 14.2229 5.87624 14.2229C5.73879 14.2228 5.60135 14.2226 5.4639 14.222C5.33437 14.2215 5.20485 14.2214 5.07533 14.2217C5.02817 14.2217 4.98102 14.2216 4.93386 14.2212C4.13661 14.2159 3.39937 14.484 2.81347 15.0327C2.25924 15.5835 1.98506 17.3751 1.98031 18.3553C1.98031 18.6644 1.90966 19.1243 1.72377 19.3581C1.57465 19.5456 1.31862 19.7081 1.07177 19.6672C0.819132 19.5949 0.657492 19.5315 0.527937 19.2299C0.493758 19.152 0.487037 18.7243 0.486133 18.6398C0.461478 17.063 0.582186 15.1622 1.74057 13.9684C2.28054 13.4326 2.94647 13.0648 3.67554 12.8536C4.11594 12.7229 4.57652 12.6994 5.03339 12.7009Z" fill="white"/>
<path d="M9.36882 4.89853C10.0524 5.49182 10.5439 6.34348 10.6225 7.25648C10.6909 8.30857 10.4345 9.25993 9.74192 10.0677C9.71762 10.0988 9.71762 10.0988 9.69283 10.1304C9.18192 10.7716 8.30768 11.175 7.50648 11.287C6.74285 11.3424 6.02081 11.2803 5.33879 10.9145C5.30661 10.8984 5.27443 10.8824 5.24128 10.8659C5.01356 10.749 4.82202 10.6057 4.62751 10.4403C4.60498 10.4227 4.58245 10.4051 4.55924 10.387C3.87788 9.83716 3.46906 8.92387 3.37431 8.06936C3.30281 7.0619 3.54717 6.11439 4.1999 5.33222C5.51895 3.81248 7.8165 3.60001 9.36882 4.89853ZM5.29645 6.32928C4.90701 6.84212 4.81818 7.4068 4.8646 8.03549C4.93022 8.51003 5.17694 8.88804 5.50814 9.22095C5.52818 9.24217 5.54822 9.26339 5.56887 9.28525C5.94243 9.64975 6.48698 9.82573 6.99843 9.84332C7.60341 9.82251 8.13891 9.59016 8.55646 9.15321C8.58855 9.1221 8.58855 9.1221 8.62129 9.09037C9.02331 8.67506 9.14949 8.1273 9.14655 7.56815C9.13175 6.99766 8.88217 6.51282 8.48872 6.10489C7.98995 5.66608 7.42709 5.48304 6.76931 5.52193C6.18431 5.57726 5.6757 5.88938 5.29645 6.32928Z" fill="white"/>
<path d="M14.5205 11.002C14.578 11.0016 14.578 11.0016 14.6367 11.0011C14.7649 11.0004 14.8931 11.0009 15.0213 11.0015C15.1133 11.0013 15.2054 11.001 15.2974 11.0005C15.5472 10.9997 15.7969 11 16.0467 11.0006C16.3081 11.0011 16.5695 11.0006 16.8309 11.0004C17.2699 11 17.7089 11.0005 18.1478 11.0014C18.6553 11.0024 19.1628 11.002 19.6703 11.001C20.1061 11.0002 20.5418 11 20.9776 11.0005C21.2378 11.0008 21.498 11.0009 21.7583 11.0002C22.0029 10.9997 22.2476 11.0001 22.4923 11.0012C22.5821 11.0014 22.6718 11.0013 22.7616 11.0009C22.8842 11.0004 23.0067 11.0011 23.1293 11.002C23.1826 11.0014 23.1826 11.0014 23.237 11.0007C23.4752 11.0042 23.6088 11.0613 23.7929 11.2133C23.9598 11.3923 23.9912 11.5359 23.9999 11.7758C23.9912 12.0157 23.9598 12.1593 23.7929 12.3383C23.5748 12.5184 23.4025 12.5528 23.1293 12.5496C23.0718 12.55 23.0718 12.55 23.0131 12.5505C22.8849 12.5512 22.7567 12.5507 22.6285 12.5501C22.5365 12.5503 22.4444 12.5507 22.3524 12.5511C22.1026 12.5519 21.8529 12.5516 21.6031 12.551C21.3417 12.5505 21.0803 12.551 20.8189 12.5512C20.3799 12.5516 19.9409 12.5511 19.502 12.5502C18.9945 12.5492 18.487 12.5496 17.9795 12.5506C17.5437 12.5514 17.108 12.5516 16.6723 12.5511C16.412 12.5508 16.1518 12.5507 15.8915 12.5514C15.6469 12.5519 15.4022 12.5515 15.1575 12.5504C15.0678 12.5502 14.978 12.5503 14.8882 12.5507C14.7656 12.5512 14.6431 12.5505 14.5205 12.5496C14.4672 12.5502 14.4672 12.5502 14.4129 12.5509C14.1746 12.5474 14.041 12.4903 13.8569 12.3383C13.69 12.1593 13.6586 12.0157 13.6499 11.7758C13.6586 11.5359 13.69 11.3923 13.8569 11.2133C14.075 11.0332 14.2473 10.9988 14.5205 11.002Z" fill="white"/>
<path d="M14.0625 4.72611C14.1229 4.72567 14.1229 4.72567 14.1844 4.72523C14.3188 4.72448 14.4531 4.72507 14.5875 4.72566C14.684 4.72541 14.7805 4.72507 14.877 4.72466C15.1388 4.72381 15.4007 4.72414 15.6625 4.72474C15.9365 4.72521 16.2106 4.72477 16.4846 4.72448C16.9448 4.72413 17.4049 4.72458 17.8651 4.72548C18.3971 4.7265 18.9291 4.72617 19.4612 4.72513C19.918 4.72428 20.3747 4.72416 20.8315 4.72465C21.1044 4.72495 21.3772 4.72499 21.65 4.72437C21.9065 4.72382 22.1629 4.7242 22.4194 4.72528C22.5136 4.72553 22.6077 4.72546 22.7018 4.72505C22.8303 4.72454 22.9588 4.72518 23.0873 4.72611C23.1431 4.72549 23.1431 4.72549 23.2001 4.72485C23.4499 4.72837 23.5899 4.78538 23.7829 4.93742C23.9579 5.11645 23.9907 5.26005 23.9999 5.49992C23.9907 5.73979 23.9579 5.88339 23.7829 6.06242C23.5542 6.24255 23.3737 6.27695 23.0873 6.27373C23.0269 6.27417 23.0269 6.27417 22.9654 6.27462C22.831 6.27536 22.6967 6.27477 22.5623 6.27418C22.4658 6.27444 22.3693 6.27477 22.2728 6.27518C22.011 6.27603 21.7492 6.2757 21.4873 6.27511C21.2133 6.27463 20.9393 6.27507 20.6652 6.27537C20.205 6.27571 19.7449 6.27526 19.2847 6.27437C18.7527 6.27335 18.2207 6.27368 17.6886 6.27471C17.2319 6.27556 16.7751 6.27568 16.3183 6.27519C16.0454 6.2749 15.7726 6.27486 15.4998 6.27548C15.2433 6.27602 14.9869 6.27564 14.7304 6.27456C14.6363 6.27431 14.5421 6.27438 14.448 6.2748C14.3195 6.27531 14.191 6.27467 14.0625 6.27373C14.0067 6.27436 14.0067 6.27436 13.9497 6.275C13.7 6.27148 13.5599 6.21447 13.3669 6.06242C13.1919 5.88339 13.1591 5.73979 13.1499 5.49992C13.1591 5.26005 13.1919 5.11645 13.3669 4.93742C13.5956 4.7573 13.7761 4.7229 14.0625 4.72611Z" fill="white"/>
<path d="M16.5093 17.002C16.5709 17.0015 16.6324 17.0009 16.6957 17.0004C16.7633 17.0008 16.8309 17.0011 16.8985 17.0015C16.9702 17.0013 17.0418 17.001 17.1134 17.0005C17.3075 16.9997 17.5016 17 17.6957 17.0006C17.899 17.0011 18.1023 17.0006 18.3056 17.0004C18.647 17 18.9884 17.0005 19.3298 17.0014C19.7243 17.0024 20.1187 17.002 20.5132 17.001C20.8521 17.0002 21.191 17 21.53 17.0005C21.7323 17.0008 21.9346 17.0009 22.1369 17.0002C22.3271 16.9997 22.5174 17.0001 22.7076 17.0012C22.7773 17.0014 22.847 17.0013 22.9168 17.0009C23.0121 17.0004 23.1074 17.0012 23.2028 17.002C23.2561 17.0021 23.3094 17.0021 23.3643 17.0022C23.5991 17.0396 23.7441 17.1613 23.9049 17.3305C24.0173 17.5726 24.0164 17.7946 23.9811 18.0571C23.8727 18.2904 23.733 18.399 23.5123 18.5258C23.3643 18.5494 23.3643 18.5494 23.2028 18.5496C23.1105 18.5504 23.1105 18.5504 23.0164 18.5512C22.9488 18.5508 22.8812 18.5505 22.8136 18.5501C22.7419 18.5503 22.6703 18.5507 22.5987 18.5511C22.4046 18.5519 22.2105 18.5516 22.0164 18.551C21.8131 18.5505 21.6098 18.551 21.4065 18.5512C21.0651 18.5516 20.7237 18.5511 20.3823 18.5502C19.9878 18.5492 19.5934 18.5496 19.199 18.5506C18.86 18.5514 18.5211 18.5516 18.1821 18.5511C17.9798 18.5508 17.7775 18.5507 17.5752 18.5514C17.385 18.5519 17.1948 18.5515 17.0045 18.5504C16.9348 18.5502 16.8651 18.5503 16.7954 18.5507C16.7 18.5512 16.6047 18.5504 16.5093 18.5496C16.456 18.5495 16.4027 18.5495 16.3478 18.5494C16.113 18.512 15.968 18.3903 15.8072 18.2211C15.6948 17.979 15.6957 17.757 15.7311 17.4946C15.8872 17.1582 16.1427 17.0025 16.5093 17.002Z" fill="white"/>
</g>
<defs>
<clipPath id="clip0_2602_20610">
<rect width="24" height="24" fill="white"/>
</clipPath>
</defs>
</svg>
