<svg width="24" height="24" viewBox="0 0 24 24" fill="none" xmlns="http://www.w3.org/2000/svg">
<g clip-path="url(#clip0_409_5029)">
<mask id="path-1-inside-1_409_5029" fill="white">
<path fill-rule="evenodd" clip-rule="evenodd" d="M4.70898 13.3408C4.70944 13.4672 4.70993 13.5935 4.71045 13.7199C4.71399 14.5816 4.71615 15.4433 4.71774 16.3049C4.72108 18.1606 4.72658 20.0162 4.73374 21.8718H6.50918V23.5001C6.50918 23.7763 6.73302 24.0001 7.00917 24.0001H8.47491C8.75105 24.0001 8.97487 23.7763 8.97487 23.5001V21.8718H19.1905V23.5001C19.1905 23.7763 19.4144 24.0001 19.6905 24.0001H21.1592C21.4354 24.0001 21.6592 23.7763 21.6592 23.5001V21.8718H23.4346C23.4432 20.0945 23.45 18.3172 23.454 16.5399C23.456 15.6751 23.4581 14.8104 23.4624 13.9457C23.4663 13.1867 23.4695 12.4278 23.4707 11.6688C23.4707 11.6289 23.4707 11.5891 23.4708 11.5492C23.4712 11.1874 23.4716 10.8256 23.4738 10.4638C23.4765 10.0808 23.4787 9.69778 23.4786 9.31473C23.4784 9.17229 23.4783 9.02986 23.4784 8.88742C23.4939 7.46119 23.2839 6.32742 22.2671 5.24474C21.01 4.05652 19.561 4.02463 17.9207 4.03307C17.6582 4.03471 17.3956 4.03512 17.1331 4.03508C16.6915 4.03499 16.2499 4.03579 15.8084 4.0378C15.2971 4.04022 13.0675 4.04183 12.5562 4.04174C12.0043 4.04162 11.4524 4.04225 10.9005 4.04366C10.8929 4.04368 10.8854 4.04369 10.8778 4.04371C10.9162 4.32236 10.9378 4.61822 10.9575 4.93571C10.9696 5.38178 10.8871 5.89379 10.7433 6.41334C10.8726 6.41366 11.0018 6.41382 11.131 6.41386C11.5593 6.41396 11.9875 6.41473 12.4157 6.41638C12.9522 6.41853 15.1056 6.41986 15.7391 6.42025L15.7934 6.42028C16.2219 6.42054 16.6504 6.42112 17.0789 6.42202L17.5402 6.42301C17.8363 6.42344 18.1324 6.42396 18.4285 6.42507L18.6994 6.42622L18.9556 6.42648L19.1903 6.4278C19.7811 6.4298 20.2154 6.61768 20.6388 7.03125C20.9861 8.08643 21.1562 8.6032 21.2128 9.13213C21.2672 9.63979 21.2171 10.1586 21.1188 11.1755H7.627C7.25232 11.5262 6.84726 11.8471 6.43935 12.1531C6.36853 12.2065 6.2986 12.261 6.22933 12.3163C6.15772 12.3717 6.03903 12.4707 5.89942 12.5871C5.4927 12.9263 4.90854 13.4136 4.79461 13.3995C4.76057 13.3865 4.73241 13.3665 4.70898 13.3408ZM8.75256 6.43585C8.36632 6.48125 8.00931 6.59696 7.68638 6.87307L7.56215 6.97425C6.9987 7.6501 6.93482 8.42113 6.9848 9.24082C6.60699 9.61937 6.20211 9.94519 5.7983 10.1848C5.55784 9.97166 5.32353 9.75588 5.09688 9.53188C5.59959 8.7547 6.43772 7.75753 7.26419 6.77422C7.77398 6.1677 8.27933 5.56645 8.6988 5.02536C8.83103 5.47857 8.8546 5.9532 8.75256 6.43585ZM7.12673 19.5034V13.544H21.1188V19.5034H7.12673Z"/>
</mask>
<path fill-rule="evenodd" clip-rule="evenodd" d="M4.70898 13.3408C4.70944 13.4672 4.70993 13.5935 4.71045 13.7199C4.71399 14.5816 4.71615 15.4433 4.71774 16.3049C4.72108 18.1606 4.72658 20.0162 4.73374 21.8718H6.50918V23.5001C6.50918 23.7763 6.73302 24.0001 7.00917 24.0001H8.47491C8.75105 24.0001 8.97487 23.7763 8.97487 23.5001V21.8718H19.1905V23.5001C19.1905 23.7763 19.4144 24.0001 19.6905 24.0001H21.1592C21.4354 24.0001 21.6592 23.7763 21.6592 23.5001V21.8718H23.4346C23.4432 20.0945 23.45 18.3172 23.454 16.5399C23.456 15.6751 23.4581 14.8104 23.4624 13.9457C23.4663 13.1867 23.4695 12.4278 23.4707 11.6688C23.4707 11.6289 23.4707 11.5891 23.4708 11.5492C23.4712 11.1874 23.4716 10.8256 23.4738 10.4638C23.4765 10.0808 23.4787 9.69778 23.4786 9.31473C23.4784 9.17229 23.4783 9.02986 23.4784 8.88742C23.4939 7.46119 23.2839 6.32742 22.2671 5.24474C21.01 4.05652 19.561 4.02463 17.9207 4.03307C17.6582 4.03471 17.3956 4.03512 17.1331 4.03508C16.6915 4.03499 16.2499 4.03579 15.8084 4.0378C15.2971 4.04022 13.0675 4.04183 12.5562 4.04174C12.0043 4.04162 11.4524 4.04225 10.9005 4.04366C10.8929 4.04368 10.8854 4.04369 10.8778 4.04371C10.9162 4.32236 10.9378 4.61822 10.9575 4.93571C10.9696 5.38178 10.8871 5.89379 10.7433 6.41334C10.8726 6.41366 11.0018 6.41382 11.131 6.41386C11.5593 6.41396 11.9875 6.41473 12.4157 6.41638C12.9522 6.41853 15.1056 6.41986 15.7391 6.42025L15.7934 6.42028C16.2219 6.42054 16.6504 6.42112 17.0789 6.42202L17.5402 6.42301C17.8363 6.42344 18.1324 6.42396 18.4285 6.42507L18.6994 6.42622L18.9556 6.42648L19.1903 6.4278C19.7811 6.4298 20.2154 6.61768 20.6388 7.03125C20.9861 8.08643 21.1562 8.6032 21.2128 9.13213C21.2672 9.63979 21.2171 10.1586 21.1188 11.1755H7.627C7.25232 11.5262 6.84726 11.8471 6.43935 12.1531C6.36853 12.2065 6.2986 12.261 6.22933 12.3163C6.15772 12.3717 6.03903 12.4707 5.89942 12.5871C5.4927 12.9263 4.90854 13.4136 4.79461 13.3995C4.76057 13.3865 4.73241 13.3665 4.70898 13.3408ZM8.75256 6.43585C8.36632 6.48125 8.00931 6.59696 7.68638 6.87307L7.56215 6.97425C6.9987 7.6501 6.93482 8.42113 6.9848 9.24082C6.60699 9.61937 6.20211 9.94519 5.7983 10.1848C5.55784 9.97166 5.32353 9.75588 5.09688 9.53188C5.59959 8.7547 6.43772 7.75753 7.26419 6.77422C7.77398 6.1677 8.27933 5.56645 8.6988 5.02536C8.83103 5.47857 8.8546 5.9532 8.75256 6.43585ZM7.12673 19.5034V13.544H21.1188V19.5034H7.12673Z" fill="white"/>
<path d="M4.71045 13.7199L4.41045 13.7212L4.71045 13.7199ZM4.70898 13.3408L4.93084 13.1388L4.40618 12.5625L4.40899 13.3419L4.70898 13.3408ZM4.71774 16.3049L5.01774 16.3044L5.01774 16.3044L4.71774 16.3049ZM4.73374 21.8718L4.43374 21.873L4.4349 22.1718H4.73374V21.8718ZM6.50918 21.8718H6.80918V21.5718H6.50918V21.8718ZM8.97487 21.8718V21.5718H8.67487V21.8718H8.97487ZM19.1905 21.8718H19.4905V21.5718H19.1905V21.8718ZM21.6592 21.8718V21.5718H21.3592V21.8718H21.6592ZM23.4346 21.8718V22.1718H23.7332L23.7346 21.8733L23.4346 21.8718ZM23.454 16.5399L23.754 16.5405V16.5405L23.454 16.5399ZM23.4624 13.9457L23.1624 13.9441V13.9442L23.4624 13.9457ZM23.4707 11.6688L23.7707 11.6693V11.6691L23.4707 11.6688ZM23.4708 11.5492L23.1708 11.5489V11.5489L23.4708 11.5492ZM23.4738 10.4638L23.1738 10.4617L23.1738 10.462L23.4738 10.4638ZM23.4786 9.31473L23.7786 9.31464L23.7786 9.31427L23.4786 9.31473ZM23.4784 8.88742L23.1784 8.88416L23.1784 8.8872L23.4784 8.88742ZM22.2671 5.24474L22.4858 5.03937L22.4796 5.03286L22.4732 5.02672L22.2671 5.24474ZM17.9207 4.03307L17.9192 3.73307L17.9189 3.73308L17.9207 4.03307ZM17.1331 4.03508L17.133 4.33508H17.133L17.1331 4.03508ZM15.8084 4.0378L15.807 3.73781L15.807 3.73781L15.8084 4.0378ZM12.5562 4.04174L12.5561 4.34174H12.5561L12.5562 4.04174ZM10.9005 4.04366L10.8997 3.74366H10.8997L10.9005 4.04366ZM10.8778 4.04371L10.8771 3.74371L10.5338 3.74458L10.5807 4.08467L10.8778 4.04371ZM10.9575 4.93571L11.2576 4.92757L11.2569 4.91713L10.9575 4.93571ZM10.7433 6.41334L10.4542 6.33332L10.3493 6.71239L10.7426 6.71334L10.7433 6.41334ZM11.131 6.41386L11.131 6.71386H11.131L11.131 6.41386ZM12.4157 6.41638L12.4169 6.11639L12.4169 6.11639L12.4157 6.41638ZM15.7391 6.42025L15.7393 6.12025H15.7393L15.7391 6.42025ZM15.7934 6.42028L15.7933 6.72028H15.7933L15.7934 6.42028ZM17.0789 6.42202L17.0796 6.12202H17.0796L17.0789 6.42202ZM17.5402 6.42301L17.5396 6.72301L17.5398 6.72301L17.5402 6.42301ZM18.4285 6.42507L18.4297 6.12507L18.4296 6.12507L18.4285 6.42507ZM18.6994 6.42622L18.6981 6.72622L18.6991 6.72622L18.6994 6.42622ZM18.9556 6.42648L18.9572 6.12648L18.9559 6.12648L18.9556 6.42648ZM19.1903 6.4278L19.1886 6.7278L19.1893 6.7278L19.1903 6.4278ZM20.6388 7.03125L20.9237 6.93746L20.9008 6.86784L20.8484 6.81664L20.6388 7.03125ZM21.2128 9.13213L20.9145 9.16407V9.16408L21.2128 9.13213ZM21.1188 11.1755V11.4755H21.3912L21.4174 11.2043L21.1188 11.1755ZM7.627 11.1755V10.8755H7.50851L7.422 10.9565L7.627 11.1755ZM6.43935 12.1531L6.25933 11.9131L6.25884 11.9135L6.43935 12.1531ZM6.22933 12.3163L6.41275 12.5538L6.41659 12.5507L6.22933 12.3163ZM5.89942 12.5871L6.09158 12.8175L5.89942 12.5871ZM4.79461 13.3995L4.68766 13.6798L4.72173 13.6928L4.75793 13.6973L4.79461 13.3995ZM8.75256 6.43585L8.78759 6.7338L9.00152 6.70865L9.04608 6.4979L8.75256 6.43585ZM7.68638 6.87307L7.87588 7.10576L7.88134 7.10109L7.68638 6.87307ZM7.56215 6.97425L7.3727 6.74163L7.35026 6.75991L7.33172 6.78214L7.56215 6.97425ZM6.9848 9.24082L7.19714 9.45275L7.29246 9.35724L7.28424 9.22256L6.9848 9.24082ZM5.7983 10.1848L5.59929 10.4093L5.76312 10.5546L5.95142 10.4428L5.7983 10.1848ZM5.09688 9.53188L4.84498 9.36894L4.71249 9.57377L4.88599 9.74525L5.09688 9.53188ZM7.26419 6.77422L7.49385 6.96724L7.26419 6.77422ZM8.6988 5.02536L8.98679 4.94133L8.82206 4.37671L8.4617 4.84155L8.6988 5.02536ZM7.12673 13.544V13.244H6.82673V13.544H7.12673ZM7.12673 19.5034H6.82673V19.8034H7.12673V19.5034ZM21.1188 13.544H21.4188V13.244H21.1188V13.544ZM21.1188 19.5034V19.8034H21.4188V19.5034H21.1188ZM5.01044 13.7187C5.00993 13.5924 5.00944 13.466 5.00898 13.3397L4.40899 13.3419C4.40944 13.4683 4.40993 13.5947 4.41045 13.7212L5.01044 13.7187ZM5.01774 16.3044C5.01615 15.4426 5.01399 14.5807 5.01044 13.7187L4.41045 13.7212C4.41399 14.5825 4.41615 15.4439 4.41774 16.3055L5.01774 16.3044ZM5.03374 21.8707C5.02658 20.0152 5.02108 18.1598 5.01774 16.3044L4.41774 16.3055C4.42108 18.1614 4.42658 20.0172 4.43374 21.873L5.03374 21.8707ZM6.50918 21.5718H4.73374V22.1718H6.50918V21.5718ZM6.80918 23.5001V21.8718H6.20918V23.5001H6.80918ZM7.00917 23.7001C6.89869 23.7001 6.80918 23.6106 6.80918 23.5001H6.20918C6.20918 23.942 6.56735 24.3001 7.00917 24.3001V23.7001ZM8.47491 23.7001H7.00917V24.3001H8.47491V23.7001ZM8.67487 23.5001C8.67487 23.6106 8.58537 23.7001 8.47491 23.7001V24.3001C8.91673 24.3001 9.27487 23.942 9.27487 23.5001H8.67487ZM8.67487 21.8718V23.5001H9.27487V21.8718H8.67487ZM19.1905 21.5718H8.97487V22.1718H19.1905V21.5718ZM19.4905 23.5001V21.8718H18.8905V23.5001H19.4905ZM19.6905 23.7001C19.58 23.7001 19.4905 23.6106 19.4905 23.5001H18.8905C18.8905 23.942 19.2487 24.3001 19.6905 24.3001V23.7001ZM21.1592 23.7001H19.6905V24.3001H21.1592V23.7001ZM21.3592 23.5001C21.3592 23.6106 21.2697 23.7001 21.1592 23.7001V24.3001C21.601 24.3001 21.9592 23.942 21.9592 23.5001H21.3592ZM21.3592 21.8718V23.5001H21.9592V21.8718H21.3592ZM23.4346 21.5718H21.6592V22.1718H23.4346V21.5718ZM23.154 16.5392C23.15 18.3162 23.1432 20.0933 23.1346 21.8704L23.7346 21.8733C23.7432 20.0958 23.75 18.3182 23.754 16.5405L23.154 16.5392ZM23.1624 13.9442C23.1581 14.8094 23.156 15.6745 23.154 16.5392L23.754 16.5405C23.756 15.6758 23.7581 14.8114 23.7624 13.9472L23.1624 13.9442ZM23.1707 11.6683C23.1695 12.4268 23.1663 13.1853 23.1624 13.9441L23.7624 13.9472C23.7663 13.1881 23.7695 12.4287 23.7707 11.6693L23.1707 11.6683ZM23.1708 11.5489C23.1707 11.5888 23.1707 11.6286 23.1707 11.6684L23.7707 11.6691C23.7707 11.6293 23.7707 11.5894 23.7708 11.5495L23.1708 11.5489ZM23.1738 10.462C23.1716 10.8247 23.1712 11.1872 23.1708 11.5489L23.7708 11.5496C23.7712 11.1876 23.7716 10.8266 23.7738 10.4657L23.1738 10.462ZM23.1786 9.31481C23.1787 9.69672 23.1765 10.0788 23.1738 10.4617L23.7737 10.466C23.7765 10.0828 23.7787 9.69885 23.7786 9.31464L23.1786 9.31481ZM23.1784 8.8872C23.1783 9.02987 23.1784 9.17253 23.1786 9.31518L23.7786 9.31427C23.7784 9.17206 23.7783 9.02985 23.7784 8.88765L23.1784 8.8872ZM22.0484 5.45012C22.9904 6.45315 23.1935 7.49628 23.1785 8.88416L23.7784 8.89069C23.7943 7.42611 23.5774 6.20169 22.4858 5.03937L22.0484 5.45012ZM17.9223 4.33307C19.5706 4.32458 20.9008 4.36609 22.061 5.46276L22.4732 5.02672C21.1192 3.74695 19.5514 3.72467 17.9192 3.73308L17.9223 4.33307ZM17.133 4.33508C17.3959 4.33512 17.6591 4.33471 17.9226 4.33307L17.9189 3.73308C17.6572 3.73471 17.3954 3.73512 17.1331 3.73508L17.133 4.33508ZM15.8098 4.3378C16.2508 4.33579 16.6918 4.33499 17.133 4.33508L17.1331 3.73508C16.6912 3.73499 16.2491 3.7358 15.807 3.73781L15.8098 4.3378ZM12.5561 4.34174C13.0673 4.34183 15.2977 4.34022 15.8098 4.3378L15.807 3.73781C15.2966 3.74022 13.0677 3.74183 12.5563 3.74174L12.5561 4.34174ZM10.9013 4.34366C11.4529 4.34225 12.0045 4.34162 12.5561 4.34174L12.5563 3.74174C12.0041 3.74162 11.4519 3.74225 10.8997 3.74366L10.9013 4.34366ZM10.8786 4.34371C10.8862 4.34369 10.8937 4.34367 10.9013 4.34366L10.8997 3.74366C10.8922 3.74368 10.8846 3.7437 10.8771 3.74371L10.8786 4.34371ZM10.5807 4.08467C10.6174 4.35125 10.6384 4.63738 10.6581 4.95429L11.2569 4.91713C11.2372 4.59906 11.2151 4.29347 11.175 4.00276L10.5807 4.08467ZM10.6576 4.94385C10.6686 5.35039 10.5932 5.83119 10.4542 6.33332L11.0325 6.49337C11.1811 5.95638 11.2706 5.41318 11.2574 4.92757L10.6576 4.94385ZM11.1311 6.11386C11.0021 6.11382 10.8731 6.11366 10.7441 6.11334L10.7426 6.71334C10.8721 6.71366 11.0015 6.71382 11.131 6.71386L11.1311 6.11386ZM12.4169 6.11639C11.9882 6.11473 11.5597 6.11396 11.1311 6.11386L11.131 6.71386C11.5589 6.71396 11.9868 6.71473 12.4146 6.71638L12.4169 6.11639ZM15.7393 6.12025C15.1053 6.11986 12.9528 6.11853 12.4169 6.11639L12.4145 6.71638C12.9517 6.71853 15.1058 6.71986 15.7389 6.72025L15.7393 6.12025ZM15.7936 6.12028L15.7393 6.12025L15.7389 6.72025L15.7933 6.72028L15.7936 6.12028ZM17.0796 6.12202C16.6509 6.12112 16.2223 6.12054 15.7936 6.12028L15.7933 6.72028C16.2216 6.72054 16.65 6.72112 17.0783 6.72202L17.0796 6.12202ZM17.5408 6.12301L17.0796 6.12202L17.0783 6.72202L17.5396 6.72301L17.5408 6.12301ZM18.4296 6.12507C18.1331 6.12396 17.8368 6.12344 17.5406 6.12301L17.5398 6.72301C17.8358 6.72343 18.1316 6.72395 18.4273 6.72507L18.4296 6.12507ZM18.7007 6.12622L18.4297 6.12507L18.4272 6.72507L18.6981 6.72622L18.7007 6.12622ZM18.9559 6.12648L18.6997 6.12622L18.6991 6.72622L18.9552 6.72648L18.9559 6.12648ZM19.192 6.12781L18.9572 6.12649L18.9539 6.72648L19.1886 6.7278L19.192 6.12781ZM20.8484 6.81664C20.3721 6.35144 19.8641 6.13008 19.1913 6.1278L19.1893 6.7278C19.6981 6.72952 20.0586 6.88393 20.4292 7.24586L20.8484 6.81664ZM21.5111 9.10018C21.4503 8.53227 21.2671 7.98053 20.9237 6.93746L20.3538 7.12504C20.7051 8.19234 20.8621 8.67414 20.9145 9.16407L21.5111 9.10018ZM21.4174 11.2043C21.5145 10.1992 21.5695 9.64517 21.5111 9.10018L20.9145 9.16408C20.9649 9.6344 20.9196 10.1181 20.8202 11.1466L21.4174 11.2043ZM7.627 11.4755H21.1188V10.8755H7.627V11.4755ZM7.422 10.9565C7.05881 11.2964 6.66358 11.6099 6.25933 11.9131L6.61937 12.3931C7.03094 12.0843 7.44582 11.756 7.832 11.3945L7.422 10.9565ZM6.25884 11.9135C6.18536 11.9688 6.11316 12.0252 6.04206 12.082L6.41659 12.5507C6.48404 12.4968 6.5517 12.4441 6.61987 12.3927L6.25884 11.9135ZM6.04593 12.0789C5.96869 12.1386 5.84442 12.2423 5.70727 12.3567L6.09158 12.8175C6.23363 12.699 6.34676 12.6047 6.41273 12.5538L6.04593 12.0789ZM5.70727 12.3567C5.50272 12.5273 5.2598 12.7299 5.05427 12.888C4.9509 12.9676 4.86291 13.0313 4.79725 13.073C4.76382 13.0942 4.74319 13.1052 4.73345 13.1097C4.72861 13.1119 4.73245 13.1097 4.74291 13.1069C4.74988 13.105 4.78368 13.0959 4.83129 13.1018L4.75793 13.6973C4.81978 13.7049 4.8715 13.6937 4.89974 13.686C4.93148 13.6774 4.95995 13.6659 4.98278 13.6554C5.02838 13.6346 5.07525 13.6072 5.11897 13.5794C5.20759 13.5231 5.31243 13.4465 5.42018 13.3636C5.63689 13.1968 5.88941 12.9861 6.09158 12.8175L5.70727 12.3567ZM4.90157 13.1192C4.90705 13.1213 4.91293 13.1244 4.91857 13.1283C4.92416 13.1321 4.92823 13.136 4.93084 13.1388L4.48713 13.5427C4.5402 13.601 4.60703 13.6491 4.68766 13.6798L4.90157 13.1192ZM8.71754 6.1379C8.2907 6.18808 7.87188 6.31976 7.49142 6.64506L7.88134 7.10109C8.14675 6.87416 8.44194 6.77443 8.78759 6.7338L8.71754 6.1379ZM7.49694 6.64045L7.3727 6.74163L7.75159 7.20686L7.87582 7.10569L7.49694 6.64045ZM7.33172 6.78214C6.69343 7.54777 6.63396 8.41617 6.68536 9.25908L7.28424 9.22256C7.23568 8.42608 7.30396 7.75243 7.79257 7.16635L7.33172 6.78214ZM5.95142 10.4428C6.38093 10.1879 6.80532 9.84533 7.19714 9.45275L6.77246 9.0289C6.40865 9.39342 6.02329 9.70246 5.64519 9.92686L5.95142 10.4428ZM4.88599 9.74525C5.11759 9.97414 5.3561 10.1937 5.59929 10.4093L5.99732 9.96036C5.75957 9.74959 5.52947 9.53762 5.30776 9.3185L4.88599 9.74525ZM5.34877 9.69482C5.83892 8.93707 6.66245 7.95641 7.49385 6.96724L7.03454 6.58119C6.21299 7.55864 5.36027 8.57233 4.84498 9.36894L5.34877 9.69482ZM7.49385 6.96724C8.0026 6.36195 8.51207 5.75587 8.9359 5.20916L8.4617 4.84155C8.04658 5.37703 7.54535 5.97345 7.03454 6.58119L7.49385 6.96724ZM9.04608 6.4979C9.15862 5.96555 9.1325 5.44075 8.98679 4.94133L8.4108 5.10938C8.52955 5.51639 8.55058 5.94084 8.45905 6.3738L9.04608 6.4979ZM6.82673 13.544V19.5034H7.42673V13.544H6.82673ZM21.1188 13.244H7.12673V13.844H21.1188V13.244ZM21.4188 19.5034V13.544H20.8188V19.5034H21.4188ZM7.12673 19.8034H21.1188V19.2034H7.12673V19.8034Z" fill="#14141B" mask="url(#path-1-inside-1_409_5029)"/>
<path d="M16.6953 15.5105C17.384 15.5105 18.0727 15.5105 18.7823 15.5105C18.7823 16.1992 18.7823 16.8879 18.7823 17.5975C18.0936 17.5975 17.4049 17.5975 16.6953 17.5975C16.6953 16.9088 16.6953 16.2201 16.6953 15.5105Z" fill="white"/>
<path d="M9 14.8643C9.66 14.8643 10.32 14.8643 11 14.8643C11 15.5243 11 16.1843 11 16.8643C10.34 16.8643 9.68 16.8643 9 16.8643C9 16.2043 9 15.5443 9 14.8643Z" fill="white"/>
<path d="M3.58398 3.58447C4.24398 3.58447 4.90398 3.58447 5.58398 3.58447C5.58398 4.24447 5.58398 4.90447 5.58398 5.58447C4.92398 5.58447 4.26398 5.58447 3.58398 5.58447C3.58398 4.92447 3.58398 4.26447 3.58398 3.58447Z" fill="white"/>
<path d="M7.78836 0.96682C7.8796 1.04573 7.96985 1.12582 8.05884 1.20725C8.09983 1.24274 8.14082 1.27822 8.18305 1.31479C9.05647 2.11813 9.56339 3.33404 9.63596 4.50354C9.66953 5.74042 9.25225 6.87298 8.5397 7.87919C8.47857 7.966 8.47857 7.966 8.4162 8.05458C8.13125 8.44651 7.82182 8.80496 7.49064 9.15741C7.36753 9.28958 7.25035 9.42363 7.13469 9.5622C6.62509 10.1468 6.01282 10.6455 5.39398 11.1097C5.32316 11.1631 5.25323 11.2176 5.18395 11.2729C4.90374 11.4894 4.90374 11.4894 4.7507 11.4706C4.41591 11.3428 4.12885 11.0494 3.85132 10.8245C3.81763 10.7972 3.78394 10.77 3.74924 10.7419C2.90772 10.0555 2.0992 9.29098 1.44701 8.42015C1.41119 8.37319 1.41119 8.37319 1.37464 8.32527C0.359366 6.98858 -0.175545 5.59605 0.0205465 3.89231C0.154116 3.10979 0.56992 2.28949 1.08637 1.68811C1.1162 1.64976 1.14603 1.6114 1.17677 1.57189C1.80058 0.800766 2.81743 0.217571 3.79332 0.0292837C5.24967 -0.118503 6.60597 0.0469833 7.78836 0.96682ZM3.55078 2.10886C3.49987 2.13435 3.44897 2.15985 3.39652 2.18611C2.81629 2.50413 2.38103 2.9486 2.1082 3.55144C2.08464 3.59863 2.06109 3.64582 2.03682 3.69443C1.76577 4.31088 1.75966 5.06417 1.98423 5.69653C2.3333 6.47388 2.80216 7.12936 3.37046 7.75897C3.42504 7.82085 3.47959 7.88275 3.53411 7.94469C3.91517 8.37314 4.32426 8.7614 4.75293 9.14144C6.00199 8.40013 7.26129 6.83446 7.6982 5.43356C7.8755 4.64904 7.72028 3.88469 7.30515 3.19784C6.83486 2.5163 6.1789 2.02385 5.354 1.86843C4.72632 1.80498 4.12026 1.81258 3.55078 2.10886Z" fill="white"/>
</g>
<defs>
<clipPath id="clip0_409_5029">
<rect width="24" height="24" fill="white"/>
</clipPath>
</defs>
</svg>
