<svg width="24" height="24" viewBox="0 0 24 24" fill="none" xmlns="http://www.w3.org/2000/svg">
<g clip-path="url(#clip0_2602_19651)">
<mask id="path-1-inside-1_2602_19651" fill="white">
<path d="M17.9199 4.03307C19.5601 4.02463 21.0086 4.05686 22.2656 5.24498C23.2824 6.32766 23.493 7.46133 23.4775 8.88756C23.4774 9.02981 23.4773 9.17206 23.4775 9.31432C23.4776 9.69737 23.4754 10.0807 23.4727 10.4637C23.4702 10.8654 23.4702 11.2672 23.4697 11.6688C23.4685 12.4276 23.4658 13.1864 23.4619 13.9452C23.4576 14.8099 23.4551 15.6752 23.4531 16.5399C23.4491 18.3172 23.4421 20.0947 23.4336 21.8719H21.6582V23.4999C21.6582 23.776 21.4343 23.9999 21.1582 23.9999H19.6895C19.4133 23.9998 19.1895 23.776 19.1895 23.4999V21.8719H8.97363V23.4999C8.97363 23.776 8.74978 23.9999 8.47363 23.9999H7.00781C6.73184 23.9997 6.50781 23.7759 6.50781 23.4999V21.8719H4.73242C4.72526 20.0163 4.72013 18.1602 4.7168 16.3046C4.71521 15.443 4.71252 14.5812 4.70898 13.7196C4.70846 13.5923 4.70847 13.465 4.70801 13.3378C4.73172 13.3643 4.7592 13.386 4.79395 13.3993C4.94796 13.417 5.94848 12.5326 6.22852 12.3163C6.29775 12.261 6.36769 12.2065 6.43848 12.1532C6.84595 11.8475 7.24968 11.5259 7.62402 11.1756H21.1182C21.3188 9.09936 21.3183 9.09907 20.6377 7.03111C20.2143 6.61761 19.7801 6.42962 19.1895 6.4276C19.0732 6.42694 19.0727 6.42729 18.9541 6.42662C18.8697 6.42654 18.7852 6.42573 18.6982 6.42565C18.609 6.42527 18.5197 6.42506 18.4277 6.42467C18.1316 6.42355 17.8352 6.42314 17.5391 6.42272C17.3854 6.42239 17.2318 6.42207 17.0781 6.42174C16.6496 6.42084 16.2205 6.42005 15.792 6.41979C15.2381 6.41944 12.9685 6.41809 12.415 6.41588C11.9868 6.41422 11.5581 6.41403 11.1299 6.41393C11.0003 6.41389 10.8708 6.41229 10.7412 6.41197C10.8849 5.89271 10.9682 5.38124 10.9561 4.93541C10.9364 4.61798 10.9134 4.32241 10.875 4.04381C10.8831 4.04379 10.8913 4.04383 10.8994 4.04381C11.4513 4.0424 12.0038 4.04174 12.5557 4.04186C13.0678 4.04195 15.2965 4.04036 15.8076 4.03795C16.249 4.03594 16.6904 4.03492 17.1318 4.03502C17.3944 4.03506 17.6574 4.0347 17.9199 4.03307ZM7.12598 19.5028H21.1182V13.5438H7.12598V19.5028ZM8.69629 5.02428C8.82904 5.47853 8.85167 5.95353 8.74902 6.43736C8.36386 6.48299 8.0077 6.59751 7.68555 6.87291C7.64456 6.90629 7.60375 6.94008 7.56152 6.97447C6.99847 7.64988 6.9336 8.42003 6.9834 9.23912C6.60542 9.61792 6.20089 9.94466 5.79688 10.1844C5.55692 9.97169 5.32386 9.7556 5.09766 9.53209C5.91057 8.2756 7.59692 6.44237 8.69629 5.02428Z"/>
</mask>
<path d="M17.9199 4.03307C19.5601 4.02463 21.0086 4.05686 22.2656 5.24498C23.2824 6.32766 23.493 7.46133 23.4775 8.88756C23.4774 9.02981 23.4773 9.17206 23.4775 9.31432C23.4776 9.69737 23.4754 10.0807 23.4727 10.4637C23.4702 10.8654 23.4702 11.2672 23.4697 11.6688C23.4685 12.4276 23.4658 13.1864 23.4619 13.9452C23.4576 14.8099 23.4551 15.6752 23.4531 16.5399C23.4491 18.3172 23.4421 20.0947 23.4336 21.8719H21.6582V23.4999C21.6582 23.776 21.4343 23.9999 21.1582 23.9999H19.6895C19.4133 23.9998 19.1895 23.776 19.1895 23.4999V21.8719H8.97363V23.4999C8.97363 23.776 8.74978 23.9999 8.47363 23.9999H7.00781C6.73184 23.9997 6.50781 23.7759 6.50781 23.4999V21.8719H4.73242C4.72526 20.0163 4.72013 18.1602 4.7168 16.3046C4.71521 15.443 4.71252 14.5812 4.70898 13.7196C4.70846 13.5923 4.70847 13.465 4.70801 13.3378C4.73172 13.3643 4.7592 13.386 4.79395 13.3993C4.94796 13.417 5.94848 12.5326 6.22852 12.3163C6.29775 12.261 6.36769 12.2065 6.43848 12.1532C6.84595 11.8475 7.24968 11.5259 7.62402 11.1756H21.1182C21.3188 9.09936 21.3183 9.09907 20.6377 7.03111C20.2143 6.61761 19.7801 6.42962 19.1895 6.4276C19.0732 6.42694 19.0727 6.42729 18.9541 6.42662C18.8697 6.42654 18.7852 6.42573 18.6982 6.42565C18.609 6.42527 18.5197 6.42506 18.4277 6.42467C18.1316 6.42355 17.8352 6.42314 17.5391 6.42272C17.3854 6.42239 17.2318 6.42207 17.0781 6.42174C16.6496 6.42084 16.2205 6.42005 15.792 6.41979C15.2381 6.41944 12.9685 6.41809 12.415 6.41588C11.9868 6.41422 11.5581 6.41403 11.1299 6.41393C11.0003 6.41389 10.8708 6.41229 10.7412 6.41197C10.8849 5.89271 10.9682 5.38124 10.9561 4.93541C10.9364 4.61798 10.9134 4.32241 10.875 4.04381C10.8831 4.04379 10.8913 4.04383 10.8994 4.04381C11.4513 4.0424 12.0038 4.04174 12.5557 4.04186C13.0678 4.04195 15.2965 4.04036 15.8076 4.03795C16.249 4.03594 16.6904 4.03492 17.1318 4.03502C17.3944 4.03506 17.6574 4.0347 17.9199 4.03307ZM7.12598 19.5028H21.1182V13.5438H7.12598V19.5028ZM8.69629 5.02428C8.82904 5.47853 8.85167 5.95353 8.74902 6.43736C8.36386 6.48299 8.0077 6.59751 7.68555 6.87291C7.64456 6.90629 7.60375 6.94008 7.56152 6.97447C6.99847 7.64988 6.9336 8.42003 6.9834 9.23912C6.60542 9.61792 6.20089 9.94466 5.79688 10.1844C5.55692 9.97169 5.32386 9.7556 5.09766 9.53209C5.91057 8.2756 7.59692 6.44237 8.69629 5.02428Z" fill="#E8B600"/>
<path d="M17.9199 4.03307L17.9184 3.73307L17.9181 3.73307L17.9199 4.03307ZM22.2656 5.24498L22.4843 5.03961L22.4782 5.03309L22.4717 5.02696L22.2656 5.24498ZM23.4775 8.88756L23.1775 8.8843L23.1775 8.88733L23.4775 8.88756ZM23.4775 9.31432L23.7775 9.31423L23.7775 9.31386L23.4775 9.31432ZM23.4727 10.4637L23.1727 10.4616L23.1727 10.4619L23.4727 10.4637ZM23.4697 11.6688L23.7697 11.6693V11.6692L23.4697 11.6688ZM23.4619 13.9452L23.1619 13.9436V13.9437L23.4619 13.9452ZM23.4531 16.5399L23.7531 16.5406V16.5406L23.4531 16.5399ZM23.4336 21.8719V22.1719H23.7322L23.7336 21.8734L23.4336 21.8719ZM21.6582 21.8719V21.5719H21.3582V21.8719H21.6582ZM19.6895 23.9999L19.6894 24.2999H19.6895V23.9999ZM19.1895 21.8719H19.4895V21.5719H19.1895V21.8719ZM8.97363 21.8719V21.5719H8.67363V21.8719H8.97363ZM7.00781 23.9999L7.00759 24.2999H7.00781V23.9999ZM6.50781 21.8719H6.80781V21.5719H6.50781V21.8719ZM4.73242 21.8719L4.43242 21.8731L4.43358 22.1719H4.73242V21.8719ZM4.7168 16.3046L5.0168 16.304L5.0168 16.304L4.7168 16.3046ZM4.70898 13.7196L4.40899 13.7208V13.7208L4.70898 13.7196ZM4.70801 13.3378L4.93161 13.1377L4.40516 12.5492L4.40801 13.3388L4.70801 13.3378ZM4.79395 13.3993L4.68699 13.6796L4.72223 13.693L4.7597 13.6973L4.79395 13.3993ZM6.22852 12.3163L6.41194 12.5537L6.41578 12.5506L6.22852 12.3163ZM6.43848 12.1532L6.25845 11.9132L6.25796 11.9136L6.43848 12.1532ZM7.62402 11.1756V10.8756H7.50556L7.41906 10.9566L7.62402 11.1756ZM21.1182 11.1756V11.4756H21.3906L21.4168 11.2045L21.1182 11.1756ZM20.6377 7.03111L20.9227 6.93732L20.8997 6.8677L20.8473 6.8165L20.6377 7.03111ZM19.1895 6.4276L19.1878 6.72759L19.1884 6.7276L19.1895 6.4276ZM18.9541 6.42662L18.9558 6.12662L18.9544 6.12662L18.9541 6.42662ZM18.6982 6.42565L18.697 6.72564L18.6979 6.72565L18.6982 6.42565ZM18.4277 6.42467L18.429 6.12467L18.4289 6.12467L18.4277 6.42467ZM17.5391 6.42272L17.5384 6.72272L17.5386 6.72272L17.5391 6.42272ZM17.0781 6.42174L17.0788 6.12174H17.0788L17.0781 6.42174ZM15.792 6.41979L15.7918 6.71979H15.7918L15.792 6.41979ZM12.415 6.41588L12.4162 6.11588L12.4162 6.11588L12.415 6.41588ZM11.1299 6.41393L11.1298 6.71393L11.1298 6.71393L11.1299 6.41393ZM10.7412 6.41197L10.4521 6.33198L10.3472 6.71101L10.7405 6.71197L10.7412 6.41197ZM10.9561 4.93541L11.2561 4.92727L11.2555 4.91683L10.9561 4.93541ZM10.875 4.04381L10.8742 3.74381L10.5309 3.74467L10.5778 4.08477L10.875 4.04381ZM10.8994 4.04381L10.8986 3.74381H10.8986L10.8994 4.04381ZM12.5557 4.04186L12.5556 4.34186H12.5556L12.5557 4.04186ZM15.8076 4.03795L15.8063 3.73795L15.8062 3.73795L15.8076 4.03795ZM17.1318 4.03502L17.1318 4.33502H17.1318L17.1318 4.03502ZM7.12598 19.5028H6.82598V19.8028H7.12598V19.5028ZM21.1182 19.5028V19.8028H21.4182V19.5028H21.1182ZM21.1182 13.5438H21.4182V13.2438H21.1182V13.5438ZM7.12598 13.5438V13.2438H6.82598V13.5438H7.12598ZM8.69629 5.02428L8.98425 4.94013L8.81936 4.37589L8.45919 4.84047L8.69629 5.02428ZM8.74902 6.43736L8.78431 6.73528L8.99786 6.70999L9.04249 6.49962L8.74902 6.43736ZM7.68555 6.87291L7.87504 7.1056L7.88049 7.10094L7.68555 6.87291ZM7.56152 6.97447L7.37208 6.74185L7.34963 6.76014L7.33109 6.78237L7.56152 6.97447ZM6.9834 9.23912L7.19576 9.45102L7.29103 9.35555L7.28285 9.22092L6.9834 9.23912ZM5.79688 10.1844L5.59785 10.4089L5.76169 10.5542L5.94999 10.4424L5.79688 10.1844ZM5.09766 9.53209L4.84577 9.36913L4.71324 9.57399L4.8868 9.74549L5.09766 9.53209ZM17.9199 4.03307L17.9215 4.33306C19.5696 4.32458 20.8994 4.3664 22.0596 5.463L22.2656 5.24498L22.4717 5.02696C21.1178 3.74732 19.5506 3.72467 17.9184 3.73307L17.9199 4.03307ZM22.2656 5.24498L22.0469 5.45036C22.989 6.45344 23.1926 7.49653 23.1776 8.8843L23.4775 8.88756L23.7775 8.89082C23.7934 7.42613 23.5758 6.20188 22.4843 5.03961L22.2656 5.24498ZM23.4775 8.88756L23.1775 8.88733C23.1774 9.02953 23.1773 9.17212 23.1775 9.31478L23.4775 9.31432L23.7775 9.31386C23.7773 9.17201 23.7774 9.0301 23.7775 8.88779L23.4775 8.88756ZM23.4775 9.31432L23.1775 9.3144C23.1776 9.6963 23.1754 10.0787 23.1727 10.4616L23.4727 10.4637L23.7726 10.4659C23.7754 10.0827 23.7776 9.69845 23.7775 9.31423L23.4775 9.31432ZM23.4727 10.4637L23.1727 10.4619C23.1702 10.8645 23.1702 11.2673 23.1697 11.6685L23.4697 11.6688L23.7697 11.6692C23.7702 11.2671 23.7702 10.8662 23.7727 10.4655L23.4727 10.4637ZM23.4697 11.6688L23.1697 11.6683C23.1685 12.4267 23.1658 13.1852 23.1619 13.9436L23.4619 13.9452L23.7619 13.9467C23.7658 13.1876 23.7685 12.4285 23.7697 11.6693L23.4697 11.6688ZM23.4619 13.9452L23.1619 13.9437C23.1576 14.8088 23.1551 15.6744 23.1531 16.5392L23.4531 16.5399L23.7531 16.5406C23.7551 15.676 23.7576 14.811 23.7619 13.9467L23.4619 13.9452ZM23.4531 16.5399L23.1531 16.5392C23.1491 18.3162 23.1421 20.0934 23.1336 21.8705L23.4336 21.8719L23.7336 21.8734C23.7421 20.0959 23.7491 18.3182 23.7531 16.5406L23.4531 16.5399ZM23.4336 21.8719V21.5719H21.6582V21.8719V22.1719H23.4336V21.8719ZM21.6582 21.8719H21.3582V23.4999H21.6582H21.9582V21.8719H21.6582ZM21.6582 23.4999H21.3582C21.3582 23.6103 21.2687 23.6999 21.1582 23.6999V23.9999V24.2999C21.6 24.2999 21.9582 23.9417 21.9582 23.4999H21.6582ZM21.1582 23.9999V23.6999H19.6895V23.9999V24.2999H21.1582V23.9999ZM19.6895 23.9999L19.6895 23.6999C19.579 23.6998 19.4895 23.6103 19.4895 23.4999H19.1895H18.8895C18.8895 23.9417 19.2477 24.2998 19.6894 24.2999L19.6895 23.9999ZM19.1895 23.4999H19.4895V21.8719H19.1895H18.8895V23.4999H19.1895ZM19.1895 21.8719V21.5719H8.97363V21.8719V22.1719H19.1895V21.8719ZM8.97363 21.8719H8.67363V23.4999H8.97363H9.27363V21.8719H8.97363ZM8.97363 23.4999H8.67363C8.67363 23.6103 8.58409 23.6999 8.47363 23.6999V23.9999V24.2999C8.91546 24.2999 9.27363 23.9417 9.27363 23.4999H8.97363ZM8.47363 23.9999V23.6999H7.00781V23.9999V24.2999H8.47363V23.9999ZM7.00781 23.9999L7.00803 23.6999C6.89736 23.6998 6.80781 23.61 6.80781 23.4999H6.50781H6.20781C6.20781 23.9418 6.56633 24.2995 7.00759 24.2999L7.00781 23.9999ZM6.50781 23.4999H6.80781V21.8719H6.50781H6.20781V23.4999H6.50781ZM6.50781 21.8719V21.5719H4.73242V21.8719V22.1719H6.50781V21.8719ZM4.73242 21.8719L5.03242 21.8708C5.02526 20.0154 5.02013 18.1595 5.0168 16.304L4.7168 16.3046L4.4168 16.3051C4.42013 18.1609 4.42526 20.0172 4.43242 21.8731L4.73242 21.8719ZM4.7168 16.3046L5.0168 16.304C5.01521 15.4422 5.01252 14.5801 5.00898 13.7184L4.70898 13.7196L4.40899 13.7208C4.41253 14.5822 4.41521 15.4438 4.4168 16.3051L4.7168 16.3046ZM4.70898 13.7196L5.00898 13.7184C5.00845 13.5889 5.00848 13.4677 5.00801 13.3367L4.70801 13.3378L4.40801 13.3388C4.40845 13.4624 4.40847 13.5957 4.40899 13.7208L4.70898 13.7196ZM4.70801 13.3378L4.48441 13.5378C4.53112 13.59 4.5965 13.645 4.68699 13.6796L4.79395 13.3993L4.9009 13.119C4.9105 13.1227 4.9185 13.1273 4.9244 13.1317C4.92996 13.1358 4.93232 13.1385 4.93161 13.1377L4.70801 13.3378ZM4.79395 13.3993L4.7597 13.6973C4.83785 13.7063 4.90294 13.6856 4.9316 13.6755C4.96773 13.6629 5.00165 13.6464 5.0303 13.631C5.08811 13.5999 5.15198 13.5583 5.21562 13.5138C5.34429 13.4238 5.49913 13.3028 5.65251 13.1789C5.97333 12.9197 6.27188 12.6619 6.41191 12.5537L6.22852 12.3163L6.04512 12.0789C5.90512 12.187 5.56339 12.4795 5.27544 12.7122C5.12442 12.8342 4.98275 12.9445 4.87176 13.0221C4.81557 13.0614 4.77382 13.0877 4.74634 13.1024C4.73235 13.1099 4.72871 13.1108 4.73313 13.1093C4.73564 13.1084 4.74419 13.1055 4.75742 13.1031C4.76969 13.1009 4.79502 13.0974 4.82819 13.1012L4.79395 13.3993ZM6.22852 12.3163L6.41578 12.5506C6.48304 12.4969 6.55072 12.4442 6.61899 12.3928L6.43848 12.1532L6.25796 11.9136C6.18467 11.9688 6.11247 12.025 6.04125 12.0819L6.22852 12.3163ZM6.43848 12.1532L6.6185 12.3932C7.03016 12.0844 7.44346 11.7554 7.82898 11.3947L7.62402 11.1756L7.41906 10.9566C7.0559 11.2964 6.66173 11.6107 6.25845 11.9132L6.43848 12.1532ZM7.62402 11.1756V11.4756H21.1182V11.1756V10.8756H7.62402V11.1756ZM21.1182 11.1756L21.4168 11.2045C21.5159 10.1783 21.571 9.62264 21.5064 9.06568C21.442 8.51021 21.2591 7.95948 20.9227 6.93732L20.6377 7.03111L20.3527 7.12491C20.6969 8.1707 20.8546 8.65409 20.9104 9.13483C20.966 9.61407 20.921 10.0967 20.8196 11.1468L21.1182 11.1756ZM20.6377 7.03111L20.8473 6.8165C20.3711 6.3514 19.8632 6.1299 19.1905 6.1276L19.1895 6.4276L19.1884 6.7276C19.6971 6.72934 20.0575 6.88381 20.4281 7.24573L20.6377 7.03111ZM19.1895 6.4276L19.1911 6.1276C19.1326 6.12727 19.1031 6.1272 19.0735 6.12712C19.0441 6.12704 19.0147 6.12696 18.9558 6.12663L18.9541 6.42662L18.9524 6.72662C19.0121 6.72695 19.0422 6.72703 19.0719 6.72711C19.1012 6.72719 19.1301 6.72727 19.1878 6.72759L19.1895 6.4276ZM18.9541 6.42662L18.9544 6.12662C18.913 6.12658 18.8714 6.12636 18.8287 6.12614C18.7862 6.12592 18.7427 6.12569 18.6985 6.12565L18.6982 6.42565L18.6979 6.72565C18.7407 6.72569 18.7829 6.72591 18.8256 6.72613C18.868 6.72635 18.9109 6.72658 18.9538 6.72662L18.9541 6.42662ZM18.6982 6.42565L18.6995 6.12565C18.6547 6.12546 18.6099 6.12531 18.565 6.12516C18.52 6.12502 18.4748 6.12487 18.429 6.12467L18.4277 6.42467L18.4265 6.72467C18.4726 6.72486 18.5181 6.72501 18.563 6.72516C18.608 6.72531 18.6525 6.72545 18.697 6.72564L18.6982 6.42565ZM18.4277 6.42467L18.4289 6.12467C18.1324 6.12355 17.8355 6.12314 17.5395 6.12272L17.5391 6.42272L17.5386 6.72272C17.8348 6.72314 18.1309 6.72355 18.4266 6.72467L18.4277 6.42467ZM17.5391 6.42272L17.5397 6.12272C17.386 6.12239 17.2324 6.12207 17.0788 6.12174L17.0781 6.42174L17.0775 6.72174C17.2311 6.72207 17.3848 6.72239 17.5384 6.72272L17.5391 6.42272ZM17.0781 6.42174L17.0788 6.12174C16.6502 6.12084 16.2209 6.12005 15.7922 6.11979L15.792 6.41979L15.7918 6.71979C16.2201 6.72005 16.649 6.72084 17.0775 6.72174L17.0781 6.42174ZM15.792 6.41979L15.7922 6.11979C15.2379 6.11944 12.969 6.11809 12.4162 6.11588L12.415 6.41588L12.4138 6.71588C12.9679 6.71809 15.2384 6.71944 15.7918 6.71979L15.792 6.41979ZM12.415 6.41588L12.4162 6.11588C11.9874 6.11422 11.5582 6.11403 11.13 6.11393L11.1299 6.41393L11.1298 6.71393C11.5581 6.71403 11.9863 6.71423 12.4139 6.71588L12.415 6.41588ZM11.1299 6.41393L11.13 6.11393C10.9972 6.11388 10.8791 6.11231 10.7419 6.11197L10.7412 6.41197L10.7405 6.71197C10.8624 6.71227 11.0035 6.71389 11.1298 6.71393L11.1299 6.41393ZM10.7412 6.41197L11.0304 6.49196C11.1787 5.95571 11.2691 5.41293 11.2559 4.92727L10.9561 4.93541L10.6562 4.94355C10.6672 5.34955 10.591 5.82971 10.4521 6.33198L10.7412 6.41197ZM10.9561 4.93541L11.2555 4.91683C11.2357 4.59752 11.2122 4.29289 11.1722 4.00285L10.875 4.04381L10.5778 4.08477C10.6146 4.35192 10.637 4.63845 10.6566 4.95399L10.9561 4.93541ZM10.875 4.04381L10.8758 4.34381C10.8792 4.3438 10.8827 4.3438 10.8868 4.34381C10.8908 4.34381 10.8954 4.34382 10.9002 4.34381L10.8994 4.04381L10.8986 3.74381C10.8952 3.74382 10.8917 3.74382 10.8876 3.74381C10.8836 3.7438 10.879 3.7438 10.8742 3.74381L10.875 4.04381ZM10.8994 4.04381L10.9002 4.34381C11.4518 4.3424 12.004 4.34174 12.5556 4.34186L12.5557 4.04186L12.5557 3.74186C12.0035 3.74174 11.4508 3.7424 10.8986 3.74381L10.8994 4.04381ZM12.5557 4.04186L12.5556 4.34186C13.0676 4.34195 15.297 4.34037 15.809 4.33795L15.8076 4.03795L15.8062 3.73795C15.2959 3.74036 13.068 3.74195 12.5557 3.74186L12.5557 4.04186ZM15.8076 4.03795L15.809 4.33795C16.2499 4.33594 16.6909 4.33492 17.1318 4.33502L17.1318 4.03502L17.1319 3.73502C16.69 3.73492 16.2481 3.73594 15.8063 3.73795L15.8076 4.03795ZM17.1318 4.03502L17.1318 4.33502C17.3946 4.33506 17.6583 4.3347 17.9218 4.33306L17.9199 4.03307L17.9181 3.73307C17.6564 3.7347 17.3942 3.73506 17.1319 3.73502L17.1318 4.03502ZM7.12598 19.5028V19.8028H21.1182V19.5028V19.2028H7.12598V19.5028ZM21.1182 19.5028H21.4182V13.5438H21.1182H20.8182V19.5028H21.1182ZM21.1182 13.5438V13.2438H7.12598V13.5438V13.8438H21.1182V13.5438ZM7.12598 13.5438H6.82598V19.5028H7.12598H7.42598V13.5438H7.12598ZM8.69629 5.02428L8.40833 5.10843C8.52744 5.51599 8.54772 5.94069 8.45555 6.3751L8.74902 6.43736L9.04249 6.49962C9.15562 5.96638 9.13064 5.44108 8.98425 4.94013L8.69629 5.02428ZM8.74902 6.43736L8.71373 6.13945C8.2887 6.18979 7.87056 6.32006 7.4906 6.64488L7.68555 6.87291L7.88049 7.10094C8.14483 6.87496 8.43902 6.77618 8.78431 6.73528L8.74902 6.43736ZM7.68555 6.87291L7.4961 6.64029C7.47506 6.65743 7.45413 6.67462 7.43361 6.69147C7.41294 6.70844 7.39265 6.72511 7.37208 6.74185L7.56152 6.97447L7.75097 7.20709C7.77263 7.18945 7.79385 7.17203 7.81439 7.15516C7.83508 7.13817 7.85505 7.12177 7.87499 7.10553L7.68555 6.87291ZM7.56152 6.97447L7.33109 6.78237C6.69335 7.54738 6.63272 8.41468 6.68395 9.25733L6.9834 9.23912L7.28285 9.22092C7.23448 8.42538 7.30359 7.75239 7.79195 7.16657L7.56152 6.97447ZM6.9834 9.23912L6.77104 9.02722C6.40679 9.39226 6.02178 9.7021 5.64376 9.92645L5.79688 10.1844L5.94999 10.4424C6.37999 10.1872 6.80405 9.84358 7.19576 9.45102L6.9834 9.23912ZM5.79688 10.1844L5.9959 9.95996C5.75923 9.75013 5.53021 9.53775 5.30851 9.31869L5.09766 9.53209L4.8868 9.74549C5.1175 9.97345 5.35461 10.1933 5.59785 10.4089L5.79688 10.1844ZM5.09766 9.53209L5.34954 9.69505C5.74469 9.08427 6.35802 8.32512 7.02001 7.53086C7.67642 6.74327 8.37937 5.92272 8.93339 5.20809L8.69629 5.02428L8.45919 4.84047C7.91384 5.54393 7.22393 6.34903 6.5591 7.14671C5.89984 7.93771 5.26354 8.72341 4.84577 9.36913L5.09766 9.53209Z" fill="#14141B" mask="url(#path-1-inside-1_2602_19651)"/>
<path d="M16.6958 15.5103C17.3845 15.5103 18.0732 15.5103 18.7828 15.5103C18.7828 16.1989 18.7828 16.8876 18.7828 17.5972C18.0941 17.5972 17.4054 17.5972 16.6958 17.5972C16.6958 16.9085 16.6958 16.2198 16.6958 15.5103Z" fill="#E8B600"/>
<path d="M9 14.8643C9.66 14.8643 10.32 14.8643 11 14.8643C11 15.5243 11 16.1843 11 16.8643C10.34 16.8643 9.68 16.8643 9 16.8643C9 16.2043 9 15.5443 9 14.8643Z" fill="#E8B600"/>
<path d="M3.58447 3.58447C4.24447 3.58447 4.90447 3.58447 5.58447 3.58447C5.58447 4.24447 5.58447 4.90447 5.58447 5.58447C4.92447 5.58447 4.26447 5.58447 3.58447 5.58447C3.58447 4.92447 3.58447 4.26447 3.58447 3.58447Z" fill="#E8B600"/>
<path d="M7.78934 0.966576C7.88058 1.04548 7.97082 1.12557 8.05982 1.20701C8.10081 1.24249 8.1418 1.27798 8.18403 1.31454C9.05745 2.11789 9.56436 3.3338 9.63694 4.50329C9.67051 5.74018 9.25322 6.87274 8.54068 7.87894C8.47955 7.96576 8.47955 7.96576 8.41718 8.05433C8.13223 8.44626 7.8228 8.80471 7.49162 9.15717C7.36851 9.28934 7.25133 9.42339 7.13567 9.56195C6.62606 10.1466 6.01379 10.6452 5.39495 11.1095C5.32414 11.1628 5.2542 11.2174 5.18493 11.2727C4.90471 11.4892 4.90471 11.4892 4.75168 11.4703C4.41689 11.3426 4.12983 11.0492 3.85229 10.8242C3.81861 10.797 3.78492 10.7697 3.75022 10.7417C2.9087 10.0553 2.10017 9.29073 1.44799 8.41991C1.41217 8.37294 1.41217 8.37294 1.37562 8.32502C0.360342 6.98834 -0.174568 5.59581 0.0215231 3.89206C0.155092 3.10954 0.570897 2.28925 1.08735 1.68787C1.11718 1.64951 1.14701 1.61116 1.17774 1.57164C1.80155 0.800522 2.8184 0.217327 3.7943 0.0290396C5.25064 -0.118747 6.60695 0.0467391 7.78934 0.966576ZM3.55175 2.10862C3.50085 2.13411 3.44994 2.1596 3.39749 2.18587C2.81726 2.50389 2.38201 2.94836 2.10917 3.5512C2.08562 3.59839 2.06206 3.64557 2.0378 3.69419C1.76675 4.31064 1.76064 5.06393 1.9852 5.69629C2.33428 6.47364 2.80314 7.12912 3.37143 7.75873C3.42602 7.8206 3.48057 7.88251 3.53508 7.94445C3.91615 8.3729 4.32524 8.76116 4.75391 9.1412C6.00297 8.39989 7.26227 6.83422 7.69917 5.43332C7.87647 4.6488 7.72126 3.88445 7.30613 3.1976C6.83584 2.51606 6.17988 2.0236 5.35498 1.86819C4.7273 1.80474 4.12124 1.81234 3.55175 2.10862Z" fill="#E8B600"/>
</g>
<defs>
<clipPath id="clip0_2602_19651">
<rect width="24" height="24" fill="white"/>
</clipPath>
</defs>
</svg>
