<svg width="320" height="316" viewBox="0 0 320 316" fill="none" xmlns="http://www.w3.org/2000/svg">
<g clip-path="url(#clip0_2435_2724)">
<path d="M155.575 316C237.185 316 303.343 276.619 303.343 228.041C303.343 179.463 237.185 140.083 155.575 140.083C73.965 140.083 7.80713 179.463 7.80713 228.041C7.80713 276.619 73.965 316 155.575 316Z" fill="#F5F5F5"/>
<path d="M214.501 250.762L86.3944 176.752C85.1982 176.146 83.8764 175.831 82.536 175.831C81.1955 175.831 79.8738 176.146 78.6775 176.752L6.30578 218.491C3.42759 220.146 3.42064 222.873 6.30578 224.536L133.53 297.997C134.586 298.53 135.753 298.808 136.936 298.808C138.12 298.808 139.287 298.53 140.343 297.997L214.543 255.235C216.622 253.969 216.622 251.966 214.501 250.762Z" fill="#E0E0E0"/>
<path d="M255.672 295.534C283.969 295.534 306.909 282.851 306.909 267.207C306.909 251.562 283.969 238.88 255.672 238.88C227.374 238.88 204.435 251.562 204.435 267.207C204.435 282.851 227.374 295.534 255.672 295.534Z" fill="#E0E0E0"/>
<path d="M316.663 139.241L314.904 140.292L255.22 105.808L256.972 104.758L316.663 139.241Z" fill="#FAFAFA"/>
<path d="M256.972 104.758L314.904 138.226V41.238L256.972 7.79102V104.758Z" fill="white"/>
<path d="M251.904 107.722L318.213 146.031V39.332L251.904 1.02246V107.722ZM255.22 6.76159L314.904 41.2451V140.292L255.22 105.816V6.76159Z" fill="#F0F0F0"/>
<path d="M255.22 105.809L256.972 104.758V7.79128L255.22 6.76172V105.809Z" fill="#E0E0E0"/>
<path d="M314.904 109.982V112.042L255.22 77.5581L256.972 76.5146L314.904 109.982Z" fill="#FAFAFA"/>
<path d="M314.904 63.6172V65.6764L255.22 31.1929L256.972 30.1494L314.904 63.6172Z" fill="#FAFAFA"/>
<path d="M251.911 1.02261L253.69 0L320 38.3096L318.22 39.3322L251.911 1.02261Z" fill="#FAFAFA"/>
<path d="M320 38.3096L318.22 39.3322V146.031L320 145.009V38.3096Z" fill="#E0E0E0"/>
<path d="M289.376 26.4975L287.596 25.4609V124.522L289.376 123.499V26.4975Z" fill="#E0E0E0"/>
<path d="M284.287 23.5615L287.596 25.4607V124.522L284.287 122.602V23.5615Z" fill="#F0F0F0"/>
<path d="M251.911 29.2803V33.1064L318.22 71.409V67.5898L251.911 29.2803Z" fill="#F0F0F0"/>
<path d="M251.911 75.6387V79.4578L318.22 117.767V113.948L251.911 75.6387Z" fill="#F0F0F0"/>
<path d="M287.596 49.8987L289.376 48.8691L314.904 63.617V65.6761L287.596 49.8987Z" fill="#FAFAFA"/>
<path d="M287.596 96.2434L289.376 95.2139L314.904 109.962V112.021L287.596 96.2434Z" fill="#FAFAFA"/>
<path d="M207.744 52.752L205.485 48.4946L207.299 43.2355V40.0146L201.737 43.2355V46.4564L204.136 50.6303C204.173 50.6925 204.229 50.7412 204.296 50.7694L207.744 52.752Z" fill="#E8B600"/>
<path opacity="0.2" d="M207.744 52.752L205.485 48.4946L207.299 43.2355V40.0146L201.737 43.2355V46.4564L204.136 50.6303C204.173 50.6925 204.229 50.7412 204.296 50.7694L207.744 52.752Z" fill="black"/>
<path d="M221.05 10.5255C221.019 9.94592 220.852 9.38184 220.562 8.87905C220.272 8.37625 219.868 7.9489 219.382 7.63163L217.991 6.84554C217.474 6.58495 216.902 6.44922 216.323 6.44922C215.743 6.44922 215.172 6.58495 214.654 6.84554L193.798 18.9221C193.312 19.2389 192.907 19.6662 192.617 20.1691C192.327 20.6719 192.16 21.2362 192.129 21.816V48.6821C192.162 49.2614 192.33 49.8251 192.619 50.3277C192.909 50.8303 193.313 51.2579 193.798 51.576L195.188 52.3621C195.707 52.6227 196.28 52.7585 196.86 52.7585C197.441 52.7585 198.013 52.6227 198.532 52.3621L205.234 48.4803L207.626 52.6542C207.661 52.7119 207.712 52.7585 207.773 52.7887C207.833 52.8189 207.901 52.8314 207.969 52.8249C208.036 52.8183 208.1 52.793 208.154 52.7518C208.207 52.7106 208.249 52.6551 208.272 52.5916L210.775 45.2664L219.361 40.2855C219.848 39.9695 220.253 39.5425 220.543 39.0394C220.833 38.5363 221 37.9716 221.029 37.3916L221.05 10.5255Z" fill="#E8B600"/>
<path opacity="0.2" d="M192.15 48.6818C192.183 49.2611 192.351 49.8248 192.64 50.3274C192.93 50.8301 193.334 51.2576 193.819 51.5757L195.209 52.3618C195.679 52.599 196.194 52.7341 196.72 52.758C197.246 52.782 197.772 52.6944 198.261 52.5009C197.476 52.8 196.871 52.3548 196.871 51.4018V24.5287C196.892 23.946 197.062 23.3784 197.364 22.88L192.658 20.167C192.359 20.6664 192.191 21.2337 192.171 21.8157L192.15 48.6818Z" fill="black"/>
<path opacity="0.3" d="M220.995 10.0663C220.8 9.37061 220.154 9.13409 219.382 9.57235L198.525 21.6489C198.03 21.9553 197.625 22.3873 197.351 22.901L192.651 20.181C192.929 19.6721 193.334 19.2434 193.826 18.9358L214.682 6.85931C215.201 6.59864 215.774 6.46289 216.354 6.46289C216.935 6.46289 217.507 6.59864 218.026 6.85931L219.417 7.65235C219.829 7.92702 220.182 8.28256 220.453 8.69747C220.724 9.11238 220.909 9.57803 220.995 10.0663Z" fill="white"/>
<path d="M203.642 25.8721C203.913 25.3921 204.212 24.9191 204.539 24.4391C204.863 23.9545 205.216 23.4899 205.596 23.0477C205.975 22.631 206.386 22.2449 206.826 21.893C207.27 21.5094 207.75 21.1693 208.258 20.8773C208.844 20.5224 209.494 20.286 210.17 20.1817C210.677 20.0944 211.199 20.1802 211.651 20.4251C212.092 20.7019 212.427 21.1182 212.603 21.6077C212.848 22.2754 212.961 22.984 212.937 23.6947C212.945 24.4588 212.856 25.2208 212.673 25.9625C212.498 26.6264 212.266 27.2735 211.978 27.8964C211.728 28.4675 211.435 29.0186 211.102 29.5451C210.782 30.053 210.483 30.526 210.205 30.9782C209.927 31.4304 209.677 31.8408 209.475 32.2304C209.282 32.5841 209.157 32.9711 209.106 33.3712L208.828 35.8825L206.791 37.0582L206.583 34.5538C206.539 34.0835 206.596 33.6091 206.75 33.1625C206.911 32.6791 207.121 32.213 207.375 31.7712C207.64 31.3075 207.932 30.8437 208.251 30.3799C208.571 29.8999 208.87 29.399 209.155 28.8912C209.431 28.3828 209.663 27.8523 209.85 27.3051C210.044 26.7556 210.14 26.1765 210.135 25.5938C210.146 25.2709 210.092 24.9492 209.975 24.6477C209.886 24.4275 209.727 24.2421 209.524 24.119C209.309 24.0114 209.065 23.9749 208.828 24.0147C208.518 24.065 208.22 24.1761 207.952 24.3417C207.527 24.5795 207.137 24.8744 206.791 25.2182C206.497 25.5008 206.227 25.808 205.985 26.1364C205.762 26.4286 205.575 26.686 205.422 26.9086C205.316 27.0811 205.177 27.2302 205.012 27.3469C204.72 27.5138 204.511 27.4721 204.386 27.2286L203.642 25.8721ZM205.908 41.7538C205.908 41.4059 205.955 41.0596 206.048 40.7243C206.135 40.3796 206.261 40.0459 206.423 39.7295C206.584 39.4251 206.78 39.1403 207.007 38.8808C207.205 38.6414 207.44 38.4347 207.702 38.2686C207.911 38.1362 208.151 38.0618 208.397 38.053C208.605 38.0457 208.808 38.1095 208.974 38.2338C209.156 38.3723 209.294 38.5608 209.371 38.7764C209.471 39.0527 209.518 39.3453 209.51 39.6391C209.511 39.9916 209.465 40.3427 209.371 40.6825C209.276 41.0279 209.143 41.3616 208.974 41.6773C208.817 41.978 208.623 42.2584 208.397 42.5121C208.2 42.7498 207.965 42.9541 207.702 43.1173C207.491 43.2471 207.253 43.3257 207.007 43.3469C206.798 43.3601 206.591 43.2984 206.423 43.173C206.247 43.0328 206.117 42.8441 206.048 42.6304C205.946 42.3496 205.899 42.0522 205.908 41.7538Z" fill="white"/>
<path d="M12.1104 61.1549L13.5147 61.9966L42.3452 45.3358L40.9409 44.501L12.1104 61.1549Z" fill="#FAFAFA"/>
<path d="M40.9408 44.5008L13.5146 60.3408V31.6034L40.9408 15.7773V44.5008Z" fill="white"/>
<path d="M44.9943 10.3584L10.8662 30.0732V66.5949L44.9943 46.8732V10.3584ZM42.3455 45.3427L13.515 61.9967V31.6314L42.3455 14.9358V45.3427Z" fill="#F0F0F0"/>
<path d="M42.3453 45.3353L40.9409 44.5005V15.777L42.3453 14.9492V45.3353Z" fill="#E0E0E0"/>
<path d="M44.9942 10.351L43.569 9.53711L9.44092 29.2519L10.8661 30.0728L44.9942 10.351Z" fill="#FAFAFA"/>
<path d="M9.44092 29.252L10.8661 30.0728V66.5876L9.44092 65.7737V29.252Z" fill="#E0E0E0"/>
<path d="M39.8704 43.6384L14.5854 58.2471V50.9427L20.9119 36.341L24.8468 39.9862L23.4286 46.1149L32.1605 27.4297L39.8704 36.341V43.6384Z" fill="#F0F0F0"/>
<path d="M24.6035 29.287C24.0611 29.6444 23.6096 30.1235 23.2849 30.6863C22.9603 31.2491 22.7714 31.88 22.7334 32.5287C22.7334 33.7252 23.5746 34.2052 24.6035 33.607C25.1485 33.254 25.602 32.7768 25.9271 32.2145C26.2522 31.6522 26.4395 31.0209 26.4736 30.3722C26.4736 29.1757 25.6394 28.6957 24.6035 29.287Z" fill="#F0F0F0"/>
<path d="M12.1104 116.71L13.5147 117.551L42.3452 100.897L40.9409 100.056L12.1104 116.71Z" fill="#FAFAFA"/>
<path d="M40.9408 100.056L13.5146 115.896V87.1582L40.9408 71.3252V100.056Z" fill="white"/>
<path d="M44.9943 65.9131L10.8662 85.6279V122.15L44.9943 102.428V65.9131ZM42.3455 100.897L13.515 117.551V87.1653L42.3455 70.4696V100.897Z" fill="#F0F0F0"/>
<path d="M42.3453 100.897L40.9409 100.055V71.3248L42.3453 70.5039V100.897Z" fill="#E0E0E0"/>
<path d="M44.9942 65.9057L43.569 65.0918L9.44092 84.8135L10.8661 85.6274L44.9942 65.9057Z" fill="#FAFAFA"/>
<path d="M9.44092 84.8135L10.8661 85.6274V122.142L9.44092 121.328V84.8135Z" fill="#E0E0E0"/>
<path d="M39.8704 99.1931L14.5854 113.802V106.497L20.9119 91.8957L24.8468 95.5479L23.4286 101.67L32.1605 82.9844L39.8704 91.8957V99.1931Z" fill="#F0F0F0"/>
<path d="M24.6035 84.8417C24.0611 85.199 23.6096 85.6782 23.2849 86.241C22.9603 86.8038 22.7714 87.4347 22.7334 88.0834C22.7334 89.2799 23.5746 89.7599 24.6035 89.1686C25.1459 88.8112 25.5974 88.3321 25.9221 87.7693C26.2468 87.2065 26.4356 86.5756 26.4736 85.9269C26.4736 84.7304 25.6394 84.2504 24.6035 84.8417Z" fill="#F0F0F0"/>
<path d="M85.1149 134.789L215.377 237.175C218.645 239.749 218.276 242.469 217.97 244.918C217.664 247.367 216.309 250.706 213.521 252.32L142.004 293.635C139.223 295.248 135.052 295.026 132.661 293.189L2.39839 190.796C0.0277057 188.939 -0.201716 185.996 0.104179 183.555C0.410073 181.113 1.49461 177.294 4.27546 175.659L75.7921 134.344C78.566 132.73 81.8196 132.195 85.1149 134.789Z" fill="#37474F"/>
<path d="M81.2913 137.983L7.77239 180.501L138.577 283.27L137.186 294.713C135.563 294.672 133.991 294.141 132.675 293.19L2.39839 190.797C0.0277057 188.939 -0.201716 185.997 0.104179 183.555C0.410073 181.113 1.49461 177.294 4.27546 175.659L75.7921 134.345C77.5979 133.19 79.7802 132.778 81.8822 133.197L81.8405 133.552L81.2913 137.983Z" fill="#263238"/>
<path d="M214.098 237.767L84.0928 135.548C82.2157 134.073 78.8717 133.92 76.6609 135.193L6.84758 175.541C3.85121 177.273 3.46884 180.327 6.01332 182.33L135.24 283.895C136.2 284.54 137.319 284.911 138.474 284.966C139.629 285.021 140.778 284.759 141.796 284.209L213.486 242.769C215.697 241.489 215.975 239.242 214.098 237.767Z" fill="#455A64"/>
<path d="M41.7266 212.973C42.2219 213.435 42.6049 214.005 42.8459 214.638C43.087 215.271 43.1797 215.951 43.117 216.625C43.1059 216.87 43.0371 217.108 42.9162 217.321C42.7954 217.534 42.626 217.715 42.4218 217.85C42.1785 217.982 41.2747 218.545 41.0314 218.664C40.8155 218.763 40.5744 218.793 40.3407 218.751C40.107 218.709 39.8919 218.596 39.7244 218.427L29.3726 210.288C28.8747 209.828 28.4901 209.259 28.2488 208.625C28.0076 207.992 27.9163 207.311 27.9822 206.636C27.9899 206.403 28.0487 206.174 28.1544 205.966C28.2601 205.758 28.4102 205.576 28.594 205.432C28.8443 205.279 29.7898 204.737 30.0331 204.598C30.2591 204.486 30.5148 204.45 30.7627 204.496C31.0105 204.541 31.2373 204.664 31.4096 204.848L41.7266 212.973Z" fill="#455A64"/>
<path d="M40.3362 213.781L30.0192 205.642C29.0807 204.904 28.1977 205.356 28.0448 206.636C27.9805 207.311 28.0725 207.992 28.3137 208.625C28.5548 209.258 28.9386 209.828 29.4352 210.288L39.7522 218.428C40.6838 219.158 41.5667 218.713 41.7266 217.426C41.7898 216.752 41.6972 216.073 41.4561 215.441C41.215 214.809 40.8318 214.241 40.3362 213.781Z" fill="#37474F"/>
<path d="M23.6022 198.727C24.0976 199.189 24.4805 199.758 24.7216 200.391C24.9626 201.024 25.0553 201.704 24.9927 202.379C24.9871 202.622 24.9243 202.86 24.8096 203.074C24.6948 203.287 24.5313 203.471 24.3322 203.61C24.0889 203.742 23.1851 204.306 22.9418 204.424C22.7276 204.509 22.4933 204.528 22.2681 204.48C22.043 204.431 21.8372 204.318 21.6765 204.153L11.3248 196.014C10.8291 195.553 10.4459 194.985 10.2048 194.353C9.96369 193.721 9.87114 193.042 9.93432 192.368C9.94105 192.135 9.9994 191.906 10.1052 191.698C10.211 191.49 10.3616 191.308 10.5461 191.165C10.7964 191.005 11.7419 190.469 11.9852 190.323C12.2028 190.224 12.4455 190.195 12.6804 190.238C12.9154 190.282 13.1313 190.396 13.2992 190.567L23.6022 198.727Z" fill="#455A64"/>
<path d="M22.2121 199.534L11.8604 191.395C10.9288 190.665 10.0459 191.11 9.88598 192.397C9.8228 193.07 9.91535 193.75 10.1565 194.382C10.3976 195.014 10.7808 195.582 11.2764 196.042L21.6768 204.153C22.6084 204.891 23.4913 204.439 23.6512 203.159C23.7051 202.484 23.6033 201.807 23.3538 201.179C23.1042 200.55 22.7136 199.987 22.2121 199.534Z" fill="#37474F"/>
<path d="M86.422 141.162L207.855 236.612C209.649 238.003 209.391 240.167 207.278 241.384L142.387 278.866C140.301 280.097 137.103 279.944 135.309 278.532L13.0074 182.4C11.5544 181.259 11.4362 179.617 12.5972 178.407C12.6876 178.316 12.771 178.219 12.8683 178.129C13.0875 177.947 13.3199 177.782 13.5635 177.635L31.8129 167.089C31.8129 167.089 32.3413 166.776 33.0017 166.393C33.3413 166.204 33.7269 166.113 34.115 166.132C34.5032 166.15 34.8785 166.277 35.1986 166.497C35.5372 166.715 35.9289 166.835 36.331 166.844C36.7331 166.854 37.1301 166.753 37.4789 166.553L58.7524 154.268C59.4477 153.864 59.5728 153.176 59.0166 152.744C58.9032 152.665 58.8116 152.558 58.7502 152.434C58.6888 152.31 58.6595 152.172 58.665 152.033C58.6706 151.895 58.7107 151.76 58.7819 151.641C58.853 151.522 58.9529 151.423 59.0722 151.353L59.2182 151.283L77.0783 140.974L77.4537 140.751C80.1303 139.186 84.1625 139.381 86.422 141.162Z" fill="black"/>
<path d="M34.8859 169.447C34.5658 169.226 34.1904 169.1 33.8023 169.081C33.4141 169.063 33.0285 169.153 32.689 169.342L31.5002 170.038L13.2299 180.57C12.9833 180.716 12.7506 180.883 12.5347 181.071C12.4369 181.159 12.344 181.251 12.2566 181.349C12.2274 181.379 12.2018 181.411 12.1802 181.447C12.3974 181.817 12.6857 182.141 13.0283 182.4L135.31 278.532C137.103 279.923 140.28 280.097 142.387 278.866L207.299 241.384C207.701 241.154 208.062 240.861 208.37 240.515C208.146 240.143 207.856 239.815 207.514 239.548L86.0606 144.097C83.8011 142.323 79.7689 142.129 77.0993 143.673L76.7169 143.895L59.3365 153.934C59.3365 153.934 59.0654 156.16 59.0306 156.424C58.9979 156.593 58.9262 156.752 58.8212 156.889C58.7162 157.025 58.5808 157.135 58.4258 157.21L37.1523 169.502C36.8047 169.699 36.4104 169.797 36.0114 169.787C35.6124 169.778 35.2234 169.66 34.8859 169.447Z" fill="#EBEBEB"/>
<path d="M30.318 179.451C30.302 179.45 30.2863 179.445 30.272 179.438C30.2576 179.431 30.2449 179.421 30.2346 179.409L29.9773 179.172L29.1709 179.638C29.1534 179.653 29.1312 179.661 29.1083 179.661C29.0854 179.661 29.0633 179.653 29.0457 179.638L28.9554 179.555L28.9137 179.506C28.9097 179.488 28.9097 179.469 28.9137 179.451L28.8441 178.101C28.8397 178.083 28.8397 178.064 28.8441 178.045C28.8552 178.026 28.8723 178.012 28.8928 178.004L29.004 177.941C29.0359 177.932 29.0695 177.932 29.1014 177.941C29.1332 177.949 29.1621 177.966 29.1848 177.99L30.0886 178.824L30.2693 178.72C30.2989 178.712 30.3302 178.712 30.3597 178.72C30.3916 178.728 30.4205 178.745 30.4431 178.769L30.5057 178.824C30.5057 178.824 30.5474 178.873 30.5405 178.894C30.5335 178.915 30.5405 178.929 30.4918 178.95L30.311 179.054L30.5683 179.291C30.5683 179.291 30.61 179.339 30.61 179.36C30.61 179.381 30.61 179.395 30.5544 179.416L30.4153 179.499C30.378 179.496 30.3434 179.478 30.318 179.451ZM29.8105 178.936L29.1639 178.344L29.2265 179.277L29.8105 178.936Z" fill="#455A64"/>
<path d="M31.1245 178.755C30.809 178.708 30.5167 178.562 30.2902 178.337C30.1785 178.259 30.0873 178.155 30.0244 178.034C29.9614 177.913 29.9286 177.778 29.9287 177.642C29.9517 177.514 30.0055 177.394 30.0855 177.293C30.1655 177.191 30.2692 177.11 30.3876 177.057C30.5002 176.993 30.619 176.939 30.7421 176.897C30.8526 176.864 30.9672 176.845 31.0828 176.842C31.0828 176.842 31.1245 176.842 31.1384 176.842L31.1801 176.988C31.1838 176.994 31.1857 177.001 31.1857 177.009C31.1857 177.016 31.1838 177.023 31.1801 177.03H31.1314C30.9542 177.042 30.7826 177.097 30.6309 177.19C30.5507 177.225 30.4807 177.279 30.4273 177.349C30.3738 177.418 30.3386 177.5 30.325 177.586C30.3322 177.686 30.3607 177.783 30.4087 177.87C30.4567 177.958 30.523 178.034 30.6031 178.094C30.7686 178.257 30.9794 178.366 31.2079 178.407C31.4125 178.434 31.6202 178.392 31.7988 178.289C31.8619 178.249 31.9223 178.205 31.9796 178.157C32.0245 178.12 32.0643 178.078 32.0978 178.031L31.6737 177.642L31.34 177.837C31.3111 177.849 31.2786 177.849 31.2496 177.837C31.2336 177.836 31.218 177.831 31.2036 177.824C31.1893 177.817 31.1765 177.807 31.1662 177.795L31.1036 177.739C31.1036 177.739 31.0619 177.69 31.1036 177.67C31.1453 177.649 31.1036 177.635 31.1523 177.614L31.6946 177.301C31.7281 177.288 31.7653 177.288 31.7988 177.301C31.8365 177.308 31.8708 177.328 31.8962 177.357L32.494 177.906C32.5138 177.918 32.5304 177.935 32.5427 177.955C32.546 177.963 32.5476 177.971 32.5476 177.979C32.5476 177.988 32.546 177.996 32.5427 178.004C32.4314 178.219 32.2533 178.392 32.0352 178.497C31.771 178.687 31.4488 178.778 31.1245 178.755Z" fill="#455A64"/>
<path d="M37.8472 174.726C37.8929 174.768 37.9272 174.82 37.947 174.878C37.9668 174.937 37.9713 174.999 37.9602 175.06C37.949 175.121 37.9226 175.177 37.8833 175.225C37.8441 175.272 37.7934 175.309 37.736 175.332C37.6069 175.403 37.4599 175.435 37.313 175.424C37.166 175.412 37.0255 175.359 36.9087 175.269C36.8628 175.228 36.8281 175.176 36.8078 175.118C36.7876 175.06 36.7824 174.998 36.7929 174.937C36.8033 174.877 36.829 174.82 36.8675 174.772C36.906 174.724 36.956 174.687 37.0129 174.664C37.1422 174.589 37.2909 174.555 37.4397 174.567C37.5885 174.578 37.7304 174.633 37.8472 174.726Z" fill="#455A64"/>
<path d="M36.4223 174.122C36.2176 174.214 36.0489 174.37 35.9421 174.568C35.8353 174.765 35.7964 174.992 35.8313 175.214C35.8492 175.259 35.8813 175.297 35.9227 175.322C35.9641 175.347 36.0126 175.358 36.0607 175.353C36.1998 175.353 36.311 175.256 36.2902 175.151C36.26 174.995 36.2842 174.833 36.3588 174.693C36.4335 174.552 36.554 174.441 36.7003 174.379C36.8698 174.283 37.0576 174.223 37.2516 174.204C37.4457 174.184 37.6416 174.206 37.8266 174.268C37.8844 174.287 37.9471 174.286 38.0041 174.265C38.0611 174.243 38.1089 174.202 38.1394 174.15C38.1394 174.073 38.1394 173.99 38.0143 173.962C37.7518 173.88 37.4755 173.852 37.202 173.879C36.9284 173.907 36.6632 173.989 36.4223 174.122Z" fill="#455A64"/>
<path d="M35.838 173.586C35.5349 173.729 35.2819 173.96 35.112 174.249C34.9422 174.538 34.8632 174.872 34.8855 175.207C34.8855 175.297 34.9898 175.36 35.115 175.36C35.254 175.36 35.3583 175.269 35.3444 175.172C35.3296 174.898 35.3963 174.625 35.5361 174.388C35.6759 174.152 35.8825 173.962 36.13 173.843C36.7272 173.519 37.4239 173.43 38.0835 173.593C38.1411 173.61 38.2028 173.607 38.2585 173.584C38.3141 173.561 38.3603 173.52 38.3894 173.468C38.3894 173.384 38.3894 173.301 38.2365 173.273C37.4262 173.07 36.5691 173.182 35.838 173.586Z" fill="#455A64"/>
<path d="M21.5792 184.786L21.0786 184.334L21.9407 183.833L22.4412 184.292L21.5792 184.786Z" fill="#455A64"/>
<path d="M22.8722 184.041L21.8711 183.123L22.7332 182.622L23.7343 183.54L22.8722 184.041Z" fill="#455A64"/>
<path d="M24.1656 183.29L22.6709 181.913L23.533 181.419L25.0277 182.796L24.1656 183.29Z" fill="#455A64"/>
<path d="M25.4656 182.545L23.4634 180.709L24.3254 180.208L26.3277 182.045L25.4656 182.545Z" fill="#455A64"/>
<path d="M78.0375 149.767C77.8804 149.731 77.7158 149.75 77.5717 149.822L74.3459 151.68C74.1373 151.798 74.1373 152.048 74.3459 152.25L75.2566 153.085C75.3882 153.201 75.5495 153.278 75.7224 153.307C75.7987 153.314 75.8755 153.314 75.9518 153.307C76.0352 153.304 76.1164 153.28 76.1882 153.238L79.4209 151.381C79.6295 151.262 79.6225 151.012 79.4209 150.81L78.5172 149.975C78.3787 149.864 78.2131 149.792 78.0375 149.767ZM75.7294 153.168C75.653 153.155 75.5826 153.119 75.5277 153.064L74.624 152.229C74.4641 152.083 74.4571 151.888 74.624 151.798L77.8498 149.941C77.8907 149.912 77.9388 149.895 77.9888 149.892H78.0583C78.1347 149.905 78.2051 149.941 78.2599 149.996L79.1707 150.831C79.3236 150.977 79.3306 151.172 79.1707 151.262L75.9032 153.134C75.8507 153.164 75.7895 153.177 75.7294 153.168Z" fill="#455A64"/>
<path d="M75.3821 151.589L76.4597 152.577L75.9522 152.869C75.928 152.879 75.902 152.885 75.8757 152.885C75.8495 152.885 75.8234 152.879 75.7993 152.869L74.9998 152.131C74.8816 152.027 74.8816 151.874 74.9998 151.811L75.3821 151.589Z" fill="#455A64"/>
<path d="M75.6255 151.45L76.2303 151.103L77.301 152.09L76.6961 152.438L75.6255 151.45Z" fill="#455A64"/>
<path d="M76.4663 150.97L77.0711 150.615L78.1487 151.61L77.5369 151.958L76.4663 150.97Z" fill="#455A64"/>
<path d="M77.9892 150.205L78.7608 150.901C78.9068 151.033 78.8373 151.2 78.594 151.346L78.3854 151.464L77.2939 150.49L77.7736 150.212C77.8049 150.19 77.842 150.177 77.8804 150.176C77.9187 150.175 77.9565 150.185 77.9892 150.205Z" fill="#455A64"/>
<path d="M78.6355 149.927C78.7259 149.878 78.9483 149.969 79.1291 150.143L79.3029 150.296C79.4906 150.47 79.5671 150.658 79.4836 150.713L79.3307 150.811L78.4756 150.025L78.6355 149.927Z" fill="#455A64"/>
<path d="M69.6812 155.276L72.3299 153.016L73.1294 155.2L71.6834 154.56L69.6812 155.276Z" fill="#455A64"/>
<path d="M37.3466 162.031L47.0796 156.396C47.3695 156.232 47.6987 156.149 48.0318 156.158C48.3649 156.166 48.6895 156.266 48.9705 156.445C49.4363 156.813 49.339 157.377 48.755 157.711L39.022 163.346C38.7321 163.51 38.4029 163.592 38.0698 163.584C37.7366 163.575 37.4121 163.476 37.131 163.297C36.6652 162.935 36.7626 162.365 37.3466 162.031Z" fill="#263238"/>
<path d="M51.7584 153.238C52.0998 153.055 52.4844 152.968 52.8713 152.987C53.2581 153.005 53.6328 153.128 53.9553 153.343C54.0819 153.43 54.182 153.551 54.2447 153.692C54.3074 153.833 54.3303 153.988 54.3109 154.141C54.2916 154.293 54.2307 154.438 54.1349 154.559C54.0391 154.679 53.912 154.771 53.7676 154.824C53.4275 155.008 53.044 155.095 52.6581 155.076C52.2723 155.058 51.8988 154.935 51.5777 154.72C51.4509 154.633 51.3505 154.513 51.2872 154.372C51.224 154.232 51.2005 154.077 51.2191 153.924C51.2377 153.772 51.2979 153.627 51.3929 153.506C51.488 153.385 51.6144 153.293 51.7584 153.238Z" fill="#263238"/>
<path d="M93.979 193.183L92.825 192.278C92.6117 192.119 92.3591 192.022 92.0945 191.996C91.8298 191.97 91.5632 192.017 91.3233 192.132L89.9329 192.946C89.8379 192.994 89.7581 193.068 89.7024 193.159C89.6467 193.25 89.6172 193.354 89.6172 193.461C89.6172 193.568 89.6467 193.672 89.7024 193.763C89.7581 193.854 89.8379 193.927 89.9329 193.976L91.0869 194.88C90.7671 195.061 90.7602 195.409 91.0869 195.659L93.4089 197.482C93.5711 197.605 93.7642 197.68 93.9667 197.7C94.1693 197.72 94.3733 197.683 94.5561 197.593L97.5107 195.889C97.5822 195.852 97.6422 195.796 97.684 195.727C97.7259 195.659 97.748 195.58 97.748 195.499C97.748 195.419 97.7259 195.34 97.684 195.271C97.6422 195.202 97.5822 195.146 97.5107 195.11L95.1817 193.28C95.0111 193.151 94.8075 193.074 94.5945 193.057C94.3816 193.039 94.1681 193.083 93.979 193.183ZM90.211 193.788C89.9815 193.607 89.9815 193.343 90.211 193.21L91.6014 192.39C91.7384 192.326 91.89 192.3 92.0403 192.315C92.1906 192.33 92.3343 192.384 92.4565 192.473L93.6106 193.377L91.3303 194.692L90.211 193.788Z" fill="#455A64"/>
<path d="M96.1478 218.678C96.3981 218.873 96.3703 219.061 96.0783 219.228L95.6959 219.45C95.5732 219.53 95.4285 219.568 95.2825 219.561C95.1364 219.553 94.9965 219.5 94.8825 219.408L84.7463 211.443L83.4949 215.367C83.4045 215.617 83.1751 215.721 82.7997 215.673L82.3409 215.61C82.2001 215.597 82.0667 215.541 81.9585 215.45C81.9184 215.413 81.8908 215.364 81.8796 215.311C81.8684 215.257 81.8741 215.201 81.8959 215.151L83.3767 210.483C83.4099 210.394 83.4649 210.316 83.5366 210.254C83.6128 210.193 83.6943 210.14 83.78 210.094L84.1623 209.871C84.2858 209.79 84.4318 209.75 84.5793 209.758C84.7268 209.765 84.8681 209.82 84.9827 209.913L96.1478 218.678Z" fill="#455A64"/>
<path d="M90.8504 210.601C90.4772 210.292 90.1638 209.917 89.9257 209.495C89.6784 209.074 89.5555 208.592 89.5712 208.104C89.5921 207.583 89.7662 207.08 90.0717 206.657C90.5053 206.074 91.0665 205.598 91.7124 205.266C92.4045 204.849 93.1575 204.544 93.9441 204.361C94.6282 204.209 95.3307 204.158 96.0297 204.208C96.6637 204.252 97.2863 204.4 97.872 204.647C98.4187 204.872 98.933 205.169 99.4015 205.53C100.02 205.97 100.484 206.593 100.729 207.311C100.902 208.059 100.902 208.837 100.729 209.586L100.083 215.485L106.806 211.596C106.932 211.507 107.085 211.462 107.24 211.47C107.395 211.477 107.543 211.536 107.661 211.638L107.911 211.84C108.161 212.034 108.133 212.222 107.827 212.403L99.5961 217.154C99.4741 217.235 99.3298 217.275 99.1838 217.269C99.0378 217.262 98.8975 217.21 98.7827 217.12L98.5255 216.918C98.4191 216.835 98.3413 216.72 98.303 216.591C98.2682 216.416 98.2682 216.237 98.303 216.062L99.1025 209.6C99.1736 209.216 99.2132 208.828 99.2207 208.438C99.2294 208.142 99.1919 207.846 99.1095 207.561C99.027 207.309 98.8998 207.073 98.7341 206.866C98.5413 206.641 98.3271 206.436 98.0945 206.253C97.3682 205.669 96.4741 205.333 95.543 205.294C94.5363 205.264 93.5429 205.53 92.6857 206.059C92.315 206.218 91.9867 206.462 91.7272 206.772C91.4676 207.081 91.284 207.447 91.191 207.84C91.1723 208.205 91.2379 208.571 91.3825 208.907C91.5271 209.244 91.747 209.542 92.0253 209.78C92.0742 209.822 92.1105 209.877 92.1302 209.939C92.1498 210 92.152 210.066 92.1365 210.128C92.102 210.222 92.0387 210.302 91.9557 210.358L91.5525 210.587C91.4511 210.662 91.3293 210.703 91.2036 210.705C91.078 210.708 90.9547 210.671 90.8504 210.601Z" fill="#455A64"/>
<path d="M106.409 204.633C106.46 204.66 106.501 204.701 106.527 204.752C106.554 204.803 106.563 204.861 106.555 204.918C106.539 204.977 106.51 205.032 106.47 205.079C106.431 205.126 106.381 205.164 106.326 205.189L105.36 205.746C105.238 205.826 105.093 205.866 104.947 205.86C104.801 205.854 104.661 205.802 104.546 205.711L103.726 205.064C103.677 205.034 103.637 204.993 103.609 204.943C103.581 204.893 103.566 204.836 103.566 204.779C103.575 204.719 103.6 204.662 103.638 204.615C103.675 204.567 103.725 204.53 103.781 204.508L104.741 203.944C104.876 203.868 105.031 203.832 105.186 203.84C105.334 203.846 105.477 203.897 105.596 203.986L106.409 204.633ZM112.367 209.308C112.416 209.338 112.455 209.382 112.48 209.433C112.504 209.485 112.514 209.543 112.506 209.6C112.49 209.659 112.461 209.714 112.421 209.761C112.382 209.808 112.333 209.845 112.277 209.871L111.318 210.428C111.194 210.509 111.048 210.549 110.901 210.541C110.753 210.534 110.612 210.479 110.497 210.386L109.684 209.746C109.63 209.718 109.586 209.675 109.557 209.622C109.528 209.569 109.515 209.508 109.52 209.448C109.525 209.388 109.548 209.33 109.586 209.283C109.624 209.236 109.675 209.201 109.732 209.183L110.699 208.626C110.832 208.549 110.984 208.513 111.137 208.522C111.286 208.525 111.429 208.576 111.547 208.668L112.367 209.308Z" fill="#455A64"/>
<path d="M111.797 193.913C111.923 193.825 112.075 193.781 112.228 193.789C112.382 193.796 112.528 193.855 112.645 193.954L112.903 194.156C112.963 194.195 113.007 194.255 113.028 194.323C113.038 194.383 113.038 194.444 113.028 194.504V200.25L113.431 200.021C114.09 199.636 114.789 199.326 115.517 199.095C116.191 198.878 116.894 198.758 117.602 198.741C118.277 198.726 118.949 198.825 119.59 199.033C120.252 199.244 120.869 199.574 121.412 200.007C121.905 200.365 122.298 200.844 122.552 201.398C122.748 201.857 122.785 202.369 122.656 202.852C122.492 203.375 122.206 203.852 121.822 204.243C121.335 204.754 120.772 205.188 120.154 205.53C119.446 205.949 118.686 206.274 117.894 206.497C117.195 206.701 116.474 206.82 115.746 206.852C115.117 206.878 114.487 206.815 113.876 206.664C113.359 206.548 112.872 206.328 112.444 206.017C112.399 205.993 112.363 205.954 112.342 205.908C112.321 205.862 112.315 205.81 112.326 205.76C112.364 205.656 112.442 205.571 112.541 205.523L112.826 205.356C112.944 205.296 113.071 205.254 113.201 205.231C113.395 205.219 113.588 205.263 113.758 205.356C114.208 205.58 114.696 205.717 115.197 205.76C115.661 205.799 116.128 205.778 116.587 205.697C117.045 205.618 117.493 205.487 117.922 205.307C118.328 205.142 118.723 204.949 119.104 204.73C119.567 204.474 119.995 204.158 120.376 203.791C120.671 203.51 120.893 203.161 121.023 202.775C121.127 202.431 121.105 202.061 120.96 201.732C120.771 201.325 120.482 200.973 120.119 200.709C119.365 200.08 118.402 199.759 117.421 199.812C116.364 199.899 115.342 200.235 114.439 200.793L112.673 201.815C112.55 201.896 112.404 201.936 112.256 201.929C112.109 201.921 111.967 201.867 111.853 201.774L111.602 201.572C111.525 201.519 111.463 201.447 111.422 201.363C111.395 201.294 111.379 201.221 111.373 201.147V195.513L105.311 198.991C105.192 199.076 105.05 199.122 104.904 199.122C104.758 199.122 104.616 199.076 104.497 198.991L104.24 198.789C103.983 198.581 103.997 198.393 104.296 198.226L111.797 193.913Z" fill="#455A64"/>
<path d="M131.374 198.323C131.625 198.525 131.604 198.706 131.312 198.873L130.929 199.095C130.806 199.176 130.66 199.216 130.512 199.208C130.365 199.201 130.224 199.147 130.109 199.053L119.973 191.088L118.728 195.012C118.638 195.262 118.402 195.366 118.033 195.318L117.574 195.255C117.432 195.247 117.298 195.19 117.192 195.095C117.152 195.058 117.125 195.009 117.112 194.956C117.1 194.903 117.103 194.847 117.122 194.796L118.61 190.135C118.642 190.044 118.697 189.962 118.77 189.899C118.848 189.841 118.929 189.787 119.013 189.739L119.396 189.516C119.519 189.436 119.663 189.398 119.809 189.405C119.955 189.413 120.095 189.466 120.209 189.558L131.374 198.323Z" fill="#455A64"/>
<path d="M97.1701 233.412L148.616 203.672C149.334 203.28 150.147 203.093 150.965 203.131C151.782 203.169 152.574 203.431 153.253 203.888L164.96 213.092C166.135 214.01 165.962 215.408 164.571 216.208L113.125 245.947C112.406 246.339 111.593 246.525 110.776 246.486C109.958 246.446 109.167 246.183 108.488 245.725L96.7599 236.528C95.6128 235.61 95.7866 234.212 97.1701 233.412Z" fill="white"/>
<path d="M118.256 249.99L169.757 220.25C170.477 219.859 171.289 219.673 172.107 219.712C172.925 219.751 173.716 220.015 174.395 220.473L186.095 229.67C187.27 230.595 187.096 231.986 185.713 232.786L134.232 262.525C133.515 262.918 132.703 263.105 131.887 263.067C131.07 263.029 130.28 262.767 129.602 262.31L117.895 253.106C116.699 252.188 116.873 250.762 118.256 249.99Z" fill="white"/>
<path d="M139.168 251.311C138.006 251.405 136.847 251.095 135.886 250.435L134.385 249.259C133.394 248.59 132.239 248.205 131.045 248.147C129.851 248.09 128.664 248.361 127.613 248.932C125.59 250.101 125.34 252.146 127.05 253.489L128.399 254.546C128.782 254.807 129.077 255.178 129.243 255.611C129.41 256.043 129.44 256.517 129.33 256.967L129.608 257.6C129.857 257.769 130.148 257.866 130.448 257.881C130.749 257.895 131.047 257.827 131.312 257.684L139.863 252.737C139.974 252.695 140.071 252.623 140.144 252.529C140.217 252.435 140.264 252.324 140.278 252.205C140.292 252.087 140.274 251.968 140.225 251.859C140.177 251.751 140.1 251.657 140.002 251.59C139.761 251.409 139.468 251.311 139.168 251.311ZM137.652 256.842C138.625 256.285 138.744 255.304 137.916 254.657L134.398 256.689C134.877 257.014 135.436 257.201 136.014 257.228C136.592 257.255 137.166 257.121 137.673 256.842H137.652Z" fill="#E0E0E0"/>
<path d="M118.13 234.337C116.969 234.434 115.81 234.126 114.849 233.467L113.34 232.285C111.63 230.942 108.599 230.796 106.569 231.965C104.546 233.133 104.296 235.172 106.013 236.521L107.355 237.579C107.74 237.837 108.037 238.208 108.204 238.641C108.372 239.074 108.403 239.548 108.293 239.999L108.571 240.632C108.82 240.802 109.111 240.898 109.412 240.912C109.713 240.925 110.011 240.855 110.275 240.709L118.84 235.763C118.951 235.72 119.048 235.648 119.121 235.555C119.194 235.461 119.24 235.349 119.255 235.231C119.269 235.113 119.251 234.993 119.202 234.885C119.154 234.776 119.076 234.683 118.979 234.615C118.731 234.437 118.435 234.34 118.13 234.337ZM116.615 239.902C117.588 239.346 117.706 238.365 116.886 237.718L113.368 239.749C113.846 240.066 114.401 240.246 114.974 240.268C115.547 240.29 116.114 240.154 116.615 239.874V239.902Z" fill="#E0E0E0"/>
<g opacity="0.3">
<path d="M136.338 180.382L120.828 168.194L96.0298 247.652L111.54 259.84L136.338 180.382Z" fill="white"/>
<path d="M183.154 220.417L156.875 199.756L132.911 276.625L135.337 278.532C137.131 279.923 140.308 280.097 142.414 278.865L169.896 262.991L183.154 220.417Z" fill="white"/>
<path d="M81.9168 236.563L106.715 157.112L86.4218 141.161C84.1623 139.38 80.1649 139.185 77.4535 140.73L77.0781 140.952L66.3232 147.165L46.9893 209.078L81.9168 236.563Z" fill="white"/>
</g>
<path d="M32.8004 281.503C26.6269 275.124 22.9979 259.013 29.0185 253.948H59.6774C65.698 259.006 62.0759 275.117 55.9024 281.496L55.7355 281.677L55.52 281.886C55.3462 282.053 55.1585 282.22 54.9638 282.387L54.8109 282.505C54.6649 282.623 54.512 282.748 54.3451 282.86C54.0918 283.047 53.8271 283.219 53.5526 283.374C48.4706 286.345 40.2323 286.345 35.1503 283.374C34.8727 283.217 34.6036 283.045 34.3438 282.86C34.1909 282.748 34.0518 282.637 33.9128 282.526L33.7251 282.38C33.5374 282.22 33.3566 282.06 33.1897 281.893L32.9464 281.649L32.8004 281.503Z" fill="#37474F"/>
<path d="M56.9869 251.917C63.9807 256 63.9807 262.623 56.9869 266.713C49.993 270.804 38.6541 270.797 31.6533 266.713C24.6525 262.63 24.6594 256 31.6533 251.917C38.6471 247.833 49.993 247.826 56.9869 251.917Z" fill="#455A64"/>
<path d="M53.6567 253.878C58.7943 256.883 58.7943 261.746 53.6567 264.744C48.5191 267.743 40.1904 267.75 35.0528 264.744C29.9151 261.739 29.9221 256.883 35.0528 253.878C40.1834 250.873 48.4843 250.88 53.6567 253.878Z" fill="#263238"/>
<path d="M35.0181 259.04C40.1557 256.035 48.4844 256.035 53.622 259.04C54.868 259.725 55.9259 260.707 56.7018 261.899C55.9343 263.082 54.8888 264.059 53.6567 264.744C48.5191 267.75 40.1905 267.75 35.0528 264.744C33.8078 264.064 32.7517 263.083 31.98 261.892C32.74 260.704 33.7842 259.723 35.0181 259.04Z" fill="white"/>
<path d="M40.1279 229.552C38.0422 232.167 31.8409 233.315 28.7403 226.908C25.8343 220.898 22.7614 215.221 21.8368 212.995C21.7075 212.707 21.6379 212.395 21.6322 212.078C21.6265 211.762 21.6849 211.448 21.8037 211.155C21.9226 210.862 22.0995 210.596 22.3239 210.373C22.5482 210.15 22.8153 209.975 23.109 209.858C23.109 209.858 23.0256 206.435 28.9697 208.307C34.9138 210.178 39.245 213.364 42.1788 218.832C45.1126 224.3 43.9237 228.501 40.1279 229.552Z" fill="#E8B600"/>
<g opacity="0.5">
<path d="M40.1279 229.552C38.0422 232.167 31.8409 233.315 28.7403 226.908C25.8343 220.898 22.7614 215.221 21.8368 212.995C21.7075 212.707 21.6379 212.395 21.6322 212.078C21.6265 211.762 21.6849 211.448 21.8037 211.155C21.9226 210.862 22.0995 210.596 22.3239 210.373C22.5482 210.15 22.8153 209.975 23.109 209.858C23.109 209.858 23.0256 206.435 28.9697 208.307C34.9138 210.178 39.245 213.364 42.1788 218.832C45.1126 224.3 43.9237 228.501 40.1279 229.552Z" fill="white"/>
</g>
<path d="M43.2841 238.094C43.0943 236.945 42.8413 235.807 42.5263 234.685C41.8777 232.462 41.0691 230.288 40.107 228.181C38.1404 223.891 35.5647 219.908 32.4596 216.355C30.7369 214.326 28.8283 212.463 26.7589 210.79C26.6963 210.741 26.6616 210.88 26.7033 210.915C30.2005 214.073 33.2568 217.688 35.7897 221.663C38.2409 225.568 40.1714 229.778 41.5322 234.184C41.9076 235.416 42.2761 236.661 42.6028 237.906C42.9296 239.151 43.1659 240.466 43.4857 241.739C43.4857 241.864 43.7221 241.927 43.7151 241.739C43.6681 240.515 43.524 239.296 43.2841 238.094Z" fill="#E8B600"/>
<path opacity="0.3" d="M43.2841 238.094C43.0943 236.945 42.8413 235.807 42.5263 234.685C41.8777 232.462 41.0691 230.288 40.107 228.181C38.1404 223.891 35.5647 219.908 32.4596 216.355C30.7369 214.326 28.8283 212.463 26.7589 210.79C26.6963 210.741 26.6616 210.88 26.7033 210.915C30.2005 214.073 33.2568 217.688 35.7897 221.663C38.2409 225.568 40.1714 229.778 41.5322 234.184C41.9076 235.416 42.2761 236.661 42.6028 237.906C42.9296 239.151 43.1659 240.466 43.4857 241.739C43.4857 241.864 43.7221 241.927 43.7151 241.739C43.6681 240.515 43.524 239.296 43.2841 238.094Z" fill="black"/>
<path d="M46.8646 224.953C41.4698 226.623 37.4653 222.414 38.8488 215.806C40.2323 209.197 47.1914 201.893 49.7915 203.833C51.4322 202.199 55.0334 202.783 56.7436 208.153C58.4538 213.524 56.8827 227.298 46.8646 224.953Z" fill="#E8B600"/>
<g opacity="0.3">
<path d="M46.8646 224.953C41.4698 226.623 37.4653 222.414 38.8488 215.806C40.2323 209.197 47.1914 201.893 49.7915 203.833C51.4322 202.199 55.0334 202.783 56.7436 208.153C58.4538 213.524 56.8827 227.298 46.8646 224.953Z" fill="white"/>
</g>
<path d="M50.0275 207.855C48.4952 211.7 47.2973 215.671 46.4471 219.722C45.5265 223.825 44.8302 227.975 44.3615 232.154C43.3952 240.23 43.2283 239.806 43.2839 247.903C43.2839 250.152 43.3117 252.399 43.3673 254.644C43.416 256.961 43.3673 259.298 43.5759 261.601C43.6524 262.484 44.9038 262.255 44.9246 261.441C45.0011 257.399 44.7786 253.329 44.7369 249.288C44.6952 245.246 44.7369 249.893 44.8134 245.893C44.9514 237.735 45.681 229.597 46.9964 221.545C47.3857 219.305 47.8098 217.065 48.3312 214.853C48.8804 212.529 49.5548 210.234 50.1665 207.896C50.1804 207.848 50.0831 207.729 50.0275 207.855Z" fill="#E8B600"/>
<path opacity="0.3" d="M50.0275 207.855C48.4952 211.7 47.2973 215.671 46.4471 219.722C45.5265 223.825 44.8302 227.975 44.3615 232.154C43.3952 240.23 43.2283 239.806 43.2839 247.903C43.2839 250.152 43.3117 252.399 43.3673 254.644C43.416 256.961 43.3673 259.298 43.5759 261.601C43.6524 262.484 44.9038 262.255 44.9246 261.441C45.0011 257.399 44.7786 253.329 44.7369 249.288C44.6952 245.246 44.7369 249.893 44.8134 245.893C44.9514 237.735 45.681 229.597 46.9964 221.545C47.3857 219.305 47.8098 217.065 48.3312 214.853C48.8804 212.529 49.5548 210.234 50.1665 207.896C50.1804 207.848 50.0831 207.729 50.0275 207.855Z" fill="black"/>
<path d="M34.3783 242.818C33.6831 246.296 28.907 248.829 23.3801 246.54C17.8531 244.251 6.95216 229.893 11.9438 228.293C11.6727 225.684 26.731 223.542 34.1906 232.724C39.5785 239.403 34.3783 242.818 34.3783 242.818Z" fill="#E8B600"/>
<g opacity="0.7">
<path d="M34.3783 242.818C33.6831 246.296 28.907 248.829 23.3801 246.54C17.8531 244.251 6.95216 229.893 11.9438 228.293C11.6727 225.684 26.731 223.542 34.1906 232.724C39.5785 239.403 34.3783 242.818 34.3783 242.818Z" fill="white"/>
</g>
<path d="M42.283 247.98C41.588 247.11 40.838 246.285 40.0375 245.51C38.4246 243.91 36.7329 242.415 34.9624 241.023C31.3418 238.133 27.4352 235.62 23.3037 233.524C21.0281 232.306 18.6756 231.237 16.2612 230.324C16.1986 230.324 16.2195 230.429 16.2612 230.442C18.2773 231.396 20.2934 232.321 22.2331 233.406C24.1727 234.491 26.1958 235.785 28.0868 237.1C31.7225 239.63 35.1578 242.437 38.362 245.496C39.2727 246.373 40.1348 247.291 41.0525 248.154C41.9702 249.016 43.0339 249.879 43.9446 250.818C44.0767 250.957 44.313 250.895 44.1671 250.693C43.5483 249.802 42.9574 248.877 42.283 247.98Z" fill="#E8B600"/>
<path opacity="0.3" d="M42.283 247.98C41.588 247.11 40.838 246.285 40.0375 245.51C38.4246 243.91 36.7329 242.415 34.9624 241.023C31.3418 238.133 27.4352 235.62 23.3037 233.524C21.0281 232.306 18.6756 231.237 16.2612 230.324C16.1986 230.324 16.2195 230.429 16.2612 230.442C18.2773 231.396 20.2934 232.321 22.2331 233.406C24.1727 234.491 26.1958 235.785 28.0868 237.1C31.7225 239.63 35.1578 242.437 38.362 245.496C39.2727 246.373 40.1348 247.291 41.0525 248.154C41.9702 249.016 43.0339 249.879 43.9446 250.818C44.0767 250.957 44.313 250.895 44.1671 250.693C43.5483 249.802 42.9574 248.877 42.283 247.98Z" fill="black"/>
<path d="M64.9748 238.602C64.8844 236.633 54.9777 236.737 50.3336 240.473C45.6896 244.209 45.1404 247.875 48.0325 249.148C47.525 253.322 54.0808 256.042 59.9484 250.845C65.816 245.649 67.0952 239.012 64.9748 238.602Z" fill="#E8B600"/>
<path opacity="0.3" d="M64.9748 238.602C64.8844 236.633 54.9777 236.737 50.3336 240.473C45.6896 244.209 45.1404 247.875 48.0325 249.148C47.525 253.322 54.0808 256.042 59.9484 250.845C65.816 245.649 67.0952 239.012 64.9748 238.602Z" fill="white"/>
<path d="M55.2139 243.806C50.6701 245.819 46.8514 249.177 44.2712 253.427C44.1183 253.67 44.4937 254.122 44.6605 253.872C47.2501 249.674 50.8903 246.226 55.2208 243.868C55.2208 243.868 55.2556 243.806 55.2139 243.806Z" fill="#E8B600"/>
<path opacity="0.3" d="M55.2139 243.806C50.6701 245.819 46.8514 249.177 44.2712 253.427C44.1183 253.67 44.4937 254.122 44.6605 253.872C47.2501 249.674 50.8903 246.226 55.2208 243.868C55.2208 243.868 55.2556 243.806 55.2139 243.806Z" fill="black"/>
<path d="M48.6231 255.542C45.2721 258.839 48.9776 262.929 54.4211 264.947C59.8647 266.964 65.8852 265.608 68.5062 264.293C71.1271 262.978 71.6694 262.324 71.6694 262.324C71.6694 262.324 70.3902 257.997 68.8885 255.66C67.4452 253.406 65.3849 251.615 62.953 250.5C60.5211 249.385 57.8202 248.993 55.172 249.371C48.199 250.241 47.6359 253.142 48.6231 255.542Z" fill="#E8B600"/>
<g opacity="0.5">
<path d="M48.6231 255.542C45.2721 258.839 48.9776 262.929 54.4211 264.947C59.8647 266.964 65.8852 265.608 68.5062 264.293C71.1271 262.978 71.6694 262.324 71.6694 262.324C71.6694 262.324 70.3902 257.997 68.8885 255.66C67.4452 253.406 65.3849 251.615 62.953 250.5C60.5211 249.385 57.8202 248.993 55.172 249.371C48.199 250.241 47.6359 253.142 48.6231 255.542Z" fill="white"/>
</g>
<path d="M62.6944 258.018C60.0005 256.598 57.1328 255.536 54.1641 254.86C51.2442 254.296 47.6569 254.268 45.2932 256.348C44.3755 257.155 43.1589 258.901 43.9028 260.14C43.9792 260.265 44.3477 260.494 44.4311 260.251C44.6003 259.461 44.8519 258.692 45.182 257.955C45.621 257.227 46.2509 256.633 47.0034 256.237C48.9158 255.287 51.0653 254.922 53.1839 255.187C56.507 255.507 59.6354 256.842 62.6874 258.094C62.7361 258.108 62.7361 258.032 62.6944 258.018Z" fill="#E8B600"/>
<path opacity="0.3" d="M62.6944 258.018C60.0005 256.598 57.1328 255.536 54.1641 254.86C51.2442 254.296 47.6569 254.268 45.2932 256.348C44.3755 257.155 43.1589 258.901 43.9028 260.14C43.9792 260.265 44.3477 260.494 44.4311 260.251C44.6003 259.461 44.8519 258.692 45.182 257.955C45.621 257.227 46.2509 256.633 47.0034 256.237C48.9158 255.287 51.0653 254.922 53.1839 255.187C56.507 255.507 59.6354 256.842 62.6874 258.094C62.7361 258.108 62.7361 258.032 62.6944 258.018Z" fill="black"/>
<path d="M49.5478 234.762C48.7066 237.719 52.4677 240.467 57.1535 238.895C61.8392 237.322 66.6918 235.848 70.6823 235.799C74.6729 235.75 77.2034 233.128 76.3831 231.354C75.5627 229.58 74.5964 225.378 64.4254 224.175C54.2544 222.971 49.673 226.561 47.5526 229.371C45.4322 232.182 47.8515 235.249 49.5478 234.762Z" fill="#E8B600"/>
<g opacity="0.7">
<path d="M49.5478 234.762C48.7066 237.719 52.4677 240.467 57.1535 238.895C61.8392 237.322 66.6918 235.848 70.6823 235.799C74.6729 235.75 77.2034 233.128 76.3831 231.354C75.5627 229.58 74.5964 225.378 64.4254 224.175C54.2544 222.971 49.673 226.561 47.5526 229.371C45.4322 232.182 47.8515 235.249 49.5478 234.762Z" fill="white"/>
</g>
<path d="M68.4367 228.557C67.3611 228.311 66.2575 228.21 65.1553 228.257C64.0986 228.259 63.0435 228.341 61.999 228.501C59.9372 228.866 57.9304 229.492 56.0271 230.365C52.4398 231.979 48.8942 234.066 46.5722 237.252C45.3151 238.971 44.3064 240.859 43.5758 242.859C43.4437 243.235 44.1807 243.45 44.3475 243.11C45.0851 241.432 45.9328 239.805 46.885 238.24C47.9178 236.656 49.2384 235.281 50.7782 234.184C54.0226 231.857 57.6866 230.18 61.5679 229.245C62.7107 228.98 63.8733 228.811 65.044 228.737C66.2041 228.719 67.3643 228.761 68.5201 228.863C68.6174 228.87 68.5479 228.584 68.4367 228.557Z" fill="#E8B600"/>
<path opacity="0.3" d="M68.4367 228.557C67.3611 228.311 66.2575 228.21 65.1553 228.257C64.0986 228.259 63.0435 228.341 61.999 228.501C59.9372 228.866 57.9304 229.492 56.0271 230.365C52.4398 231.979 48.8942 234.066 46.5722 237.252C45.3151 238.971 44.3064 240.859 43.5758 242.859C43.4437 243.235 44.1807 243.45 44.3475 243.11C45.0851 241.432 45.9328 239.805 46.885 238.24C47.9178 236.656 49.2384 235.281 50.7782 234.184C54.0226 231.857 57.6866 230.18 61.5679 229.245C62.7107 228.98 63.8733 228.811 65.044 228.737C66.2041 228.719 67.3643 228.761 68.5201 228.863C68.6174 228.87 68.5479 228.584 68.4367 228.557Z" fill="black"/>
<path d="M41.2123 251.388C40.4128 248.355 36.5752 246.65 31.5488 246.275C29.0699 246.047 26.5774 246.529 24.3618 247.665C22.1463 248.8 20.2989 250.543 19.035 252.689C16.4071 257.189 15.3156 260.765 16.9076 261.356C18.4996 261.948 25.2502 262.88 29.6161 263.263C33.9821 263.645 39.4117 262.866 42.9642 259.555C46.5168 256.243 45.3697 252.083 41.2123 251.388Z" fill="#E8B600"/>
<path opacity="0.3" d="M41.2123 251.388C40.4128 248.355 36.5752 246.65 31.5488 246.275C29.0699 246.047 26.5774 246.529 24.3618 247.665C22.1463 248.8 20.2989 250.543 19.035 252.689C16.4071 257.189 15.3156 260.765 16.9076 261.356C18.4996 261.948 25.2502 262.88 29.6161 263.263C33.9821 263.645 39.4117 262.866 42.9642 259.555C46.5168 256.243 45.3697 252.083 41.2123 251.388Z" fill="white"/>
<path d="M41.3932 250.985C39.6225 250.526 37.7759 250.441 35.9705 250.734C34.224 250.936 32.5054 251.333 30.8468 251.917C29.0966 252.534 27.4012 253.297 25.7787 254.198C24.9305 254.665 24.0893 255.158 23.2759 255.68C22.4894 256.143 21.7367 256.662 21.0234 257.231C21.0234 257.231 21.0234 257.364 21.0234 257.336C21.8507 256.967 22.6224 256.445 23.415 256.007C24.2075 255.569 25.1182 255.054 25.9873 254.616C27.6088 253.783 29.2887 253.069 31.0137 252.48C32.74 251.9 34.5265 251.517 36.339 251.339C38.0362 251.251 39.7376 251.295 41.428 251.471C41.8381 251.492 41.6087 251.054 41.3932 250.985Z" fill="#E8B600"/>
<path opacity="0.3" d="M41.3932 250.985C39.6225 250.526 37.7759 250.441 35.9705 250.734C34.224 250.936 32.5054 251.333 30.8468 251.917C29.0966 252.534 27.4012 253.297 25.7787 254.198C24.9305 254.665 24.0893 255.158 23.2759 255.68C22.4894 256.143 21.7367 256.662 21.0234 257.231C21.0234 257.231 21.0234 257.364 21.0234 257.336C21.8507 256.967 22.6224 256.445 23.415 256.007C24.2075 255.569 25.1182 255.054 25.9873 254.616C27.6088 253.783 29.2887 253.069 31.0137 252.48C32.74 251.9 34.5265 251.517 36.339 251.339C38.0362 251.251 39.7376 251.295 41.428 251.471C41.8381 251.492 41.6087 251.054 41.3932 250.985Z" fill="black"/>
<path d="M250.729 241.023L251.946 228.229L236.832 228.821C236.832 228.821 237.103 235.777 237.34 239.68C237.472 242.003 235.518 246.838 235.518 246.838C235.518 246.838 242.164 250.463 245.703 249.141C249.242 247.819 251.077 243.228 251.021 242.226C250.966 241.224 250.729 241.023 250.729 241.023Z" fill="#FFA8A7"/>
<path d="M216.949 261.301C216.726 261.301 216.372 263.681 217.574 264.703C218.965 265.879 223.039 267.834 228.448 267.201C233.856 266.567 236.79 264.974 238.98 263.235C241.17 261.496 244.208 259.061 246.662 258.533C248.936 258.067 251.411 257.093 252.147 256.411C252.884 255.729 252.801 252.703 252.801 252.703L216.949 261.301Z" fill="#263238"/>
<path d="M250.729 241.022C250.923 241.03 251.109 241.102 251.257 241.229C251.405 241.355 251.505 241.527 251.543 241.718C251.703 242.56 251.862 244.988 252.238 246.365C252.725 248.278 253.03 252.188 252.718 253.739C252.405 255.29 248.692 256.341 246.322 257.217C243.526 258.36 240.917 259.917 238.584 261.836C236.025 263.847 230.665 265.92 227.141 265.864C222.969 265.795 218.284 264.473 217.22 262.56C215.906 260.222 214.954 257.509 221.155 254.782C222.33 254.268 226.459 251.937 227.871 251.096C231.68 248.807 234.364 246.706 236.137 242.622C236.284 242.115 236.6 241.673 237.034 241.37C237.416 241.218 237.835 241.187 238.236 241.28C239.265 241.426 243.374 242.017 244.312 242.456C245.14 242.852 246.315 243.304 246.287 244.341C246.265 244.7 246.182 245.052 246.044 245.384C245.967 245.593 245.911 245.878 246.099 246.003C246.287 246.129 246.516 246.003 246.676 245.85C247.29 245.256 247.853 244.612 248.359 243.923C248.649 243.566 248.98 243.243 249.346 242.963C249.714 242.752 250.069 242.52 250.409 242.268C250.792 241.948 250.708 241.496 250.729 241.022Z" fill="#455A64"/>
<path d="M238.584 261.837C239.673 260.975 240.806 260.17 241.977 259.423C241.977 259.423 234.67 263.652 231.743 261.677C229.859 260.404 230.77 258.894 230.818 258.4C230.867 257.906 224.214 254.414 222.371 254.185C221.857 254.456 221.426 254.672 221.155 254.79C214.954 257.517 215.906 260.23 217.22 262.567C218.284 264.452 221.669 265.948 227.064 265.997C230.596 266.018 236.032 263.847 238.584 261.837Z" fill="#37474F"/>
<path d="M231.347 256.974C227.488 258.435 229.122 259.151 230.2 259.304C231.277 259.457 237.778 255.826 241.747 252.855C245.919 249.725 248.512 246.288 250.048 245.141C250.625 244.709 251.237 244.188 251.793 243.694C251.696 242.873 251.619 242.121 251.543 241.725C251.505 241.534 251.405 241.362 251.257 241.236C251.109 241.109 250.924 241.037 250.73 241.029C250.73 241.516 250.792 241.968 250.417 242.323C250.076 242.576 249.721 242.808 249.353 243.019C248.987 243.299 248.656 243.621 248.366 243.979C247.86 244.667 247.297 245.312 246.683 245.906C243.298 249.961 235.205 255.513 231.347 256.974Z" fill="#37474F"/>
<path d="M230.478 258.762C230.566 258.762 230.652 258.733 230.721 258.678C230.759 258.648 230.791 258.61 230.814 258.568C230.838 258.525 230.853 258.478 230.858 258.429C230.863 258.381 230.859 258.332 230.845 258.285C230.831 258.238 230.808 258.194 230.777 258.157C229.699 256.856 224.582 253.753 221.739 254.025C221.691 254.03 221.644 254.044 221.601 254.067C221.558 254.09 221.52 254.122 221.49 254.16C221.459 254.197 221.436 254.241 221.422 254.287C221.408 254.334 221.404 254.383 221.409 254.431C221.414 254.48 221.428 254.527 221.451 254.57C221.475 254.612 221.506 254.65 221.544 254.681C221.581 254.712 221.625 254.735 221.672 254.749C221.718 254.762 221.767 254.767 221.815 254.762C224.464 254.511 229.324 257.593 230.158 258.623C230.196 258.67 230.245 258.707 230.301 258.731C230.357 258.755 230.417 258.766 230.478 258.762Z" fill="#263238"/>
<path d="M233.849 256.786C233.937 256.785 234.023 256.756 234.093 256.703C234.131 256.672 234.162 256.634 234.186 256.592C234.209 256.549 234.224 256.502 234.229 256.453C234.235 256.405 234.23 256.356 234.216 256.309C234.202 256.262 234.179 256.219 234.148 256.181C233.071 254.887 227.954 251.777 225.11 252.056C225.061 252.059 225.013 252.072 224.97 252.095C224.926 252.117 224.887 252.148 224.855 252.185C224.823 252.223 224.799 252.267 224.785 252.314C224.77 252.361 224.765 252.41 224.77 252.459C224.782 252.558 224.833 252.647 224.911 252.709C224.989 252.77 225.088 252.798 225.187 252.786C227.829 252.536 232.695 255.617 233.529 256.647C233.567 256.695 233.616 256.732 233.672 256.757C233.728 256.781 233.789 256.791 233.849 256.786Z" fill="#263238"/>
<path d="M237.193 254.935C237.282 254.937 237.368 254.907 237.437 254.852C237.476 254.823 237.508 254.786 237.532 254.744C237.556 254.702 237.571 254.655 237.576 254.607C237.581 254.558 237.577 254.51 237.562 254.463C237.548 254.417 237.524 254.374 237.492 254.337C236.422 253.036 231.298 249.927 228.455 250.205C228.356 250.214 228.265 250.261 228.201 250.337C228.138 250.412 228.106 250.51 228.114 250.608C228.119 250.658 228.134 250.706 228.158 250.749C228.182 250.793 228.214 250.832 228.253 250.863C228.292 250.894 228.336 250.917 228.384 250.93C228.432 250.944 228.482 250.948 228.531 250.942C231.173 250.685 236.039 253.767 236.874 254.796C236.912 254.843 236.962 254.88 237.017 254.904C237.073 254.928 237.133 254.939 237.193 254.935Z" fill="#263238"/>
<path d="M240.343 252.773C240.43 252.774 240.515 252.747 240.586 252.696C240.63 252.668 240.666 252.631 240.694 252.587C240.723 252.544 240.741 252.495 240.749 252.444C240.757 252.392 240.754 252.34 240.74 252.29C240.726 252.24 240.702 252.194 240.67 252.154C239.592 250.853 234.461 247.743 231.632 248.021C231.533 248.03 231.442 248.078 231.379 248.153C231.315 248.229 231.283 248.326 231.291 248.425C231.303 248.524 231.354 248.614 231.432 248.677C231.51 248.739 231.609 248.769 231.708 248.759C234.35 248.508 239.217 251.583 240.051 252.613C240.084 252.66 240.127 252.7 240.178 252.728C240.229 252.755 240.285 252.771 240.343 252.773Z" fill="#263238"/>
<path d="M243.402 250.63C243.487 250.632 243.571 250.605 243.638 250.553C243.677 250.524 243.71 250.488 243.735 250.446C243.759 250.405 243.775 250.358 243.782 250.31C243.788 250.262 243.785 250.213 243.772 250.167C243.76 250.12 243.738 250.076 243.708 250.038C242.227 248.195 236.86 245.586 234.03 245.864C233.982 245.869 233.935 245.884 233.892 245.907C233.85 245.93 233.812 245.962 233.781 245.999C233.75 246.037 233.728 246.081 233.714 246.127C233.7 246.174 233.695 246.223 233.7 246.271C233.705 246.32 233.72 246.367 233.743 246.409C233.766 246.452 233.797 246.49 233.835 246.521C233.873 246.551 233.916 246.574 233.963 246.588C234.01 246.602 234.059 246.607 234.107 246.602C236.651 246.358 241.796 248.863 243.11 250.497C243.146 250.54 243.19 250.574 243.241 250.597C243.291 250.62 243.346 250.631 243.402 250.63Z" fill="#263238"/>
<path d="M276.668 247.84L273.692 235.596L288.639 233.37L289.029 245.161C289.029 245.161 290.475 249.405 289.557 250.928C288.639 252.452 278.531 254.24 277.662 253.203C276.793 252.167 276.668 247.84 276.668 247.84Z" fill="#FFA8A7"/>
<path d="M277.571 274.414C277.961 278.198 278.698 280.675 280.255 282.706C281.812 284.738 285.121 284.898 287.902 283.91C290.683 282.922 294.215 280.751 294.889 277.371C295.563 273.99 295.32 271.757 294.541 268.327L277.571 274.414Z" fill="#263238"/>
<path d="M289.042 245.197C290.203 245.148 289.863 250.317 290.732 255.36C291.656 260.765 293.513 262.831 294.34 267.256C295.272 272.313 295.07 274.644 293.228 277.983C291.385 281.322 284.079 285.44 280.491 281.391C277.564 278.087 277.293 274.08 277.349 268.911C277.405 263.569 277.488 259.812 277.099 255.812C276.723 251.986 275.708 248.578 276.668 248.028C276.765 248.584 276.869 249.294 276.974 249.837C277.057 250.261 277.252 252.327 277.898 252.271C277.933 251.787 277.919 251.3 277.856 250.817C277.813 250.598 277.815 250.372 277.862 250.153C277.908 249.934 277.999 249.727 278.128 249.544C278.679 249.097 279.315 248.766 279.998 248.571C281.131 248.23 283.641 247.562 284.788 247.332C285.367 247.216 285.944 247.126 286.519 247.061C287.007 246.988 287.504 246.988 287.993 247.061C288.127 247.081 288.256 247.131 288.368 247.208C288.48 247.286 288.573 247.387 288.639 247.506C288.706 247.693 288.734 247.892 288.723 248.091C288.736 248.443 288.799 248.792 288.91 249.127C288.959 249.273 289.077 249.447 289.244 249.391C289.304 249.36 289.353 249.312 289.384 249.252C289.415 249.192 289.427 249.124 289.418 249.057C289.418 248.438 289.3 247.993 289.237 247.277C289.237 246.943 289.133 246.498 289.119 246.164C289.105 245.83 289.084 245.489 289.042 245.197Z" fill="#455A64"/>
<path d="M294.02 265.788C294.166 266.484 295.035 271.353 293.617 272.404C292.081 273.552 291.066 269.788 291.066 269.788C291.066 269.788 286.846 269.433 281.555 272.23C281.861 272.995 281.131 275.708 279.636 275.339C278.142 274.971 277.356 269.392 277.342 269.322C277.342 274.275 277.648 278.15 280.492 281.357C284.079 285.405 291.393 281.294 293.228 277.948C295.063 274.602 295.272 272.279 294.34 267.221C294.25 266.713 294.139 266.24 294.02 265.788Z" fill="#37474F"/>
<path d="M290.655 270.171C290.753 272.028 292.741 271.165 292.741 268.529C292.741 265.892 290.92 259.847 290.76 255.311C290.475 249.113 290.231 245.099 289.07 245.148C289.074 245.21 289.074 245.273 289.07 245.336L289.328 247.924C289.384 248.29 289.419 248.659 289.432 249.03C289.613 252.814 289.599 260.16 290.085 263.597C290.407 265.774 290.598 267.97 290.655 270.171Z" fill="#37474F"/>
<path d="M282.174 272.105C281.592 270.003 281.139 267.868 280.818 265.712C280.29 262.324 278.392 255.527 277.46 251.875C277.21 251.203 277.046 250.502 276.973 249.788C276.876 249.28 276.779 248.633 276.688 248.098C276.688 248.063 276.688 248.021 276.688 247.986C275.993 248.39 276.195 251.325 276.556 252.856C276.918 254.386 277.37 256.014 277.822 258.198C278.983 262.505 279.045 268.953 279.796 271.416C280.547 273.878 282.625 273.885 282.174 272.105Z" fill="#37474F"/>
<path d="M281.444 272.397C281.499 272.382 281.553 272.361 281.604 272.334C281.639 272.334 286.255 269.586 290.968 270.184C291.081 270.199 291.194 270.172 291.289 270.11C291.383 270.047 291.452 269.953 291.483 269.844C291.496 269.793 291.498 269.74 291.489 269.688C291.479 269.637 291.459 269.588 291.428 269.545C291.397 269.503 291.358 269.468 291.312 269.442C291.266 269.417 291.215 269.402 291.163 269.398C286.116 268.758 281.354 271.569 281.173 271.68C281.125 271.706 281.083 271.74 281.049 271.782C281.015 271.824 280.99 271.873 280.975 271.925C280.96 271.976 280.956 272.031 280.962 272.084C280.969 272.138 280.986 272.19 281.013 272.237C281.061 272.303 281.128 272.353 281.204 272.381C281.281 272.41 281.364 272.415 281.444 272.397Z" fill="#263238"/>
<path d="M280.296 268.473C280.345 268.462 280.392 268.443 280.436 268.418C280.484 268.418 285.615 265.552 290.864 266.046C290.976 266.056 291.088 266.026 291.179 265.96C291.271 265.895 291.337 265.8 291.364 265.691C291.376 265.639 291.375 265.585 291.364 265.534C291.352 265.482 291.329 265.434 291.296 265.392C291.264 265.35 291.223 265.316 291.176 265.292C291.128 265.268 291.077 265.254 291.024 265.253C285.462 264.738 280.234 267.639 280.032 267.75C279.962 267.798 279.91 267.868 279.885 267.95C279.859 268.031 279.861 268.118 279.89 268.198C279.92 268.278 279.975 268.345 280.048 268.39C280.12 268.435 280.205 268.455 280.29 268.446L280.296 268.473Z" fill="#263238"/>
<path d="M290.467 262.247C290.548 262.23 290.623 262.193 290.685 262.14C290.747 262.086 290.794 262.018 290.822 261.941C290.839 261.891 290.845 261.838 290.839 261.786C290.833 261.733 290.816 261.683 290.789 261.638C290.762 261.593 290.725 261.554 290.682 261.525C290.638 261.495 290.589 261.476 290.537 261.467C285.281 260.466 279.761 263.742 279.553 263.874C279.504 263.898 279.462 263.932 279.427 263.973C279.393 264.015 279.367 264.063 279.352 264.114C279.337 264.166 279.333 264.22 279.34 264.273C279.347 264.327 279.365 264.378 279.393 264.424C279.459 264.512 279.557 264.571 279.665 264.589C279.774 264.607 279.885 264.583 279.977 264.521C280.025 264.521 285.399 261.307 290.287 262.247C290.346 262.261 290.408 262.261 290.467 262.247Z" fill="#263238"/>
<path d="M290.03 258.665C290.109 258.649 290.184 258.614 290.246 258.562C290.308 258.509 290.356 258.442 290.384 258.366C290.401 258.316 290.407 258.264 290.402 258.212C290.396 258.16 290.38 258.11 290.354 258.065C290.327 258.02 290.291 257.981 290.249 257.952C290.206 257.922 290.157 257.902 290.106 257.892C284.322 256.682 279.108 260.153 278.906 260.292C278.861 260.32 278.821 260.357 278.79 260.4C278.759 260.443 278.737 260.492 278.725 260.544C278.714 260.596 278.713 260.65 278.722 260.702C278.732 260.755 278.752 260.805 278.781 260.849C278.854 260.934 278.956 260.988 279.067 260.999C279.179 261.011 279.29 260.979 279.379 260.912C279.421 260.912 284.461 257.545 289.842 258.672C289.904 258.68 289.968 258.677 290.03 258.665Z" fill="#263238"/>
<path d="M289.522 254.651C289.6 254.633 289.673 254.597 289.733 254.544C289.794 254.492 289.841 254.426 289.87 254.351C289.889 254.302 289.897 254.249 289.893 254.197C289.89 254.144 289.874 254.093 289.848 254.047C289.822 254.001 289.787 253.961 289.743 253.931C289.7 253.9 289.651 253.88 289.598 253.871C284.183 252.661 278.545 256.244 278.329 256.39C278.283 256.417 278.243 256.453 278.211 256.496C278.18 256.539 278.157 256.588 278.145 256.64C278.132 256.692 278.13 256.746 278.139 256.798C278.148 256.851 278.168 256.901 278.197 256.946C278.266 257.034 278.366 257.091 278.477 257.106C278.587 257.12 278.699 257.09 278.788 257.023C278.837 257.023 284.294 253.544 289.327 254.651C289.391 254.664 289.458 254.664 289.522 254.651Z" fill="#263238"/>
<path d="M283.168 124.849C287.228 154.212 285.532 185.656 285.949 191.569C286.415 196.946 287.506 199.548 288.201 209.955C288.855 219.771 289.794 239.019 289.807 240.174C289.807 240.174 284.392 244.16 274.353 243.165C274.353 243.165 265.684 214.644 262.367 201.788C259.239 189.649 257.654 170.129 257.654 170.129L256.187 190.059C256.187 190.059 256.764 197.454 256.68 202.984C256.583 209.419 252.648 235.798 252.648 235.798C252.648 235.798 242.658 238.47 236.158 234.344C236.158 234.344 232.494 197.586 232.132 189.857C231.437 174.692 231.695 141.927 233.307 123.263L283.168 124.849Z" fill="#455A64"/>
<path d="M257.661 170.129L255.825 150.846C255.825 150.846 247.08 149.593 243.374 146.233C245.615 149.807 249.141 152.384 253.225 153.433L255.519 170.734L256.215 190.059L257.661 170.129Z" fill="#37474F"/>
<path d="M281.812 237.955C284.539 237.492 287.168 236.574 289.592 235.241C289.592 234.817 289.557 234.372 289.529 233.913C288.669 234.399 287.782 234.835 286.873 235.221C286.755 229.968 286.658 221.509 286.178 215.603C285.893 212.125 285.323 208.125 284.788 204.946C284.231 201.468 283.932 198.956 283.293 195.499C282.104 189.015 282.028 182.678 281.951 176.097C281.875 169.516 282.055 162.88 281.819 156.32C281.59 149.899 281.082 143.311 279.302 137.127C279.101 136.431 278.871 135.735 278.607 135.04C278.475 134.685 277.815 134.581 277.912 135.075C278.607 138.247 279.302 141.419 279.74 144.64C280.178 147.861 280.436 151.005 280.582 154.205C279.84 154.216 279.105 154.07 278.425 153.776C277.744 153.482 277.133 153.048 276.633 152.501C275.55 151.229 274.78 149.721 274.387 148.097C273.375 144.426 272.636 140.685 272.176 136.904C271.871 134.713 271.641 132.515 271.481 130.309C271.446 129.774 270.48 129.76 270.522 130.309C270.833 134.514 271.4 138.695 272.218 142.831C272.58 144.797 273.044 146.743 273.609 148.661C274.059 150.335 274.914 151.874 276.097 153.141C277.265 154.295 278.99 155.165 280.63 154.908C280.894 161.168 280.776 167.429 280.811 173.69C280.737 180.151 281.12 186.609 281.958 193.015C282.959 199.812 284.099 205.92 284.822 212.751C285.726 221.273 285.726 227.283 286.032 235.485C284.532 236.042 282.985 236.461 281.409 236.737C279.663 237.049 277.898 237.238 276.125 237.301C274.929 237.342 273.755 237.301 272.573 237.238C272.691 237.635 272.802 238.017 272.913 238.379C273.963 238.428 274.999 238.435 276.07 238.421C277.993 238.426 279.914 238.27 281.812 237.955Z" fill="#37474F"/>
<path d="M251.585 217.523C252.107 212.926 252.397 208.306 252.454 203.68C252.454 201.349 252.405 199.026 252.245 196.723C252.085 194.421 251.8 192.264 251.717 190.017C251.543 185.419 252.447 179.881 253.024 175.346C253.774 169.363 254.657 164.055 254.491 158.873C254.491 158.664 253.997 157.753 253.976 158.052C253.733 162.72 252.759 168.716 252.21 174.163C251.744 178.72 250.875 183.728 250.82 188.327C250.82 190.581 251.049 192.807 251.244 195.04C251.439 197.273 251.543 199.617 251.571 201.906C251.586 206.529 251.354 211.151 250.875 215.749C250.616 218.314 250.315 220.879 249.972 223.443C249.645 225.927 249.228 228.41 248.971 230.901C247.422 231.022 245.866 231.008 244.32 230.859C242.553 230.69 240.802 230.395 239.078 229.975C237.903 229.697 236.763 229.321 235.602 228.953C235.643 229.377 235.685 229.781 235.72 230.17C236.721 230.497 237.729 230.782 238.73 231.047C240.585 231.546 242.478 231.89 244.389 232.076C247.37 232.401 250.386 232.153 253.274 231.346C253.336 230.956 253.392 230.539 253.455 230.101C252.241 230.424 251.008 230.668 249.763 230.831C250.597 226.414 251.098 221.955 251.585 217.523Z" fill="#37474F"/>
<path d="M242.658 67.4932C236.561 69.2253 234.538 70.6445 230.026 77.2323C226.64 82.1506 218.033 96.3419 218.033 96.3419C218.033 96.3419 216.532 113.914 220.321 113.803C222.479 113.748 224.533 112.858 226.049 111.319C231.284 105.81 240.044 93.3366 240.044 93.3366L242.658 67.4932Z" fill="#FFA8A7"/>
<path d="M242.873 66.9502C239.397 67.4024 235.059 69.0372 232.32 72.6198C229.581 76.2024 221.982 88.8215 221.982 88.8215C221.982 88.8215 222.191 92.5989 226.689 97.0998C231.187 101.601 235.219 101.608 235.219 101.608L246.342 84.8702L242.873 66.9502Z" fill="#455A64"/>
<path d="M218.555 95.4509C220.925 97.4265 224.686 107.319 224.686 107.319C224.686 107.319 225.875 103.089 224.276 99.2561C223.289 96.9081 221.875 94.7639 220.105 92.9326L218.555 95.4509Z" fill="#F28F8F"/>
<path d="M183.523 84.5706C182.723 83.2141 180.637 83.9167 179.546 83.0401C179.386 82.9219 179.26 82.7627 179.182 82.5793C179.104 82.3958 179.077 82.1947 179.103 81.9971C179.129 81.7994 179.208 81.6125 179.331 81.4558C179.454 81.2991 179.617 81.1783 179.803 81.1062C180.644 80.6749 181.639 80.8836 182.549 80.8071C183.608 80.6985 184.632 80.3666 185.553 79.8332C187.513 78.7758 190.009 77.9271 192.102 79.221C191.627 79.4522 191.177 79.7319 190.76 80.0558C188.347 81.5584 185.928 83.0541 183.523 84.5706Z" fill="#F28F8F"/>
<path d="M175.278 84.5436C175.556 84.634 175.827 84.7314 176.084 84.8288C176.341 84.9262 176.779 85.0723 177.12 85.2114C177.287 85.274 177.447 85.3436 177.607 85.4201C177.766 85.4966 178.017 85.6983 178.079 85.6844C178.872 85.4549 179.831 84.8705 181.18 84.9888C182.529 85.107 182.835 85.3088 184.531 83.8131C185.678 82.8044 187.02 81.0305 188.577 80.1192C190.134 79.2079 191.754 78.5957 193.638 80.0079C195.522 81.4201 196.489 82.4218 198.505 83.7575C200.006 84.7662 201.077 85.5314 208.738 89.8235C214.369 92.9749 219.006 94.7905 222.788 99.8896C224.311 101.977 227.578 109.705 226.077 111.326C223.991 113.615 218.624 115.646 212.604 111.159C209.847 109.118 207.228 106.899 204.762 104.516C202.273 102.164 201.181 100.933 197.636 97.5592C194.09 94.1853 192.074 92.4322 190.065 91.5209C188.361 90.7418 186.234 91.1244 184.795 91.3331C182.922 91.6818 180.997 91.6511 179.136 91.2427C177.238 90.9505 175.994 90.547 174.687 90.2827C173.38 90.0183 172.232 89.2183 170.953 88.5992C170.14 88.2027 169.66 87.9731 168.743 87.5418C168.493 87.4515 168.268 87.3065 168.082 87.1175C167.999 86.9853 168.117 86.6583 168.165 86.5053C168.217 86.3543 168.297 86.2149 168.402 86.0949C168.131 86.0962 167.862 86.0587 167.602 85.9836C167.374 85.9251 167.141 85.881 166.907 85.8514C166.733 85.8514 166.532 85.7401 166.511 85.5592C166.508 85.4522 166.545 85.3481 166.615 85.267C166.869 84.901 167.232 84.6237 167.651 84.474C168.227 84.3223 168.822 84.2544 169.417 84.2722C169.505 84.2703 169.593 84.2514 169.674 84.2166C169.773 84.1586 169.862 84.0859 169.938 84.0009C170.232 83.7776 170.602 83.68 170.967 83.7296C171.614 83.826 172.255 83.9607 172.886 84.1331C173.275 84.2096 173.672 84.2236 174.061 84.2862C174.472 84.3404 174.879 84.4264 175.278 84.5436Z" fill="#FFA8A7"/>
<path d="M179.866 86.1855C180.475 86.2023 181.08 86.0761 181.632 85.8168C182.098 85.5974 182.533 85.3166 182.925 84.982C183.409 84.8033 183.86 84.5446 184.26 84.2168C185.142 83.4585 186.081 82.422 187.075 81.4898C187.998 81.0158 189.04 80.8247 190.072 80.9403C190.588 81.0227 191.091 81.1748 191.566 81.3924C192.046 81.6289 192.533 82.0881 193.012 82.4011C192.688 81.925 192.275 81.5163 191.796 81.1976C191.308 80.8724 190.759 80.6499 190.183 80.5437C189.134 80.4279 188.081 80.7138 187.235 81.3437C189.105 79.6255 191.198 78.3385 193.638 79.9524C191.796 78.255 189.23 79.1942 187.506 80.5924C185.789 81.8446 184.607 83.9942 182.57 84.7107C182.038 84.7585 181.503 84.7585 180.971 84.7107C179.968 84.7802 178.985 85.0325 178.072 85.455L177.926 85.3716C176.426 84.6051 174.793 84.1328 173.115 83.9803C172.093 83.9246 170.828 83.1942 169.903 83.9315C170.905 83.2985 171.989 84.015 173.067 84.1472C174.742 84.3538 176.363 84.8779 177.843 85.6916C177.949 85.7478 178.07 85.7719 178.19 85.7611C179.115 85.4689 179.88 84.9959 180.86 85.0655C181.418 85.1045 181.978 85.1045 182.535 85.0655L182.313 85.1698C182.049 85.302 181.785 85.4342 181.52 85.5524C180.983 85.7976 180.43 86.0091 179.866 86.1855ZM175.799 87.1385C175.591 87.1996 175.373 87.2162 175.159 87.1872C175.003 87.1402 174.853 87.0723 174.714 86.9855C174.091 86.6645 173.389 86.527 172.691 86.5889C172.53 86.6133 172.366 86.6133 172.205 86.5889C172.043 86.5421 171.889 86.4742 171.746 86.3872C171.192 86.14 170.599 85.9917 169.994 85.9489C169.844 85.9316 169.692 85.9316 169.542 85.9489C169.454 85.9534 169.367 85.9722 169.285 86.0046C169.805 85.9982 170.322 86.0805 170.814 86.2481C171.267 86.422 171.701 86.6436 172.107 86.909L172.163 86.9437H172.26C172.508 86.9296 172.756 86.9296 173.004 86.9437C173.251 86.9625 173.497 86.995 173.741 87.0411C174.229 87.1408 174.698 87.3168 175.131 87.5629L175.264 87.6394L175.361 87.5976C175.539 87.5239 175.723 87.4634 175.91 87.4168C176.1 87.3667 176.293 87.3272 176.487 87.2985C176.688 87.2719 176.89 87.2557 177.092 87.2498C177.296 87.2395 177.5 87.2395 177.704 87.2498C177.097 87.0114 176.429 86.9724 175.799 87.1385ZM170.091 84.2933C169.973 84.2933 169.841 84.2933 169.723 84.2933C170.109 84.4005 170.482 84.5498 170.835 84.7385L171.071 84.8289L171.336 84.8776C171.782 84.9143 172.222 85.0006 172.65 85.135C173.1 85.3062 173.517 85.5559 173.88 85.8724L173.991 85.9698L174.13 85.9142C174.378 85.8184 174.634 85.744 174.895 85.6916C175.167 85.6427 175.44 85.6078 175.715 85.5872C175.993 85.5872 176.279 85.5872 176.564 85.5872C176.849 85.5872 177.127 85.6429 177.419 85.6707C176.719 85.4241 175.972 85.3408 175.236 85.4272C175.006 85.4272 174.777 85.5037 174.54 85.5524C174.304 85.6011 174.116 85.6985 173.963 85.615C173.937 85.5979 173.914 85.5768 173.894 85.5524C173.529 85.1951 173.067 84.9532 172.566 84.8568C172.086 84.7594 171.593 84.8011 171.12 84.6759C170.891 84.6133 170.675 84.502 170.425 84.4324C170.318 84.377 170.206 84.3305 170.091 84.2933Z" fill="#F28F8F"/>
<path d="M266.747 67.374C272.83 68.341 277.043 69.301 279.956 69.9549C279.956 69.9549 287.276 75.1931 285.184 97.0853C284.892 100.174 284.176 109.044 284.245 116.494C284.287 121.795 284.169 128.96 284.405 132.647C284.405 132.647 272.156 139.777 251.681 137.565C235.615 135.833 232.382 129.913 232.382 129.913C232.501 125.287 232.855 104.244 233.62 91.6523C234.586 75.5549 238.354 71.9931 242.852 66.9566C246.124 66.6043 249.414 66.4557 252.703 66.5114C258.328 66.5114 260.671 66.414 266.747 67.374Z" fill="#F0F0F0"/>
<path d="M239.397 82.5605C238.718 86.0403 238.36 89.5752 238.327 93.1205C246.28 95.9518 255.992 98.1014 265.37 97.7188C265.426 93.7605 265.725 90.4632 266.107 86.7205C259.51 86.9432 247.622 85.4823 239.397 82.5605Z" fill="#E0E0E0"/>
<path d="M271.189 34.2617C271.189 34.2617 273.803 34.6652 275.298 37.9626C276.049 39.6182 276.473 43.6322 273.504 51.7017C272.351 54.8645 270.708 57.8269 268.638 60.4809C268.008 61.3574 267.068 61.9616 266.01 62.1713L266.643 55.8339L267.199 50.3522C267.199 50.3522 263.514 49.0582 262.909 43.9591C262.43 39.8548 264.195 38.3243 264.195 38.3243L271.189 34.2617Z" fill="#263238"/>
<path d="M275.131 37.4195C276.334 31.1587 264.376 21.983 256.84 26.3656C254.379 22.8317 248.275 24.23 247.601 27.7987C245.452 26.7065 241.177 31.6456 242.115 34.3378C239.953 40.1882 242.88 42.616 245.779 42.6091C252.877 42.6091 260.476 42.3447 267.63 42.8387L275.131 37.4195Z" fill="#263238"/>
<path d="M245.536 33.99C244.02 35.3117 241.837 38.31 241.156 49.5935C240.69 57.2457 242.546 60.7239 245.327 62.1152C247.655 63.2653 250.219 63.856 252.815 63.8404L252.71 68.4457C245.897 74.63 264.168 76.5013 268.812 68.3413L268.909 55.75C269.382 56.6961 271.836 57.35 273.699 55.583C276.647 52.8004 276.174 48.6265 274.074 47.0752C271.975 45.5239 268.784 45.7535 267.553 48.7865C265.078 49.5796 263.347 46.1709 264.286 36.9604C254.268 39.1726 251.89 31.2491 245.536 33.99Z" fill="#FFA8A7"/>
<path d="M252.787 63.8265C260.824 63.583 264.606 59.8613 265.642 56.9326C265.642 56.9326 265.885 61.997 260.254 64.397C257.922 65.4595 255.366 65.937 252.808 65.7883L252.787 63.8265Z" fill="#F28F8F"/>
<path d="M249.568 54.2266L254.886 52.7588C255 53.0988 255.043 53.4584 255.013 53.8157C254.983 54.173 254.88 54.5203 254.71 54.8363C254.541 55.1523 254.309 55.4303 254.028 55.6532C253.748 55.8762 253.425 56.0393 253.079 56.1327C252.361 56.3225 251.598 56.2309 250.945 55.8766C250.293 55.5223 249.8 54.9322 249.568 54.2266Z" fill="#B16668"/>
<path d="M251.89 56.1884C252.286 56.2532 252.691 56.2342 253.079 56.1328C253.56 56.001 253.993 55.7346 254.328 55.3649C254.663 54.9953 254.886 54.5377 254.97 54.0458C254.296 54.0297 253.634 54.2286 253.08 54.6138C252.527 54.999 252.11 55.5505 251.89 56.1884Z" fill="#F28F8F"/>
<path d="M257.493 45.1686C257.463 45.4647 257.345 45.7449 257.155 45.9738C256.964 46.2027 256.711 46.37 256.425 46.4543C256.14 46.5387 255.836 46.5364 255.552 46.4477C255.268 46.359 255.017 46.188 254.83 45.9562C254.644 45.7245 254.53 45.4425 254.504 45.146C254.478 44.8495 254.54 44.5519 254.683 44.2909C254.826 44.03 255.043 43.8173 255.307 43.6801C255.571 43.5428 255.87 43.4871 256.165 43.5199C256.361 43.5407 256.55 43.5999 256.723 43.6941C256.896 43.7882 257.048 43.9155 257.171 44.0687C257.295 44.2218 257.386 44.3978 257.442 44.5865C257.497 44.7753 257.515 44.9731 257.493 45.1686Z" fill="#263238"/>
<path d="M246.926 43.8337C246.894 44.1293 246.775 44.4087 246.584 44.6366C246.394 44.8645 246.139 45.0306 245.854 45.1139C245.569 45.1973 245.265 45.1941 244.982 45.1047C244.699 45.0154 244.448 44.8439 244.262 44.612C244.076 44.3801 243.963 44.0983 243.937 43.8021C243.912 43.5059 243.974 43.2087 244.117 42.9481C244.26 42.6875 244.477 42.4753 244.741 42.3382C245.005 42.2011 245.303 42.1454 245.598 42.178C245.794 42.1988 245.985 42.2582 246.158 42.3528C246.331 42.4474 246.483 42.5754 246.607 42.7293C246.73 42.8832 246.822 43.06 246.877 43.2495C246.932 43.4391 246.948 43.6376 246.926 43.8337Z" fill="#263238"/>
<path d="M251.48 41.9834L249.784 51.2356L245.258 48.6756L251.48 41.9834Z" fill="#F28F8F"/>
<path d="M243.965 40.5777L247.517 39.7847C247.473 39.5554 247.384 39.3372 247.255 39.1428C247.126 38.9483 246.96 38.7815 246.765 38.652C246.571 38.5226 246.354 38.433 246.124 38.3886C245.895 38.3442 245.66 38.3458 245.432 38.3933C244.952 38.4974 244.532 38.7829 244.259 39.1901C243.985 39.5972 243.88 40.0945 243.965 40.5777Z" fill="#263238"/>
<path d="M258.995 42.574L255.79 40.7444C255.903 40.5333 256.058 40.3471 256.244 40.1971C256.431 40.0471 256.646 39.9363 256.876 39.8714C257.107 39.8064 257.348 39.7887 257.585 39.8192C257.823 39.8496 258.051 39.9277 258.258 40.0488C258.678 40.2979 258.987 40.6972 259.124 41.166C259.261 41.6347 259.215 42.138 258.995 42.574Z" fill="#263238"/>
<path d="M244.104 33.67C258.786 34.0108 264.897 40.8491 264.897 40.8491C266.566 42.0386 269.235 44.2439 270.105 46.2473C270.968 46.0411 271.872 46.0861 272.711 46.3769C273.55 46.6678 274.288 47.1925 274.839 47.8891C275.338 46.9324 275.696 45.9085 275.903 44.8491C277.057 39.9378 277.383 29.7256 265.808 25.6004C255.178 21.816 247.573 23.3813 245.119 29.0786C244.632 30.5724 244.292 32.1101 244.104 33.67Z" fill="#455A64"/>
<path d="M265.245 39.4789C264.96 39.1172 263.917 35.305 258.689 31.1728C255.463 28.6407 248.261 27.3328 245.001 26.8459C239.307 25.9972 237.756 27.0198 237.548 27.8685C237.499 28.0702 237.277 29.0094 237.214 29.2181C237.158 29.4087 237.171 29.6129 237.249 29.7954C237.888 31.2702 242.115 34.3381 242.115 34.3381C249.526 33.4894 258.21 36.1467 264.898 40.8494L265.245 39.4789Z" fill="#E8B600"/>
<path d="M264.897 40.8496C258.209 36.147 249.345 33.7817 242.115 34.3383C242.115 34.3383 237.888 31.2704 237.249 29.7957C236.908 28.9817 237.61 27.1661 244.653 28.2235C247.899 28.7104 255.081 30.0113 258.342 32.5504C263.57 36.6548 264.612 40.4948 264.897 40.8496Z" fill="#37474F"/>
<path d="M280.296 71.5967C283.14 72.0906 290.349 73.2732 293.137 78.8732C296.759 86.1636 302.3 98.4906 305.859 107.604C308.001 113.078 308.14 114.825 305.922 119.645C303.795 124.278 293.179 139.819 289.237 144.39C286.296 147.798 282.66 152.988 280.644 154.212C280.644 154.212 274.429 155.604 273.08 142.233C273.08 142.233 274.012 140.042 271.029 141.078C268.944 141.774 266.323 141.955 265.071 140.751C263.82 139.548 266.74 138.908 268.221 137.969C270.36 136.463 272.809 135.453 275.388 135.012C279.066 134.386 281.895 133.816 283.988 129.169C287.972 120.313 290.189 115.256 290.189 115.256L279.761 93.0436C276.334 85.9271 277.265 78.1149 280.296 71.5967Z" fill="#FFA8A7"/>
<path d="M279.977 69.9551C288.854 72.1881 292.052 74.4977 295.967 83.5759C298.594 89.6768 303.134 100.272 303.134 100.272C303.134 100.272 301.174 103.882 295.827 105.872C288.277 108.654 285.761 107.402 285.761 107.402C285.761 107.402 281.916 98.9846 278.732 92.2577C274.735 83.7359 276.681 73.6629 279.977 69.9551Z" fill="#455A64"/>
<path d="M290.168 115.284C292.386 111.806 296.947 110.748 296.947 110.748C296.947 110.748 292.775 109.406 289.237 113.371L290.168 115.284Z" fill="#F28F8F"/>
<path d="M82.07 163.228L83.8637 157.621C84.83 153.085 66.3443 163.763 65.3779 168.299L71.3359 184.341C71.5404 184.823 71.8904 185.229 72.337 185.502C73.644 186.309 78.4619 189.029 78.879 189.287C79.2113 189.491 79.5855 189.618 79.9737 189.657C80.3618 189.696 80.7538 189.647 81.1202 189.513C81.4867 189.379 81.8181 189.164 82.0898 188.884C82.3614 188.604 82.5662 188.266 82.6888 187.895L90.3987 161.419C90.8784 159.158 86.6237 160.626 82.07 163.228Z" fill="#E8B600"/>
<path opacity="0.2" d="M82.07 163.228L83.8637 157.621C84.83 153.085 66.3443 163.763 65.3779 168.299L71.3359 184.341C71.5404 184.823 71.8904 185.229 72.337 185.502C73.644 186.309 78.4619 189.029 78.879 189.287C79.2113 189.491 79.5855 189.618 79.9737 189.657C80.3618 189.696 80.7538 189.647 81.1202 189.513C81.4867 189.379 81.8181 189.164 82.0898 188.884C82.3614 188.604 82.5662 188.266 82.6888 187.895L90.3987 161.419C90.8784 159.158 86.6237 160.626 82.07 163.228Z" fill="white"/>
<path d="M113.536 49.3768C122.205 53.6341 128.065 63.6307 129.06 78.3507C131.041 107.784 112.799 144.966 88.3201 161.405C76.0774 169.62 64.5925 171.095 55.9231 166.838L41.0664 159.54C32.3971 155.283 26.5365 145.286 25.5423 130.573C23.5609 101.133 41.8033 63.9507 66.2818 47.5124C78.5245 39.2828 90.0095 37.822 98.6788 42.0654L113.536 49.3768Z" fill="#E8B600"/>
<path opacity="0.3" d="M113.536 49.3768C122.205 53.6341 128.065 63.6307 129.06 78.3507C131.041 107.784 112.799 144.966 88.3201 161.405C76.0774 169.62 64.5925 171.095 55.9231 166.838L41.0664 159.54C32.3971 155.283 26.5365 145.286 25.5423 130.573C23.5609 101.133 41.8033 63.9507 66.2818 47.5124C78.5245 39.2828 90.0095 37.822 98.6788 42.0654L113.536 49.3768Z" fill="white"/>
<path opacity="0.2" d="M115.913 129.913C124.951 113.614 130.165 94.7755 129.06 78.3511C128.045 63.6311 122.205 53.6346 113.536 49.3772L98.6788 42.0659C90.0095 37.8015 78.5176 39.2833 66.2818 47.492C52.6209 56.6746 40.9065 72.3268 33.5581 89.4676L115.913 129.913Z" fill="white"/>
<path d="M88.3272 161.538C76.0844 169.753 64.5995 171.228 55.9302 166.971C47.2609 162.713 41.4002 152.717 40.4061 137.997C38.4247 108.564 56.6671 71.3811 81.1456 54.9428C93.3883 46.7271 104.873 45.2524 113.543 49.5098C122.212 53.7671 128.079 63.7637 129.067 78.4837C131.048 107.917 112.813 145.099 88.3272 161.538Z" fill="white"/>
<path d="M101.411 48.542C105.385 48.2121 109.376 48.9468 112.972 50.6707C121.593 54.9073 126.877 64.8133 127.773 78.5664C129.727 107.547 111.707 144.278 87.6039 160.459C80.8395 165.001 74.2628 167.519 68.0614 167.937C64.0871 168.267 60.0967 167.532 56.5 165.808C47.8794 161.572 42.5958 151.666 41.6989 137.912C39.7454 108.932 57.7653 72.2012 81.8684 56.0203C88.6328 51.4777 95.2095 48.9594 101.411 48.542ZM101.32 47.2481C95.1261 47.6655 88.2644 50.1629 81.1593 54.942C56.6808 71.3803 38.4384 108.563 40.4197 137.996C41.4139 152.716 47.2745 162.712 55.9439 166.97C59.7463 168.792 63.9636 169.572 68.1657 169.231C74.367 168.813 81.2288 166.316 88.3269 161.537C112.812 145.099 131.048 107.916 129.066 78.4829C128.079 63.7629 122.219 53.7664 113.542 49.509C109.74 47.6869 105.523 46.9068 101.32 47.2481Z" fill="#E8B600"/>
<path d="M162.604 82.852C162.491 82.6846 162.389 82.5103 162.298 82.3302C162.145 81.9337 162.298 81.4815 162.235 81.0572C162.166 80.7928 162.02 80.5548 161.816 80.3729C161.612 80.1911 161.359 80.0734 161.088 80.0346C160.538 79.9605 159.979 80.0758 159.503 80.3615C159.199 80.5693 158.869 80.7376 158.523 80.8624C158.175 80.9146 157.824 80.9356 157.473 80.925C156.423 80.9806 156.34 81.9963 155.888 82.7267C154.873 84.3476 153.107 89.405 151.39 90.2954C151.035 90.4763 150.236 90.7406 150.458 90.0519C150.802 89.171 151.065 88.2606 151.244 87.332C151.33 86.8651 151.316 86.3855 151.205 85.9241C151.094 85.4627 150.887 85.0299 150.597 84.6537C150.415 84.4244 150.156 84.2688 149.867 84.2154C149.457 84.1667 149.339 84.4102 149.214 84.7093C149.068 85.0141 148.904 85.3092 148.72 85.5928C148.359 86.1911 148.025 86.7893 147.65 87.3946C145.606 90.9285 144.062 92.9598 143.186 95.6033C142.491 97.6902 142.491 99.8676 140.565 102.414C138.925 104.57 128.747 115.631 128.747 115.631C128.747 115.631 125.73 111.673 117.679 101.433C111.603 93.7111 108.954 92.758 106.062 92.1876L107.612 116.647C112.61 122.521 118.024 128.029 123.811 133.127C129.56 138.108 134.427 134.518 138.716 127.242C141.539 122.448 149.582 109.155 151.334 105.975C152.28 104.06 153.696 102.415 155.45 101.196C157.454 99.6147 159.128 97.6555 160.379 95.4293C161.2 93.7263 161.85 91.946 162.319 90.1146C162.484 89.3265 162.584 88.5261 162.618 87.7215C162.673 86.9633 162.479 86.2189 162.576 85.4537C162.701 84.5911 163.049 83.638 162.604 82.852Z" fill="#FFA8A7"/>
<path d="M149.916 92.6816C151.772 96.939 150.389 99.8538 148.22 101.37C149.734 98.7431 150.331 95.686 149.916 92.6816Z" fill="#F28F8F"/>
<path d="M104.595 91.6172C109.983 92.2085 112.437 93.9337 116.143 98.7755C119.848 103.617 128.657 114.935 128.657 114.935L138.438 104.584C139.076 106.839 140.43 108.825 142.297 110.24C144.015 111.502 146.038 112.284 148.157 112.508C148.157 112.508 139.815 126.358 136.686 131.088C133.558 135.819 129.644 138.483 124.228 133.962C118.812 129.44 106.333 116.501 106.333 116.501L104.595 91.6172Z" fill="#37474F"/>
<path d="M128.643 114.936C126.05 117.614 123.936 122.49 124.124 126.671C121.343 119.631 127.28 113.183 127.28 113.183L128.643 114.936Z" fill="#263238"/>
<path d="M113.056 130.163C113.056 130.733 113.112 131.457 113.139 132.292C106.271 143.819 97.4485 153.857 87.6112 160.459C85.4369 161.926 83.16 163.235 80.7981 164.375C74.8745 163.712 68.9963 162.692 63.1953 161.321C64.259 148.8 64.2659 143.756 63.7862 135.102C63.2484 127.378 63.267 119.624 63.8419 111.902C64.5371 103.408 65.7328 97.9891 68.3051 97.1543C72.2957 95.8396 85.1224 90.5804 88.5637 89.9404L102.468 91.4569C105.339 92.403 110.296 96.2361 111.937 112.187C112.347 116.5 112.75 124.633 113.056 130.163Z" fill="#FAFAFA"/>
<path d="M85.9984 161.509C79.7971 165.391 73.7765 167.555 68.0688 167.937C65.9763 168.09 63.8729 167.968 61.8119 167.575C61.7076 157.141 62.966 145.036 62.2846 135.102C61.4087 122.302 53.5389 101.356 63.7168 97.2311C63.7168 97.2311 70.6689 95.3528 73.0813 94.0728C74.2106 93.5276 75.2742 92.8554 76.2515 92.0693C76.2515 92.1598 76.1264 93.0572 76.766 95.4641C77.4612 98.0172 79.0741 100.438 80.4506 103.45C83.6764 110.462 84.1352 116.188 85.3171 131.777C85.9358 139.937 85.9845 151.868 85.9984 161.509Z" fill="#455A64"/>
<path d="M72.8447 96.6533C73.2062 99.909 73.5399 103.165 73.8458 106.427L74.3047 111.297L74.7149 116.166L74.5758 115.923C76.5641 117.21 78.5594 118.476 80.5407 119.784L80.7702 119.937L80.6728 120.187L77.8016 127.839V127.603C78.9278 130.01 80.0124 132.431 81.1178 134.845C82.2232 137.259 83.2938 139.714 84.3505 142.121C83.1408 139.763 81.9381 137.391 80.7632 135.012C79.5883 132.632 78.3995 130.26 77.2871 127.86L77.2385 127.749L77.2802 127.631L80.061 119.937L80.1931 120.34C78.2048 119.06 76.2374 117.745 74.256 116.445L74.1239 116.361V116.201L73.7555 111.332L73.4426 106.427C73.1923 103.181 72.993 99.9229 72.8447 96.6533Z" fill="#37474F"/>
<path d="M114.266 130.345C112.322 133.766 110.192 137.078 107.884 140.265C107.71 138.609 107.536 136.891 107.369 135.124C106.813 129.399 105.979 118.386 104.735 110.852C102.997 100.466 100.563 97.1272 95.4674 91.0542L94.2925 89.8994C94.2925 89.8994 99.4927 90.8733 104.401 91.5272C109.552 95.1099 111.492 102.331 112.104 108.139C112.716 113.948 113.8 124.919 114.19 129.705C114.231 129.872 114.245 130.101 114.266 130.345Z" fill="#455A64"/>
<path d="M98.9155 92.2568C100.295 93.5042 101.565 94.8681 102.711 96.3334C103.872 97.7915 104.938 99.3228 105.902 100.918C106.882 102.504 107.76 104.152 108.53 105.85C109.301 107.549 109.985 109.286 110.581 111.053L110.623 111.179L110.56 111.304L108.155 116.034V115.679L112.166 121.572L112.236 121.676V121.794L111.45 126.434L110.63 131.06C110.088 134.149 109.515 137.233 108.913 140.312C109.323 137.203 109.747 134.093 110.213 130.998L110.908 126.344L111.603 121.697L111.659 121.919L107.585 116.076L107.467 115.902L107.564 115.721L109.969 111.005V111.255C108.816 107.75 107.321 104.367 105.506 101.154C104.584 99.5527 103.576 98.0015 102.489 96.5073C101.409 95.0001 100.215 93.5791 98.9155 92.2568Z" fill="#37474F"/>
<path d="M78.198 85.0225C75.9177 81.3912 73.8251 78.2816 72.0941 75.0538C70.4255 71.9442 69.4244 69.5303 69.5496 66.5738C69.626 64.8277 70.6828 62.4416 71.9689 61.9199C70.356 55.4573 76.0707 52.7094 78.6499 52.0416C79.6371 51.7912 81.4308 51.6103 82.3693 51.346C83.0299 50.1859 83.9278 49.1785 85.0042 48.3894C86.5823 47.3042 89.9124 47.1164 91.4419 49.2103C92.5194 48.306 93.9307 47.9025 95.9746 48.3825C98.0186 48.8625 98.2689 50.2399 98.4287 51.2694C98.9038 50.98 99.4368 50.7991 99.9898 50.7394C100.543 50.6797 101.102 50.7428 101.628 50.9241C102.154 51.1055 102.633 51.4007 103.032 51.7886C103.431 52.1766 103.739 52.6477 103.935 53.1686C104.519 54.692 103.935 55.346 104.7 56.3964C105.589 57.572 107.237 57.5164 107.717 56.5494C108.03 58.219 107.397 59.5129 105.576 59.4503C105.893 59.9108 106.106 60.4355 106.198 60.9873C106.291 61.539 106.261 62.1044 106.111 62.6434C105.904 63.3171 105.497 63.912 104.945 64.3493C104.392 64.7866 103.72 65.0456 103.017 65.092C102.986 66.0364 102.703 66.9553 102.199 67.7539C101.694 68.5525 100.985 69.2017 100.146 69.6347C97.4207 71.026 94.3826 71.4781 91.428 72.146L87.9519 72.939C87.7503 72.9877 86.6866 73.0712 86.5615 73.252L78.198 85.0225Z" fill="#263238"/>
<path d="M73.9017 80.5497C76.5505 82.0732 78.2955 80.341 78.2955 80.341L78.1425 87.8679L78.0313 90.4488C78.0313 92.5358 80.7148 95.3184 84.0866 97.6279C88.5082 100.696 94.1742 105.524 95.071 106.317C95.3213 104.376 94.8068 97.1132 93.3399 94.4488L93.5346 88.6471C95.0174 88.6464 96.4987 88.5535 97.97 88.3688C99.4674 88.0833 100.847 87.3621 101.937 86.2954C103.026 85.2287 103.777 83.864 104.095 82.3723C104.952 78.1865 105.006 73.8758 104.255 69.6697C104.04 68.6622 103.969 67.6292 104.046 66.6019C104.276 63.8749 103.761 62.3027 103.017 60.0279C99.7498 57.4888 90.6355 57.1132 83.7738 61.461C85.3241 64.974 84.469 68.5914 81.4795 70.2192C81.6394 71.3323 81.8272 74.1497 79.9918 74.1288C78.6709 74.1288 78.5527 72.4592 77.2109 71.0262C75.8692 69.5932 72.6573 69.2523 71.4685 71.4297C69.7721 74.4697 71.0374 78.8871 73.9017 80.5497Z" fill="#FFA8A7"/>
<path d="M93.5346 88.6746C88.8836 88.2085 85.3519 87.7702 82.877 84.452C81.7209 82.7426 80.7513 80.9142 79.9849 78.998C79.9849 78.998 80.5271 83.1024 82.0705 85.8572C83.2802 87.9859 86.1792 89.7181 93.4651 90.2189L93.5346 88.6746Z" fill="#F28F8F"/>
<path d="M102.545 66.2605L99.6108 64.9388C99.6864 64.7417 99.8018 64.5623 99.9497 64.4117C100.098 64.2612 100.275 64.1427 100.471 64.0638C100.666 63.9848 100.876 63.947 101.087 63.9527C101.298 63.9584 101.505 64.0076 101.696 64.0971C102.087 64.2808 102.393 64.6074 102.551 65.0098C102.709 65.4122 102.706 65.8598 102.545 66.2605Z" fill="#263238"/>
<path d="M102.92 69.892C102.91 70.1743 102.818 70.4474 102.654 70.6776C102.491 70.9078 102.263 71.0848 102 71.1865C101.737 71.2883 101.45 71.3104 101.174 71.25C100.898 71.1896 100.646 71.0495 100.45 70.847C100.253 70.6445 100.12 70.3885 100.068 70.1111C100.015 69.8336 100.045 69.5468 100.154 69.2864C100.264 69.026 100.447 68.8034 100.681 68.6464C100.916 68.4894 101.192 68.4048 101.474 68.4033C101.667 68.4051 101.857 68.4452 102.035 68.5211C102.212 68.5971 102.373 68.7075 102.507 68.8459C102.642 68.9844 102.747 69.1481 102.818 69.3276C102.889 69.5072 102.924 69.699 102.92 69.892Z" fill="#263238"/>
<path d="M92.0812 70.2398C92.0703 70.5217 91.9769 70.7941 91.8126 71.0234C91.6483 71.2526 91.4203 71.4285 91.157 71.5292C90.8937 71.6299 90.6066 71.651 90.3314 71.5899C90.0561 71.5288 89.8049 71.3881 89.6089 71.1854C89.4129 70.9826 89.2807 70.7267 89.2287 70.4495C89.1768 70.1722 89.2074 69.8858 89.3167 69.6258C89.426 69.3657 89.6092 69.1436 89.8436 68.9868C90.078 68.8301 90.3533 68.7457 90.6352 68.7441C91.0243 68.7533 91.3941 68.9153 91.6647 69.1952C91.9354 69.4751 92.085 69.8504 92.0812 70.2398Z" fill="#263238"/>
<path d="M100.271 75.4568L95.5229 76.9316L95.1753 67.8881C96.9203 67.5125 98.5957 71.8325 100.271 75.4568Z" fill="#F28F8F"/>
<path d="M91.0523 65.6277L88.1115 66.9495C87.9449 66.5451 87.94 66.0921 88.0979 65.6842C88.2558 65.2763 88.5643 64.9447 88.9597 64.7582C89.1534 64.6714 89.3627 64.6251 89.5748 64.6222C89.787 64.6193 89.9975 64.6598 90.1935 64.7412C90.3894 64.8227 90.5667 64.9433 90.7144 65.0957C90.8621 65.2482 90.9771 65.4292 91.0523 65.6277Z" fill="#263238"/>
<path d="M91.7685 78.4072L97.1564 79.889C97.0753 80.2489 96.9224 80.5887 96.7069 80.8881C96.4914 81.1875 96.2176 81.4403 95.9021 81.6313C95.5866 81.8222 95.2359 81.9475 94.8708 81.9996C94.5057 82.0516 94.134 82.0294 93.7777 81.9342C93.0523 81.72 92.4379 81.2331 92.0633 80.5756C91.6887 79.918 91.5831 79.141 91.7685 78.4072Z" fill="#B16668"/>
<path d="M92.3803 79.3316C92.1492 79.3061 91.9161 79.3061 91.6851 79.3316C91.7133 79.9334 91.9299 80.5111 92.3041 80.9829C92.6784 81.4548 93.1914 81.797 93.7707 81.9612C94.0609 82.0368 94.3614 82.065 94.6606 82.0447C94.7021 81.3858 94.4883 80.7363 94.0636 80.231C93.639 79.7258 93.0361 79.4037 92.3803 79.3316Z" fill="#F28F8F"/>
<path d="M108.308 79.9864C108.22 80.7634 107.853 81.482 107.275 82.0081C106.697 82.5342 105.947 82.8318 105.166 82.8455C104.902 82.866 104.637 82.866 104.373 82.8455L104.422 82.3794C106.556 82.5881 107.696 81.2733 107.842 79.9585C108.009 78.5255 107.091 76.8559 104.776 76.0838C104.776 75.9168 104.776 75.7498 104.776 75.5898C107.446 76.3968 108.503 78.3307 108.308 79.9864Z" fill="#455A64"/>
<path d="M103.392 84.0899L101.376 83.8047C100.961 83.746 100.586 83.5249 100.333 83.1897C100.08 82.8546 99.9702 82.4328 100.028 82.0169C100.086 81.6011 100.307 81.2255 100.642 80.9725C100.977 80.7195 101.399 80.6098 101.814 80.6673L103.837 80.9525C104.253 81.0128 104.628 81.2356 104.879 81.5721C105.131 81.9087 105.239 82.3313 105.179 82.7473C105.119 83.1618 104.897 83.5356 104.562 83.7872C104.228 84.0387 103.807 84.1476 103.392 84.0899Z" fill="#263238"/>
<path d="M95.071 106.317C95.516 104.174 97.0385 102.762 98.0187 102.609C100.522 102.219 101.995 105.204 101.995 105.204C101.995 105.204 101.731 97.8646 97.8241 93.5167C94.2229 89.4959 93.5138 89.002 93.5138 89.002L93.333 94.4489C93.9284 95.9073 94.3214 97.4404 94.501 99.0054C94.8579 101.427 95.0483 103.869 95.071 106.317Z" fill="#E0E0E0"/>
<path d="M78.0732 89.5654C76.7453 90.1498 76.794 91.8959 73.0815 94.0663C74.1542 97.4188 75.9348 100.501 78.3027 103.105C80.6705 105.708 83.5702 107.772 86.8051 109.155C87.5003 107.068 87.5976 105.628 89.5025 104.745C91.4074 103.861 95.0642 106.317 95.0642 106.317C94.5174 105.383 93.825 104.542 93.0133 103.826C88.1121 100.167 86.8537 99.235 84.3857 97.4541C77.8229 92.7098 78.0245 90.4489 78.0245 90.4489L78.0732 89.5654Z" fill="#E0E0E0"/>
<path d="M76.4809 72.1876L72.7476 71.4502C72.7476 71.4502 72.3792 64.3545 73.13 60.605C73.8252 57.1267 75.8135 54.0171 77.8296 52.8206C79.2141 51.9953 80.7649 51.4892 82.3694 51.3389C81.5969 51.6373 80.8747 52.0525 80.2281 52.5702C79.4425 53.1963 76.8216 56.1876 76.328 62.0032C76.0281 65.3942 76.0793 68.8071 76.4809 72.1876Z" fill="#455A64"/>
<path d="M80.2769 79.5751C80.7029 77.8179 80.7149 75.9856 80.3119 74.223C79.9089 72.4604 79.102 70.8156 77.9549 69.4185C77.3943 68.779 76.6748 68.299 75.8692 68.0272C75.3761 67.8722 74.8508 67.8506 74.3467 67.9646L72.6573 68.3681C71.5033 68.6464 70.5717 69.6898 70.0711 71.3107C69.6444 73.0683 69.6327 74.9013 70.037 76.6642C70.4412 78.4271 71.2503 80.0716 72.4001 81.4672C72.9589 82.1088 73.679 82.5892 74.4857 82.8585C74.983 83.0183 75.5147 83.0375 76.0222 82.9142L77.6907 82.5246C78.8378 82.2464 79.7902 81.2029 80.2769 79.5751Z" fill="#37474F"/>
<path d="M74.5136 82.8587C73.7068 82.5893 72.9867 82.1089 72.4279 81.4674C71.2781 80.0717 70.469 78.4273 70.0648 76.6643C69.6605 74.9014 69.6722 73.0685 70.099 71.3108C70.7942 69.0082 72.4071 67.8743 74.2216 68.4308C75.0279 68.7012 75.7478 69.1814 76.3072 69.8222C77.457 71.2178 78.2661 72.8623 78.6704 74.6252C79.0746 76.3881 79.0629 78.2211 78.6362 79.9787C77.9062 82.2813 76.2933 83.4152 74.5136 82.8587Z" fill="#263238"/>
<path d="M78.2467 79.8675C78.6605 78.1731 78.6737 76.4055 78.285 74.7052C77.8964 73.0049 77.1168 71.4187 76.0081 70.0727C74.9235 68.8971 73.7625 68.4657 72.7475 68.6814L71.9133 68.8762C70.9052 69.1197 70.0501 70.031 69.5843 71.5684C69.172 73.2633 69.1602 75.0311 69.55 76.7314C69.9398 78.4316 70.7204 80.0175 71.8299 81.3631C72.9074 82.5318 74.0754 82.9701 75.0835 82.7545L75.9247 82.5597C76.9327 82.3162 77.7878 81.4049 78.2467 79.8675Z" fill="#F0F0F0"/>
<path d="M75.1671 70.268C76.2769 71.6148 77.0571 73.2021 77.4458 74.9038C77.8344 76.6054 77.8207 78.3744 77.4057 80.0698C76.488 83.1376 73.9853 83.7359 71.844 81.3915C70.7346 80.0459 69.954 78.46 69.5642 76.7597C69.1744 75.0595 69.1861 73.2917 69.5985 71.5967C70.5092 68.5011 73.005 67.9306 75.1671 70.268Z" fill="#E0E0E0"/>
<path d="M77.4055 80.0698C77.8205 78.3744 77.8342 76.6055 77.4456 74.9039C77.057 73.2022 76.2767 71.6148 75.167 70.2681C74.0894 69.0994 72.9214 68.6681 71.9134 68.8768C71.6353 68.9464 71.1139 69.1064 70.8358 69.1759C69.8277 69.4125 68.9726 70.3307 68.5068 71.8612C68.0842 73.5654 68.0672 75.3452 68.4572 77.0572C68.8472 78.7693 69.6333 80.3659 70.7523 81.7185C71.8299 82.8872 72.9909 83.3255 73.999 83.1098C74.284 83.0403 74.7985 82.8803 75.0835 82.8107C76.0916 82.5185 76.9467 81.6003 77.4055 80.0698Z" fill="#E8B600"/>
<path opacity="0.15" d="M74.0894 70.5875C75.1989 71.9345 75.9795 73.5216 76.3693 75.223C76.7591 76.9244 76.7473 78.6932 76.3349 80.3893C75.4103 83.4571 72.9145 84.0554 70.7732 81.711C69.6638 80.3654 68.8832 78.7795 68.4934 77.0792C68.1036 75.379 68.1153 73.6112 68.5277 71.9162C69.4314 68.8206 71.9273 68.2223 74.0894 70.5875Z" fill="white"/>
<path d="M72.692 73.4537C73.2749 74.1595 73.6847 74.992 73.8887 75.8847C74.0927 76.7773 74.0852 77.7053 73.8669 78.5945C73.3872 80.2084 72.0732 80.5215 70.94 79.2902C70.3578 78.5838 69.948 77.7516 69.7428 76.8593C69.5377 75.967 69.5429 75.0392 69.7582 74.1493C70.2448 72.5354 71.5588 72.2224 72.692 73.4537Z" fill="#263238"/>
<path d="M73.6095 75.3602L71.6838 76.4037L70.8564 72.7654C71.1766 72.7182 71.5035 72.7578 71.8031 72.8802C72.1028 73.0026 72.364 73.2032 72.5597 73.4611C73.0395 74.013 73.3972 74.6602 73.6095 75.3602Z" fill="#455A64"/>
<path d="M73.7419 78.6293C73.6776 78.9481 73.5307 79.2444 73.3159 79.4886C73.1012 79.7327 72.8262 79.9162 72.5183 80.0206L71.6841 76.3823L73.6098 75.3389C73.9709 76.3998 74.0168 77.5428 73.7419 78.6293Z" fill="#37474F"/>
<path d="M72.5182 80.0412C72.197 80.0883 71.8692 80.0486 71.5685 79.9263C71.2678 79.804 71.0052 79.6035 70.808 79.3456C70.3304 78.8011 69.9749 78.1607 69.7651 77.4673L71.6839 76.4238L72.5182 80.0412Z" fill="#455A64"/>
<path d="M71.6841 76.4035L69.7653 77.447C69.4015 76.3937 69.3556 75.2566 69.6332 74.1774C69.6963 73.8581 69.8427 73.5611 70.0576 73.3167C70.2725 73.0724 70.5483 72.8893 70.8568 72.7861L71.6841 76.4035Z" fill="#37474F"/>
<path d="M68.3329 121.155L62.8685 145.022C62.8685 145.022 62.6738 148.647 62.5487 156.848C62.4792 160.869 62.3401 164.334 62.4374 167.708C60.3768 167.377 58.3762 166.744 56.5003 165.829C52.0023 163.617 48.4219 159.861 45.8914 154.824C45.1251 150.776 44.7387 146.666 44.7373 142.546C44.7373 140 45.5785 134.782 48.4567 122.713C51.3349 110.643 52.051 106.928 53.8168 103.77C55.2698 101.175 57.6961 98.6085 63.7305 97.252C71.649 102.622 68.3329 121.155 68.3329 121.155Z" fill="#37474F"/>
<path d="M56.2636 61.0158C59.6145 63.3184 61.8253 67.6036 62.0686 73.3149C62.5761 84.7514 55.1165 97.5932 45.3835 102.004C40.517 104.209 36.0189 103.889 32.668 101.586L26.9325 97.6488C23.5816 95.3462 21.3708 91.0679 21.1275 85.3497C20.62 73.9132 28.0796 61.0714 37.8126 56.661C42.6791 54.4558 47.1702 54.7758 50.5211 57.0784L56.2636 61.0158Z" fill="#263238"/>
<path d="M56.4376 92.0623C60.1292 86.4971 62.3261 79.6936 62.041 73.2797C61.7908 67.5684 59.5939 63.2832 56.243 60.9806L50.5005 57.0432C47.1496 54.7406 42.6515 54.4206 37.792 56.6258C32.3624 59.0884 27.6419 64.1736 24.6177 70.1841L56.4376 92.0623Z" fill="#37474F"/>
<path d="M45.3905 102.058C40.524 104.264 36.0329 103.944 32.682 101.641C29.3311 99.3384 27.1203 95.0601 26.877 89.3419C26.3695 77.9053 33.8291 65.0636 43.5621 60.6532C48.4286 58.448 52.9197 58.7679 56.2706 61.0706C59.6215 63.3732 61.8323 67.6514 62.0756 73.3697C62.5762 84.7993 55.1096 97.6479 45.3905 102.058Z" fill="#455A64"/>
<path fill-rule="evenodd" clip-rule="evenodd" d="M43.0891 69.9547C43.0474 68.7443 42.6442 68.8208 42.3939 68.7443C42.1436 68.6678 41.8586 68.6052 41.5666 68.5495C41.3139 68.5109 41.0556 68.5337 40.8136 68.616C40.5716 68.6984 40.3529 68.8378 40.1761 69.0226C38.7519 70.1708 37.7473 71.7582 37.3188 73.5374C36.8438 75.6449 36.8867 77.8362 37.4439 79.9234C37.5552 80.3617 38.7927 86.8382 42.4703 90.2887C43.1473 90.9223 43.8674 91.508 44.6255 92.0417C45.4126 92.5925 46.3559 92.8754 47.316 92.8487C48.0446 92.7774 48.7504 92.5551 49.3884 92.1958C50.0264 91.8364 50.5826 91.348 51.0215 90.7617C51.5516 89.9438 51.8979 89.0205 52.0365 88.0556C51.9948 87.7913 51.7445 87.5826 51.3899 87.2C51.0354 86.8174 49.3043 84.953 48.9289 84.6747C48.5535 84.3965 48.3171 84.2365 47.8722 84.7513C47.4272 85.2661 46.2245 86.4 45.863 86.7339C45.5015 87.0678 45.2303 87.0608 44.8758 86.6713C43.7309 85.6614 42.8077 84.4249 42.1645 83.04C41.5187 81.5933 41.0742 80.0649 40.8435 78.4974C40.8038 78.2767 40.8324 78.0491 40.9256 77.8452C41.0188 77.6413 41.1721 77.4707 41.365 77.3565C41.6291 77.1408 41.9907 76.7721 42.2965 76.48C42.5617 76.216 42.795 75.9218 42.9918 75.6034C43.0989 75.4529 43.175 75.2824 43.2156 75.102C43.2562 74.9217 43.2605 74.735 43.2281 74.553C43.2281 74.24 43.1308 71.193 43.0891 69.9547Z" fill="white"/>
<path d="M114.14 31.7144C116.984 27.5405 124.568 24.1318 133.996 24.0622C142.554 23.9857 152.968 26.497 155.547 34.7266C157.765 41.7388 150.931 48.257 143.84 49.6414C141.017 50.1961 138.151 50.501 135.275 50.5527C133.961 53.0083 130.881 54.5179 128.559 54.6779C129.555 53.4562 130.098 51.9274 130.095 50.3509C127.881 50.1478 125.685 49.7781 123.526 49.2448C111.213 46.1422 110.942 36.3544 114.14 31.7144Z" fill="#E8B600"/>
<path d="M143.603 37.1966C143.602 37.7032 143.751 38.1989 144.031 38.6208C144.311 39.0427 144.71 39.3719 145.178 39.5667C145.645 39.7615 146.16 39.8132 146.656 39.7152C147.153 39.6172 147.61 39.374 147.968 39.0162C148.327 38.6585 148.571 38.2023 148.67 37.7056C148.77 37.2088 148.719 36.6937 148.526 36.2255C148.332 35.7573 148.004 35.3571 147.584 35.0755C147.163 34.7939 146.668 34.6436 146.162 34.6436C145.484 34.6436 144.835 34.9123 144.355 35.3909C143.875 35.8695 143.605 36.5189 143.603 37.1966ZM131.645 37.1966C131.645 37.7016 131.795 38.1952 132.075 38.615C132.356 39.0348 132.754 39.3621 133.22 39.5553C133.687 39.7485 134.2 39.7991 134.695 39.7006C135.19 39.6021 135.644 39.3589 136.001 39.0019C136.358 38.6448 136.601 38.1899 136.699 37.6947C136.798 37.1994 136.747 36.6861 136.554 36.2196C136.361 35.7531 136.034 35.3544 135.614 35.0738C135.195 34.7933 134.702 34.6436 134.197 34.6436C133.52 34.6436 132.871 34.9125 132.393 35.3913C131.914 35.8701 131.645 36.5195 131.645 37.1966ZM119.702 37.1966C119.7 37.7035 119.849 38.1994 120.13 38.6215C120.411 39.0435 120.81 39.3727 121.278 39.5674C121.746 39.762 122.261 39.8133 122.757 39.7147C123.254 39.6161 123.711 39.3722 124.069 39.0137C124.427 38.6553 124.671 38.1985 124.77 37.7013C124.868 37.204 124.817 36.6887 124.622 36.2207C124.428 35.7526 124.099 35.3529 123.677 35.0721C123.255 34.7913 122.76 34.6422 122.253 34.6436C121.576 34.6436 120.927 34.9125 120.449 35.3913C119.97 35.8701 119.702 36.5195 119.702 37.1966Z" fill="white"/>
</g>
<defs>
<clipPath id="clip0_2435_2724">
<rect width="320" height="316" fill="white"/>
</clipPath>
</defs>
</svg>
