<svg preserveAspectRatio="none" width="100%" height="100%" overflow="visible" style="display: block;" viewBox="0 0 40 40" fill="none" xmlns="http://www.w3.org/2000/svg">
<g id="facebook 1" clip-path="url(#clip0_0_20)">
<path id="Vector" d="M20.0098 -0.0244141C20.0874 -0.0242457 20.1651 -0.0240773 20.2451 -0.0239038C21.3755 -0.0199713 22.4833 0.00324085 23.5937 0.234375C23.67 0.249897 23.7463 0.265418 23.8249 0.28141C27.6046 1.07218 31.0411 2.78441 33.8281 5.46875C33.9054 5.54283 33.9054 5.54283 33.9842 5.6184C34.7255 6.33281 35.4083 7.05917 36.0156 7.89062C36.0827 7.98055 36.1497 8.07048 36.2167 8.1604C36.6885 8.80034 37.1071 9.46547 37.5 10.1562C37.5285 10.2056 37.5569 10.255 37.5863 10.3058C39.2655 13.2397 40.0372 16.5727 40.0244 19.9316C40.0242 20.0481 40.0242 20.0481 40.024 20.1669C40.0205 21.2992 39.9845 22.4017 39.7656 23.5156C39.753 23.5856 39.7405 23.6556 39.7275 23.7276C39.1112 27.1344 37.5729 30.3483 35.3125 32.9687C35.2629 33.027 35.2134 33.0852 35.1624 33.1451C34.2396 34.2002 33.2435 35.1902 32.1094 36.0156C32.0195 36.0825 31.9297 36.1495 31.8399 36.2164C31.1999 36.6884 30.5346 37.107 29.8437 37.5C29.7944 37.5285 29.745 37.557 29.6942 37.5863C27.6607 38.7502 25.3624 39.5037 23.0469 39.8437C22.9529 39.8575 22.859 39.8713 22.7622 39.8856C21.8469 40.0109 20.9376 40.0313 20.0146 40.0293C19.9375 40.0292 19.8605 40.0292 19.781 40.0291C14.7065 40.0143 9.83041 38.0549 6.17187 34.5312C6.12036 34.4819 6.06885 34.4325 6.01578 34.3816C5.27451 33.6672 4.5917 32.9408 3.98437 32.1094C3.91734 32.0194 3.8503 31.9295 3.78326 31.8396C3.31153 31.1997 2.89289 30.5345 2.5 29.8437C2.47152 29.7944 2.44305 29.745 2.41371 29.6942C1.24729 27.6563 0.506729 25.3644 0.156249 23.0469C0.135553 22.9153 0.135553 22.9153 0.11444 22.7811C-0.0150057 21.8739 -0.0311523 20.9741 -0.029298 20.0586C-0.0292556 19.9795 -0.0292131 19.9005 -0.0291693 19.819C-0.0259859 18.5273 0.0461809 17.2835 0.312499 16.0156C0.328826 15.9363 0.345153 15.857 0.361975 15.7753C1.04775 12.5478 2.53233 9.52965 4.6875 7.03125C4.73705 6.97304 4.7866 6.91483 4.83764 6.85486C5.76039 5.79978 6.75653 4.80983 7.89062 3.98438C7.98046 3.91746 8.07029 3.85053 8.16009 3.78357C8.80007 3.31165 9.46535 2.89296 10.1562 2.5C10.2056 2.47152 10.255 2.44305 10.3058 2.41371C12.3395 1.24972 14.6375 0.496605 16.9531 0.15625C17.0936 0.13547 17.0936 0.13547 17.2369 0.114269C18.1608 -0.0129599 19.0782 -0.028049 20.0098 -0.0244141ZM18.8089 11.3501C17.6548 12.694 17.6193 14.2999 17.6416 15.9766C17.6428 16.1327 17.6438 16.2889 17.6448 16.445C17.6474 16.8227 17.6514 17.2004 17.6562 17.5781C17.5841 17.5769 17.512 17.5757 17.4376 17.5744C17.1699 17.5704 16.9022 17.5675 16.6344 17.5653C16.5185 17.5641 16.4026 17.5625 16.2868 17.5604C16.1202 17.5576 15.9537 17.5563 15.787 17.5552C15.6868 17.554 15.5866 17.5528 15.4833 17.5515C15.2405 17.5559 15.2405 17.5559 15.1036 17.6767C14.9766 17.8432 14.97 17.9289 14.9684 18.1366C14.9674 18.2015 14.9664 18.2664 14.9654 18.3333C14.9657 18.4031 14.9659 18.473 14.9661 18.5449C14.9657 18.6169 14.9653 18.6888 14.9649 18.7629C14.9644 18.915 14.9645 19.0671 14.9652 19.2192C14.9658 19.4523 14.9636 19.6852 14.9611 19.9182C14.961 20.0659 14.961 20.2136 14.9612 20.3613C14.9604 20.4312 14.9595 20.501 14.9586 20.5729C14.9593 20.6378 14.96 20.7028 14.9608 20.7697C14.9608 20.8267 14.9608 20.8838 14.9608 20.9426C14.9901 21.1043 14.9901 21.1043 15.1247 21.2298C15.3785 21.3627 15.5699 21.3546 15.8557 21.351C15.9331 21.3505 15.9331 21.3505 16.012 21.35C16.176 21.3487 16.3399 21.3458 16.5039 21.3428C16.6154 21.3416 16.7269 21.3405 16.8384 21.3396C17.111 21.337 17.3836 21.3329 17.6562 21.3281C17.6557 21.393 17.6557 21.393 17.6552 21.4592C17.6465 22.5116 17.6401 23.5639 17.636 24.6163C17.634 25.1252 17.6312 25.6341 17.6268 26.1431C17.6225 26.6339 17.6202 27.1247 17.6192 27.6156C17.6185 27.8032 17.617 27.9907 17.6149 28.1783C17.6121 28.4404 17.6117 28.7024 17.6119 28.9645C17.6105 29.0425 17.6091 29.1206 17.6076 29.201C17.6091 29.397 17.6136 29.5744 17.6562 29.7656C17.9666 30.0526 18.3051 30.0321 18.7091 30.0256C18.7722 30.0255 18.8352 30.0253 18.9002 30.0252C19.0329 30.0247 19.1657 30.0236 19.2985 30.022C19.5018 30.0195 19.7051 30.0188 19.9084 30.0183C20.0376 30.0176 20.1668 30.0168 20.296 30.0159C20.3872 30.0154 20.3872 30.0154 20.4802 30.0149C20.7305 30.0115 20.9328 30.0016 21.1719 29.9219C21.2636 29.7384 21.2596 29.631 21.2594 29.4265C21.2595 29.3553 21.2596 29.2841 21.2597 29.2107C21.2594 29.1324 21.2592 29.0541 21.2589 28.9734C21.2589 28.891 21.2589 28.8087 21.2589 28.7239C21.2588 28.4508 21.2582 28.1777 21.2576 27.9047C21.2575 27.7157 21.2574 27.5268 21.2573 27.3378C21.257 26.8397 21.2562 26.3417 21.2554 25.8436C21.2546 25.3356 21.2542 24.8277 21.2538 24.3198C21.253 23.3225 21.2517 22.3253 21.25 21.3281C21.343 21.3298 21.4361 21.3314 21.5319 21.3331C21.8773 21.3387 22.2226 21.3423 22.568 21.3453C22.7174 21.3469 22.8669 21.349 23.0163 21.3517C23.2312 21.3555 23.446 21.3573 23.6609 21.3586C23.7276 21.3603 23.7944 21.3619 23.8631 21.3635C24.2439 21.365 24.2439 21.365 24.5719 21.1848C24.7266 20.9584 24.7522 20.7742 24.7864 20.5026C24.7995 20.4018 24.8126 20.3009 24.826 20.197C24.8352 20.1182 24.8352 20.1182 24.8446 20.0379C24.863 19.8801 24.8834 19.7227 24.9042 19.5653C25.0985 18.593 25.0985 18.593 24.9029 17.6864C24.7285 17.5488 24.6367 17.5497 24.4163 17.5515C24.3107 17.5515 24.3107 17.5515 24.2031 17.5516C24.1274 17.5528 24.0517 17.554 23.9737 17.5552C23.8571 17.5557 23.8571 17.5557 23.7382 17.5562C23.4899 17.5576 23.2415 17.5605 22.9932 17.5635C22.8249 17.5647 22.6566 17.5657 22.4882 17.5667C22.0755 17.5693 21.6627 17.5732 21.25 17.5781C21.2574 17.2016 21.2657 16.825 21.2748 16.4485C21.2778 16.3207 21.2805 16.1929 21.283 16.065C21.3085 14.7587 21.3085 14.7587 21.4844 14.1406C21.5053 14.0649 21.5263 13.9892 21.5478 13.9111C21.6761 13.6884 21.7866 13.6644 22.0312 13.5937C22.1048 13.5673 22.1783 13.5408 22.254 13.5135C22.777 13.3637 23.3473 13.4093 23.8866 13.407C24.0188 13.4043 24.0188 13.4043 24.1537 13.4015C24.2737 13.4005 24.2737 13.4005 24.3961 13.3995C24.6149 13.3725 24.6149 13.3725 24.7917 13.2393C24.9711 12.9741 24.9654 12.7358 24.9606 12.4265C24.9608 12.3369 24.9608 12.3369 24.961 12.2456C24.9608 12.1197 24.9599 11.9938 24.9583 11.8679C24.9561 11.6752 24.9567 11.4826 24.9577 11.2898C24.9572 11.1674 24.9566 11.045 24.9557 10.9225C24.956 10.8649 24.9562 10.8073 24.9564 10.7479C24.9515 10.4361 24.9515 10.4361 24.8172 10.1621C23.3171 9.1913 19.9436 10.1976 18.8089 11.3501Z" fill="var(--fill-0, #E8B600)"/>
</g>
<defs>
<clipPath id="clip0_0_20">
<rect width="40" height="40" fill="white"/>
</clipPath>
</defs>
</svg>
