<svg width="21" height="24" viewBox="0 0 21 24" fill="none" xmlns="http://www.w3.org/2000/svg">
<path d="M12.2416 5.79926L13.1107 5.44226C13.8166 5.16226 14.7289 4.87643 15.8057 5.05726C18.0119 5.42826 19.5332 6.61943 20.4397 8.1991C20.7897 8.8081 20.5074 9.61076 19.8541 9.86626C19.2944 10.0852 18.8159 10.4717 18.4841 10.9728C18.1524 11.4739 17.9834 12.0652 18.0004 12.666C18.0174 13.2668 18.2194 13.8476 18.579 14.3292C18.9386 14.8108 19.4381 15.1696 20.0092 15.3566C20.6136 15.5549 20.9542 16.2258 20.7559 16.8301C20.2402 18.3958 19.4982 19.8413 18.6197 21.0079C17.7517 22.1606 16.6924 23.1173 15.5129 23.5851C14.7429 23.8884 13.9169 23.7753 13.1271 23.5793L12.6581 23.4544L11.9616 23.2526C11.6454 23.1604 11.3199 23.0811 11.0002 23.0811C10.6794 23.0811 10.3551 23.1604 10.0389 23.2526L9.34241 23.4544L8.87341 23.5793C8.08357 23.7753 7.25641 23.8896 6.48757 23.5851C5.00241 22.9971 3.69224 21.6251 2.70174 20.0069C1.63074 18.2243 0.923352 16.2473 0.620406 14.1899C0.355572 12.3769 0.499072 10.3411 1.33791 8.6191C2.20124 6.8446 3.78324 5.46326 6.19474 5.05726C7.17474 4.89276 8.01707 5.11326 8.69141 5.36643L9.07757 5.5181L9.75891 5.79926C10.2256 5.98243 10.5931 6.08976 11.0002 6.08976C11.4062 6.08976 11.7749 5.98243 12.2416 5.79926ZM10.7296 1.22943C11.8682 0.0895964 13.6171 -0.00840339 14.0289 0.404597C14.4419 0.81643 14.3439 2.56526 13.2041 3.70393C12.0654 4.8426 10.3166 4.9406 9.90474 4.52876C9.49174 4.11693 9.58974 2.3681 10.7296 1.22943Z" fill="black" fill-opacity="0.8"/>
</svg>
