<svg width="40" height="40" viewBox="0 0 40 40" fill="none" xmlns="http://www.w3.org/2000/svg">
<g clip-path="url(#clip0_1819_29182)">
<path d="M20.0098 -0.0244372C20.0875 -0.0242689 20.1651 -0.0241005 20.2452 -0.023927C21.3755 -0.0199945 22.4834 0.00321767 23.5938 0.234352C23.67 0.249873 23.7463 0.265395 23.8249 0.281387C27.6046 1.07215 31.0411 2.78438 33.8281 5.46873C33.9054 5.5428 33.9054 5.5428 33.9842 5.61838C34.7255 6.33279 35.4083 7.05914 36.0156 7.8906C36.0827 7.98053 36.1497 8.07045 36.2167 8.16038C36.6885 8.80031 37.1071 9.46545 37.5 10.1562C37.5285 10.2056 37.557 10.2549 37.5863 10.3058C39.2656 13.2397 40.0372 16.5727 40.0244 19.9316C40.0242 20.048 40.0242 20.048 40.024 20.1668C40.0205 21.2992 39.9845 22.4016 39.7656 23.5156C39.7531 23.5856 39.7405 23.6555 39.7275 23.7276C39.1112 27.1344 37.5729 30.3483 35.3125 32.9687C35.263 33.0269 35.2134 33.0851 35.1624 33.1451C34.2396 34.2002 33.2435 35.1901 32.1094 36.0156C32.0195 36.0825 31.9297 36.1495 31.8399 36.2164C31.1999 36.6883 30.5347 37.107 29.8438 37.5C29.7944 37.5285 29.745 37.5569 29.6942 37.5863C27.6607 38.7502 25.3624 39.5037 23.0469 39.8437C22.9529 39.8575 22.859 39.8713 22.7622 39.8855C21.8469 40.0108 20.9376 40.0313 20.0147 40.0293C19.9376 40.0292 19.8605 40.0291 19.781 40.0291C14.7065 40.0143 9.83042 38.0549 6.17188 34.5312C6.12037 34.4818 6.06886 34.4325 6.01579 34.3816C5.27452 33.6672 4.59171 32.9408 3.98439 32.1094C3.91735 32.0194 3.85031 31.9295 3.78327 31.8396C3.31154 31.1996 2.8929 30.5345 2.50001 29.8437C2.47153 29.7944 2.44306 29.745 2.41372 29.6942C1.2473 27.6563 0.506741 25.3644 0.15626 23.0469C0.135565 22.9153 0.135565 22.9153 0.114451 22.7811C-0.0149943 21.8738 -0.0311409 20.9741 -0.0292866 20.0586C-0.0292441 19.9795 -0.0292016 19.9004 -0.0291579 19.819C-0.0259745 18.5272 0.0461924 17.2835 0.31251 16.0156C0.328838 15.9363 0.345165 15.857 0.361987 15.7752C1.04776 12.5477 2.53234 9.52962 4.68751 7.03123C4.73706 6.97302 4.78661 6.91481 4.83766 6.85484C5.7604 5.79976 6.75654 4.80981 7.89063 3.98435C7.98047 3.91744 8.0703 3.8505 8.1601 3.78355C8.80008 3.31162 9.46536 2.89294 10.1563 2.49998C10.2056 2.4715 10.255 2.44303 10.3058 2.41369C12.3395 1.2497 14.6375 0.496582 16.9531 0.156227C17.0936 0.135446 17.0936 0.135446 17.2369 0.114246C18.1609 -0.012983 19.0783 -0.0280722 20.0098 -0.0244372ZM18.8089 11.3501C17.6548 12.694 17.6193 14.2998 17.6416 15.9765C17.6428 16.1327 17.6439 16.2888 17.6448 16.445C17.6474 16.8227 17.6514 17.2004 17.6563 17.5781C17.5841 17.5769 17.512 17.5756 17.4377 17.5744C17.1699 17.5704 16.9022 17.5674 16.6344 17.5652C16.5185 17.564 16.4027 17.5625 16.2868 17.5604C16.1202 17.5576 15.9537 17.5562 15.7871 17.5552C15.6868 17.554 15.5866 17.5528 15.4833 17.5515C15.2406 17.5559 15.2406 17.5559 15.1036 17.6767C14.9766 17.8432 14.97 17.9288 14.9684 18.1366C14.9675 18.2015 14.9665 18.2664 14.9654 18.3333C14.9657 18.4031 14.9659 18.473 14.9661 18.5449C14.9657 18.6168 14.9653 18.6888 14.9649 18.7629C14.9644 18.915 14.9645 19.0671 14.9652 19.2192C14.9658 19.4522 14.9636 19.6851 14.9611 19.9182C14.961 20.0659 14.961 20.2136 14.9613 20.3613C14.9604 20.4311 14.9595 20.501 14.9586 20.5729C14.9593 20.6378 14.9601 20.7027 14.9608 20.7696C14.9608 20.8267 14.9608 20.8838 14.9609 20.9426C14.9901 21.1043 14.9901 21.1043 15.1248 21.2297C15.3785 21.3627 15.57 21.3546 15.8557 21.351C15.9331 21.3505 15.9331 21.3505 16.012 21.35C16.176 21.3487 16.3399 21.3457 16.5039 21.3428C16.6154 21.3416 16.7269 21.3405 16.8384 21.3395C17.111 21.337 17.3836 21.3329 17.6563 21.3281C17.6557 21.393 17.6557 21.393 17.6552 21.4592C17.6465 22.5116 17.6401 23.5639 17.636 24.6163C17.634 25.1252 17.6312 25.6341 17.6268 26.143C17.6226 26.6339 17.6202 27.1247 17.6192 27.6156C17.6185 27.8031 17.6171 27.9907 17.615 28.1782C17.6121 28.4403 17.6117 28.7023 17.6119 28.9645C17.6105 29.0425 17.6091 29.1206 17.6077 29.201C17.6091 29.3969 17.6136 29.5744 17.6563 29.7656C17.9666 30.0526 18.3052 30.0321 18.7091 30.0256C18.7722 30.0255 18.8352 30.0253 18.9002 30.0252C19.033 30.0246 19.1657 30.0236 19.2985 30.0219C19.5018 30.0195 19.7051 30.0187 19.9085 30.0183C20.0376 30.0176 20.1668 30.0168 20.296 30.0158C20.3872 30.0153 20.3872 30.0153 20.4803 30.0148C20.7305 30.0115 20.9328 30.0015 21.1719 29.9219C21.2636 29.7384 21.2596 29.6309 21.2594 29.4265C21.2595 29.3553 21.2596 29.2841 21.2597 29.2107C21.2594 29.1324 21.2592 29.054 21.2589 28.9733C21.2589 28.891 21.2589 28.8087 21.2589 28.7239C21.2589 28.4508 21.2582 28.1777 21.2576 27.9046C21.2575 27.7157 21.2574 27.5267 21.2573 27.3378C21.257 26.8397 21.2562 26.3416 21.2554 25.8436C21.2546 25.3356 21.2542 24.8277 21.2538 24.3197C21.253 23.3225 21.2517 22.3253 21.25 21.3281C21.343 21.3297 21.4361 21.3314 21.5319 21.3331C21.8773 21.3387 22.2226 21.3423 22.568 21.3453C22.7174 21.3468 22.8669 21.349 23.0163 21.3517C23.2312 21.3555 23.446 21.3572 23.6609 21.3586C23.7276 21.3602 23.7944 21.3618 23.8631 21.3635C24.2439 21.365 24.2439 21.365 24.5719 21.1848C24.7266 20.9584 24.7522 20.7742 24.7864 20.5026C24.7995 20.4017 24.8126 20.3009 24.8261 20.197C24.8352 20.1182 24.8352 20.1182 24.8446 20.0379C24.863 19.8801 24.8834 19.7227 24.9042 19.5653C25.0985 18.593 25.0985 18.593 24.9029 17.6864C24.7285 17.5488 24.6367 17.5496 24.4163 17.5515C24.3108 17.5515 24.3108 17.5515 24.2031 17.5515C24.1274 17.5528 24.0517 17.554 23.9737 17.5552C23.8572 17.5557 23.8571 17.5557 23.7382 17.5562C23.4899 17.5575 23.2415 17.5605 22.9932 17.5635C22.8249 17.5646 22.6566 17.5657 22.4883 17.5667C22.0755 17.5692 21.6628 17.5732 21.25 17.5781C21.2574 17.2015 21.2657 16.825 21.2748 16.4485C21.2778 16.3207 21.2805 16.1928 21.283 16.065C21.3085 14.7586 21.3085 14.7586 21.4844 14.1406C21.5053 14.0649 21.5263 13.9891 21.5479 13.9111C21.6761 13.6884 21.7866 13.6644 22.0313 13.5937C22.1048 13.5672 22.1783 13.5408 22.254 13.5135C22.777 13.3637 23.3473 13.4093 23.8866 13.407C24.0188 13.4042 24.0188 13.4042 24.1538 13.4015C24.2737 13.4005 24.2737 13.4005 24.3961 13.3995C24.6149 13.3725 24.6149 13.3725 24.7917 13.2392C24.9711 12.9741 24.9654 12.7358 24.9606 12.4264C24.9608 12.3369 24.9608 12.3369 24.961 12.2455C24.9609 12.1197 24.96 11.9938 24.9583 11.8679C24.9561 11.6751 24.9567 11.4826 24.9577 11.2898C24.9573 11.1674 24.9566 11.0449 24.9558 10.9225C24.956 10.8649 24.9562 10.8073 24.9565 10.7479C24.9515 10.4361 24.9515 10.4361 24.8172 10.162C23.3171 9.19128 19.9436 10.1976 18.8089 11.3501Z" fill="#E8B600"/>
</g>
<defs>
<clipPath id="clip0_1819_29182">
<rect width="40" height="40" fill="white"/>
</clipPath>
</defs>
</svg>
