<svg width="40" height="40" viewBox="0 0 40 40" fill="none" xmlns="http://www.w3.org/2000/svg">
<g clip-path="url(#clip0_1819_29184)">
<path d="M20.0098 -0.0244372C20.0874 -0.0242689 20.1651 -0.0241005 20.2452 -0.023927C21.3755 -0.0199945 22.4834 0.00321766 23.5938 0.234352C23.67 0.249873 23.7463 0.265395 23.8249 0.281387C27.6046 1.07215 31.0411 2.78438 33.8281 5.46873C33.9054 5.5428 33.9054 5.5428 33.9842 5.61838C34.7255 6.33279 35.4083 7.05914 36.0156 7.8906C36.0827 7.98053 36.1497 8.07045 36.2167 8.16038C36.6885 8.80031 37.1071 9.46545 37.5 10.1562C37.5285 10.2056 37.557 10.2549 37.5863 10.3058C39.2656 13.2397 40.0372 16.5727 40.0244 19.9316C40.0242 20.048 40.0242 20.048 40.024 20.1668C40.0205 21.2992 39.9845 22.4016 39.7656 23.5156C39.7531 23.5856 39.7405 23.6555 39.7275 23.7276C39.1112 27.1344 37.5729 30.3483 35.3125 32.9687C35.263 33.0269 35.2134 33.0851 35.1624 33.1451C34.2396 34.2002 33.2435 35.1901 32.1094 36.0156C32.0195 36.0825 31.9297 36.1494 31.8399 36.2164C31.1999 36.6883 30.5347 37.107 29.8438 37.5C29.7944 37.5284 29.745 37.5569 29.6942 37.5863C27.6607 38.7502 25.3624 39.5037 23.0469 39.8437C22.9529 39.8575 22.859 39.8713 22.7622 39.8855C21.8469 40.0108 20.9376 40.0313 20.0147 40.0293C19.9376 40.0292 19.8605 40.0291 19.781 40.0291C14.7065 40.0143 9.83042 38.0549 6.17188 34.5312C6.12037 34.4818 6.06886 34.4325 6.01579 34.3816C5.27452 33.6672 4.59171 32.9408 3.98439 32.1093C3.91735 32.0194 3.85031 31.9295 3.78327 31.8396C3.31154 31.1996 2.8929 30.5345 2.50001 29.8437C2.47153 29.7944 2.44306 29.745 2.41372 29.6941C1.2473 27.6563 0.506741 25.3644 0.15626 23.0468C0.135565 22.9153 0.135565 22.9153 0.114451 22.7811C-0.0149943 21.8738 -0.0311409 20.9741 -0.0292866 20.0586C-0.0292441 19.9795 -0.0292016 19.9004 -0.0291579 19.819C-0.0259745 18.5272 0.0461924 17.2835 0.31251 16.0156C0.328838 15.9363 0.345165 15.857 0.361987 15.7752C1.04776 12.5477 2.53234 9.52962 4.68751 7.03123C4.73706 6.97302 4.78661 6.91481 4.83766 6.85483C5.7604 5.79976 6.75654 4.80981 7.89063 3.98435C7.98047 3.91744 8.0703 3.8505 8.1601 3.78355C8.80008 3.31162 9.46536 2.89294 10.1563 2.49998C10.2056 2.4715 10.255 2.44303 10.3058 2.41369C12.3395 1.2497 14.6376 0.496582 16.9531 0.156227C17.0936 0.135446 17.0936 0.135446 17.2369 0.114246C18.1609 -0.012983 19.0783 -0.0280722 20.0098 -0.0244372ZM11.4697 12.0459C10.054 13.7169 9.97482 15.7108 9.97926 17.7978C9.97915 17.9749 9.979 18.152 9.9788 18.3291C9.97858 18.6981 9.9789 19.0671 9.97964 19.4361C9.98053 19.9054 9.98002 20.3748 9.97908 20.8441C9.97851 21.2091 9.9787 21.5742 9.9791 21.9392C9.9792 22.1121 9.97908 22.285 9.97871 22.4579C9.9749 24.754 10.2283 26.64 11.8817 28.374C13.5291 29.9418 15.6519 30.0253 17.7979 30.0207C17.9749 30.0208 18.152 30.021 18.3291 30.0212C18.6981 30.0214 19.0671 30.0211 19.4361 30.0203C19.9055 30.0195 20.3748 30.02 20.8441 30.0209C21.2092 30.0215 21.5742 30.0213 21.9392 30.0209C22.1121 30.0208 22.2851 30.0209 22.458 30.0213C24.754 30.0251 26.6401 29.7717 28.374 28.1183C29.9418 26.4709 30.0253 24.3481 30.0208 22.2021C30.0209 22.025 30.021 21.848 30.0212 21.6709C30.0214 21.3019 30.0211 20.9329 30.0204 20.5639C30.0195 20.0945 30.02 19.6252 30.0209 19.1558C30.0215 18.7908 30.0213 18.4258 30.0209 18.0607C30.0208 17.8878 30.0209 17.7149 30.0213 17.542C30.0251 15.246 29.7717 13.3599 28.1183 11.626C26.4806 10.0674 24.3844 9.97479 22.251 9.97922C22.0701 9.97912 21.8892 9.97897 21.7083 9.97877C21.3312 9.97854 20.954 9.97887 20.5769 9.97961C20.0967 9.9805 19.6166 9.97998 19.1365 9.97905C18.7636 9.97848 18.3906 9.97866 18.0177 9.97907C17.8408 9.97917 17.6639 9.97905 17.487 9.97868C15.1472 9.97488 13.1669 10.2626 11.4697 12.0459Z" fill="#E8B600"/>
<path d="M16.5084 11.9316C16.634 11.931 16.634 11.931 16.7621 11.9304C17.0363 11.9293 17.3104 11.9294 17.5845 11.9296C17.7769 11.9293 17.9692 11.9289 18.1615 11.9286C18.5637 11.928 18.966 11.928 19.3682 11.9284C19.8812 11.9289 20.3941 11.9275 20.9071 11.9257C21.3041 11.9246 21.7011 11.9245 22.0981 11.9247C22.2871 11.9247 22.4762 11.9243 22.6652 11.9235C24.2535 11.9177 25.6605 11.9574 26.8994 13.081C27.7843 14.0265 28.0714 15.173 28.0683 16.437C28.0687 16.5223 28.0691 16.6077 28.0696 16.6956C28.0706 16.9756 28.0706 17.2556 28.0704 17.5357C28.0707 17.7318 28.071 17.9279 28.0714 18.124C28.072 18.5344 28.072 18.9448 28.0716 19.3551C28.0711 19.7748 28.0717 20.1945 28.0732 20.6142C28.0749 21.1232 28.0755 21.6322 28.0752 22.1411C28.0753 22.3341 28.0757 22.5272 28.0764 22.7202C28.0821 24.3058 28.0468 25.6441 26.9007 26.8548C25.6163 28.1003 24.1353 28.0828 22.4414 28.0779C22.2456 28.0781 22.0498 28.0783 21.854 28.0786C21.3929 28.079 20.9318 28.0782 20.4707 28.077C20.1048 28.0761 19.7388 28.0764 19.3729 28.0774C18.8651 28.0787 18.3574 28.0789 17.8497 28.0782C17.6573 28.078 17.465 28.0782 17.2726 28.0788C15.6979 28.0823 14.3495 28.0489 13.15 26.9039C12.2236 25.9572 11.942 24.898 11.9406 23.5984C11.9402 23.5131 11.9398 23.4278 11.9394 23.3399C11.9382 23.0582 11.9377 22.7765 11.9373 22.4948C11.9368 22.2982 11.9364 22.1016 11.9359 21.905C11.9352 21.5454 11.9347 21.1858 11.9345 20.8262C11.9341 20.2995 11.9328 19.7727 11.9305 19.246C11.9286 18.7876 11.928 18.3293 11.9279 17.8709C11.9276 17.677 11.927 17.4832 11.926 17.2893C11.9182 15.7056 11.9592 14.3357 13.0811 13.1005C13.4042 12.7986 13.745 12.5837 14.1358 12.3828C14.1851 12.3572 14.2344 12.3317 14.2853 12.3055C14.9873 11.9713 15.7423 11.9297 16.5084 11.9316ZM24.3399 13.9425C24.0349 14.3 23.9561 14.5114 23.9627 14.97C24.0099 15.3752 24.2059 15.6262 24.5166 15.8886C24.9052 16.0867 25.2177 16.1424 25.6348 16.0107C26.0084 15.854 26.2251 15.5966 26.4063 15.2343C26.4487 14.8472 26.4504 14.5413 26.2744 14.1894C25.9547 13.8265 25.7025 13.6113 25.21 13.5742C24.8473 13.5988 24.5999 13.6798 24.3399 13.9425ZM15.9375 16.7968C15.1165 17.9466 14.6825 19.2506 14.8828 20.6668C15.1433 22.1217 15.8162 23.3621 17.0371 24.234C18.3746 25.0919 19.7352 25.3297 21.2811 24.992C22.6788 24.6434 23.7902 23.7126 24.5273 22.4896C25.244 21.2101 25.2658 19.8251 24.9219 18.4374C24.5312 17.1011 23.535 16.0624 22.3438 15.3906C20.1004 14.3231 17.5385 14.8879 15.9375 16.7968Z" fill="#E8B600"/>
<path d="M21.7203 17.2418C22.5634 17.8116 23.0037 18.5378 23.2031 19.5312C23.3118 20.403 23.0982 21.2172 22.6074 21.9434C21.994 22.7195 21.2099 23.1107 20.2313 23.2327C19.3383 23.2692 18.5455 22.9938 17.847 22.4417C17.1462 21.7947 16.7967 20.9508 16.7578 20C16.7961 19.091 17.1182 18.3236 17.7344 17.6562C18.843 16.6385 20.4238 16.5139 21.7203 17.2418Z" fill="#E8B600"/>
</g>
<defs>
<clipPath id="clip0_1819_29184">
<rect width="40" height="40" fill="white"/>
</clipPath>
</defs>
</svg>
