<svg width="40" height="40" viewBox="0 0 40 40" fill="none" xmlns="http://www.w3.org/2000/svg">
<g clip-path="url(#clip0_1819_29180)">
<path d="M20.0098 -0.0244372C20.0875 -0.0242689 20.1651 -0.0241005 20.2452 -0.023927C21.3755 -0.0199945 22.4834 0.00321767 23.5938 0.234352C23.67 0.249873 23.7463 0.265395 23.8249 0.281387C27.6046 1.07215 31.0411 2.78438 33.8281 5.46873C33.9054 5.5428 33.9054 5.5428 33.9842 5.61838C34.7255 6.33279 35.4083 7.05914 36.0156 7.8906C36.0827 7.98053 36.1497 8.07045 36.2167 8.16038C36.6885 8.80031 37.1071 9.46545 37.5 10.1562C37.5285 10.2056 37.557 10.2549 37.5863 10.3058C39.2656 13.2397 40.0372 16.5727 40.0244 19.9316C40.0242 20.048 40.0242 20.048 40.024 20.1668C40.0205 21.2992 39.9845 22.4016 39.7656 23.5156C39.7531 23.5856 39.7405 23.6555 39.7275 23.7276C39.1112 27.1344 37.5729 30.3483 35.3125 32.9687C35.263 33.0269 35.2134 33.0851 35.1624 33.1451C34.2396 34.2002 33.2435 35.1901 32.1094 36.0156C32.0195 36.0825 31.9297 36.1495 31.8399 36.2164C31.1999 36.6883 30.5347 37.107 29.8438 37.5C29.7944 37.5285 29.745 37.5569 29.6942 37.5863C27.6607 38.7502 25.3624 39.5037 23.0469 39.8437C22.9529 39.8575 22.859 39.8713 22.7622 39.8855C21.8469 40.0108 20.9376 40.0313 20.0147 40.0293C19.9376 40.0292 19.8605 40.0291 19.781 40.0291C14.7065 40.0143 9.83042 38.0549 6.17188 34.5312C6.12037 34.4818 6.06886 34.4325 6.01579 34.3816C5.27452 33.6672 4.59171 32.9408 3.98439 32.1094C3.91735 32.0194 3.85031 31.9295 3.78327 31.8396C3.31154 31.1996 2.8929 30.5345 2.50001 29.8437C2.47153 29.7944 2.44306 29.745 2.41372 29.6942C1.2473 27.6563 0.506741 25.3644 0.15626 23.0469C0.135565 22.9153 0.135565 22.9153 0.114451 22.7811C-0.0149943 21.8738 -0.0311409 20.9741 -0.0292866 20.0586C-0.0292441 19.9795 -0.0292016 19.9004 -0.0291579 19.819C-0.0259745 18.5272 0.0461924 17.2835 0.31251 16.0156C0.328838 15.9363 0.345165 15.857 0.361987 15.7752C1.04776 12.5477 2.53234 9.52962 4.68751 7.03123C4.73706 6.97302 4.78661 6.91481 4.83766 6.85484C5.7604 5.79976 6.75654 4.80981 7.89063 3.98435C7.98047 3.91744 8.0703 3.8505 8.1601 3.78355C8.80008 3.31162 9.46536 2.89294 10.1563 2.49998C10.2056 2.4715 10.255 2.44303 10.3058 2.41369C12.3395 1.2497 14.6375 0.496582 16.9531 0.156227C17.0936 0.135446 17.0936 0.135446 17.2369 0.114246C18.1609 -0.012983 19.0783 -0.0280722 20.0098 -0.0244372ZM10.9171 10.7873C10.3025 11.4371 10.0697 12.0748 10.0781 12.9687C10.1335 13.6963 10.5154 14.299 11.0352 14.7949C11.6721 15.3176 12.2565 15.4453 13.0765 15.4205C13.7922 15.3448 14.4421 15.0047 14.9002 14.4449C15.0228 14.2698 15.1311 14.0933 15.2344 13.9062C15.2744 13.8342 15.2744 13.8342 15.3153 13.7607C15.5748 13.1968 15.5576 12.5198 15.4001 11.9305C15.0841 11.1065 14.6229 10.6061 13.8281 10.2344C13.7637 10.2021 13.6992 10.1699 13.6328 10.1367C12.6305 9.836 11.6832 10.0834 10.9171 10.7873ZM21.4746 17.7539C21.2443 17.9859 21.2443 17.9859 21.1719 18.2812C21.1203 18.2812 21.0688 18.2812 21.0156 18.2812C21.0224 18.1527 21.0224 18.1527 21.0294 18.0215C21.033 17.9079 21.0366 17.7943 21.04 17.6806C21.045 17.5961 21.045 17.5961 21.05 17.5099C21.0512 17.4548 21.0525 17.3996 21.0538 17.3428C21.0558 17.2925 21.0579 17.2422 21.06 17.1903C20.9835 16.9161 20.8514 16.8091 20.625 16.6406C20.3715 16.5847 20.1245 16.5877 19.8657 16.5915C19.7926 16.5913 19.7196 16.5911 19.6443 16.5909C19.4901 16.591 19.3359 16.592 19.1817 16.594C18.9461 16.5966 18.7107 16.5956 18.475 16.5941C18.325 16.5946 18.175 16.5954 18.0249 16.5964C17.9547 16.596 17.8844 16.5956 17.8121 16.5952C17.7131 16.597 17.7131 16.597 17.6122 16.5989C17.5545 16.5994 17.4969 16.5999 17.4375 16.6004C17.1846 16.6596 17.0588 16.771 16.875 16.9531C16.8166 17.1941 16.8166 17.1941 16.8259 17.4691C16.8254 17.5208 16.8248 17.5725 16.8243 17.6258C16.8229 17.7991 16.8243 17.9722 16.8257 18.1454C16.8253 18.2697 16.8247 18.3939 16.824 18.5181C16.8226 18.8555 16.8236 19.1928 16.8251 19.5302C16.8264 19.8831 16.8257 20.236 16.8253 20.5889C16.825 21.1815 16.8262 21.7742 16.8284 22.3668C16.8309 23.0522 16.8309 23.7376 16.8295 24.423C16.8283 25.082 16.8288 25.7411 16.8301 26.4002C16.8307 26.6808 16.8306 26.9614 16.83 27.242C16.8294 27.5724 16.8304 27.9027 16.8325 28.2331C16.8331 28.3544 16.8331 28.4757 16.8325 28.597C16.8318 28.7625 16.8331 28.9279 16.8348 29.0934C16.835 29.186 16.8352 29.2787 16.8355 29.3741C16.8833 29.6585 16.9612 29.7486 17.1875 29.9219C17.4865 30.0215 17.7689 30.0127 18.0805 30.0131C18.1774 30.0135 18.1774 30.0135 18.2763 30.0139C18.413 30.0143 18.5498 30.0145 18.6865 30.0145C18.8952 30.0146 19.1038 30.016 19.3124 30.0175C19.4454 30.0178 19.5784 30.0179 19.7113 30.018C19.8046 30.0188 19.8046 30.0188 19.8998 30.0197C20.2897 30.0181 20.6105 30.0068 20.907 29.7236C21.0654 29.443 21.048 29.1705 21.0457 28.8568C21.0461 28.7888 21.0465 28.7208 21.047 28.6507C21.0477 28.5031 21.048 28.3554 21.0477 28.2078C21.0474 27.9736 21.0485 27.7393 21.0499 27.5051C21.0528 27.007 21.0539 26.5088 21.0547 26.0107C21.0556 25.4352 21.0573 24.8596 21.0609 24.2841C21.062 24.0544 21.0617 23.8248 21.0613 23.5951C21.0647 22.441 21.1721 21.3279 22.0313 20.4687C22.6336 20.0924 23.2023 20.0174 23.9063 20.0781C24.388 20.1898 24.7571 20.3797 25.0589 20.7763C25.4546 21.4313 25.5583 22.0715 25.5592 22.8216C25.5596 22.8927 25.56 22.9637 25.5604 23.037C25.5612 23.1909 25.5619 23.3448 25.5624 23.4987C25.5634 23.7424 25.5649 23.986 25.5666 24.2297C25.5714 24.9223 25.5756 25.6149 25.5782 26.3075C25.5799 26.7314 25.5826 27.1554 25.5861 27.5793C25.5872 27.7408 25.5879 27.9022 25.5881 28.0637C25.5885 28.2894 25.5903 28.5151 25.5925 28.7408C25.5922 28.8075 25.592 28.8741 25.5918 28.9428C25.5969 29.3067 25.6232 29.5482 25.8594 29.8437C26.1958 30.048 26.5592 30.0226 26.9409 30.0207C27.0402 30.021 27.0402 30.021 27.1414 30.0212C27.2808 30.0213 27.4203 30.021 27.5598 30.0203C27.7727 30.0195 27.9856 30.0203 28.1986 30.0213C28.3344 30.0212 28.4702 30.021 28.606 30.0207C28.6694 30.021 28.7328 30.0214 28.7981 30.0217C29.1902 30.0185 29.5139 30.0079 29.8133 29.7248C29.9738 29.4386 29.9539 29.1575 29.951 28.838C29.9513 28.768 29.9515 28.6979 29.9518 28.6257C29.9525 28.3936 29.9514 28.1615 29.9503 27.9294C29.9502 27.767 29.9503 27.6046 29.9504 27.4422C29.9504 27.1008 29.9496 26.7595 29.9481 26.4182C29.9464 25.9849 29.9463 25.5515 29.9469 25.1182C29.9471 24.782 29.9466 24.4458 29.9458 24.1097C29.9455 23.9502 29.9454 23.7907 29.9456 23.6312C29.9458 21.4896 29.8721 19.2219 28.3545 17.5577C27.7391 16.9637 26.9379 16.6049 26.0938 16.4844C26.0371 16.4758 25.9804 16.4672 25.9219 16.4584C24.3286 16.2499 22.6017 16.5317 21.4746 17.7539ZM10.7813 16.9531C10.6948 17.2124 10.6929 17.4055 10.6922 17.6787C10.6917 17.7816 10.6913 17.8846 10.6908 17.9907C10.6907 18.1051 10.6906 18.2195 10.6905 18.3338C10.6902 18.4541 10.6898 18.5743 10.6894 18.6946C10.6883 19.0214 10.6878 19.3483 10.6875 19.6752C10.6873 19.8793 10.6869 20.0835 10.6866 20.2877C10.6855 20.9264 10.6848 21.565 10.6845 22.2037C10.6841 22.9412 10.6827 23.6787 10.6805 24.4162C10.6788 24.9861 10.678 25.5561 10.6779 26.126C10.6778 26.4665 10.6774 26.807 10.676 27.1474C10.6747 27.4677 10.6745 27.7879 10.6752 28.1081C10.6753 28.2256 10.6749 28.3431 10.6741 28.4606C10.6732 28.6211 10.6736 28.7816 10.6744 28.9421C10.6743 29.0318 10.6742 29.1216 10.6741 29.2141C10.7067 29.4828 10.775 29.629 10.9375 29.8437C11.2991 30.0192 11.6588 30.0229 12.0535 30.0207C12.1448 30.021 12.1448 30.021 12.2379 30.0212C12.3659 30.0213 12.4938 30.021 12.6218 30.0203C12.8171 30.0195 13.0123 30.0203 13.2076 30.0213C13.3323 30.0212 13.4571 30.021 13.5819 30.0207C13.6689 30.0212 13.6689 30.0212 13.7577 30.0217C14.139 30.0183 14.4241 29.9783 14.7353 29.7523C14.8964 29.54 14.8737 29.3706 14.8746 29.1063C14.875 29.055 14.8755 29.0037 14.876 28.9509C14.8773 28.7787 14.8769 28.6065 14.8766 28.4343C14.8771 28.311 14.8778 28.1877 14.8786 28.0643C14.8803 27.7291 14.8805 27.3938 14.8804 27.0586C14.8804 26.7788 14.881 26.499 14.8817 26.2193C14.8832 25.5592 14.8834 24.8992 14.8829 24.2392C14.8824 23.5581 14.8842 22.8771 14.8871 22.196C14.8895 21.6114 14.8903 21.0269 14.89 20.4424C14.8899 20.0932 14.8903 19.744 14.8922 19.3948C14.894 19.0663 14.8938 18.7379 14.8922 18.4095C14.892 18.2889 14.8924 18.1684 14.8935 18.0479C14.8949 17.8832 14.8939 17.7188 14.8923 17.5541C14.8924 17.462 14.8924 17.37 14.8925 17.2751C14.8293 16.9588 14.6994 16.8417 14.4531 16.6406C14.2863 16.5836 14.2863 16.5836 14.1138 16.5913C14.0494 16.5903 13.985 16.5893 13.9186 16.5883C13.8158 16.5899 13.8158 16.5899 13.7109 16.5915C13.6396 16.5913 13.5682 16.5911 13.4947 16.5909C13.3442 16.591 13.1937 16.592 13.0432 16.594C12.8132 16.5966 12.5835 16.5956 12.3535 16.5941C12.207 16.5946 12.0606 16.5954 11.9141 16.5964C11.8455 16.596 11.777 16.5956 11.7064 16.5952C11.3024 16.6029 11.0681 16.6395 10.7813 16.9531Z" fill="#E8B600"/>
</g>
<defs>
<clipPath id="clip0_1819_29180">
<rect width="40" height="40" fill="white"/>
</clipPath>
</defs>
</svg>
