<svg width="40" height="40" viewBox="0 0 40 40" fill="none" xmlns="http://www.w3.org/2000/svg">
<path d="M20.0006 3.55469C20.235 3.59375 20.235 3.59375 20.3815 3.74023C20.4693 3.90625 20.4693 3.90625 20.4693 4.0625C22.2707 4.27666 23.842 4.38073 25.6256 3.98438C25.6256 5.325 25.6256 6.66563 25.6256 8.04688C23.9032 8.57683 22.3045 8.68672 20.5475 8.28125C20.5217 8.92578 20.4959 9.57031 20.4693 10.2344C20.7014 10.3117 20.7014 10.3117 20.9381 10.3906C21.145 10.5438 21.145 10.5438 21.358 10.7324C21.7228 11.0484 22.0978 11.344 22.4859 11.6309C22.9566 11.9798 23.4173 12.3389 23.8734 12.7066C24.2167 12.9831 24.5636 13.254 24.9136 13.5218C25.4565 13.9373 25.9952 14.3581 26.5345 14.7781C26.7827 14.9712 27.0311 15.1639 27.2796 15.3566C27.4571 15.4946 27.6342 15.633 27.8113 15.7715C27.998 15.9174 28.1859 16.0602 28.3765 16.2012C28.8297 16.5414 29.1512 16.8477 29.2453 17.4246C29.2707 17.9126 29.1134 18.2806 28.8092 18.6523C28.4339 18.9594 28.1413 19.0625 27.6568 19.0625C27.6568 19.8875 27.6568 20.7125 27.6568 21.5625C27.8689 21.5596 28.081 21.5568 28.2995 21.5538C29.0015 21.5447 29.7034 21.5387 30.4053 21.5342C30.8308 21.5313 31.2562 21.5275 31.6816 21.5212C32.0924 21.5153 32.5032 21.512 32.9141 21.5106C33.0706 21.5096 33.227 21.5076 33.3835 21.5047C34.7644 21.4796 34.7644 21.4796 35.1375 21.7987C35.2246 21.9001 35.3092 22.0037 35.3912 22.1094C35.4996 22.2146 35.6094 22.3184 35.7204 22.421C36.0286 22.7196 36.3346 23.0206 36.64 23.3222C36.7716 23.4517 36.9037 23.5807 37.0364 23.709C37.2291 23.8955 37.4199 24.0838 37.6105 24.2725C37.67 24.3294 37.7296 24.3864 37.7909 24.4451C38.1924 24.8481 38.1924 24.8481 38.2506 25.2261C38.2037 25.4688 38.2037 25.4688 38.0475 25.625C37.9186 25.625 37.7897 25.625 37.6568 25.625C37.6568 29.157 37.6568 32.6891 37.6568 36.3281C37.9147 36.3281 38.1725 36.3281 38.4381 36.3281C38.6793 36.4166 38.6793 36.4166 38.8287 36.5625C38.8768 36.7719 38.8768 36.7719 38.8751 37.0215C38.8748 37.1562 38.8748 37.1562 38.8745 37.2937C38.8723 37.3876 38.8701 37.4814 38.8678 37.5781C38.868 37.672 38.8682 37.7658 38.8684 37.8625C38.8608 38.5431 38.8608 38.5431 38.7475 38.7222C38.5103 38.8863 38.2638 38.8602 37.9854 38.8576C37.9224 38.858 37.8594 38.8583 37.7945 38.8587C37.5817 38.8595 37.3688 38.8587 37.156 38.8579C37.0025 38.8582 36.8491 38.8585 36.6957 38.859C36.2727 38.86 35.8497 38.8595 35.4266 38.8588C34.971 38.8582 34.5153 38.8591 34.0597 38.8597C33.1665 38.8607 32.2733 38.8605 31.3801 38.8598C30.6545 38.8593 29.9289 38.8592 29.2032 38.8595C29.1001 38.8595 28.997 38.8596 28.8908 38.8596C28.7338 38.8597 28.5769 38.8597 28.42 38.8598C26.4577 38.8605 24.4954 38.8598 22.5332 38.8586C20.7887 38.8575 19.0443 38.8576 17.2999 38.8587C15.3413 38.8599 13.3826 38.8604 11.424 38.8597C11.2153 38.8596 11.0067 38.8596 10.798 38.8595C10.6953 38.8595 10.5926 38.8594 10.4868 38.8594C9.76168 38.8592 9.03656 38.8595 8.31144 38.8601C7.42827 38.8607 6.54511 38.8606 5.66194 38.8593C5.21097 38.8587 4.76 38.8584 4.30903 38.8592C3.89672 38.8599 3.48443 38.8595 3.07213 38.8583C2.92246 38.858 2.77278 38.8582 2.62311 38.8587C2.42065 38.8594 2.21825 38.8587 2.0158 38.8576C1.92734 38.8584 1.92734 38.8584 1.83708 38.8593C1.44573 38.855 1.44572 38.855 1.25365 38.7222C1.05304 38.4048 1.13263 37.9404 1.13341 37.5781C1.13119 37.4843 1.12898 37.3904 1.1267 37.2937C1.1265 37.2039 1.12629 37.114 1.12609 37.0215C1.12553 36.9391 1.12498 36.8567 1.12441 36.7719C1.17247 36.5625 1.17247 36.5625 1.32186 36.4166C1.5631 36.3281 1.5631 36.3281 2.34435 36.3281C2.34435 32.7961 2.34435 29.2641 2.34435 25.625C2.21544 25.625 2.08654 25.625 1.95372 25.625C1.79747 25.4688 1.79747 25.4688 1.74319 25.2336C1.75942 24.7609 2.19278 24.459 2.50975 24.1534C2.61844 24.0456 2.61844 24.0456 2.72933 23.9356C2.9215 23.7451 3.11528 23.5563 3.30943 23.3678C3.46789 23.2134 3.62518 23.0578 3.78242 22.9022C4.107 22.5809 4.43249 22.2605 4.75978 21.942C4.81772 21.8856 4.87566 21.8291 4.93536 21.7709C5.23722 21.4966 5.55426 21.5521 5.94119 21.5536C6.01436 21.5536 6.08754 21.5536 6.16293 21.5536C6.40557 21.5536 6.64821 21.5543 6.89086 21.5549C7.05879 21.555 7.22671 21.5551 7.39464 21.5552C7.83723 21.5555 8.27983 21.5563 8.72242 21.5571C9.17381 21.5579 9.6252 21.5583 10.0766 21.5587C10.9627 21.5595 11.8488 21.5609 12.735 21.5625C12.735 20.7117 12.735 19.8609 12.735 18.9844C12.5029 19.0102 12.2709 19.0359 12.0318 19.0625C11.4842 18.938 11.17 18.6713 10.86 18.2031C10.7121 17.7545 10.746 17.3041 10.9265 16.8719C11.1027 16.5711 11.3675 16.3811 11.6412 16.1719C11.7129 16.116 11.7846 16.0601 11.8585 16.0025C12.0268 15.8722 12.1955 15.7426 12.3648 15.6137C12.6901 15.3658 13.0129 15.1146 13.3356 14.8633C13.4559 14.7696 13.5762 14.6759 13.6966 14.5822C13.757 14.5352 13.8174 14.4881 13.8796 14.4397C14.0621 14.2977 14.2446 14.1558 14.4272 14.014C14.9578 13.6017 15.4882 13.1891 16.0162 12.7734C16.6652 12.2629 17.3157 11.7545 17.9693 11.25C18.0286 11.2042 18.0878 11.1584 18.1488 11.1112C18.3196 10.9795 18.4911 10.8485 18.6627 10.7178C18.7143 10.6779 18.7658 10.6381 18.8189 10.5971C19.0546 10.4189 19.2422 10.2925 19.5318 10.2344C19.5311 10.1165 19.5311 10.1165 19.5303 9.99624C19.5255 9.25593 19.522 8.51563 19.5197 7.77531C19.5185 7.3947 19.5168 7.0141 19.5142 6.63349C19.5116 6.26624 19.5102 5.899 19.5096 5.53174C19.5092 5.39157 19.5083 5.2514 19.5071 5.11123C19.5054 4.91502 19.5051 4.71885 19.5052 4.52263C19.5044 4.46458 19.5036 4.40653 19.5027 4.34672C19.5042 4.10217 19.5185 3.9308 19.6361 3.71392C19.7662 3.59375 19.7662 3.59375 20.0006 3.55469Z" fill="#FECA29"/>
<path d="M2.34435 25.625C5.79904 25.625 9.25372 25.625 12.8131 25.625C12.8131 29.1828 12.8131 32.7406 12.8131 36.4062C13.5865 36.4062 14.36 36.4062 15.1568 36.4062C15.1568 36.2 15.1568 35.9937 15.1568 35.7812C15.3013 35.3563 15.5768 35.0958 15.9381 34.8438C16.1527 34.7722 16.2808 34.7554 16.5019 34.7541C16.6026 34.7533 16.6026 34.7533 16.7054 34.7524C16.7788 34.7522 16.8522 34.752 16.9278 34.7518C17.0054 34.7513 17.0829 34.7508 17.1627 34.7502C17.4197 34.7487 17.6767 34.7478 17.9336 34.747C18.0214 34.7467 18.1092 34.7464 18.1997 34.746C18.6644 34.7444 19.1291 34.7433 19.5938 34.7426C20.0734 34.7417 20.553 34.739 21.0326 34.7359C21.4017 34.7339 21.7708 34.7332 22.1399 34.7329C22.3167 34.7326 22.4934 34.7316 22.6702 34.7302C22.918 34.7283 23.1657 34.7284 23.4134 34.7289C23.4861 34.7279 23.5587 34.7269 23.6335 34.7259C24.0964 34.7296 24.4618 34.8057 24.8443 35.0781C25.2186 35.5484 25.235 35.7826 25.235 36.4062C26.0084 36.4062 26.7818 36.4062 27.5787 36.4062C27.5787 32.8484 27.5787 29.2906 27.5787 25.625C30.9045 25.625 34.2303 25.625 37.6568 25.625C37.6568 29.157 37.6568 32.6891 37.6568 36.3281C37.9147 36.3281 38.1725 36.3281 38.4381 36.3281C38.6793 36.4166 38.6793 36.4166 38.8287 36.5625C38.8768 36.7719 38.8768 36.7719 38.8751 37.0215C38.8748 37.1562 38.8748 37.1562 38.8745 37.2937C38.8723 37.3876 38.8701 37.4814 38.8678 37.5781C38.868 37.672 38.8682 37.7658 38.8684 37.8625C38.8608 38.5431 38.8608 38.5431 38.7475 38.7222C38.5103 38.8863 38.2638 38.8602 37.9854 38.8576C37.9224 38.858 37.8594 38.8583 37.7945 38.8587C37.5817 38.8595 37.3688 38.8587 37.156 38.8579C37.0025 38.8582 36.8491 38.8585 36.6957 38.859C36.2727 38.86 35.8497 38.8595 35.4266 38.8588C34.971 38.8582 34.5153 38.8591 34.0597 38.8597C33.1665 38.8607 32.2733 38.8605 31.3801 38.8598C30.6545 38.8593 29.9289 38.8592 29.2032 38.8595C29.1001 38.8595 28.997 38.8596 28.8908 38.8596C28.7338 38.8597 28.5769 38.8597 28.42 38.8598C26.4577 38.8605 24.4954 38.8598 22.5332 38.8586C20.7887 38.8575 19.0443 38.8576 17.2999 38.8587C15.3413 38.8599 13.3826 38.8604 11.424 38.8597C11.2153 38.8596 11.0067 38.8596 10.798 38.8595C10.6953 38.8595 10.5926 38.8594 10.4868 38.8594C9.76168 38.8592 9.03656 38.8595 8.31144 38.8601C7.42827 38.8607 6.54511 38.8606 5.66194 38.8593C5.21097 38.8587 4.76 38.8584 4.30903 38.8592C3.89672 38.8599 3.48443 38.8595 3.07213 38.8583C2.92246 38.858 2.77278 38.8582 2.62311 38.8587C2.42065 38.8594 2.21825 38.8587 2.0158 38.8576C1.92734 38.8584 1.92734 38.8584 1.83708 38.8593C1.44572 38.855 1.44572 38.855 1.25365 38.7222C1.05304 38.4048 1.13263 37.9404 1.13341 37.5781C1.13119 37.4843 1.12898 37.3904 1.1267 37.2937C1.1265 37.2039 1.12629 37.114 1.12609 37.0215C1.12553 36.9391 1.12498 36.8567 1.12441 36.7719C1.17247 36.5625 1.17247 36.5625 1.32186 36.4166C1.5631 36.3281 1.5631 36.3281 2.34435 36.3281C2.34435 32.7961 2.34435 29.2641 2.34435 25.625Z" fill="#FEDF81"/>
<path d="M2.34375 25.625C5.79844 25.625 9.25312 25.625 12.8125 25.625C12.8125 29.1828 12.8125 32.7406 12.8125 36.4062C9.35781 36.4062 5.90313 36.4062 2.34375 36.4062C2.34375 32.8484 2.34375 29.2906 2.34375 25.625Z" fill="#FEE081"/>
<path d="M16.5019 34.7538C16.5691 34.7533 16.6362 34.7527 16.7054 34.7521C16.7788 34.7519 16.8522 34.7517 16.9278 34.7515C17.0054 34.751 17.0829 34.7505 17.1627 34.75C17.4197 34.7484 17.6767 34.7475 17.9336 34.7467C18.0214 34.7464 18.1092 34.7461 18.1996 34.7458C18.6644 34.7441 19.1291 34.743 19.5938 34.7423C20.0734 34.7414 20.553 34.7387 21.0326 34.7356C21.4017 34.7336 21.7708 34.7329 22.1399 34.7326C22.3167 34.7323 22.4934 34.7314 22.6702 34.7299C22.918 34.728 23.1657 34.7281 23.4134 34.7286C23.4861 34.7276 23.5587 34.7266 23.6335 34.7256C24.0964 34.7293 24.4618 34.8054 24.8443 35.0778C25.2041 35.5299 25.2441 35.8512 25.235 36.406C25.3365 36.405 25.3365 36.405 25.4401 36.4041C27.0864 36.3891 28.7328 36.3755 30.3792 36.3633C31.1753 36.3573 31.9715 36.351 32.7676 36.3435C33.4615 36.3371 34.1554 36.3314 34.8493 36.3268C35.2167 36.3243 35.5842 36.3214 35.9516 36.3175C36.2974 36.3139 36.6433 36.3113 36.9891 36.3096C37.116 36.3088 37.243 36.3076 37.3699 36.3059C37.5433 36.3037 37.7165 36.303 37.8899 36.3026C37.9869 36.3018 38.0839 36.301 38.1838 36.3002C38.4619 36.3304 38.6096 36.3903 38.8287 36.5622C38.8768 36.7716 38.8768 36.7716 38.8751 37.0212C38.8748 37.1559 38.8748 37.1559 38.8745 37.2934C38.8723 37.3873 38.8701 37.4811 38.8678 37.5778C38.868 37.6717 38.8682 37.7656 38.8684 37.8623C38.8608 38.5428 38.8608 38.5428 38.7475 38.7219C38.5103 38.886 38.2638 38.8599 37.9854 38.8573C37.9224 38.8577 37.8594 38.858 37.7945 38.8584C37.5817 38.8592 37.3688 38.8584 37.156 38.8576C37.0025 38.8579 36.8491 38.8582 36.6957 38.8587C36.2727 38.8597 35.8497 38.8592 35.4266 38.8585C34.971 38.8579 34.5153 38.8588 34.0597 38.8594C33.1665 38.8605 32.2733 38.8602 31.3801 38.8595C30.6545 38.859 29.9289 38.8589 29.2032 38.8592C29.1001 38.8592 28.997 38.8593 28.8908 38.8593C28.7338 38.8594 28.5769 38.8594 28.42 38.8595C26.4577 38.8602 24.4954 38.8595 22.5332 38.8583C20.7887 38.8572 19.0443 38.8573 17.2999 38.8584C15.3413 38.8596 13.3826 38.8601 11.424 38.8594C11.2153 38.8593 11.0067 38.8593 10.798 38.8592C10.6953 38.8592 10.5926 38.8591 10.4868 38.8591C9.76168 38.8589 9.03656 38.8592 8.31144 38.8598C7.42827 38.8604 6.54511 38.8603 5.66194 38.859C5.21097 38.8584 4.76 38.8582 4.30903 38.8589C3.89672 38.8596 3.48443 38.8592 3.07213 38.858C2.92246 38.8577 2.77278 38.8579 2.62311 38.8584C2.42065 38.8591 2.21825 38.8584 2.0158 38.8573C1.92734 38.8582 1.92734 38.8582 1.83708 38.859C1.44573 38.8547 1.44572 38.8547 1.25365 38.7219C1.05304 38.4045 1.13263 37.9402 1.13341 37.5778C1.13119 37.484 1.12898 37.3901 1.1267 37.2934C1.1265 37.2036 1.12629 37.1137 1.12609 37.0212C1.12553 36.9388 1.12498 36.8564 1.12441 36.7716C1.17247 36.5622 1.17247 36.5622 1.3356 36.4335C1.61658 36.303 1.81654 36.3002 2.12614 36.3026C2.20991 36.3028 2.20991 36.3028 2.29537 36.303C2.48204 36.3037 2.66865 36.306 2.85531 36.3084C2.98929 36.3092 3.12328 36.31 3.25726 36.3106C3.62075 36.3126 3.98421 36.3161 4.34768 36.3198C4.72762 36.3235 5.10757 36.3258 5.48753 36.3283C6.20691 36.3332 6.92628 36.3392 7.64565 36.3458C8.46467 36.3531 9.28371 36.3591 10.1027 36.365C11.7875 36.3772 13.4722 36.391 15.1568 36.406C15.1551 36.3079 15.1534 36.2098 15.1517 36.1087C15.146 35.7828 15.2052 35.5882 15.3912 35.3122C15.7331 34.9671 16.0019 34.7567 16.5019 34.7538Z" fill="#BDBDBD"/>
<path d="M20 3.55469C20.2344 3.59375 20.2344 3.59375 20.3809 3.74023C20.4688 3.90625 20.4688 3.90625 20.4688 4.0625C22.2701 4.27666 23.8414 4.38073 25.625 3.98438C25.625 5.325 25.625 6.66563 25.625 8.04688C23.9027 8.57683 22.304 8.68672 20.5469 8.28125C20.5211 8.92578 20.4953 9.57031 20.4688 10.2344C20.6235 10.2859 20.7781 10.3375 20.9375 10.3906C21.1444 10.5438 21.1444 10.5438 21.3574 10.7324C21.7223 11.0484 22.0973 11.344 22.4854 11.6309C22.9561 11.9798 23.4167 12.3389 23.8729 12.7066C24.2161 12.9831 24.563 13.254 24.913 13.5218C25.4559 13.9373 25.9946 14.3581 26.5339 14.7781C26.7821 14.9712 27.0305 15.1639 27.279 15.3566C27.4565 15.4946 27.6336 15.633 27.8107 15.7715C27.9975 15.9174 28.1853 16.0602 28.3759 16.2012C28.8291 16.5414 29.1506 16.8477 29.2447 17.4246C29.2701 17.9126 29.1128 18.2806 28.8086 18.6523C28.4619 18.936 28.1914 19.0648 27.7393 19.0576C27.128 18.9431 26.7135 18.6178 26.2484 18.2182C25.9253 17.9415 25.591 17.6845 25.249 17.4316C24.7786 17.0828 24.3181 16.724 23.8622 16.3564C23.512 16.0742 23.1576 15.7981 22.8003 15.5249C22.5365 15.323 22.2742 15.1192 22.0133 14.9136C21.9216 14.8414 21.8298 14.7694 21.7378 14.6976C21.5072 14.5175 21.2795 14.3351 21.0553 14.147C21.0109 14.1107 20.9665 14.0743 20.9207 14.0369C20.7988 13.937 20.678 13.8358 20.5573 13.7344C20.2513 13.5586 20.0323 13.5174 19.6875 13.5938C19.4947 13.7087 19.3542 13.8091 19.1895 13.9551C19.0941 14.0346 18.9987 14.1141 18.9032 14.1934C18.8531 14.2358 18.8031 14.2781 18.7515 14.3218C18.4769 14.5505 18.1931 14.7671 17.9102 14.9854C17.7901 15.0786 17.6701 15.1719 17.5501 15.2652C17.4901 15.3118 17.4301 15.3584 17.3683 15.4064C17.0736 15.6354 16.779 15.8646 16.4844 16.0938C16.3672 16.1849 16.25 16.276 16.1328 16.3672C16.0748 16.4123 16.0168 16.4574 15.9571 16.5039C15.6934 16.709 15.6934 16.709 15.4297 16.9141C15.3716 16.9592 15.3136 17.0044 15.2537 17.051C15.1373 17.1415 15.0208 17.232 14.9043 17.3223C14.5991 17.5591 14.2953 17.7974 13.9932 18.038C13.9305 18.0877 13.8677 18.1374 13.803 18.1886C13.6834 18.2834 13.5641 18.3785 13.4453 18.4743C13.0743 18.767 12.7171 19.0365 12.2312 19.0793C11.7135 19.0116 11.3802 18.8313 11.0303 18.4375C10.7619 18.0694 10.751 17.7983 10.7813 17.3438C10.8919 16.7819 11.1992 16.5092 11.6406 16.1719C11.7123 16.116 11.7841 16.0601 11.8579 16.0025C12.0262 15.8722 12.1949 15.7426 12.3642 15.6137C12.6895 15.3658 13.0123 15.1146 13.335 14.8633C13.4553 14.7696 13.5757 14.6759 13.696 14.5822C13.7564 14.5352 13.8168 14.4881 13.8791 14.4397C14.0615 14.2977 14.244 14.1558 14.4266 14.014C14.9572 13.6017 15.4876 13.1891 16.0156 12.7734C16.6646 12.2629 17.3151 11.7545 17.9688 11.25C18.028 11.2042 18.0872 11.1584 18.1482 11.1112C18.3191 10.9795 18.4905 10.8485 18.6621 10.7178C18.7137 10.6779 18.7652 10.6381 18.8183 10.5971C19.054 10.4189 19.2416 10.2925 19.5313 10.2344C19.5305 10.1165 19.5305 10.1165 19.5297 9.99624C19.5249 9.25593 19.5214 8.51563 19.5191 7.77531C19.5179 7.3947 19.5162 7.0141 19.5136 6.63349C19.511 6.26624 19.5096 5.899 19.509 5.53174C19.5086 5.39157 19.5078 5.2514 19.5065 5.11123C19.5048 4.91502 19.5046 4.71885 19.5047 4.52263C19.5038 4.46458 19.503 4.40653 19.5021 4.34672C19.5036 4.10217 19.518 3.9308 19.6355 3.71392C19.7656 3.59375 19.7656 3.59375 20 3.55469Z" fill="#F37020"/>
<path d="M22.4734 28.2216C23.4639 28.9657 23.9849 29.7668 24.375 30.9371C24.375 32.2261 24.375 33.5152 24.375 34.8433C21.6164 34.8433 18.8578 34.8433 16.0156 34.8433C16.0156 30.0423 16.0156 30.0423 17.1582 28.8082C18.6147 27.4637 20.7675 27.0919 22.4734 28.2216Z" fill="#795648"/>
<path d="M5.94821 21.5537C6.02215 21.5537 6.09609 21.5537 6.17226 21.5537C6.41745 21.5537 6.66262 21.5543 6.9078 21.5549C7.07748 21.5551 7.24716 21.5552 7.41684 21.5553C7.86406 21.5556 8.31127 21.5563 8.75849 21.5572C9.29474 21.5582 9.831 21.5585 10.3673 21.559C11.1825 21.5597 11.9977 21.5612 12.813 21.5626C12.813 22.9032 12.813 24.2438 12.813 25.6251C11.3998 25.6286 9.98658 25.6315 8.57339 25.6332C7.91725 25.634 7.26112 25.6351 6.60499 25.6369C6.03326 25.6384 5.46154 25.6394 4.88981 25.6398C4.58694 25.64 4.28408 25.6405 3.98121 25.6416C3.69637 25.6427 3.41154 25.643 3.1267 25.6427C2.97186 25.6428 2.81701 25.6437 2.66217 25.6445C2.57058 25.6443 2.47899 25.6441 2.38463 25.6439C2.26473 25.6441 2.26473 25.6441 2.1424 25.6443C1.95358 25.6251 1.95358 25.6251 1.79733 25.4688C1.74362 25.2362 1.73039 25.1447 1.79733 24.922C2.00468 24.6359 2.25572 24.3982 2.50961 24.1535C2.58207 24.0816 2.65453 24.0098 2.72918 23.9357C2.92135 23.7452 3.11514 23.5564 3.30928 23.3679C3.46775 23.2135 3.62504 23.0579 3.78228 22.9022C4.10686 22.581 4.43235 22.2606 4.75963 21.9421C4.81757 21.8856 4.87552 21.8292 4.93522 21.771C5.23856 21.4953 5.55945 21.5522 5.94821 21.5537Z" fill="#F78F1E"/>
<path d="M27.5781 21.5627C29.3468 21.5408 29.3468 21.5408 30.1025 21.536C30.6176 21.5327 31.1326 21.5289 31.6476 21.5215C32.063 21.5155 32.4783 21.5122 32.8938 21.5108C33.052 21.5098 33.2102 21.5078 33.3684 21.5049C34.7648 21.4798 34.7648 21.4798 35.1379 21.7989C35.2248 21.9003 35.309 22.0039 35.3906 22.1096C35.499 22.2148 35.6088 22.3187 35.7198 22.4212C36.028 22.7198 36.334 23.0208 36.6394 23.3224C36.771 23.4519 36.9031 23.5809 37.0358 23.7092C37.2285 23.8958 37.4193 24.084 37.6099 24.2727C37.6694 24.3297 37.729 24.3866 37.7903 24.4453C38.1918 24.8483 38.1918 24.8483 38.25 25.2263C38.2031 25.469 38.2031 25.469 38.0469 25.6252C37.8642 25.6444 37.8642 25.6444 37.6307 25.644C37.4982 25.6443 37.4982 25.6443 37.3631 25.6447C37.2657 25.6441 37.1684 25.6435 37.0681 25.643C36.9149 25.643 36.9149 25.643 36.7587 25.643C36.4781 25.6431 36.1976 25.6421 35.9171 25.6411C35.6241 25.6401 35.3311 25.64 35.0381 25.6398C34.4831 25.6393 33.9281 25.638 33.373 25.6365C32.7412 25.6347 32.1094 25.6339 31.4776 25.6331C30.1778 25.6314 28.878 25.6286 27.5781 25.6252C27.5781 24.2846 27.5781 22.944 27.5781 21.5627Z" fill="#F68F1E"/>
<path d="M21.7973 15.781C22.027 15.9459 22.2268 16.1237 22.4223 16.3278C22.4598 16.3665 22.4974 16.4052 22.5361 16.445C23.1708 17.1506 23.2592 17.9178 23.2168 18.8292C23.1554 19.5441 22.7683 20.1325 22.266 20.6247C21.4294 21.2738 20.5693 21.4443 19.5316 21.3278C18.699 21.1256 18.0726 20.6331 17.6225 19.9118C17.1854 19.1523 17.1369 18.2661 17.317 17.4152C17.6344 16.55 18.2681 15.962 19.069 15.539C19.9433 15.1802 21.0008 15.3085 21.7973 15.781Z" fill="#FEFEFD"/>
<path d="M25.625 3.98438C25.625 5.325 25.625 6.66563 25.625 8.04688C24.129 8.50719 21.9056 8.96062 20.3906 8.20312C20.3906 6.83672 20.3906 5.47031 20.3906 4.0625C21.0059 4.13086 21.6211 4.19922 22.2363 4.26758C23.2053 4.34932 24.2392 4.37041 25.1703 4.05701C25.3906 3.98438 25.3906 3.98438 25.625 3.98438Z" fill="#F0582B"/>
<path d="M16.5013 34.7538C16.5685 34.7533 16.6356 34.7527 16.7048 34.7521C16.7782 34.7519 16.8516 34.7517 16.9272 34.7515C17.0048 34.751 17.0823 34.7505 17.1621 34.75C17.4191 34.7484 17.6761 34.7475 17.933 34.7467C18.0208 34.7464 18.1086 34.7461 18.1991 34.7458C18.6638 34.7441 19.1285 34.743 19.5932 34.7423C20.0728 34.7414 20.5524 34.7387 21.032 34.7356C21.4011 34.7336 21.7702 34.7329 22.1393 34.7326C22.3161 34.7323 22.4928 34.7314 22.6696 34.7299C22.9174 34.728 23.1651 34.7281 23.4128 34.7286C23.4855 34.7276 23.5581 34.7266 23.6329 34.7256C24.0958 34.7293 24.4612 34.8054 24.8438 35.0778C25.218 35.5481 25.2344 35.7823 25.2344 36.406C21.9086 36.406 18.5828 36.406 15.1562 36.406C15.1562 35.5488 15.1562 35.5488 15.5197 35.1819C15.8375 34.899 16.0662 34.7563 16.5013 34.7538Z" fill="#DEDEDD"/>
<path d="M21.7973 15.781C22.027 15.9459 22.2268 16.1237 22.4223 16.3278C22.4598 16.3665 22.4974 16.4052 22.5361 16.445C23.1708 17.1506 23.2592 17.9178 23.2168 18.8292C23.1554 19.5441 22.7683 20.1325 22.266 20.6247C21.4294 21.2738 20.5693 21.4443 19.5316 21.3278C18.699 21.1256 18.0726 20.6331 17.6225 19.9118C17.1854 19.1523 17.1369 18.2661 17.317 17.4152C17.6344 16.55 18.2681 15.962 19.069 15.539C19.9433 15.1802 21.0008 15.3085 21.7973 15.781ZM18.4379 17.031C18.0303 17.5928 17.9594 18.1475 18.0473 18.8278C18.2 19.5004 18.5784 19.9617 19.1459 20.3421C19.7154 20.6415 20.424 20.6552 21.0355 20.4685C21.6667 20.1837 22.0882 19.6915 22.3441 19.0622C22.5081 18.5704 22.4964 18.0006 22.3002 17.5193C21.9343 16.8119 21.4492 16.4202 20.7035 16.1716C19.7682 16.0859 19.067 16.3199 18.4379 17.031Z" fill="#FEDF81"/>
<path d="M20.3126 13.5156C20.5114 13.6354 20.6594 13.7409 20.8302 13.8915C20.926 13.9713 21.0218 14.0511 21.1177 14.1308C21.1658 14.1717 21.2139 14.2126 21.2635 14.2547C21.4824 14.4389 21.708 14.6142 21.9337 14.79C22.0249 14.8616 22.116 14.9332 22.2071 15.0048C22.712 15.4007 23.2189 15.794 23.7255 16.1876C23.962 16.3713 24.1983 16.5551 24.4346 16.7389C24.5508 16.8293 24.6669 16.9196 24.7831 17.0099C25.0882 17.247 25.3929 17.4845 25.6971 17.7227C25.7603 17.7721 25.8234 17.8214 25.8885 17.8723C26.0088 17.9663 26.1291 18.0605 26.2492 18.1548C26.8992 18.6652 26.8992 18.6652 27.6564 18.9843C27.6564 19.2679 27.6564 19.5515 27.6564 19.8437C27.0933 19.6813 26.6943 19.38 26.2376 19.0194C26.0789 18.8944 25.9192 18.7707 25.7594 18.6471C25.1739 18.1939 24.5912 17.7373 24.0095 17.2794C23.5257 16.8989 23.0396 16.5213 22.5535 16.1437C22.3036 15.9496 22.054 15.7551 21.8046 15.5602C21.742 15.5114 21.6794 15.4625 21.6149 15.4122C21.4958 15.3193 21.3769 15.2263 21.258 15.1332C21.1503 15.0492 21.0423 14.9657 20.9338 14.8827C20.8335 14.8056 20.7341 14.7272 20.6359 14.6475C20.4285 14.4856 20.2608 14.3806 20.0022 14.3249C19.663 14.3967 19.4517 14.5706 19.1847 14.7851C19.1032 14.8484 19.1032 14.8484 19.0201 14.9129C18.8509 15.0449 18.6832 15.1784 18.5157 15.3124C18.4643 15.3533 18.4129 15.3942 18.3599 15.4363C18.1135 15.6321 17.8679 15.829 17.6228 16.0265C17.3277 16.2638 17.0284 16.4948 16.7277 16.7249C16.3669 17.001 16.008 17.2795 15.6495 17.5585C15.5612 17.6272 15.5612 17.6272 15.4711 17.6973C15.1601 17.9394 14.8493 18.1817 14.5387 18.4243C14.4761 18.4731 14.4135 18.522 14.3491 18.5722C14.2301 18.6651 14.1112 18.758 13.9924 18.851C13.02 19.6093 13.02 19.6093 12.8126 19.6093C12.7499 19.331 12.7398 19.1054 12.8126 18.8281C13.0428 18.5824 13.3174 18.4111 13.5977 18.2284C13.8839 18.0341 14.1524 17.8166 14.4239 17.6025C14.5453 17.5077 14.6668 17.413 14.7883 17.3184C14.8493 17.2708 14.9102 17.2232 14.973 17.1742C15.2682 16.9439 15.5639 16.7141 15.8595 16.4843C15.9767 16.3932 16.0939 16.302 16.211 16.2109C16.4454 16.0286 16.6798 15.8463 16.9142 15.664C16.9723 15.6188 17.0304 15.5736 17.0902 15.5271C17.2065 15.4366 17.3228 15.3462 17.4391 15.2557C17.7458 15.0173 18.0524 14.7787 18.3589 14.54C18.4227 14.4903 18.4866 14.4406 18.5523 14.3894C18.6746 14.2942 18.7969 14.199 18.9192 14.1038C18.9744 14.0608 19.0295 14.0179 19.0864 13.9736C19.1347 13.936 19.1831 13.8984 19.2329 13.8596C19.3033 13.8053 19.3033 13.8053 19.3751 13.7499C19.4264 13.7074 19.4778 13.6649 19.5307 13.6212C19.7792 13.454 20.0283 13.46 20.3126 13.5156Z" fill="#E8B600"/>
<path d="M22.1147 22.7825C22.2098 22.7814 22.2098 22.7814 22.3067 22.7803C22.4089 22.781 22.4089 22.781 22.5131 22.7817C22.6185 22.7814 22.6185 22.7814 22.7259 22.781C22.8743 22.7809 23.0227 22.7813 23.1711 22.7823C23.3985 22.7835 23.6258 22.7823 23.8532 22.7808C23.9973 22.781 24.1415 22.7813 24.2856 22.7817C24.3537 22.7812 24.4218 22.7808 24.492 22.7803C24.5554 22.781 24.6187 22.7818 24.684 22.7825C24.7397 22.7827 24.7954 22.7829 24.8527 22.7831C25.0476 22.8222 25.1167 22.8898 25.2353 23.0472C25.2596 23.2512 25.27 23.4361 25.2692 23.6402C25.2696 23.6981 25.27 23.7559 25.2704 23.8156C25.2709 23.9379 25.2708 24.0603 25.2702 24.1826C25.2695 24.3695 25.2717 24.5563 25.2742 24.7432C25.2743 24.8622 25.2743 24.9812 25.2741 25.1001C25.2754 25.1838 25.2754 25.1838 25.2767 25.2691C25.2733 25.5167 25.2485 25.6816 25.1195 25.8948C24.8289 26.0738 24.5721 26.0608 24.2368 26.0575C24.1703 26.0578 24.1039 26.0581 24.0354 26.0584C23.8952 26.0586 23.7549 26.058 23.6146 26.0567C23.4001 26.055 23.1857 26.0567 22.9712 26.0587C22.8348 26.0585 22.6984 26.0581 22.562 26.0575C22.4979 26.0581 22.4339 26.0587 22.3679 26.0594C22.0878 26.0548 21.921 26.0437 21.6792 25.8948C21.5206 25.6326 21.52 25.3977 21.5247 25.1001C21.5246 25.0422 21.5244 24.9842 21.5243 24.9245C21.5245 24.8023 21.5254 24.6801 21.527 24.5579C21.5293 24.3708 21.5286 24.1839 21.5276 23.9968C21.5281 23.8779 21.5287 23.759 21.5296 23.6402C21.5293 23.5843 21.5291 23.5283 21.5289 23.4707C21.5362 23.0833 21.5362 23.0833 21.6628 22.9153C21.8272 22.7905 21.9101 22.7832 22.1147 22.7825Z" fill="#FFFEFC"/>
<path d="M16.1068 22.774C16.177 22.7739 16.2472 22.7738 16.3195 22.7737C16.4679 22.7738 16.6164 22.7747 16.7648 22.7763C16.9922 22.7786 17.2194 22.7779 17.4468 22.7769C17.5909 22.7774 17.7351 22.778 17.8792 22.7789C17.9474 22.7787 18.0155 22.7784 18.0857 22.7782C18.149 22.7792 18.2124 22.7802 18.2776 22.7812C18.3333 22.7816 18.389 22.782 18.4464 22.7825C18.6409 22.8222 18.7104 22.8898 18.8289 23.0471C18.8522 23.2511 18.8618 23.4361 18.8601 23.6401C18.8603 23.698 18.8605 23.7559 18.8607 23.8155C18.8609 23.9378 18.8605 24.0602 18.8595 24.1825C18.8582 24.3694 18.8595 24.5562 18.861 24.7432C18.8608 24.8621 18.8605 24.9811 18.8601 25.1001C18.8608 25.1837 18.8608 25.1837 18.8615 25.269C18.8583 25.4954 18.8367 25.6836 18.7533 25.8948C18.4954 26.0916 18.2103 26.0604 17.8991 26.0574C17.8308 26.0577 17.7625 26.058 17.6921 26.0583C17.5477 26.0585 17.4033 26.0579 17.2589 26.0566C17.038 26.055 16.8173 26.0566 16.5964 26.0586C16.4561 26.0584 16.3158 26.058 16.1754 26.0574C16.0764 26.0583 16.0764 26.0583 15.9754 26.0593C15.6901 26.0548 15.5177 26.0456 15.2716 25.8935C15.1171 25.637 15.1136 25.4108 15.1183 25.1199C15.1182 25.0639 15.1181 25.0078 15.118 24.9501C15.1181 24.8319 15.119 24.7137 15.1206 24.5955C15.1229 24.4149 15.1222 24.2345 15.1212 24.0539C15.1217 23.9389 15.1223 23.8238 15.1232 23.7088C15.123 23.655 15.1227 23.6012 15.1225 23.5457C15.1268 23.3249 15.1509 23.1411 15.2317 22.935C15.4971 22.7319 15.7822 22.7698 16.1068 22.774Z" fill="#FFFEFC"/>
<path d="M9.49264 31.5208C9.57482 31.5203 9.65699 31.5199 9.74166 31.5195C9.82706 31.5207 9.91246 31.5219 10.0005 31.5232C10.1286 31.5214 10.1286 31.5214 10.2592 31.5195C10.3414 31.5199 10.4236 31.5203 10.5083 31.5208C10.6207 31.5213 10.6207 31.5213 10.7353 31.5218C11.0094 31.5765 11.0942 31.6421 11.2505 31.8748C11.2956 32.1037 11.2943 32.328 11.292 32.5608C11.2923 32.6272 11.2926 32.6937 11.2929 32.7621C11.2931 32.9024 11.2925 33.0427 11.2912 33.1829C11.2895 33.3975 11.2912 33.6118 11.2932 33.8264C11.293 33.9628 11.2926 34.0992 11.292 34.2356C11.2926 34.2996 11.2932 34.3637 11.2939 34.4297C11.2892 34.717 11.2815 34.8755 11.1185 35.1182C10.8987 35.2594 10.7685 35.2744 10.5083 35.2756C10.4261 35.276 10.3439 35.2764 10.2592 35.2769C10.1738 35.2756 10.0884 35.2744 10.0005 35.2732C9.91505 35.2744 9.82965 35.2756 9.74166 35.2769C9.65949 35.2765 9.57731 35.276 9.49264 35.2756C9.41771 35.2753 9.34279 35.2749 9.26559 35.2746C8.99152 35.2199 8.9067 35.1543 8.75045 34.9216C8.70527 34.6927 8.70665 34.4684 8.70895 34.2356C8.70865 34.1692 8.70835 34.1027 8.70804 34.0342C8.70783 33.894 8.7084 33.7537 8.70971 33.6135C8.71138 33.3989 8.70973 33.1846 8.70773 32.97C8.70793 32.8336 8.70833 32.6972 8.70895 32.5608C8.70832 32.4967 8.70768 32.4327 8.70703 32.3667C8.71175 32.0794 8.71945 31.9209 8.88244 31.6782C9.10223 31.537 9.23241 31.522 9.49264 31.5208Z" fill="#FFFEFD"/>
<path d="M9.44272 26.7551C9.53255 26.7547 9.62238 26.7543 9.71494 26.7539C9.8088 26.7551 9.90266 26.7563 9.99936 26.7576C10.0932 26.7564 10.1871 26.7552 10.2838 26.7539C10.3736 26.7543 10.4634 26.7547 10.556 26.7551C10.6796 26.7557 10.6796 26.7557 10.8056 26.7562C11.015 26.7966 11.015 26.7966 11.1589 26.9137C11.2902 27.1975 11.2828 27.4715 11.2805 27.7781C11.2807 27.8428 11.2809 27.9075 11.2812 27.9742C11.2813 28.1108 11.2809 28.2473 11.2799 28.3839C11.2787 28.5928 11.2799 28.8015 11.2814 29.0104C11.2813 29.1432 11.281 29.2761 11.2805 29.4089C11.2812 29.5025 11.2812 29.5025 11.2819 29.5979C11.2788 29.8469 11.2642 30.0459 11.1589 30.2733C10.9559 30.4384 10.8158 30.4308 10.556 30.4319C10.4213 30.4325 10.4213 30.4325 10.2838 30.4331C10.1899 30.4319 10.0961 30.4307 9.99936 30.4294C9.85857 30.4313 9.85857 30.4313 9.71494 30.4331C9.58019 30.4325 9.58019 30.4325 9.44272 30.4319C9.31915 30.4314 9.31915 30.4314 9.19309 30.4308C8.98374 30.3904 8.98374 30.3904 8.83981 30.2733C8.70849 29.9896 8.7159 29.7156 8.71823 29.4089C8.7179 29.3119 8.7179 29.3119 8.71756 29.2128C8.7174 29.0763 8.71783 28.9397 8.71881 28.8031C8.72006 28.5942 8.71882 28.3855 8.71732 28.1766C8.71747 28.0438 8.71777 27.9109 8.71823 27.7781C8.71776 27.7157 8.71729 27.6534 8.7168 27.5892C8.71995 27.3402 8.73454 27.1412 8.83981 26.9137C9.04282 26.7486 9.18294 26.7562 9.44272 26.7551Z" fill="#FEFEFE"/>
<path d="M34.3695 31.5282C34.4981 31.5258 34.4981 31.5258 34.6293 31.5234C34.7119 31.5235 34.7944 31.5235 34.8794 31.5236C34.9549 31.5234 35.0303 31.5233 35.108 31.5231C35.3119 31.5623 35.3119 31.5623 35.4925 31.6781C35.6863 31.9672 35.6692 32.2199 35.6659 32.5609C35.6662 32.6273 35.6665 32.6938 35.6668 32.7622C35.667 32.9025 35.6664 33.0428 35.6651 33.183C35.6634 33.3976 35.6651 33.6119 35.6671 33.8264C35.6669 33.9629 35.6665 34.0993 35.6659 34.2357C35.6665 34.2997 35.6671 34.3638 35.6678 34.4298C35.6631 34.717 35.6552 34.8756 35.4925 35.1184C35.2714 35.2601 35.141 35.2735 34.8794 35.273C34.7969 35.273 34.7144 35.2731 34.6293 35.2731C34.5436 35.2716 34.4578 35.27 34.3695 35.2684C34.2834 35.269 34.1974 35.2695 34.1087 35.2701C33.4764 35.2651 33.4764 35.2651 33.3095 35.1349C33.1791 34.9704 33.1729 34.8907 33.1722 34.6829C33.1714 34.6196 33.1707 34.5562 33.1699 34.4909C33.1704 34.4228 33.1709 34.3547 33.1714 34.2845C33.1711 34.2143 33.1709 34.1441 33.1707 34.0718C33.1705 33.9233 33.171 33.7749 33.1719 33.6265C33.1732 33.3991 33.1719 33.1719 33.1704 32.9445C33.1706 32.8003 33.1709 32.6562 33.1714 32.512C33.1709 32.4439 33.1704 32.3758 33.1699 32.3056C33.1707 32.2423 33.1714 32.1789 33.1722 32.1136C33.1723 32.058 33.1725 32.0023 33.1727 31.9449C33.285 31.3859 33.9346 31.5254 34.3695 31.5282Z" fill="#FFFEFD"/>
<path d="M30.3851 31.5282C30.5137 31.5258 30.5137 31.5258 30.645 31.5234C30.7275 31.5235 30.81 31.5235 30.8951 31.5236C30.9705 31.5234 31.0459 31.5233 31.1236 31.5231C31.3275 31.5623 31.3275 31.5623 31.5082 31.6781C31.7019 31.9672 31.6849 32.2199 31.6815 32.5609C31.6818 32.6273 31.6821 32.6938 31.6824 32.7622C31.6826 32.9025 31.682 33.0428 31.6807 33.183C31.6791 33.3976 31.6807 33.6119 31.6827 33.8264C31.6825 33.9629 31.6821 34.0993 31.6815 34.2357C31.6821 34.2997 31.6828 34.3638 31.6834 34.4298C31.6787 34.717 31.6709 34.8756 31.5082 35.1184C31.2871 35.2601 31.1566 35.2735 30.8951 35.273C30.8125 35.273 30.73 35.2731 30.645 35.2731C30.5592 35.2716 30.4735 35.27 30.3851 35.2684C30.299 35.269 30.213 35.2695 30.1243 35.2701C29.492 35.2651 29.492 35.2651 29.3251 35.1349C29.1948 34.9704 29.1885 34.8907 29.1878 34.6829C29.187 34.6196 29.1863 34.5562 29.1855 34.4909C29.186 34.4228 29.1865 34.3547 29.187 34.2845C29.1868 34.2143 29.1865 34.1441 29.1863 34.0718C29.1861 33.9233 29.1866 33.7749 29.1876 33.6265C29.1888 33.3991 29.1876 33.1719 29.1861 32.9445C29.1862 32.8003 29.1865 32.6562 29.187 32.512C29.1865 32.4439 29.186 32.3758 29.1855 32.3056C29.1863 32.2423 29.187 32.1789 29.1878 32.1136C29.188 32.058 29.1882 32.0023 29.1884 31.9449C29.3006 31.3859 29.9502 31.5254 30.3851 31.5282Z" fill="#FFFEFD"/>
<path d="M5.51101 31.5236C5.59354 31.5235 5.67607 31.5235 5.7611 31.5234C5.84686 31.525 5.93261 31.5266 6.02096 31.5282C6.10701 31.5276 6.19307 31.5271 6.28173 31.5265C6.91403 31.5315 6.91403 31.5315 7.08098 31.6617C7.21129 31.8262 7.21758 31.9059 7.21828 32.1136C7.21939 32.2087 7.21939 32.2087 7.22052 32.3056C7.22004 32.3738 7.21957 32.4419 7.21908 32.5121C7.2193 32.5823 7.21953 32.6525 7.21976 32.7248C7.21992 32.8732 7.21949 33.0216 7.21851 33.1701C7.21725 33.3974 7.2185 33.6247 7.22 33.8521C7.21984 33.9962 7.21954 34.1404 7.21908 34.2845C7.21979 34.3867 7.21979 34.3867 7.22052 34.4909C7.21978 34.5543 7.21904 34.6176 7.21828 34.6829C7.21809 34.7386 7.21791 34.7943 7.21771 34.8516C7.17897 35.0446 7.10709 35.1145 6.95358 35.2342C6.64511 35.2845 6.33306 35.2704 6.02096 35.2684C5.89233 35.2707 5.89233 35.2707 5.7611 35.2731C5.67857 35.2731 5.59604 35.273 5.51101 35.273C5.39788 35.2732 5.39788 35.2732 5.28245 35.2734C5.07858 35.2342 5.07858 35.2342 4.89789 35.1184C4.70415 34.8293 4.72121 34.5767 4.72457 34.2357C4.72427 34.1692 4.72398 34.1028 4.72367 34.0343C4.72345 33.8941 4.72403 33.7538 4.72534 33.6135C4.72701 33.399 4.72535 33.1847 4.72335 32.9701C4.72356 32.8337 4.72396 32.6973 4.72457 32.5609C4.72394 32.4968 4.72331 32.4328 4.72266 32.3668C4.72737 32.0796 4.73519 31.9209 4.89789 31.6781C5.11899 31.5364 5.24943 31.5231 5.51101 31.5236Z" fill="#FFFEFD"/>
<path d="M33.8787 26.7656C33.965 26.7653 34.0513 26.765 34.1402 26.7646C34.2304 26.7656 34.3205 26.7665 34.4134 26.7674C34.5486 26.766 34.5486 26.766 34.6865 26.7646C34.7728 26.765 34.8591 26.7653 34.948 26.7656C35.0271 26.7658 35.1063 26.7661 35.1878 26.7664C35.4251 26.802 35.4782 26.8462 35.6243 27.0311C35.6476 27.2692 35.6571 27.4911 35.6554 27.7293C35.6557 27.7978 35.6559 27.8663 35.6561 27.9368C35.6563 28.0815 35.6558 28.2263 35.6549 28.371C35.6536 28.5927 35.6549 28.8144 35.6564 29.0361C35.6562 29.1767 35.6559 29.3172 35.6554 29.4578C35.6562 29.5574 35.6562 29.5574 35.6569 29.6591C35.6513 30.1217 35.6513 30.1217 35.5184 30.2907C35.3262 30.4399 35.1687 30.4208 34.9282 30.4216C34.7929 30.422 34.7929 30.422 34.6549 30.4225C34.5607 30.4216 34.4665 30.4207 34.3694 30.4197C34.2749 30.4206 34.1804 30.4216 34.083 30.4225C33.9929 30.4222 33.9029 30.4219 33.81 30.4216C33.7273 30.4213 33.6445 30.421 33.5592 30.4208C33.493 30.4108 33.4269 30.4008 33.3587 30.3904C33.1532 30.0822 33.1786 29.8156 33.1789 29.4578C33.1786 29.3893 33.1783 29.3209 33.1779 29.2503C33.1775 29.1056 33.1774 28.9609 33.1778 28.8161C33.178 28.5944 33.1762 28.3728 33.1742 28.1511C33.174 28.0105 33.174 27.8699 33.1741 27.7293C33.1733 27.6629 33.1726 27.5965 33.1719 27.5281C33.1755 27.0651 33.1755 27.0651 33.3088 26.8964C33.4964 26.7503 33.6434 26.7664 33.8787 26.7656Z" fill="#FEFEFE"/>
<path d="M30.429 26.7674C30.5191 26.7655 30.6093 26.7636 30.7021 26.7616C30.7884 26.7613 30.8747 26.761 30.9637 26.7607C31.0428 26.76 31.1219 26.7594 31.2034 26.7587C31.4056 26.7967 31.4056 26.7967 31.5484 26.9134C31.6811 27.1972 31.6734 27.471 31.6711 27.7781C31.6713 27.8429 31.6715 27.9076 31.6717 27.9742C31.6719 28.1108 31.6715 28.2474 31.6705 28.384C31.6692 28.5928 31.6705 28.8016 31.672 29.0104C31.6718 29.1433 31.6715 29.2761 31.6711 29.409C31.6718 29.5025 31.6718 29.5025 31.6725 29.5979C31.6694 29.8469 31.6546 30.0461 31.5497 30.2738C31.3453 30.4392 31.2047 30.4285 30.9438 30.4265C30.8536 30.4262 30.7635 30.4259 30.6705 30.4255C30.5763 30.4236 30.4821 30.4217 30.3851 30.4197C30.2905 30.4196 30.196 30.4195 30.0986 30.4194C29.3962 30.4124 29.3962 30.4124 29.2181 30.2342C29.1977 30.0919 29.1977 30.0919 29.1966 29.9177C29.1959 29.8526 29.1951 29.7874 29.1943 29.7202C29.1944 29.6497 29.1945 29.5793 29.1946 29.5067C29.1942 29.4344 29.1939 29.3622 29.1935 29.2878C29.1931 29.1349 29.1931 28.982 29.1934 28.8291C29.1936 28.5945 29.1918 28.36 29.1898 28.1254C29.1897 27.9771 29.1896 27.8288 29.1897 27.6805C29.189 27.61 29.1882 27.5395 29.1875 27.4669C29.188 27.4017 29.1885 27.3366 29.189 27.2694C29.1889 27.2119 29.1889 27.1545 29.1888 27.0953C29.2864 26.6204 30.0691 26.7678 30.429 26.7674Z" fill="#FEFEFE"/>
<path d="M5.44126 26.7656C5.52756 26.7653 5.61387 26.765 5.70279 26.7646C5.79293 26.7656 5.88306 26.7665 5.97592 26.7674C6.11113 26.766 6.11113 26.766 6.24906 26.7646C6.33536 26.765 6.42167 26.7653 6.51059 26.7656C6.5897 26.7658 6.66881 26.7661 6.75031 26.7664C6.9876 26.802 7.04075 26.8462 7.18686 27.0311C7.21018 27.2692 7.21969 27.4911 7.21799 27.7293C7.21821 27.7978 7.21844 27.8663 7.21867 27.9368C7.21883 28.0815 7.2184 28.2263 7.21742 28.371C7.21616 28.5927 7.21741 28.8144 7.21891 29.0361C7.21875 29.1767 7.21845 29.3172 7.21799 29.4578C7.2187 29.5574 7.2187 29.5574 7.21943 29.6591C7.21389 30.1219 7.21389 30.1219 7.08042 30.2907C6.89288 30.4369 6.74587 30.4208 6.51059 30.4216C6.42429 30.4219 6.33798 30.4222 6.24906 30.4225C6.15892 30.4216 6.06879 30.4207 5.97592 30.4197C5.88579 30.4206 5.79566 30.4216 5.70279 30.4225C5.61649 30.4222 5.53018 30.4219 5.44126 30.4216C5.36215 30.4213 5.28304 30.421 5.20154 30.4208C4.96425 30.3852 4.9111 30.3409 4.76499 30.1561C4.74167 29.9179 4.73216 29.696 4.73386 29.4578C4.73364 29.3893 4.73341 29.3209 4.73318 29.2503C4.73302 29.1056 4.73345 28.9608 4.73443 28.8161C4.73569 28.5944 4.73444 28.3728 4.73294 28.1511C4.7331 28.0105 4.7334 27.8699 4.73386 27.7293C4.73339 27.6629 4.73291 27.5965 4.73242 27.5281C4.73796 27.0653 4.73796 27.0653 4.87143 26.8964C5.05897 26.7502 5.20598 26.7664 5.44126 26.7656Z" fill="#FEFEFE"/>
<path d="M2.34375 25.625C5.79844 25.625 9.25312 25.625 12.8125 25.625C12.8125 25.8828 12.8125 26.1406 12.8125 26.4062C9.35781 26.4062 5.90313 26.4062 2.34375 26.4062C2.34375 26.1484 2.34375 25.8906 2.34375 25.625Z" fill="#E9CD76"/>
<path d="M27.5781 25.625C30.9039 25.625 34.2297 25.625 37.6562 25.625C37.6562 25.8828 37.6562 26.1406 37.6562 26.4062C34.3305 26.4062 31.0047 26.4062 27.5781 26.4062C27.5781 26.1484 27.5781 25.8906 27.5781 25.625Z" fill="#E9CD76"/>
<path d="M19.9999 3.55469C20.2342 3.59375 20.2342 3.59375 20.3644 3.71437C20.5082 3.97906 20.4995 4.22201 20.4952 4.51546C20.4953 4.57646 20.4953 4.63747 20.4953 4.70032C20.4952 4.90155 20.4933 5.10273 20.4915 5.30396C20.4911 5.44363 20.4907 5.58331 20.4905 5.72299C20.4896 6.09033 20.4873 6.45764 20.4847 6.82497C20.4823 7.19992 20.4812 7.57487 20.4801 7.94983C20.4775 8.68531 20.4735 9.42078 20.4686 10.1562C20.0046 10.1949 20.0046 10.1949 19.5311 10.2344C19.5257 9.41469 19.5215 8.59501 19.519 7.77531C19.5177 7.3947 19.5161 7.0141 19.5134 6.63349C19.5109 6.26624 19.5095 5.899 19.5089 5.53174C19.5084 5.39157 19.5076 5.2514 19.5063 5.11123C19.5046 4.91502 19.5044 4.71885 19.5045 4.52263C19.5037 4.46458 19.5028 4.40653 19.502 4.34672C19.5034 4.10217 19.5178 3.9308 19.6353 3.71392C19.7655 3.59375 19.7655 3.59375 19.9999 3.55469Z" fill="#FCB316"/>
<path d="M8.74921 31.875C8.77499 31.875 8.80077 31.875 8.82733 31.875C8.82733 32.4422 8.82733 33.0094 8.82733 33.5938C9.60077 33.5938 10.3742 33.5938 11.1711 33.5938C11.1711 33.0266 11.1711 32.4594 11.1711 31.875C11.1969 31.875 11.2226 31.875 11.2492 31.875C11.2569 32.3032 11.2626 32.7314 11.2664 33.1596C11.2679 33.3053 11.2701 33.4509 11.2728 33.5965C11.2766 33.806 11.2783 34.0154 11.2797 34.2249C11.2813 34.2899 11.283 34.3549 11.2846 34.4219C11.2847 34.7126 11.2819 34.8728 11.1179 35.1191C10.8977 35.2592 10.767 35.2747 10.507 35.2759C10.4248 35.2763 10.3427 35.2767 10.258 35.2771C10.1726 35.2759 10.0872 35.2747 9.99921 35.2734C9.91381 35.2746 9.82841 35.2759 9.74042 35.2771C9.65824 35.2767 9.57606 35.2763 9.4914 35.2759C9.41647 35.2755 9.34154 35.2752 9.26434 35.2748C9.06171 35.2344 9.06171 35.2344 8.88051 35.1191C8.6855 34.8262 8.71015 34.5691 8.71869 34.2249C8.71913 34.1577 8.71957 34.0905 8.72003 34.0213C8.72178 33.8071 8.7257 33.593 8.72968 33.3789C8.73124 33.2335 8.73267 33.0882 8.73395 32.9428C8.73739 32.5868 8.74278 32.2309 8.74921 31.875Z" fill="#F6F3EE"/>
<path d="M8.75093 27.1094C8.77671 27.1094 8.80249 27.1094 8.82905 27.1094C8.82905 27.6766 8.82905 28.2437 8.82905 28.8281C9.60249 28.8281 10.3759 28.8281 11.1728 28.8281C11.1728 28.2609 11.1728 27.6938 11.1728 27.1094C11.1986 27.1094 11.2244 27.1094 11.2509 27.1094C11.2567 27.5264 11.261 27.9435 11.2638 28.3606C11.265 28.5025 11.2666 28.6443 11.2686 28.7862C11.2715 28.9902 11.2728 29.1942 11.2738 29.3982C11.275 29.4615 11.2762 29.5248 11.2775 29.5901C11.2776 29.8423 11.2669 30.0434 11.161 30.2743C10.9575 30.4382 10.8171 30.431 10.5576 30.4321C10.4228 30.4327 10.4228 30.4327 10.2853 30.4333C10.1915 30.4321 10.0976 30.4309 10.0009 30.4297C9.86014 30.4315 9.86014 30.4315 9.7165 30.4333C9.58175 30.4327 9.58175 30.4327 9.44429 30.4321C9.32072 30.4316 9.32072 30.4316 9.19465 30.4311C8.9853 30.3906 8.9853 30.3906 8.84086 30.2743C8.7089 29.9865 8.72211 29.7084 8.72804 29.3982C8.72837 29.3327 8.7287 29.2673 8.72904 29.1999C8.73035 28.9913 8.73329 28.7828 8.73628 28.5742C8.73745 28.4326 8.73852 28.291 8.73948 28.1494C8.74206 27.8027 8.74611 27.4561 8.75093 27.1094Z" fill="#F6F3EF"/>
<path d="M31.563 31.875C31.5887 31.875 31.6145 31.875 31.6411 31.875C31.6488 32.3032 31.6545 32.7314 31.6582 33.1596C31.6598 33.3053 31.662 33.4509 31.6647 33.5965C31.6685 33.806 31.6702 34.0154 31.6716 34.2249C31.6732 34.2899 31.6748 34.3549 31.6765 34.4219C31.6766 34.7126 31.6736 34.8729 31.51 35.1193C31.2885 35.2598 31.1575 35.2736 30.8961 35.2731C30.8136 35.2732 30.7311 35.2732 30.6461 35.2733C30.5603 35.2717 30.4746 35.2702 30.3862 35.2686C30.3001 35.2691 30.2141 35.2697 30.1254 35.2702C29.4981 35.2653 29.4981 35.2653 29.3114 35.1357C29.1967 34.9669 29.192 34.8724 29.1963 34.6695C29.1969 34.613 29.1975 34.5565 29.1981 34.4982C29.2002 34.427 29.2024 34.3557 29.2046 34.2822C29.2094 34.055 29.2142 33.8278 29.2192 33.5938C29.9926 33.5938 30.7661 33.5938 31.563 33.5938C31.563 33.0266 31.563 32.4594 31.563 31.875Z" fill="#F5F3F1"/>
<path d="M4.76481 31.875C4.79059 31.875 4.81638 31.875 4.84294 31.875C4.84294 32.4422 4.84294 33.0094 4.84294 33.5938C5.61638 33.5938 6.38981 33.5938 7.18669 33.5938C7.19152 33.8209 7.19636 34.0481 7.20134 34.2822C7.20347 34.3535 7.2056 34.4248 7.2078 34.4982C7.20839 34.5547 7.20897 34.6113 7.20958 34.6695C7.2108 34.7272 7.21203 34.7849 7.2133 34.8443C7.18669 35 7.18669 35 7.09445 35.1357C6.79222 35.3455 6.37424 35.2708 6.0197 35.2686C5.89107 35.2709 5.89107 35.2709 5.75984 35.2733C5.67731 35.2732 5.59478 35.2732 5.50975 35.2731C5.39661 35.2733 5.39661 35.2733 5.28119 35.2736C5.07731 35.2344 5.07731 35.2344 4.89594 35.1193C4.70125 34.8262 4.72576 34.5691 4.7343 34.2249C4.73474 34.1577 4.73518 34.0905 4.73564 34.0213C4.73738 33.8071 4.7413 33.593 4.74528 33.3789C4.74685 33.2335 4.74828 33.0882 4.74955 32.9428C4.753 32.5868 4.75839 32.2309 4.76481 31.875Z" fill="#F5F4F2"/>
<path d="M33.2036 33.5938C34.0028 33.5938 34.802 33.5938 35.6255 33.5938C35.6319 33.8064 35.6383 34.0191 35.645 34.2383C35.6478 34.3048 35.6507 34.3713 35.6536 34.4398C35.6548 34.5195 35.6548 34.5195 35.656 34.6008C35.6576 34.6548 35.6592 34.7088 35.6609 34.7645C35.608 34.9994 35.5021 35.0898 35.313 35.2344C35.1091 35.2736 35.1091 35.2736 34.8805 35.2731C34.798 35.2732 34.7155 35.2732 34.6304 35.2733C34.5447 35.2717 34.4589 35.2702 34.3706 35.2686C34.2845 35.2691 34.1985 35.2697 34.1098 35.2702C33.4824 35.2653 33.4824 35.2653 33.2958 35.1357C33.1811 34.9669 33.1764 34.8724 33.1807 34.6695C33.1813 34.613 33.1819 34.5565 33.1825 34.4982C33.1846 34.427 33.1867 34.3557 33.1889 34.2822C33.1938 34.055 33.1986 33.8278 33.2036 33.5938Z" fill="#F5F3F3"/>
<path d="M31.5633 27.1094C31.5891 27.1094 31.6149 27.1094 31.6414 27.1094C31.6472 27.5264 31.6515 27.9435 31.6543 28.3606C31.6555 28.5025 31.6571 28.6443 31.6591 28.7862C31.662 28.9902 31.6633 29.1942 31.6643 29.3982C31.6655 29.4615 31.6667 29.5248 31.668 29.5901C31.6681 29.8423 31.6572 30.0436 31.5517 30.2746C31.3468 30.439 31.206 30.4287 30.9453 30.4266C30.8551 30.4263 30.765 30.426 30.672 30.4257C30.5778 30.4238 30.4836 30.4219 30.3865 30.4199C30.292 30.4198 30.1975 30.4197 30.1001 30.4196C29.3977 30.4125 29.3977 30.4125 29.2195 30.2344C29.2018 30.0875 29.2018 30.0875 29.2043 29.9115C29.2047 29.8548 29.2051 29.7981 29.2055 29.7396C29.2069 29.6677 29.2083 29.5957 29.2098 29.5215C29.213 29.2927 29.2162 29.0639 29.2195 28.8281C29.993 28.8281 30.7664 28.8281 31.5633 28.8281C31.5633 28.2609 31.5633 27.6938 31.5633 27.1094Z" fill="#F5F3F2"/>
<path d="M4.76543 27.0312C4.79122 27.0312 4.817 27.0312 4.84356 27.0312C4.84356 27.6242 4.84356 28.2172 4.84356 28.8281C5.617 28.8281 6.39043 28.8281 7.18731 28.8281C7.19214 29.0424 7.19698 29.2567 7.20196 29.4775C7.20409 29.5447 7.20623 29.6119 7.20842 29.6812C7.20901 29.7345 7.20959 29.7879 7.2102 29.8428C7.21143 29.8972 7.21265 29.9517 7.21392 30.0077C7.18731 30.1562 7.18731 30.1562 7.09631 30.2911C6.89669 30.4297 6.75277 30.4209 6.51104 30.4218C6.42473 30.4221 6.33843 30.4224 6.2495 30.4227C6.15937 30.4218 6.06924 30.4209 5.97637 30.4199C5.88624 30.4208 5.7961 30.4217 5.70324 30.4227C5.61693 30.4224 5.53063 30.4221 5.4417 30.4218C5.3626 30.4215 5.28349 30.4212 5.20199 30.421C4.9647 30.3854 4.91123 30.3414 4.76543 30.1562C4.73725 30.0094 4.73725 30.0094 4.73883 29.8428C4.73884 29.7802 4.73886 29.7177 4.73888 29.6532C4.74009 29.5861 4.7413 29.5189 4.74255 29.4498C4.74288 29.3807 4.74321 29.3117 4.74355 29.2406C4.74486 29.0201 4.74781 28.7996 4.75079 28.5791C4.75196 28.4296 4.75303 28.2801 4.75399 28.1306C4.75657 27.7642 4.76062 27.3977 4.76543 27.0312Z" fill="#F5F3F1"/>
<path d="M33.2033 28.8281C34.0025 28.8281 34.8017 28.8281 35.6251 28.8281C35.63 29.0424 35.6348 29.2567 35.6398 29.4775C35.6419 29.5447 35.644 29.6119 35.6462 29.6812C35.6468 29.7345 35.6474 29.7879 35.648 29.8428C35.6492 29.8972 35.6505 29.9517 35.6517 30.0077C35.6251 30.1562 35.6251 30.1562 35.5354 30.2911C35.3303 30.4323 35.1766 30.421 34.929 30.4218C34.7938 30.4222 34.7938 30.4222 34.6557 30.4227C34.5615 30.4218 34.4673 30.4209 34.3703 30.4199C34.2285 30.4213 34.2285 30.4213 34.0838 30.4227C33.9938 30.4224 33.9037 30.4221 33.8109 30.4218C33.7281 30.4215 33.6453 30.4212 33.56 30.421C33.4938 30.4109 33.4277 30.4009 33.3595 30.3906C33.2008 30.1526 33.184 30.1093 33.188 29.8428C33.1886 29.7628 33.1886 29.7628 33.1892 29.6812C33.1906 29.614 33.192 29.5468 33.1935 29.4775C33.1967 29.2632 33.1999 29.0489 33.2033 28.8281Z" fill="#F5F3F4"/>
<path d="M20.0872 16.8119C20.1983 16.8433 20.1983 16.8433 20.3118 16.8754C20.4198 17.0913 20.3973 17.2696 20.3948 17.5101C20.3941 17.5957 20.3934 17.6813 20.3926 17.7695C20.3917 17.8354 20.3908 17.9013 20.3899 17.9691C20.4539 17.9655 20.518 17.9619 20.584 17.9581C20.6682 17.9553 20.7524 17.9525 20.8391 17.9496C20.9642 17.9441 20.9642 17.9441 21.0918 17.9386C21.3274 17.9691 21.3274 17.9691 21.5145 18.1138C21.6399 18.2816 21.6399 18.2816 21.635 18.4867C21.5618 18.6722 21.5618 18.6722 21.3274 18.8285C21.143 18.8462 21.143 18.8462 20.9285 18.8438C20.8517 18.8432 20.7749 18.8427 20.6958 18.8422C20.6158 18.8409 20.5358 18.8396 20.4534 18.8383C20.3724 18.8376 20.2915 18.8368 20.2082 18.8361C20.0083 18.8343 19.8085 18.8317 19.6086 18.8285C19.6018 18.5339 19.5977 18.2393 19.594 17.9447C19.592 17.861 19.5901 17.7772 19.588 17.691C19.5873 17.6106 19.5865 17.5303 19.5858 17.4476C19.5845 17.3735 19.5833 17.2995 19.582 17.2232C19.6086 17.0316 19.6086 17.0316 19.712 16.8875C19.843 16.7972 19.843 16.7972 20.0872 16.8119Z" fill="#060606"/>
<path d="M20.3906 4.0625C20.584 4.10117 20.584 4.10117 20.7812 4.14062C20.7812 5.50703 20.7812 6.87344 20.7812 8.28125C20.6523 8.25547 20.5234 8.22969 20.3906 8.20312C20.3906 6.83672 20.3906 5.47031 20.3906 4.0625Z" fill="#CA5028"/>
</svg>
