<svg width="41" height="40" viewBox="0 0 41 40" fill="none" xmlns="http://www.w3.org/2000/svg">
<path d="M20.5 3.55469C20.7344 3.59375 20.7344 3.59375 20.8808 3.74023C20.9687 3.90625 20.9687 3.90625 20.9687 4.0625C22.7701 4.27666 24.3414 4.38073 26.125 3.98438C26.125 5.325 26.125 6.66563 26.125 8.04688C24.4026 8.57683 22.8039 8.68672 21.0469 8.28125C21.0211 8.92578 20.9953 9.57031 20.9687 10.2344C21.2008 10.3117 21.2008 10.3117 21.4375 10.3906C21.6444 10.5438 21.6444 10.5438 21.8574 10.7324C22.2222 11.0484 22.5972 11.344 22.9853 11.6309C23.456 11.9798 23.9167 12.3389 24.3728 12.7066C24.7161 12.9831 25.0629 13.254 25.413 13.5218C25.9559 13.9373 26.4946 14.3581 27.0339 14.7781C27.2821 14.9712 27.5305 15.1639 27.7789 15.3566C27.9565 15.4946 28.1336 15.633 28.3107 15.7715C28.4974 15.9174 28.6853 16.0602 28.8758 16.2012C29.3291 16.5414 29.6506 16.8477 29.7447 17.4246C29.7701 17.9126 29.6128 18.2806 29.3086 18.6523C28.9332 18.9594 28.6407 19.0625 28.1562 19.0625C28.1562 19.8875 28.1562 20.7125 28.1562 21.5625C28.3683 21.5596 28.5804 21.5568 28.7989 21.5538C29.5008 21.5447 30.2027 21.5387 30.9047 21.5342C31.3302 21.5313 31.7556 21.5275 32.181 21.5212C32.5918 21.5153 33.0026 21.512 33.4135 21.5106C33.5699 21.5096 33.7264 21.5076 33.8829 21.5047C35.2638 21.4796 35.2638 21.4796 35.6369 21.7987C35.724 21.9001 35.8086 22.0037 35.8906 22.1094C35.999 22.2146 36.1088 22.3184 36.2197 22.421C36.528 22.7196 36.834 23.0206 37.1394 23.3222C37.271 23.4517 37.4031 23.5807 37.5358 23.709C37.7285 23.8955 37.9193 24.0838 38.1098 24.2725C38.1694 24.3294 38.229 24.3864 38.2903 24.4451C38.6918 24.8481 38.6918 24.8481 38.75 25.2261C38.7031 25.4688 38.7031 25.4688 38.5469 25.625C38.418 25.625 38.2891 25.625 38.1562 25.625C38.1562 29.157 38.1562 32.6891 38.1562 36.3281C38.414 36.3281 38.6719 36.3281 38.9375 36.3281C39.1787 36.4166 39.1787 36.4166 39.3281 36.5625C39.3762 36.7719 39.3762 36.7719 39.3745 37.0215C39.3742 37.1562 39.3742 37.1562 39.3739 37.2937C39.3717 37.3876 39.3695 37.4814 39.3672 37.5781C39.3674 37.672 39.3676 37.7658 39.3678 37.8625C39.3602 38.5431 39.3602 38.5431 39.2469 38.7222C39.0097 38.8863 38.7632 38.8602 38.4848 38.8576C38.4218 38.858 38.3588 38.8583 38.2939 38.8587C38.081 38.8595 37.8682 38.8587 37.6553 38.8579C37.5019 38.8582 37.3485 38.8585 37.1951 38.859C36.772 38.86 36.349 38.8595 35.926 38.8588C35.4704 38.8582 35.0147 38.8591 34.5591 38.8597C33.6659 38.8607 32.7727 38.8605 31.8795 38.8598C31.1539 38.8593 30.4282 38.8592 29.7026 38.8595C29.5995 38.8595 29.4964 38.8596 29.3902 38.8596C29.2332 38.8597 29.0763 38.8597 28.9194 38.8598C26.9571 38.8605 24.9948 38.8598 23.0326 38.8586C21.2881 38.8575 19.5437 38.8576 17.7993 38.8587C15.8406 38.8599 13.882 38.8604 11.9234 38.8597C11.7147 38.8596 11.5061 38.8596 11.2974 38.8595C11.1947 38.8595 11.092 38.8594 10.9862 38.8594C10.2611 38.8592 9.53595 38.8595 8.81083 38.8601C7.92766 38.8607 7.0445 38.8606 6.16133 38.8593C5.71036 38.8587 5.25939 38.8584 4.80842 38.8592C4.39611 38.8599 3.98382 38.8595 3.57152 38.8583C3.42185 38.858 3.27217 38.8582 3.1225 38.8587C2.92004 38.8594 2.71764 38.8587 2.51519 38.8576C2.42672 38.8584 2.42673 38.8584 2.33647 38.8593C1.94512 38.855 1.94511 38.855 1.75304 38.7222C1.55243 38.4048 1.63202 37.9404 1.6328 37.5781C1.63058 37.4843 1.62837 37.3904 1.62609 37.2937C1.62588 37.2039 1.62568 37.114 1.62548 37.0215C1.62492 36.9391 1.62437 36.8567 1.6238 36.7719C1.67186 36.5625 1.67186 36.5625 1.82125 36.4166C2.06249 36.3281 2.06249 36.3281 2.84374 36.3281C2.84374 32.7961 2.84374 29.2641 2.84374 25.625C2.71483 25.625 2.58593 25.625 2.45311 25.625C2.29686 25.4688 2.29686 25.4688 2.24258 25.2336C2.25881 24.7609 2.69217 24.459 3.00914 24.1534C3.11783 24.0456 3.11783 24.0456 3.22872 23.9356C3.42089 23.7451 3.61467 23.5563 3.80882 23.3678C3.96728 23.2134 4.12457 23.0578 4.28181 22.9022C4.60639 22.5809 4.93188 22.2605 5.25917 21.942C5.31711 21.8856 5.37505 21.8291 5.43475 21.7709C5.7366 21.4966 6.05365 21.5521 6.44058 21.5536C6.51375 21.5536 6.58693 21.5536 6.66232 21.5536C6.90496 21.5536 7.1476 21.5543 7.39025 21.5549C7.55818 21.555 7.7261 21.5551 7.89403 21.5552C8.33662 21.5555 8.77922 21.5563 9.22181 21.5571C9.6732 21.5579 10.1246 21.5583 10.576 21.5587C11.4621 21.5595 12.3482 21.5609 13.2344 21.5625C13.2344 20.7117 13.2344 19.8609 13.2344 18.9844C13.0023 19.0102 12.7703 19.0359 12.5312 19.0625C11.9836 18.938 11.6694 18.6713 11.3594 18.2031C11.2115 17.7545 11.2454 17.3041 11.4259 16.8719C11.6021 16.5711 11.8669 16.3811 12.1406 16.1719C12.2123 16.116 12.284 16.0601 12.3579 16.0025C12.5262 15.8722 12.6949 15.7426 12.8642 15.6137C13.1895 15.3658 13.5123 15.1146 13.8349 14.8633C13.9553 14.7696 14.0756 14.6759 14.196 14.5822C14.2564 14.5352 14.3168 14.4881 14.379 14.4397C14.5615 14.2977 14.744 14.1558 14.9266 14.014C15.4572 13.6017 15.9876 13.1891 16.5156 12.7734C17.1646 12.2629 17.8151 11.7545 18.4687 11.25C18.528 11.2042 18.5872 11.1584 18.6482 11.1112C18.819 10.9795 18.9905 10.8485 19.1621 10.7178C19.2136 10.6779 19.2652 10.6381 19.3183 10.5971C19.554 10.4189 19.7416 10.2925 20.0312 10.2344C20.0305 10.1165 20.0305 10.1165 20.0297 9.99624C20.0249 9.25593 20.0214 8.51563 20.0191 7.77531C20.0179 7.3947 20.0162 7.0141 20.0136 6.63349C20.011 6.26624 20.0096 5.899 20.009 5.53174C20.0086 5.39157 20.0077 5.2514 20.0065 5.11123C20.0048 4.91502 20.0045 4.71885 20.0046 4.52263C20.0038 4.46458 20.0029 4.40653 20.0021 4.34672C20.0035 4.10217 20.0179 3.9308 20.1354 3.71392C20.2656 3.59375 20.2656 3.59375 20.5 3.55469Z" fill="#FECA29"/>
<path d="M2.84374 25.625C6.29843 25.625 9.75311 25.625 13.3125 25.625C13.3125 29.1828 13.3125 32.7406 13.3125 36.4062C14.0859 36.4062 14.8594 36.4062 15.6562 36.4062C15.6562 36.2 15.6562 35.9937 15.6562 35.7812C15.8007 35.3563 16.0762 35.0958 16.4375 34.8438C16.6521 34.7722 16.7801 34.7554 17.0013 34.7541C17.102 34.7533 17.102 34.7533 17.2047 34.7524C17.2782 34.7522 17.3516 34.752 17.4272 34.7518C17.5047 34.7513 17.5823 34.7508 17.6621 34.7502C17.9191 34.7487 18.1761 34.7478 18.433 34.747C18.5208 34.7467 18.6086 34.7464 18.699 34.746C19.1638 34.7444 19.6285 34.7433 20.0932 34.7426C20.5728 34.7417 21.0524 34.739 21.532 34.7359C21.9011 34.7339 22.2702 34.7332 22.6393 34.7329C22.8161 34.7326 22.9928 34.7316 23.1696 34.7302C23.4173 34.7283 23.665 34.7284 23.9128 34.7289C23.9855 34.7279 24.0581 34.7269 24.1329 34.7259C24.5958 34.7296 24.9612 34.8057 25.3437 35.0781C25.718 35.5484 25.7344 35.7826 25.7344 36.4062C26.5078 36.4062 27.2812 36.4062 28.0781 36.4062C28.0781 32.8484 28.0781 29.2906 28.0781 25.625C31.4039 25.625 34.7297 25.625 38.1562 25.625C38.1562 29.157 38.1562 32.6891 38.1562 36.3281C38.414 36.3281 38.6719 36.3281 38.9375 36.3281C39.1787 36.4166 39.1787 36.4166 39.3281 36.5625C39.3762 36.7719 39.3762 36.7719 39.3745 37.0215C39.3742 37.1562 39.3742 37.1562 39.3739 37.2937C39.3717 37.3876 39.3695 37.4814 39.3672 37.5781C39.3674 37.672 39.3676 37.7658 39.3678 37.8625C39.3602 38.5431 39.3602 38.5431 39.2469 38.7222C39.0097 38.8863 38.7632 38.8602 38.4848 38.8576C38.4218 38.858 38.3588 38.8583 38.2939 38.8587C38.081 38.8595 37.8682 38.8587 37.6553 38.8579C37.5019 38.8582 37.3485 38.8585 37.1951 38.859C36.772 38.86 36.349 38.8595 35.926 38.8588C35.4704 38.8582 35.0147 38.8591 34.5591 38.8597C33.6659 38.8607 32.7727 38.8605 31.8795 38.8598C31.1539 38.8593 30.4282 38.8592 29.7026 38.8595C29.5995 38.8595 29.4964 38.8596 29.3902 38.8596C29.2332 38.8597 29.0763 38.8597 28.9194 38.8598C26.9571 38.8605 24.9948 38.8598 23.0326 38.8586C21.2881 38.8575 19.5437 38.8576 17.7993 38.8587C15.8406 38.8599 13.882 38.8604 11.9234 38.8597C11.7147 38.8596 11.5061 38.8596 11.2974 38.8595C11.1947 38.8595 11.092 38.8594 10.9862 38.8594C10.2611 38.8592 9.53595 38.8595 8.81083 38.8601C7.92766 38.8607 7.0445 38.8606 6.16133 38.8593C5.71036 38.8587 5.25939 38.8584 4.80842 38.8592C4.39611 38.8599 3.98382 38.8595 3.57152 38.8583C3.42185 38.858 3.27217 38.8582 3.1225 38.8587C2.92004 38.8594 2.71764 38.8587 2.51519 38.8576C2.42672 38.8584 2.42672 38.8584 2.33647 38.8593C1.94511 38.855 1.94511 38.855 1.75304 38.7222C1.55243 38.4048 1.63202 37.9404 1.6328 37.5781C1.63058 37.4843 1.62837 37.3904 1.62609 37.2937C1.62588 37.2039 1.62568 37.114 1.62548 37.0215C1.62492 36.9391 1.62437 36.8567 1.6238 36.7719C1.67186 36.5625 1.67186 36.5625 1.82125 36.4166C2.06249 36.3281 2.06249 36.3281 2.84374 36.3281C2.84374 32.7961 2.84374 29.2641 2.84374 25.625Z" fill="#FEDF81"/>
<path d="M2.84375 25.625C6.29844 25.625 9.75312 25.625 13.3125 25.625C13.3125 29.1828 13.3125 32.7406 13.3125 36.4062C9.85781 36.4062 6.40313 36.4062 2.84375 36.4062C2.84375 32.8484 2.84375 29.2906 2.84375 25.625Z" fill="#FEE081"/>
<path d="M17.0013 34.7541C17.0685 34.7535 17.1356 34.753 17.2047 34.7524C17.2782 34.7522 17.3516 34.752 17.4272 34.7518C17.5047 34.7512 17.5823 34.7507 17.6621 34.7502C17.9191 34.7487 18.1761 34.7477 18.433 34.747C18.5208 34.7466 18.6086 34.7463 18.699 34.746C19.1638 34.7444 19.6285 34.7433 20.0932 34.7425C20.5728 34.7417 21.0524 34.739 21.532 34.7359C21.9011 34.7338 22.2702 34.7332 22.6393 34.7329C22.8161 34.7325 22.9928 34.7316 23.1696 34.7302C23.4173 34.7282 23.665 34.7283 23.9128 34.7289C23.9855 34.7279 24.0581 34.7269 24.1329 34.7258C24.5958 34.7295 24.9612 34.8057 25.3437 35.0781C25.7035 35.5301 25.7435 35.8515 25.7344 36.4062C25.8359 36.4053 25.8359 36.4053 25.9395 36.4043C27.5858 36.3894 29.2322 36.3757 30.8785 36.3635C31.6747 36.3576 32.4709 36.3512 33.267 36.3438C33.9609 36.3373 34.6548 36.3317 35.3487 36.327C35.7161 36.3246 36.0836 36.3217 36.451 36.3178C36.7968 36.3141 37.1426 36.3116 37.4885 36.3099C37.6154 36.3091 37.7424 36.3078 37.8693 36.3062C38.0427 36.304 38.2159 36.3032 38.3893 36.3029C38.4863 36.3021 38.5833 36.3013 38.6832 36.3005C38.9613 36.3307 39.109 36.3906 39.3281 36.5625C39.3762 36.7718 39.3762 36.7718 39.3745 37.0214C39.3742 37.1562 39.3742 37.1562 39.3739 37.2937C39.3717 37.3875 39.3695 37.4814 39.3672 37.5781C39.3674 37.6719 39.3676 37.7658 39.3678 37.8625C39.3602 38.543 39.3602 38.543 39.2469 38.7221C39.0097 38.8862 38.7632 38.8602 38.4848 38.8576C38.4218 38.8579 38.3588 38.8583 38.2939 38.8586C38.081 38.8595 37.8682 38.8586 37.6553 38.8578C37.5019 38.8581 37.3485 38.8585 37.1951 38.8589C36.7721 38.8599 36.349 38.8594 35.926 38.8587C35.4704 38.8582 35.0147 38.859 34.5591 38.8597C33.6659 38.8607 32.7727 38.8605 31.8795 38.8598C31.1539 38.8593 30.4282 38.8592 29.7026 38.8594C29.5995 38.8595 29.4964 38.8595 29.3902 38.8596C29.2332 38.8596 29.0763 38.8597 28.9194 38.8597C26.9571 38.8604 24.9948 38.8598 23.0326 38.8585C21.2881 38.8574 19.5437 38.8575 17.7993 38.8586C15.8406 38.8599 13.882 38.8604 11.9234 38.8597C11.7147 38.8596 11.5061 38.8595 11.2974 38.8594C11.1947 38.8594 11.092 38.8594 10.9862 38.8593C10.2611 38.8591 9.53595 38.8595 8.81083 38.86C7.92766 38.8607 7.0445 38.8605 6.16133 38.8593C5.71036 38.8586 5.25939 38.8584 4.80842 38.8592C4.39611 38.8599 3.98382 38.8595 3.57152 38.8582C3.42185 38.858 3.27217 38.8581 3.1225 38.8587C2.92004 38.8594 2.71764 38.8587 2.51519 38.8576C2.42672 38.8584 2.42673 38.8584 2.33647 38.8592C1.94512 38.855 1.94511 38.855 1.75304 38.7221C1.55243 38.4048 1.63202 37.9404 1.6328 37.5781C1.63058 37.4842 1.62837 37.3904 1.62609 37.2937C1.62588 37.2038 1.62568 37.114 1.62548 37.0214C1.62492 36.9391 1.62437 36.8567 1.6238 36.7718C1.67186 36.5625 1.67186 36.5625 1.83499 36.4338C2.11597 36.3032 2.31593 36.3004 2.62553 36.3029C2.7093 36.303 2.7093 36.303 2.79476 36.3032C2.98143 36.3039 3.16804 36.3063 3.3547 36.3086C3.48868 36.3095 3.62267 36.3102 3.75665 36.3108C4.12014 36.3129 4.4836 36.3163 4.84707 36.3201C5.22701 36.3238 5.60696 36.3261 5.98692 36.3285C6.7063 36.3334 7.42567 36.3395 8.14504 36.346C8.96406 36.3533 9.7831 36.3594 10.6021 36.3652C12.2868 36.3774 13.9715 36.3913 15.6562 36.4062C15.6545 36.3081 15.6528 36.21 15.651 36.109C15.6454 35.783 15.7046 35.5884 15.8906 35.3125C16.2325 34.9673 16.5013 34.7569 17.0013 34.7541Z" fill="#BDBDBD"/>
<path d="M20.5 3.55469C20.7344 3.59375 20.7344 3.59375 20.8809 3.74023C20.9688 3.90625 20.9688 3.90625 20.9688 4.0625C22.7701 4.27666 24.3414 4.38073 26.125 3.98438C26.125 5.325 26.125 6.66563 26.125 8.04688C24.4027 8.57683 22.804 8.68672 21.0469 8.28125C21.0211 8.92578 20.9953 9.57031 20.9688 10.2344C21.1235 10.2859 21.2781 10.3375 21.4375 10.3906C21.6444 10.5438 21.6444 10.5438 21.8574 10.7324C22.2223 11.0484 22.5973 11.344 22.9854 11.6309C23.4561 11.9798 23.9167 12.3389 24.3729 12.7066C24.7161 12.9831 25.063 13.254 25.413 13.5218C25.9559 13.9373 26.4946 14.3581 27.0339 14.7781C27.2821 14.9712 27.5305 15.1639 27.779 15.3566C27.9565 15.4946 28.1336 15.633 28.3107 15.7715C28.4975 15.9174 28.6853 16.0602 28.8759 16.2012C29.3291 16.5414 29.6506 16.8477 29.7447 17.4246C29.7701 17.9126 29.6128 18.2806 29.3086 18.6523C28.9619 18.936 28.6914 19.0648 28.2393 19.0576C27.628 18.9431 27.2135 18.6178 26.7484 18.2182C26.4253 17.9415 26.091 17.6845 25.749 17.4316C25.2786 17.0828 24.8181 16.724 24.3622 16.3564C24.012 16.0742 23.6576 15.7981 23.3003 15.5249C23.0365 15.323 22.7742 15.1192 22.5133 14.9136C22.4216 14.8414 22.3298 14.7694 22.2378 14.6976C22.0072 14.5175 21.7795 14.3351 21.5553 14.147C21.5109 14.1107 21.4665 14.0743 21.4207 14.0369C21.2988 13.937 21.178 13.8358 21.0573 13.7344C20.7513 13.5586 20.5323 13.5174 20.1875 13.5938C19.9947 13.7087 19.8542 13.8091 19.6895 13.9551C19.5941 14.0346 19.4987 14.1141 19.4032 14.1934C19.3531 14.2358 19.3031 14.2781 19.2515 14.3218C18.9769 14.5505 18.6931 14.7671 18.4102 14.9854C18.2901 15.0786 18.1701 15.1719 18.0501 15.2652C17.9901 15.3118 17.9301 15.3584 17.8683 15.4064C17.5736 15.6354 17.279 15.8646 16.9844 16.0938C16.8672 16.1849 16.75 16.276 16.6328 16.3672C16.5748 16.4123 16.5168 16.4574 16.4571 16.5039C16.1934 16.709 16.1934 16.709 15.9297 16.9141C15.8716 16.9592 15.8136 17.0044 15.7537 17.051C15.6373 17.1415 15.5208 17.232 15.4043 17.3223C15.0991 17.5591 14.7953 17.7974 14.4932 18.038C14.4305 18.0877 14.3677 18.1374 14.303 18.1886C14.1834 18.2834 14.0641 18.3785 13.9453 18.4743C13.5743 18.767 13.2171 19.0365 12.7312 19.0793C12.2135 19.0116 11.8802 18.8313 11.5303 18.4375C11.2619 18.0694 11.251 17.7983 11.2813 17.3438C11.3919 16.7819 11.6992 16.5092 12.1406 16.1719C12.2123 16.116 12.2841 16.0601 12.3579 16.0025C12.5262 15.8722 12.6949 15.7426 12.8642 15.6137C13.1895 15.3658 13.5123 15.1146 13.835 14.8633C13.9553 14.7696 14.0757 14.6759 14.196 14.5822C14.2564 14.5352 14.3168 14.4881 14.3791 14.4397C14.5615 14.2977 14.744 14.1558 14.9266 14.014C15.4572 13.6017 15.9876 13.1891 16.5156 12.7734C17.1646 12.2629 17.8151 11.7545 18.4688 11.25C18.528 11.2042 18.5872 11.1584 18.6482 11.1112C18.8191 10.9795 18.9905 10.8485 19.1621 10.7178C19.2137 10.6779 19.2652 10.6381 19.3183 10.5971C19.554 10.4189 19.7416 10.2925 20.0313 10.2344C20.0305 10.1165 20.0305 10.1165 20.0297 9.99624C20.0249 9.25593 20.0214 8.51563 20.0191 7.77531C20.0179 7.3947 20.0162 7.0141 20.0136 6.63349C20.011 6.26624 20.0096 5.899 20.009 5.53174C20.0086 5.39157 20.0078 5.2514 20.0065 5.11123C20.0048 4.91502 20.0046 4.71885 20.0047 4.52263C20.0038 4.46458 20.003 4.40653 20.0021 4.34672C20.0036 4.10217 20.018 3.9308 20.1355 3.71392C20.2656 3.59375 20.2656 3.59375 20.5 3.55469Z" fill="#F37020"/>
<path d="M22.9734 28.2221C23.9639 28.9662 24.4849 29.7673 24.875 30.9376C24.875 32.2266 24.875 33.5157 24.875 34.8438C22.1164 34.8438 19.3578 34.8438 16.5156 34.8438C16.5156 30.0428 16.5156 30.0428 17.6582 28.8086C19.1147 27.4642 21.2675 27.0924 22.9734 28.2221Z" fill="#795648"/>
<path d="M6.44779 21.5537C6.52172 21.5537 6.59566 21.5537 6.67184 21.5537C6.91702 21.5537 7.16219 21.5543 7.40737 21.5549C7.57705 21.5551 7.74673 21.5552 7.91641 21.5553C8.36363 21.5556 8.81084 21.5563 9.25806 21.5572C9.79431 21.5582 10.3306 21.5585 10.8668 21.559C11.6821 21.5597 12.4973 21.5612 13.3125 21.5626C13.3125 22.9032 13.3125 24.2438 13.3125 25.6251C11.8993 25.6286 10.4862 25.6315 9.07296 25.6332C8.41683 25.634 7.7607 25.6351 7.10456 25.6369C6.53284 25.6384 5.96111 25.6394 5.38938 25.6398C5.08651 25.64 4.78365 25.6405 4.48078 25.6416C4.19595 25.6427 3.91112 25.643 3.62628 25.6427C3.47143 25.6428 3.31658 25.6437 3.16174 25.6445C3.07015 25.6443 2.97857 25.6441 2.8842 25.6439C2.7643 25.6441 2.7643 25.6441 2.64197 25.6443C2.45315 25.6251 2.45315 25.6251 2.2969 25.4688C2.2432 25.2362 2.22997 25.1447 2.2969 24.922C2.50425 24.6359 2.75529 24.3982 3.00918 24.1535C3.08164 24.0816 3.1541 24.0098 3.22876 23.9357C3.42092 23.7452 3.61471 23.5564 3.80886 23.3679C3.96732 23.2135 4.12461 23.0579 4.28185 22.9022C4.60643 22.581 4.93192 22.2606 5.2592 21.9421C5.31715 21.8856 5.37509 21.8292 5.43479 21.771C5.73813 21.4953 6.05902 21.5522 6.44779 21.5537Z" fill="#F78F1E"/>
<path d="M28.0781 21.5625C29.8468 21.5405 29.8468 21.5405 30.6025 21.5358C31.1176 21.5325 31.6326 21.5286 32.1476 21.5212C32.563 21.5153 32.9783 21.512 33.3938 21.5106C33.552 21.5096 33.7102 21.5076 33.8684 21.5046C35.2648 21.4796 35.2648 21.4796 35.6379 21.7987C35.7248 21.9 35.809 22.0037 35.8906 22.1093C35.999 22.2146 36.1088 22.3184 36.2198 22.4209C36.528 22.7196 36.834 23.0205 37.1394 23.3222C37.271 23.4517 37.4031 23.5806 37.5358 23.709C37.7285 23.8955 37.9193 24.0837 38.1099 24.2724C38.1694 24.3294 38.229 24.3864 38.2903 24.4451C38.6918 24.8481 38.6918 24.8481 38.75 25.2261C38.7031 25.4687 38.7031 25.4687 38.5469 25.625C38.3642 25.6442 38.3642 25.6442 38.1307 25.6438C37.9982 25.6441 37.9982 25.6441 37.8631 25.6444C37.7657 25.6438 37.6684 25.6433 37.5681 25.6427C37.4149 25.6427 37.4149 25.6427 37.2587 25.6428C36.9781 25.6428 36.6976 25.6419 36.4171 25.6408C36.1241 25.6398 35.8311 25.6397 35.5381 25.6396C34.9831 25.6391 34.4281 25.6378 33.873 25.6362C33.2412 25.6345 32.6094 25.6336 31.9776 25.6328C30.6778 25.6312 29.378 25.6283 28.0781 25.625C28.0781 24.2843 28.0781 22.9437 28.0781 21.5625Z" fill="#F68F1E"/>
<path d="M22.2969 15.7812C22.5267 15.9462 22.7264 16.124 22.9219 16.3281C22.9595 16.3668 22.997 16.4054 23.0357 16.4453C23.6704 17.1509 23.7589 17.9181 23.7165 18.8294C23.655 19.5443 23.2679 20.1327 22.7657 20.625C21.929 21.2741 21.0689 21.4445 20.0313 21.3281C19.1987 21.1258 18.5722 20.6333 18.1221 19.9121C17.685 19.1525 17.6365 18.2663 17.8166 17.4154C18.1341 16.5503 18.7677 15.9622 19.5686 15.5392C20.4429 15.1805 21.5004 15.3088 22.2969 15.7812Z" fill="#FEFEFD"/>
<path d="M26.125 3.98438C26.125 5.325 26.125 6.66563 26.125 8.04688C24.629 8.50719 22.4056 8.96062 20.8906 8.20312C20.8906 6.83672 20.8906 5.47031 20.8906 4.0625C21.5059 4.13086 22.1211 4.19922 22.7363 4.26758C23.7053 4.34932 24.7392 4.37041 25.6703 4.05701C25.8906 3.98438 25.8906 3.98438 26.125 3.98438Z" fill="#F0582B"/>
<path d="M17.0013 34.7541C17.0685 34.7535 17.1356 34.753 17.2048 34.7524C17.2782 34.7522 17.3516 34.752 17.4272 34.7518C17.5048 34.7512 17.5823 34.7507 17.6621 34.7502C17.9191 34.7487 18.1761 34.7477 18.433 34.747C18.5208 34.7466 18.6086 34.7463 18.6991 34.746C19.1638 34.7444 19.6285 34.7433 20.0932 34.7425C20.5728 34.7417 21.0524 34.739 21.532 34.7359C21.9011 34.7338 22.2702 34.7332 22.6393 34.7329C22.8161 34.7325 22.9928 34.7316 23.1696 34.7302C23.4174 34.7282 23.6651 34.7283 23.9128 34.7289C23.9855 34.7279 24.0581 34.7269 24.1329 34.7258C24.5958 34.7295 24.9612 34.8057 25.3438 35.0781C25.718 35.5483 25.7344 35.7825 25.7344 36.4062C22.4086 36.4062 19.0828 36.4062 15.6562 36.4062C15.6562 35.549 15.6562 35.549 16.0197 35.1821C16.3375 34.8993 16.5662 34.7566 17.0013 34.7541Z" fill="#DEDEDD"/>
<path d="M22.2969 15.7812C22.5267 15.9462 22.7264 16.124 22.9219 16.3281C22.9595 16.3668 22.997 16.4054 23.0357 16.4453C23.6704 17.1509 23.7589 17.9181 23.7165 18.8294C23.655 19.5443 23.2679 20.1327 22.7657 20.625C21.929 21.2741 21.0689 21.4445 20.0313 21.3281C19.1987 21.1258 18.5722 20.6333 18.1221 19.9121C17.685 19.1525 17.6365 18.2663 17.8166 17.4154C18.1341 16.5503 18.7677 15.9622 19.5686 15.5392C20.4429 15.1805 21.5004 15.3088 22.2969 15.7812ZM18.9375 17.0312C18.53 17.5931 18.459 18.1478 18.5469 18.8281C18.6996 19.5006 19.0781 19.9619 19.6455 20.3424C20.2151 20.6418 20.9237 20.6555 21.5352 20.4687C22.1663 20.1839 22.5878 19.6917 22.8438 19.0625C23.0077 18.5707 22.996 18.0008 22.7998 17.5195C22.4339 16.8121 21.9489 16.4204 21.2032 16.1718C20.2678 16.0862 19.5666 16.3201 18.9375 17.0312Z" fill="#FEDF81"/>
<path d="M20.8125 13.5156C21.0113 13.6354 21.1593 13.7409 21.3301 13.8915C21.4259 13.9713 21.5217 14.0511 21.6175 14.1308C21.6656 14.1717 21.7138 14.2126 21.7633 14.2547C21.9823 14.4389 22.2078 14.6142 22.4336 14.79C22.5247 14.8616 22.6159 14.9332 22.707 15.0048C23.2119 15.4007 23.7188 15.794 24.2254 16.1876C24.4618 16.3713 24.6982 16.5551 24.9345 16.7389C25.0506 16.8293 25.1668 16.9196 25.283 17.0099C25.5881 17.247 25.8928 17.4845 26.197 17.7227C26.2601 17.7721 26.3233 17.8214 26.3883 17.8723C26.5087 17.9663 26.6289 18.0605 26.7491 18.1548C27.3991 18.6652 27.3991 18.6652 28.1562 18.9843C28.1562 19.2679 28.1562 19.5515 28.1562 19.8437C27.5932 19.6813 27.1942 19.38 26.7375 19.0194C26.5788 18.8944 26.4191 18.7707 26.2593 18.6471C25.6738 18.1939 25.0911 17.7373 24.5093 17.2794C24.0256 16.8989 23.5395 16.5213 23.0534 16.1437C22.8035 15.9496 22.5539 15.7551 22.3045 15.5602C22.2419 15.5114 22.1793 15.4625 22.1147 15.4122C21.9957 15.3193 21.8767 15.2263 21.7578 15.1332C21.6502 15.0492 21.5421 14.9657 21.4337 14.8827C21.3334 14.8056 21.234 14.7272 21.1358 14.6475C20.9284 14.4856 20.7607 14.3806 20.5021 14.3249C20.1629 14.3967 19.9516 14.5706 19.6846 14.7851C19.6031 14.8484 19.6031 14.8484 19.52 14.9129C19.3508 15.0449 19.1831 15.1784 19.0156 15.3124C18.9642 15.3533 18.9128 15.3942 18.8598 15.4363C18.6134 15.6321 18.3677 15.829 18.1227 16.0265C17.8276 16.2638 17.5282 16.4948 17.2276 16.7249C16.8668 17.001 16.5079 17.2795 16.1494 17.5585C16.0611 17.6272 16.0611 17.6272 15.971 17.6973C15.6599 17.9394 15.3491 18.1817 15.0386 18.4243C14.976 18.4731 14.9134 18.522 14.8489 18.5722C14.73 18.6651 14.6111 18.758 14.4922 18.851C13.5199 19.6093 13.5199 19.6093 13.3125 19.6093C13.2497 19.331 13.2397 19.1054 13.3125 18.8281C13.5427 18.5824 13.8173 18.4111 14.0975 18.2284C14.3838 18.0341 14.6523 17.8166 14.9238 17.6025C15.0452 17.5077 15.1667 17.413 15.2882 17.3184C15.3491 17.2708 15.4101 17.2232 15.4729 17.1742C15.7681 16.9439 16.0638 16.7141 16.3594 16.4843C16.4765 16.3932 16.5937 16.302 16.7109 16.2109C16.9453 16.0286 17.1797 15.8463 17.414 15.664C17.4721 15.6188 17.5302 15.5736 17.5901 15.5271C17.7064 15.4366 17.8227 15.3462 17.939 15.2557C18.2456 15.0173 18.5522 14.7787 18.8587 14.54C18.9226 14.4903 18.9864 14.4406 19.0522 14.3894C19.1745 14.2942 19.2968 14.199 19.419 14.1038C19.4742 14.0608 19.5294 14.0179 19.5863 13.9736C19.6346 13.936 19.6829 13.8984 19.7327 13.8596C19.8031 13.8053 19.8031 13.8053 19.875 13.7499C19.9263 13.7074 19.9777 13.6649 20.0305 13.6212C20.279 13.454 20.5282 13.46 20.8125 13.5156Z" fill="#E8B600"/>
<path d="M22.6138 22.7823C22.7089 22.7812 22.7089 22.7812 22.8058 22.78C22.908 22.7807 22.908 22.7807 23.0122 22.7815C23.1175 22.7811 23.1175 22.7811 23.225 22.7808C23.3734 22.7806 23.5218 22.7811 23.6702 22.782C23.8976 22.7833 24.1249 22.7821 24.3523 22.7806C24.4964 22.7807 24.6405 22.781 24.7847 22.7815C24.8528 22.781 24.9209 22.7805 24.9911 22.78C25.0545 22.7808 25.1178 22.7815 25.1831 22.7823C25.2388 22.7825 25.2944 22.7826 25.3518 22.7828C25.5466 22.822 25.6158 22.8895 25.7344 23.047C25.7586 23.2509 25.7691 23.4359 25.7683 23.6399C25.7687 23.6978 25.7691 23.7557 25.7695 23.8153C25.77 23.9377 25.7699 24.06 25.7692 24.1824C25.7686 24.3693 25.7708 24.5561 25.7733 24.743C25.7734 24.862 25.7734 24.9809 25.7732 25.0999C25.7745 25.1835 25.7745 25.1835 25.7758 25.2688C25.7723 25.5165 25.7476 25.6814 25.6186 25.8946C25.328 26.0736 25.0712 26.0605 24.7359 26.0572C24.6694 26.0575 24.603 26.0578 24.5345 26.0581C24.3942 26.0583 24.254 26.0578 24.1137 26.0565C23.8992 26.0548 23.6848 26.0564 23.4703 26.0584C23.3339 26.0582 23.1975 26.0578 23.0611 26.0572C22.997 26.0579 22.9329 26.0585 22.867 26.0591C22.5869 26.0545 22.4201 26.0435 22.1783 25.8946C22.0197 25.6324 22.0191 25.3975 22.0238 25.0999C22.0236 25.0419 22.0235 24.984 22.0234 24.9243C22.0235 24.802 22.0244 24.6798 22.0261 24.5576C22.0283 24.3706 22.0277 24.1836 22.0267 23.9965C22.0271 23.8777 22.0278 23.7588 22.0286 23.6399C22.0284 23.584 22.0282 23.5281 22.0279 23.4705C22.0353 23.0831 22.0353 23.0831 22.1619 22.9151C22.3263 22.7903 22.4092 22.783 22.6138 22.7823Z" fill="#FFFEFC"/>
<path d="M16.606 22.7738C16.6762 22.7736 16.7464 22.7735 16.8187 22.7734C16.9671 22.7735 17.1156 22.7744 17.264 22.7761C17.4914 22.7783 17.7186 22.7777 17.946 22.7767C18.0901 22.7771 18.2343 22.7778 18.3784 22.7786C18.4466 22.7784 18.5147 22.7782 18.5849 22.7779C18.6482 22.7789 18.7116 22.7799 18.7768 22.781C18.8325 22.7814 18.8882 22.7818 18.9456 22.7822C19.1401 22.822 19.2096 22.8896 19.3281 23.0469C19.3514 23.2509 19.361 23.4359 19.3593 23.6398C19.3595 23.6977 19.3597 23.7556 19.36 23.8153C19.3601 23.9376 19.3597 24.0599 19.3587 24.1823C19.3574 24.3692 19.3587 24.556 19.3602 24.7429C19.36 24.8619 19.3597 24.9808 19.3593 25.0998C19.36 25.1834 19.36 25.1834 19.3607 25.2688C19.3575 25.4951 19.336 25.6834 19.2525 25.8945C18.9946 26.0913 18.7096 26.0601 18.3983 26.0571C18.33 26.0574 18.2617 26.0577 18.1913 26.0581C18.0469 26.0583 17.9025 26.0577 17.7581 26.0564C17.5372 26.0547 17.3165 26.0564 17.0956 26.0584C16.9553 26.0582 16.815 26.0578 16.6746 26.0571C16.5756 26.0581 16.5756 26.0581 16.4746 26.0591C16.1893 26.0545 16.0169 26.0454 15.7708 25.8933C15.6163 25.6368 15.6128 25.4105 15.6175 25.1196C15.6174 25.0636 15.6173 25.0076 15.6172 24.9498C15.6173 24.8316 15.6182 24.7134 15.6198 24.5952C15.6221 24.4147 15.6214 24.2343 15.6204 24.0537C15.6209 23.9386 15.6216 23.8236 15.6224 23.7085C15.6222 23.6547 15.6219 23.6009 15.6217 23.5455C15.626 23.3246 15.6501 23.1408 15.7309 22.9347C15.9963 22.7317 16.2814 22.7696 16.606 22.7738Z" fill="#FFFEFC"/>
<path d="M9.99221 31.521C10.0744 31.5206 10.1566 31.5202 10.2412 31.5198C10.3266 31.521 10.412 31.5222 10.5 31.5234C10.6281 31.5216 10.6281 31.5216 10.7588 31.5198C10.841 31.5202 10.9232 31.5206 11.0078 31.521C11.1202 31.5215 11.1202 31.5215 11.2349 31.5221C11.509 31.5768 11.5938 31.6424 11.75 31.875C11.7952 32.104 11.7938 32.3283 11.7915 32.561C11.7918 32.6275 11.7921 32.6939 11.7924 32.7624C11.7926 32.9026 11.7921 33.0429 11.7908 33.1832C11.7891 33.3977 11.7908 33.6121 11.7927 33.8266C11.7925 33.963 11.7921 34.0994 11.7915 34.2358C11.7922 34.2999 11.7928 34.3639 11.7934 34.4299C11.7887 34.7172 11.781 34.8757 11.618 35.1184C11.3982 35.2596 11.2681 35.2747 11.0078 35.2759C10.9257 35.2763 10.8435 35.2767 10.7588 35.2771C10.6734 35.2759 10.588 35.2747 10.5 35.2734C10.4146 35.2746 10.3292 35.2759 10.2412 35.2771C10.1591 35.2767 10.0769 35.2763 9.99221 35.2759C9.91729 35.2755 9.84236 35.2752 9.76516 35.2748C9.4911 35.2201 9.40627 35.1545 9.25002 34.9219C9.20484 34.6929 9.20622 34.4686 9.20852 34.2358C9.20822 34.1694 9.20792 34.1029 9.20761 34.0345C9.2074 33.8942 9.20798 33.754 9.20928 33.6137C9.21096 33.3992 9.2093 33.1848 9.2073 32.9703C9.20751 32.8339 9.20791 32.6974 9.20852 32.561C9.20789 32.497 9.20726 32.4329 9.2066 32.3669C9.21132 32.0797 9.21902 31.9212 9.38201 31.6785C9.6018 31.5373 9.73198 31.5222 9.99221 31.521Z" fill="#FFFEFD"/>
<path d="M9.94333 26.7554C10.0332 26.755 10.123 26.7546 10.2155 26.7542C10.3094 26.7554 10.4033 26.7566 10.5 26.7578C10.5938 26.7566 10.6877 26.7554 10.7844 26.7542C10.8742 26.7546 10.9641 26.755 11.0566 26.7554C11.1802 26.7559 11.1802 26.7559 11.3062 26.7564C11.5156 26.7969 11.5156 26.7969 11.6595 26.9139C11.7908 27.1977 11.7834 27.4717 11.7811 27.7783C11.7813 27.843 11.7815 27.9077 11.7818 27.9744C11.7819 28.111 11.7815 28.2476 11.7805 28.3842C11.7793 28.593 11.7805 28.8018 11.782 29.0106C11.7819 29.1435 11.7816 29.2763 11.7811 29.4092C11.7818 29.5027 11.7818 29.5027 11.7825 29.5981C11.7794 29.8471 11.7648 30.0461 11.6595 30.2736C11.4565 30.4387 11.3164 30.431 11.0566 30.4321C10.9219 30.4327 10.9219 30.4327 10.7844 30.4333C10.6905 30.4321 10.5967 30.4309 10.5 30.4297C10.3592 30.4315 10.3592 30.4315 10.2155 30.4333C10.0808 30.4327 10.0808 30.4327 9.94333 30.4321C9.81976 30.4316 9.81976 30.4316 9.6937 30.4311C9.48435 30.3906 9.48435 30.3906 9.34042 30.2736C9.2091 29.9898 9.21651 29.7158 9.21884 29.4092C9.21851 29.3121 9.21851 29.3121 9.21817 29.2131C9.21801 29.0765 9.21844 28.9399 9.21942 28.8033C9.22067 28.5945 9.21943 28.3857 9.21793 28.1769C9.21808 28.044 9.21838 27.9112 9.21884 27.7783C9.21837 27.716 9.2179 27.6536 9.21741 27.5894C9.22056 27.3404 9.23515 27.1414 9.34042 26.9139C9.54343 26.7488 9.68355 26.7565 9.94333 26.7554Z" fill="#FEFEFE"/>
<path d="M34.8701 31.5284C34.9987 31.5261 34.9987 31.5261 35.1299 31.5237C35.2125 31.5237 35.295 31.5238 35.38 31.5238C35.4555 31.5237 35.5309 31.5235 35.6086 31.5234C35.8125 31.5626 35.8125 31.5626 35.9932 31.6784C36.1869 31.9675 36.1698 32.2201 36.1665 32.5611C36.1668 32.6276 36.1671 32.694 36.1674 32.7625C36.1676 32.9027 36.167 33.043 36.1657 33.1833C36.164 33.3978 36.1657 33.6121 36.1677 33.8267C36.1675 33.9631 36.1671 34.0995 36.1665 34.2359C36.1671 34.3 36.1677 34.364 36.1684 34.43C36.1637 34.7172 36.1559 34.8759 35.9932 35.1187C35.7721 35.2604 35.6416 35.2737 35.38 35.2732C35.2975 35.2733 35.215 35.2733 35.1299 35.2734C35.0442 35.2718 34.9584 35.2702 34.8701 35.2686C34.784 35.2692 34.698 35.2697 34.6093 35.2703C33.977 35.2653 33.977 35.2653 33.8101 35.1351C33.6798 34.9706 33.6735 34.8909 33.6728 34.6832C33.672 34.6198 33.6713 34.5565 33.6705 34.4912C33.671 34.4231 33.6715 34.3549 33.672 34.2848C33.6717 34.2145 33.6715 34.1443 33.6713 34.072C33.6711 33.9236 33.6716 33.7752 33.6725 33.6268C33.6738 33.3994 33.6726 33.1721 33.6711 32.9447C33.6712 32.8006 33.6715 32.6564 33.672 32.5123C33.6715 32.4442 33.671 32.3761 33.6705 32.3059C33.6713 32.2425 33.672 32.1792 33.6728 32.1139C33.673 32.0582 33.6731 32.0025 33.6733 31.9452C33.7856 31.3862 34.4352 31.5256 34.8701 31.5284Z" fill="#FFFEFD"/>
<path d="M30.8857 31.5284C31.0143 31.5261 31.0143 31.5261 31.1456 31.5237C31.2281 31.5237 31.3106 31.5238 31.3957 31.5238C31.4711 31.5237 31.5465 31.5235 31.6242 31.5234C31.8281 31.5626 31.8281 31.5626 32.0088 31.6784C32.2025 31.9675 32.1855 32.2201 32.1821 32.5611C32.1824 32.6276 32.1827 32.694 32.183 32.7625C32.1832 32.9027 32.1826 33.043 32.1813 33.1833C32.1797 33.3978 32.1813 33.6121 32.1833 33.8267C32.1831 33.9631 32.1827 34.0995 32.1821 34.2359C32.1827 34.3 32.1834 34.364 32.184 34.43C32.1793 34.7172 32.1715 34.8759 32.0088 35.1187C31.7877 35.2604 31.6572 35.2737 31.3957 35.2732C31.3131 35.2733 31.2306 35.2733 31.1456 35.2734C31.0598 35.2718 30.9741 35.2702 30.8857 35.2686C30.7997 35.2692 30.7136 35.2697 30.6249 35.2703C29.9926 35.2653 29.9926 35.2653 29.8257 35.1351C29.6954 34.9706 29.6891 34.8909 29.6884 34.6832C29.6877 34.6198 29.6869 34.5565 29.6862 34.4912C29.6866 34.4231 29.6871 34.3549 29.6876 34.2848C29.6874 34.2145 29.6871 34.1443 29.6869 34.072C29.6868 33.9236 29.6872 33.7752 29.6882 33.6268C29.6894 33.3994 29.6882 33.1721 29.6867 32.9447C29.6868 32.8006 29.6871 32.6564 29.6876 32.5123C29.6871 32.4442 29.6866 32.3761 29.6862 32.3059C29.6869 32.2425 29.6876 32.1792 29.6884 32.1139C29.6886 32.0582 29.6888 32.0025 29.689 31.9452C29.8012 31.3862 30.4508 31.5256 30.8857 31.5284Z" fill="#FFFEFD"/>
<path d="M6.01058 31.5238C6.09311 31.5238 6.17564 31.5237 6.26068 31.5237C6.34643 31.5252 6.43218 31.5268 6.52053 31.5284C6.60659 31.5279 6.69264 31.5273 6.78131 31.5267C7.41361 31.5318 7.41361 31.5318 7.58055 31.6619C7.71086 31.8264 7.71716 31.9061 7.71785 32.1139C7.71896 32.2089 7.71896 32.2089 7.72009 32.3059C7.71962 32.374 7.71914 32.4421 7.71865 32.5123C7.71888 32.5825 7.7191 32.6527 7.71933 32.7251C7.71949 32.8735 7.71906 33.0219 7.71808 33.1703C7.71683 33.3977 7.71807 33.6249 7.71957 33.8523C7.71941 33.9965 7.71911 34.1406 7.71865 34.2848C7.71936 34.3869 7.71936 34.3869 7.72009 34.4912C7.71935 34.5545 7.71861 34.6179 7.71785 34.6832C7.71767 34.7388 7.71748 34.7945 7.71729 34.8519C7.67854 35.0448 7.60666 35.1148 7.45315 35.2345C7.14468 35.2847 6.83263 35.2707 6.52053 35.2686C6.3919 35.271 6.3919 35.271 6.26068 35.2734C6.17815 35.2733 6.09562 35.2733 6.01058 35.2732C5.89745 35.2734 5.89745 35.2734 5.78203 35.2737C5.57815 35.2345 5.57815 35.2345 5.39747 35.1187C5.20373 34.8296 5.22078 34.5769 5.22415 34.2359C5.22385 34.1695 5.22355 34.103 5.22324 34.0346C5.22303 33.8943 5.2236 33.7541 5.22491 33.6138C5.22658 33.3992 5.22492 33.1849 5.22293 32.9704C5.22313 32.834 5.22353 32.6975 5.22415 32.5611C5.22351 32.4971 5.22288 32.433 5.22223 32.367C5.22695 32.0798 5.23477 31.9212 5.39747 31.6784C5.61856 31.5367 5.749 31.5233 6.01058 31.5238Z" fill="#FFFEFD"/>
<path d="M34.3794 26.7658C34.4657 26.7655 34.552 26.7652 34.6409 26.7649C34.731 26.7658 34.8212 26.7667 34.914 26.7676C35.0492 26.7663 35.0492 26.7663 35.1872 26.7649C35.2735 26.7652 35.3598 26.7655 35.4487 26.7658C35.5278 26.7661 35.6069 26.7663 35.6884 26.7666C35.9257 26.8022 35.9789 26.8465 36.125 27.0313C36.1483 27.2695 36.1578 27.4914 36.1561 27.7296C36.1563 27.798 36.1566 27.8665 36.1568 27.9371C36.1569 28.0818 36.1565 28.2265 36.1555 28.3713C36.1543 28.593 36.1555 28.8146 36.157 29.0363C36.1569 29.1769 36.1566 29.3175 36.1561 29.4581C36.1568 29.5577 36.1568 29.5577 36.1575 29.6593C36.152 30.1219 36.152 30.1219 36.0191 30.291C35.8268 30.4402 35.6693 30.421 35.4289 30.4218C35.2936 30.4223 35.2936 30.4223 35.1556 30.4227C35.0614 30.4218 34.9672 30.4209 34.8701 30.42C34.7756 30.4209 34.6811 30.4218 34.5837 30.4227C34.4936 30.4224 34.4035 30.4221 34.3107 30.4218C34.2279 30.4215 34.1451 30.4213 34.0598 30.421C33.9937 30.411 33.9275 30.401 33.8594 30.3907C33.6539 30.0825 33.6792 29.8158 33.6796 29.4581C33.6793 29.3896 33.6789 29.3211 33.6786 29.2506C33.6781 29.1058 33.6781 28.9611 33.6784 28.8164C33.6787 28.5946 33.6769 28.373 33.6749 28.1513C33.6747 28.0107 33.6746 27.8701 33.6747 27.7296C33.674 27.6631 33.6733 27.5967 33.6725 27.5283C33.6762 27.0654 33.6762 27.0654 33.8095 26.8967C33.9971 26.7505 34.1441 26.7666 34.3794 26.7658Z" fill="#FEFEFE"/>
<path d="M30.9297 26.7676C31.0198 26.7657 31.1099 26.7638 31.2028 26.7618C31.2891 26.7615 31.3754 26.7612 31.4643 26.7609C31.5434 26.7603 31.6226 26.7596 31.7041 26.759C31.9062 26.7969 31.9062 26.7969 32.0491 26.9136C32.1817 27.1975 32.1741 27.4713 32.1717 27.7784C32.172 27.8431 32.1722 27.9078 32.1724 27.9745C32.1726 28.1111 32.1721 28.2477 32.1712 28.3842C32.1699 28.5931 32.1712 28.8018 32.1727 29.0107C32.1725 29.1435 32.1722 29.2764 32.1717 29.4092C32.1724 29.5028 32.1724 29.5028 32.1732 29.5982C32.17 29.8472 32.1553 30.0464 32.0503 30.274C31.846 30.4395 31.7054 30.4287 31.4445 30.4267C31.3543 30.4264 31.2641 30.4261 31.1712 30.4258C31.077 30.4239 30.9828 30.422 30.8857 30.42C30.7912 30.4199 30.6967 30.4198 30.5993 30.4197C29.8969 30.4126 29.8969 30.4126 29.7187 30.2344C29.6984 30.0921 29.6984 30.0921 29.6973 29.918C29.6965 29.8528 29.6958 29.7876 29.695 29.7205C29.6951 29.65 29.6952 29.5795 29.6952 29.5069C29.6949 29.4347 29.6946 29.3624 29.6942 29.288C29.6938 29.1351 29.6937 28.9822 29.6941 28.8293C29.6943 28.5948 29.6925 28.3602 29.6905 28.1257C29.6903 27.9774 29.6903 27.829 29.6904 27.6807C29.6896 27.6103 29.6889 27.5398 29.6882 27.4672C29.6887 27.402 29.6891 27.3368 29.6896 27.2697C29.6896 27.2122 29.6895 27.1547 29.6895 27.0955C29.787 26.6207 30.5697 26.768 30.9297 26.7676Z" fill="#FEFEFE"/>
<path d="M5.94187 26.7658C6.02817 26.7655 6.11448 26.7652 6.2034 26.7649C6.29354 26.7658 6.38367 26.7667 6.47654 26.7676C6.61174 26.7663 6.61174 26.7663 6.74967 26.7649C6.83597 26.7652 6.92228 26.7655 7.0112 26.7658C7.09031 26.7661 7.16942 26.7663 7.25092 26.7666C7.48821 26.8022 7.54136 26.8465 7.68747 27.0313C7.71079 27.2695 7.7203 27.4914 7.7186 27.7296C7.71883 27.798 7.71905 27.8665 7.71928 27.9371C7.71944 28.0818 7.71901 28.2265 7.71803 28.3713C7.71677 28.593 7.71802 28.8146 7.71952 29.0363C7.71936 29.1769 7.71906 29.3175 7.7186 29.4581C7.71931 29.5577 7.71931 29.5577 7.72004 29.6593C7.7145 30.1221 7.7145 30.1221 7.58103 30.291C7.39349 30.4372 7.24648 30.421 7.0112 30.4218C6.9249 30.4221 6.83859 30.4224 6.74967 30.4227C6.65953 30.4218 6.5694 30.4209 6.47654 30.42C6.3864 30.4209 6.29627 30.4218 6.2034 30.4227C6.1171 30.4224 6.03079 30.4221 5.94187 30.4218C5.86276 30.4215 5.78366 30.4213 5.70215 30.421C5.46486 30.3854 5.41171 30.3411 5.2656 30.1563C5.24228 29.9181 5.23277 29.6963 5.23447 29.4581C5.23425 29.3896 5.23402 29.3211 5.23379 29.2506C5.23363 29.1058 5.23406 28.9611 5.23504 28.8164C5.2363 28.5946 5.23505 28.373 5.23355 28.1513C5.23371 28.0107 5.23401 27.8701 5.23447 27.7296C5.234 27.6631 5.23352 27.5967 5.23303 27.5283C5.23857 27.0655 5.23857 27.0655 5.37204 26.8967C5.55958 26.7505 5.70659 26.7666 5.94187 26.7658Z" fill="#FEFEFE"/>
<path d="M2.84375 25.625C6.29844 25.625 9.75312 25.625 13.3125 25.625C13.3125 25.8828 13.3125 26.1406 13.3125 26.4062C9.85781 26.4062 6.40313 26.4062 2.84375 26.4062C2.84375 26.1484 2.84375 25.8906 2.84375 25.625Z" fill="#E9CD76"/>
<path d="M28.0781 25.625C31.4039 25.625 34.7297 25.625 38.1562 25.625C38.1562 25.8828 38.1562 26.1406 38.1562 26.4062C34.8305 26.4062 31.5047 26.4062 28.0781 26.4062C28.0781 26.1484 28.0781 25.8906 28.0781 25.625Z" fill="#E9CD76"/>
<path d="M20.5 3.55469C20.7344 3.59375 20.7344 3.59375 20.8645 3.71437C21.0083 3.97906 20.9997 4.22201 20.9953 4.51546C20.9954 4.57646 20.9954 4.63747 20.9954 4.70032C20.9953 4.90155 20.9935 5.10273 20.9916 5.30396C20.9912 5.44363 20.9909 5.58331 20.9906 5.72299C20.9897 6.09033 20.9874 6.45764 20.9848 6.82497C20.9824 7.19992 20.9814 7.57487 20.9802 7.94983C20.9777 8.68531 20.9737 9.42078 20.9687 10.1562C20.5047 10.1949 20.5047 10.1949 20.0312 10.2344C20.0258 9.41469 20.0216 8.59501 20.0191 7.77531C20.0179 7.3947 20.0162 7.0141 20.0136 6.63349C20.011 6.26624 20.0096 5.899 20.009 5.53174C20.0086 5.39157 20.0077 5.2514 20.0065 5.11123C20.0048 4.91502 20.0045 4.71885 20.0046 4.52263C20.0038 4.46458 20.0029 4.40653 20.0021 4.34672C20.0035 4.10217 20.0179 3.9308 20.1354 3.71392C20.2656 3.59375 20.2656 3.59375 20.5 3.55469Z" fill="#FCB316"/>
<path d="M9.25 31.875C9.27578 31.875 9.30156 31.875 9.32813 31.875C9.32813 32.4422 9.32813 33.0094 9.32813 33.5938C10.1016 33.5938 10.875 33.5938 11.6719 33.5938C11.6719 33.0266 11.6719 32.4594 11.6719 31.875C11.6977 31.875 11.7234 31.875 11.75 31.875C11.7577 32.3032 11.7634 32.7314 11.7672 33.1596C11.7687 33.3053 11.7709 33.4509 11.7736 33.5965C11.7774 33.806 11.7791 34.0154 11.7805 34.2249C11.7821 34.2899 11.7837 34.3549 11.7854 34.4219C11.7855 34.7126 11.7827 34.8728 11.6187 35.1191C11.3985 35.2592 11.2678 35.2747 11.0078 35.2759C10.9256 35.2763 10.8435 35.2767 10.7588 35.2771C10.6734 35.2759 10.588 35.2747 10.5 35.2734C10.4146 35.2746 10.3292 35.2759 10.2412 35.2771C10.159 35.2767 10.0769 35.2763 9.99219 35.2759C9.91726 35.2755 9.84234 35.2752 9.76514 35.2748C9.5625 35.2344 9.5625 35.2344 9.3813 35.1191C9.18629 34.8262 9.21095 34.5691 9.21948 34.2249C9.21993 34.1577 9.22037 34.0905 9.22082 34.0213C9.22257 33.8071 9.22649 33.593 9.23047 33.3789C9.23204 33.2335 9.23346 33.0882 9.23474 32.9428C9.23818 32.5868 9.24358 32.2309 9.25 31.875Z" fill="#F6F3EE"/>
<path d="M9.25001 27.1094C9.27579 27.1094 9.30157 27.1094 9.32814 27.1094C9.32814 27.6766 9.32814 28.2437 9.32814 28.8281C10.1016 28.8281 10.875 28.8281 11.6719 28.8281C11.6719 28.2609 11.6719 27.6938 11.6719 27.1094C11.6977 27.1094 11.7234 27.1094 11.75 27.1094C11.7558 27.5264 11.7601 27.9435 11.7629 28.3606C11.7641 28.5025 11.7657 28.6443 11.7677 28.7862C11.7705 28.9902 11.7719 29.1942 11.7729 29.3982C11.7741 29.4615 11.7753 29.5248 11.7766 29.5901C11.7766 29.8423 11.766 30.0434 11.6601 30.2743C11.4566 30.4382 11.3162 30.431 11.0567 30.4321C10.9219 30.4327 10.9219 30.4327 10.7844 30.4333C10.6906 30.4321 10.5967 30.4309 10.5 30.4297C10.3592 30.4315 10.3592 30.4315 10.2156 30.4333C10.0808 30.4327 10.0808 30.4327 9.94337 30.4321C9.8198 30.4316 9.8198 30.4316 9.69374 30.4311C9.48439 30.3906 9.48439 30.3906 9.33994 30.2743C9.20798 29.9865 9.2212 29.7084 9.22712 29.3982C9.22745 29.3327 9.22779 29.2673 9.22813 29.1999C9.22944 28.9913 9.23238 28.7828 9.23536 28.5742C9.23654 28.4326 9.23761 28.291 9.23857 28.1494C9.24115 27.8027 9.24519 27.4561 9.25001 27.1094Z" fill="#F6F3EF"/>
<path d="M32.0625 31.875C32.0883 31.875 32.114 31.875 32.1406 31.875C32.1483 32.3032 32.154 32.7314 32.1578 33.1596C32.1593 33.3053 32.1615 33.4509 32.1642 33.5965C32.168 33.806 32.1697 34.0154 32.1711 34.2249C32.1727 34.2899 32.1743 34.3549 32.176 34.4219C32.1761 34.7126 32.1732 34.8729 32.0095 35.1193C31.788 35.2598 31.657 35.2736 31.3957 35.2731C31.3131 35.2732 31.2306 35.2732 31.1456 35.2733C31.0598 35.2717 30.9741 35.2702 30.8857 35.2686C30.7997 35.2691 30.7136 35.2697 30.6249 35.2702C29.9976 35.2653 29.9976 35.2653 29.811 35.1357C29.6962 34.9669 29.6915 34.8724 29.6958 34.6695C29.6964 34.613 29.697 34.5565 29.6976 34.4982C29.6997 34.427 29.7019 34.3557 29.7041 34.2822C29.7089 34.055 29.7137 33.8278 29.7187 33.5938C30.4922 33.5938 31.2656 33.5938 32.0625 33.5938C32.0625 33.0266 32.0625 32.4594 32.0625 31.875Z" fill="#F5F3F1"/>
<path d="M5.26561 31.875C5.29139 31.875 5.31717 31.875 5.34373 31.875C5.34373 32.4422 5.34373 33.0094 5.34373 33.5938C6.11717 33.5938 6.89061 33.5938 7.68748 33.5938C7.69232 33.8209 7.69715 34.0481 7.70213 34.2822C7.70426 34.3535 7.7064 34.4248 7.7086 34.4982C7.70918 34.5547 7.70977 34.6113 7.71037 34.6695C7.7116 34.7272 7.71282 34.7849 7.71409 34.8443C7.68748 35 7.68748 35 7.59524 35.1357C7.29301 35.3455 6.87503 35.2708 6.52049 35.2686C6.39186 35.2709 6.39186 35.2709 6.26063 35.2733C6.1781 35.2732 6.09557 35.2732 6.01054 35.2731C5.8974 35.2733 5.8974 35.2733 5.78198 35.2736C5.57811 35.2344 5.57811 35.2344 5.39674 35.1193C5.20204 34.8262 5.22655 34.5691 5.23509 34.2249C5.23553 34.1577 5.23597 34.0905 5.23643 34.0213C5.23818 33.8071 5.2421 33.593 5.24608 33.3789C5.24764 33.2335 5.24907 33.0882 5.25035 32.9428C5.25379 32.5868 5.25918 32.2309 5.26561 31.875Z" fill="#F5F4F2"/>
<path d="M33.7031 33.5938C34.5023 33.5938 35.3015 33.5938 36.125 33.5938C36.1314 33.8064 36.1379 34.0191 36.1445 34.2383C36.1473 34.3048 36.1502 34.3713 36.1531 34.4398C36.1543 34.5195 36.1543 34.5195 36.1555 34.6008C36.1571 34.6548 36.1588 34.7088 36.1604 34.7645C36.1075 34.9994 36.0016 35.0898 35.8125 35.2344C35.6086 35.2736 35.6086 35.2736 35.38 35.2731C35.2975 35.2732 35.215 35.2732 35.1299 35.2733C35.0442 35.2717 34.9584 35.2702 34.8701 35.2686C34.784 35.2691 34.698 35.2697 34.6093 35.2702C33.982 35.2653 33.982 35.2653 33.7953 35.1357C33.6806 34.9669 33.6759 34.8724 33.6802 34.6695C33.6808 34.613 33.6814 34.5565 33.682 34.4982C33.6841 34.427 33.6862 34.3557 33.6884 34.2822C33.6933 34.055 33.6981 33.8278 33.7031 33.5938Z" fill="#F5F3F3"/>
<path d="M32.0625 27.1094C32.0883 27.1094 32.1141 27.1094 32.1406 27.1094C32.1464 27.5264 32.1507 27.9435 32.1535 28.3606C32.1547 28.5025 32.1563 28.6443 32.1583 28.7862C32.1612 28.9902 32.1625 29.1942 32.1635 29.3982C32.1647 29.4615 32.1659 29.5248 32.1672 29.5901C32.1673 29.8423 32.1564 30.0436 32.0509 30.2746C31.846 30.439 31.7052 30.4287 31.4445 30.4266C31.3543 30.4263 31.2642 30.426 31.1712 30.4257C31.077 30.4238 30.9828 30.4219 30.8857 30.4199C30.7912 30.4198 30.6967 30.4197 30.5993 30.4196C29.8969 30.4125 29.8969 30.4125 29.7188 30.2344C29.701 30.0875 29.701 30.0875 29.7035 29.9115C29.7039 29.8548 29.7043 29.7981 29.7047 29.7396C29.7061 29.6677 29.7075 29.5957 29.709 29.5215C29.7122 29.2927 29.7154 29.0639 29.7188 28.8281C30.4922 28.8281 31.2656 28.8281 32.0625 28.8281C32.0625 28.2609 32.0625 27.6938 32.0625 27.1094Z" fill="#F5F3F2"/>
<path d="M5.26562 27.0312C5.2914 27.0312 5.31718 27.0312 5.34374 27.0312C5.34374 27.6242 5.34374 28.2172 5.34374 28.8281C6.11718 28.8281 6.89062 28.8281 7.68749 28.8281C7.69233 29.0424 7.69716 29.2567 7.70214 29.4775C7.70427 29.5447 7.70641 29.6119 7.70861 29.6812C7.70919 29.7345 7.70978 29.7879 7.71038 29.8428C7.71161 29.8972 7.71284 29.9517 7.7141 30.0077C7.68749 30.1562 7.68749 30.1562 7.59649 30.2911C7.39688 30.4297 7.25296 30.4209 7.01122 30.4218C6.92492 30.4221 6.83861 30.4224 6.74969 30.4227C6.65955 30.4218 6.56942 30.4209 6.47656 30.4199C6.38642 30.4208 6.29629 30.4217 6.20342 30.4227C6.11712 30.4224 6.03081 30.4221 5.94189 30.4218C5.86278 30.4215 5.78367 30.4212 5.70217 30.421C5.46488 30.3854 5.41142 30.3414 5.26562 30.1562C5.23743 30.0094 5.23743 30.0094 5.23901 29.8428C5.23903 29.7802 5.23905 29.7177 5.23906 29.6532C5.24027 29.5861 5.24148 29.5189 5.24273 29.4498C5.24306 29.3807 5.24339 29.3117 5.24373 29.2406C5.24505 29.0201 5.24799 28.7996 5.25097 28.5791C5.25214 28.4296 5.25321 28.2801 5.25417 28.1306C5.25676 27.7642 5.2608 27.3977 5.26562 27.0312Z" fill="#F5F3F1"/>
<path d="M33.7031 28.8281C34.5024 28.8281 35.3016 28.8281 36.125 28.8281C36.1298 29.0424 36.1347 29.2567 36.1397 29.4775C36.1418 29.5447 36.1439 29.6119 36.1461 29.6812C36.1467 29.7345 36.1473 29.7879 36.1479 29.8428C36.1491 29.8972 36.1504 29.9517 36.1516 30.0077C36.125 30.1562 36.125 30.1562 36.0353 30.2911C35.8301 30.4323 35.6765 30.421 35.4289 30.4218C35.2936 30.4222 35.2936 30.4222 35.1556 30.4227C35.0614 30.4218 34.9672 30.4209 34.8701 30.4199C34.7284 30.4213 34.7284 30.4213 34.5837 30.4227C34.4936 30.4224 34.4036 30.4221 34.3107 30.4218C34.228 30.4215 34.1452 30.4212 34.0599 30.421C33.9937 30.4109 33.9276 30.4009 33.8594 30.3906C33.7007 30.1526 33.6839 30.1093 33.6879 29.8428C33.6885 29.7628 33.6885 29.7628 33.6891 29.6812C33.6905 29.614 33.6919 29.5468 33.6934 29.4775C33.6966 29.2632 33.6998 29.0489 33.7031 28.8281Z" fill="#F5F3F4"/>
<path d="M20.5879 16.8114C20.6991 16.8428 20.6991 16.8428 20.8125 16.8749C20.9205 17.0909 20.8981 17.2691 20.8955 17.5096C20.8948 17.5952 20.8941 17.6808 20.8934 17.769C20.8925 17.8349 20.8916 17.9008 20.8906 17.9686C20.9547 17.965 21.0187 17.9614 21.0847 17.9576C21.1689 17.9548 21.2531 17.952 21.3398 17.9491C21.4649 17.9437 21.4649 17.9437 21.5925 17.9381C21.8281 17.9686 21.8281 17.9686 22.0152 18.1133C22.1406 18.2811 22.1406 18.2811 22.1357 18.4862C22.0625 18.6718 22.0625 18.6718 21.8281 18.828C21.6437 18.8457 21.6437 18.8457 21.4293 18.8433C21.3525 18.8428 21.2757 18.8423 21.1966 18.8417C21.1165 18.8404 21.0365 18.8391 20.9541 18.8378C20.8732 18.8371 20.7923 18.8364 20.7089 18.8356C20.509 18.8338 20.3092 18.8312 20.1094 18.828C20.1026 18.5334 20.0984 18.2389 20.0947 17.9442C20.0928 17.8605 20.0908 17.7767 20.0888 17.6905C20.088 17.6101 20.0873 17.5298 20.0865 17.4471C20.0853 17.373 20.084 17.299 20.0828 17.2227C20.1094 17.0311 20.1094 17.0311 20.2127 16.887C20.3437 16.7968 20.3437 16.7968 20.5879 16.8114Z" fill="#060606"/>
<path d="M20.8906 4.0625C21.084 4.10117 21.084 4.10117 21.2812 4.14062C21.2812 5.50703 21.2812 6.87344 21.2812 8.28125C21.1523 8.25547 21.0234 8.22969 20.8906 8.20312C20.8906 6.83672 20.8906 5.47031 20.8906 4.0625Z" fill="#CA5028"/>
</svg>
