<svg width="32" height="32" viewBox="0 0 32 32" fill="none" xmlns="http://www.w3.org/2000/svg">
<g clip-path="url(#clip0_698_12968)">
<path d="M8.70158 -0.00838612C8.75412 -0.00866474 8.80667 -0.00894335 8.8608 -0.00923041C8.91821 -0.00921889 8.97562 -0.00920737 9.03477 -0.0091955C9.09601 -0.00942529 9.15725 -0.00965508 9.22034 -0.00989184C9.42612 -0.0105817 9.63189 -0.0108219 9.83767 -0.0110599C9.98498 -0.0114515 10.1323 -0.0118669 10.2796 -0.0123045C10.7221 -0.0135062 11.1647 -0.0141688 11.6072 -0.014725C11.8158 -0.0149991 12.0244 -0.0153345 12.2329 -0.0156618C12.9267 -0.016725 13.6204 -0.0176308 14.3141 -0.0180836C14.4941 -0.0182029 14.674 -0.0183229 14.854 -0.0184452C14.9211 -0.0184905 14.9211 -0.0184905 14.9895 -0.0185368C15.7135 -0.0190552 16.4375 -0.0206382 17.1614 -0.022669C17.9054 -0.0247386 18.6493 -0.0258619 19.3932 -0.0260613C19.8106 -0.0261964 20.228 -0.0267675 20.6454 -0.0283402C21.0383 -0.0297965 21.4312 -0.0300592 21.8241 -0.0294176C21.9681 -0.0293866 22.112 -0.0297809 22.2559 -0.0306398C23.2702 -0.0363519 24.0504 0.00485963 24.8093 0.743548C25.1414 1.09681 25.3223 1.44133 25.4961 1.89063C26.1413 3.45313 27.1688 4.39498 28.7031 5.0625C29.4622 5.39405 30.0365 5.78648 30.3704 6.57398C30.5809 7.14984 30.5719 7.74753 30.5708 8.35327C30.5709 8.46699 30.5709 8.46699 30.571 8.583C30.571 8.74348 30.5709 8.90396 30.5707 9.06444C30.5703 9.30415 30.5706 9.54386 30.571 9.78357C30.5719 12.3957 30.5719 12.3957 30.4258 13.6367C30.4179 13.7048 30.41 13.7729 30.4019 13.843C29.9139 17.7922 28.4233 21.587 26 24.75C25.9566 24.8069 25.9566 24.8069 25.9123 24.865C25.5874 25.2896 25.2547 25.7022 24.8916 26.0952C24.7749 26.2228 24.6617 26.3522 24.5488 26.4832C24.2988 26.7695 24.0345 27.04 23.7656 27.3086C23.7159 27.3582 23.6663 27.4079 23.6151 27.459C23.3096 27.7613 23.0016 28.0453 22.6626 28.3096C22.5131 28.4272 22.37 28.5503 22.2272 28.676C20.9388 29.7999 19.4204 30.7145 17.875 31.4375C17.7897 31.4783 17.7044 31.5192 17.6191 31.5601C17.0666 31.823 16.6117 32.0229 15.9961 32.0273C15.948 32.0294 15.8998 32.0315 15.8502 32.0336C15.0886 32.0404 14.3824 31.6149 13.7188 31.2813C13.6812 31.2624 13.6436 31.2436 13.6049 31.2242C12.5549 30.6961 11.5654 30.0795 10.625 29.375C10.5744 29.3372 10.5744 29.3372 10.5227 29.2987C9.18831 28.3008 7.8513 27.1652 6.81812 25.853C6.67996 25.6779 6.53567 25.5093 6.39063 25.3398C3.61741 22.0051 1.97698 17.7891 1.5 13.5C1.49457 13.4558 1.48914 13.4116 1.48354 13.3661C1.41595 12.7455 1.42476 12.1216 1.42261 11.498C1.42223 11.4041 1.42223 11.4041 1.42184 11.3082C1.42054 10.9772 1.41965 10.6461 1.41906 10.315C1.41836 9.97482 1.41621 9.63462 1.41373 9.29442C1.41209 9.03103 1.41157 8.76766 1.41135 8.50427C1.41105 8.37889 1.41033 8.25351 1.40916 8.12813C1.40102 7.19518 1.45184 6.45959 2.125 5.75C2.48 5.39276 2.87792 5.22641 3.33825 5.04755C4.07275 4.75565 4.6906 4.30751 5.25 3.75C5.29738 3.70408 5.34475 3.65816 5.39356 3.61084C5.92229 3.0657 6.28474 2.39785 6.54297 1.6875C6.76822 1.06827 7.19491 0.551672 7.77735 0.227786C8.08277 0.0886372 8.36376 -0.00755229 8.70158 -0.00838612ZM14.5 5.875C14.4452 5.89764 14.3904 5.92028 14.334 5.94361C13.5215 6.31348 12.8911 6.94212 12.4805 7.72657C12.4601 7.76419 12.4398 7.80181 12.4188 7.84058C11.9718 8.74623 12.0392 9.76545 12.0508 10.7461C12.0517 10.8864 12.0526 11.0266 12.0533 11.1669C12.0554 11.5071 12.0585 11.8473 12.0625 12.1875C11.9939 12.1866 11.9254 12.1858 11.8547 12.1849C11.2513 12.1917 10.7547 12.5064 10.3323 12.9141C9.84711 13.4367 9.74106 14.0179 9.73894 14.7069C9.73853 14.765 9.73812 14.8232 9.7377 14.8832C9.73647 15.0755 9.73573 15.2679 9.73511 15.4602C9.73486 15.5262 9.7346 15.5923 9.73434 15.6603C9.73304 16.0104 9.73214 16.3605 9.73156 16.7105C9.73087 17.0698 9.72872 17.429 9.72623 17.7883C9.72459 18.0664 9.72407 18.3445 9.72385 18.6227C9.72355 18.755 9.72283 18.8872 9.72166 19.0195C9.70967 20.4678 9.95603 21.7272 11 22.8125C11.84 23.6184 12.9373 24.0039 14.0901 24.0101C14.1344 24.0104 14.1786 24.0107 14.2243 24.011C14.3696 24.0119 14.5149 24.0124 14.6602 24.0127C14.7103 24.0129 14.7604 24.0131 14.8121 24.0132C15.0778 24.0142 15.3435 24.0147 15.6092 24.015C15.881 24.0154 16.1528 24.0169 16.4247 24.0186C16.6359 24.0198 16.8472 24.0201 17.0585 24.0202C17.1585 24.0204 17.2586 24.0209 17.3586 24.0217C18.5705 24.0311 19.6458 23.8273 20.625 23.0625C20.6679 23.0306 20.7109 22.9987 20.7551 22.9658C21.5729 22.3142 22.0597 21.2713 22.1875 20.25C22.2209 19.7831 22.214 19.3144 22.2124 18.8467C22.2125 18.7121 22.2127 18.5775 22.2129 18.443C22.2132 18.1624 22.2128 17.8819 22.2119 17.6014C22.2109 17.2432 22.2115 16.885 22.2126 16.5268C22.2133 16.2495 22.2131 15.9722 22.2126 15.6948C22.2125 15.5628 22.2126 15.4307 22.2131 15.2987C22.2135 15.1139 22.2128 14.9291 22.2118 14.7443C22.2123 14.6638 22.2123 14.6638 22.2129 14.5817C22.2058 13.8915 21.9814 13.318 21.5093 12.814C21.0301 12.3653 20.523 12.1827 19.875 12.1875C19.8756 12.1342 19.8756 12.1342 19.8763 12.0799C19.8805 11.7057 19.8833 11.3315 19.8853 10.9573C19.8862 10.8182 19.8875 10.6791 19.8891 10.54C19.916 9.09573 19.916 9.09573 19.4688 7.73828C19.4365 7.67646 19.4365 7.67646 19.4036 7.61339C18.9013 6.69718 18.0761 6.05749 17.0877 5.72852C16.256 5.50134 15.292 5.53575 14.5 5.875Z" fill="white"/>
<path d="M12.1565 13.9683C12.2264 13.9676 12.2963 13.9668 12.3684 13.9661C12.483 13.9669 12.483 13.9669 12.6 13.9677C12.7211 13.967 12.7211 13.967 12.8446 13.9663C13.0658 13.9652 13.287 13.9656 13.5082 13.9664C13.7397 13.9671 13.9712 13.9665 14.2027 13.9661C14.5915 13.9656 14.9803 13.9662 15.3691 13.9674C15.8186 13.9688 16.268 13.9683 16.7175 13.967C17.1035 13.9658 17.4894 13.9657 17.8753 13.9663C18.1058 13.9667 18.3363 13.9668 18.5668 13.9659C18.8237 13.9651 19.0806 13.9663 19.3375 13.9677C19.414 13.9671 19.4904 13.9666 19.5692 13.9661C19.6741 13.9672 19.6741 13.9672 19.7811 13.9683C19.8418 13.9684 19.9026 13.9684 19.9651 13.9685C20.1735 14.0095 20.2476 14.0827 20.375 14.25C20.3997 14.4424 20.4092 14.6124 20.4074 14.8048C20.4078 14.8608 20.4082 14.9169 20.4087 14.9746C20.4098 15.1601 20.4091 15.3455 20.4082 15.531C20.4084 15.6604 20.4086 15.7898 20.409 15.9193C20.4093 16.1909 20.4088 16.4626 20.4076 16.7343C20.4062 17.0806 20.407 17.4269 20.4085 17.7732C20.4094 18.0408 20.4091 18.3085 20.4085 18.5761C20.4083 18.7036 20.4085 18.8312 20.4091 18.9587C20.4126 19.9447 20.3779 20.8037 19.6463 21.5422C18.9457 22.1853 18.1302 22.2072 17.2234 22.2063C17.1237 22.2065 17.024 22.2068 16.9243 22.2071C16.716 22.2076 16.5078 22.2076 16.2995 22.2072C16.0345 22.2069 15.7696 22.2079 15.5046 22.2094C15.2989 22.2103 15.0931 22.2104 14.8874 22.2102C14.7898 22.2102 14.6922 22.2105 14.5946 22.2111C13.663 22.2165 12.8977 22.1212 12.1992 21.4543C11.696 20.9045 11.5436 20.2612 11.5444 19.5329C11.5439 19.4759 11.5435 19.419 11.5431 19.3603C11.5419 19.1734 11.5417 18.9866 11.5415 18.7998C11.5411 18.6694 11.5407 18.539 11.5403 18.4086C11.5395 18.136 11.5393 17.8635 11.5394 17.5909C11.5394 17.2415 11.5377 16.8921 11.5355 16.5426C11.5341 16.2737 11.5339 16.0048 11.5339 15.7358C11.5338 15.6069 11.5332 15.4781 11.5323 15.3492C11.531 15.1693 11.5314 14.9896 11.5322 14.8098C11.5315 14.7565 11.5308 14.7033 11.53 14.6484C11.5306 14.5993 11.5311 14.5503 11.5316 14.4997C11.5316 14.4573 11.5315 14.4149 11.5314 14.3711C11.6157 14.0431 11.8475 13.9687 12.1565 13.9683ZM15.1992 16.6914C15.0434 16.9457 15.0506 17.1931 15.0476 17.4814C15.0471 17.5287 15.0466 17.576 15.0461 17.6246C15.0452 17.7247 15.0446 17.8247 15.0441 17.9247C15.0434 18.0265 15.0421 18.1284 15.0402 18.2302C15.0376 18.3778 15.0366 18.5253 15.0359 18.6729C15.0348 18.7179 15.0337 18.7629 15.0326 18.8092C15.0341 19.1561 15.1237 19.345 15.3125 19.625C15.5071 19.806 15.7082 19.869 15.9688 19.9063C16.2294 19.869 16.4304 19.806 16.625 19.625C16.8397 19.3052 16.9122 19.0676 16.906 18.6794C16.9061 18.6324 16.9062 18.5854 16.9063 18.5369C16.9062 18.4381 16.9055 18.3393 16.9042 18.2405C16.9024 18.09 16.9029 17.9397 16.9037 17.7892C16.9033 17.6927 16.9028 17.5962 16.9021 17.4998C16.9023 17.4552 16.9025 17.4107 16.9027 17.3648C16.8972 17.0731 16.8406 16.873 16.6875 16.625C16.3966 16.3624 16.2169 16.2904 15.8325 16.2947C15.5527 16.3291 15.3796 16.4862 15.1992 16.6914Z" fill="white"/>
<path d="M16.9427 7.6045C17.5784 8.04473 17.9089 8.4901 18.0626 9.25001C18.0846 9.48727 18.0847 9.72161 18.0809 9.95973C18.0807 10.0168 18.0805 10.0738 18.0803 10.1326C18.0793 10.3423 18.0767 10.552 18.0743 10.7617C18.0704 11.2322 18.0665 11.7027 18.0626 12.1875C16.6807 12.1875 15.2988 12.1875 13.8751 12.1875C13.8699 11.7196 13.8647 11.2517 13.8594 10.7695C13.8572 10.6236 13.8549 10.4776 13.8525 10.3272C13.8449 9.50246 13.8399 8.7726 14.3751 8.09767C15.0346 7.44133 16.0755 7.12813 16.9427 7.6045Z" fill="white"/>
</g>
<defs>
<clipPath id="clip0_698_12968">
<rect width="32" height="32" fill="white"/>
</clipPath>
</defs>
</svg>
