<svg width="40" height="24" viewBox="0 0 40 24" fill="none" xmlns="http://www.w3.org/2000/svg">
<path d="M28.7165 6.30017C28.1029 6.05676 27.1298 5.78799 25.9265 5.78799C22.8546 5.78799 20.6914 7.42609 20.6781 9.76806C20.6526 11.496 22.2269 12.4557 23.4043 13.0318C24.6078 13.6206 25.0169 14.0048 25.0169 14.5296C25.0047 15.3355 24.0444 15.707 23.1488 15.707C21.9069 15.707 21.2415 15.5155 20.2302 15.0671L19.8206 14.8749L19.3853 17.5754C20.1149 17.9078 21.459 18.2028 22.8546 18.2157C26.1185 18.2157 28.2434 16.603 28.2686 14.1072C28.281 12.7377 27.4497 11.6884 25.6575 10.8309C24.5695 10.2804 23.9032 9.90925 23.9032 9.34604C23.916 8.83403 24.4668 8.3096 25.6949 8.3096C26.7062 8.28391 27.4492 8.52699 28.0121 8.77024L28.2934 8.89798L28.7165 6.30017Z" fill="#3362AB"/>
<path d="M17.44 18.0364H14.3293L16.275 6.00607H19.3855L17.44 18.0364Z" fill="#3362AB"/>
<path fill-rule="evenodd" clip-rule="evenodd" d="M36.6905 6.00607H34.2844C33.5424 6.00607 32.9787 6.22346 32.6586 7.00423L28.0381 18.0362H31.302C31.302 18.0362 31.8394 16.5514 31.9549 16.2316H35.9487C36.038 16.654 36.3199 18.0362 36.3199 18.0362H39.2001L36.6905 6.00607ZM32.8508 13.7745C33.107 13.0834 34.0927 10.4085 34.0927 10.4085C34.0875 10.4188 34.1276 10.3077 34.1874 10.1419L34.1881 10.1399L34.1886 10.1386C34.2779 9.89106 34.4105 9.52365 34.502 9.25673L34.7194 10.2933C34.7194 10.2933 35.3084 13.173 35.4364 13.7745H32.8508Z" fill="#3362AB"/>
<path d="M11.7312 6.00607L8.68483 14.2096L8.35193 12.5458L8.35163 12.5448L7.26396 7.01733C7.08484 6.24897 6.53438 6.03141 5.85601 6.00607H0.85125L0.800049 6.24914C2.02069 6.56128 3.11245 7.01108 4.06905 7.57034L6.84159 18.0237H10.131L15.0205 6.00607H11.7312Z" fill="#3362AB"/>
</svg>
