<svg preserveAspectRatio="none" width="100%" height="100%" overflow="visible" style="display: block;" viewBox="0 0 40 40" fill="none" xmlns="http://www.w3.org/2000/svg">
<g id="winner 1" clip-path="url(#clip0_0_333)">
<path id="Vector" d="M19.9219 8.98438C19.9734 8.98438 20.025 8.98438 20.0781 8.98438C20.098 9.04589 20.1179 9.1074 20.1385 9.17077C20.3316 9.7676 20.5249 10.3644 20.7181 10.9612C20.8209 11.2787 20.9237 11.5963 21.0265 11.9138C21.4346 13.1744 21.8428 14.4351 22.2552 15.6943C22.2831 15.7793 22.3109 15.8643 22.3396 15.9519C22.4665 16.3396 22.5937 16.7271 22.7213 17.1146C22.7654 17.2493 22.8096 17.3839 22.8537 17.5186C22.8736 17.5788 22.8936 17.639 22.9141 17.701C23.0469 18.1073 23.0469 18.1073 23.0469 18.2812C26.2695 18.2812 29.4922 18.2812 32.8125 18.2812C32.3733 18.7204 32.3733 18.7204 32.1426 18.8794C32.0655 18.9331 32.0655 18.9331 31.9869 18.9878C31.9322 19.0254 31.8776 19.0629 31.8213 19.1016C31.7019 19.1847 31.5826 19.2679 31.4633 19.3512C31.4021 19.3938 31.3409 19.4364 31.2779 19.4804C30.9834 19.6867 30.6917 19.8967 30.4004 20.1074C30.3134 20.1703 30.3134 20.1703 30.2246 20.2345C29.7337 20.5901 29.246 20.9498 28.7584 21.3099C28.339 21.6194 27.9179 21.9265 27.4951 22.2314C27.4381 22.2726 27.3812 22.3137 27.3225 22.3561C27.019 22.575 26.7148 22.793 26.4099 23.0099C26.3464 23.0554 26.2828 23.1008 26.2174 23.1476C26.0963 23.2341 25.975 23.3203 25.8534 23.4062C25.7985 23.4456 25.7435 23.4849 25.687 23.5254C25.639 23.5594 25.5911 23.5935 25.5417 23.6285C25.3465 23.7855 25.1748 23.9614 25 24.1406C25.0313 24.2361 25.0626 24.3316 25.0949 24.43C25.7658 26.4766 26.4308 28.5248 27.0845 30.5769C27.1093 30.6545 27.134 30.7322 27.1595 30.8122C27.2073 30.962 27.255 31.1119 27.3025 31.2618C27.4063 31.5877 27.5119 31.9125 27.625 32.2353C27.6439 32.2896 27.6628 32.3439 27.6822 32.3999C27.7317 32.5411 27.7822 32.682 27.8329 32.8228C27.8902 33.0451 27.8944 33.1486 27.8125 33.3594C27.7749 33.3316 27.7373 33.3037 27.6986 33.2751C27.0098 32.7659 26.3202 32.2582 25.625 31.7578C25.1409 31.4094 24.6594 31.0576 24.1797 30.7031C23.5263 30.2204 22.8688 29.7436 22.2095 29.2691C21.8399 29.0028 21.4707 28.7357 21.1015 28.4688C20.9939 28.391 20.886 28.3136 20.7778 28.2367C20.6753 28.1618 20.575 28.084 20.4768 28.0035C20.322 27.875 20.322 27.875 20.0781 27.7344C19.6843 27.7826 19.3201 28.1485 19.0088 28.3838C18.8752 28.4835 18.7415 28.5832 18.6078 28.6829C18.5402 28.7334 18.4726 28.7839 18.4029 28.8359C18.1024 29.0592 17.799 29.2784 17.4951 29.4971C17.4086 29.5594 17.4086 29.5594 17.3203 29.6231C17.0879 29.7906 16.8553 29.958 16.6227 30.1254C15.962 30.601 15.3032 31.0788 14.6484 31.5625C14.1453 31.934 13.6411 32.3039 13.1348 32.6709C13.0477 32.7343 13.0477 32.7343 12.9588 32.7989C12.6822 32.9989 12.4063 33.1899 12.1094 33.3594C12.1588 32.8498 12.3138 32.3892 12.4759 31.9052C12.5054 31.8159 12.5349 31.7266 12.5652 31.6346C12.6453 31.3921 12.7258 31.1498 12.8064 30.9076C12.9417 30.5003 13.0757 30.0927 13.21 29.6851C13.2617 29.5284 13.3134 29.3716 13.3651 29.2149C13.7107 28.1666 14.0487 27.1159 14.3848 26.0645C14.4117 25.9803 14.4386 25.8962 14.4664 25.8096C14.5421 25.5733 14.6176 25.337 14.693 25.1007C14.7152 25.0313 14.7375 24.9618 14.7604 24.8902C14.7806 24.8265 14.8009 24.7628 14.8218 24.6972C14.8481 24.6146 14.8481 24.6146 14.875 24.5304C14.9218 24.3754 14.9621 24.2198 15 24.0625C14.358 23.5613 13.7062 23.0782 13.0417 22.6074C12.2064 22.0136 11.3796 21.4084 10.5554 20.7995C10.1359 20.49 9.71477 20.1829 9.29199 19.8779C9.23531 19.837 9.17862 19.7961 9.12022 19.754C8.81163 19.5315 8.50253 19.3097 8.19305 19.0884C8.12775 19.0416 8.06245 18.9948 7.99517 18.9466C7.86892 18.856 7.74251 18.7657 7.61595 18.6757C7.55976 18.6353 7.50357 18.595 7.44568 18.5535C7.37073 18.5 7.37073 18.5 7.29427 18.4454C7.24142 18.4028 7.24142 18.4028 7.1875 18.3594C7.1875 18.3336 7.1875 18.3078 7.1875 18.2812C10.4102 18.2812 13.6328 18.2812 16.9531 18.2812C17.0305 17.9977 17.1078 17.7141 17.1875 17.4219C17.2336 17.2709 17.281 17.1203 17.3305 16.9703C17.3691 16.8531 17.3691 16.8531 17.4084 16.7334C17.4357 16.6511 17.463 16.5689 17.4911 16.4841C17.5204 16.3952 17.5497 16.3063 17.5798 16.2147C17.6426 16.0241 17.7054 15.8335 17.7684 15.643C17.935 15.1384 18.1009 14.6336 18.2666 14.1287C18.2834 14.0774 18.3003 14.0262 18.3176 13.9733C18.6803 12.8687 19.0361 11.7619 19.3896 10.6543C19.4169 10.5688 19.4442 10.4833 19.4723 10.3953C19.6224 9.92505 19.7723 9.45475 19.9219 8.98438Z" fill="var(--fill-0, #F5B143)"/>
<path id="Vector_2" d="M29.2188 1.79688C29.5487 1.92551 29.7712 2.1695 30.0146 2.41699C30.0596 2.4624 30.1046 2.50781 30.151 2.55459C30.5454 2.95772 30.9006 3.38564 31.25 3.82812C31.3623 3.96162 31.4746 4.09508 31.5869 4.22852C32.1467 4.91174 32.6836 5.64047 33.125 6.40625C33.1281 6.36064 33.1312 6.31503 33.1344 6.26804C33.2121 5.18064 33.2957 4.31751 33.9844 3.4375C34.1281 3.45276 34.1281 3.45276 34.2969 3.51562C34.4701 3.78166 34.5746 4.0791 34.6875 4.375C34.7129 4.43965 34.7383 4.50431 34.7644 4.57092C35.1198 5.64051 35.0149 6.80708 34.5312 7.8125C34.4866 7.87877 34.442 7.94503 34.3961 8.01331C34.2708 8.25311 34.3059 8.33688 34.375 8.59375C34.424 8.71141 34.4773 8.82733 34.5343 8.94135C34.5665 9.00699 34.5988 9.07263 34.632 9.14026C34.6664 9.20967 34.7009 9.27908 34.7363 9.35059C35.1014 10.0996 35.415 10.8592 35.7031 11.6406C35.7259 11.5604 35.7486 11.4801 35.7721 11.3974C36.0771 10.3526 36.4407 9.57058 37.2656 8.82812C37.3816 8.8668 37.3816 8.8668 37.5 8.90625C37.8929 10.0632 37.7763 11.379 37.3099 12.4957C37.0738 12.9562 36.7726 13.3837 36.4062 13.75C36.3944 14.2338 36.5355 14.7343 36.6357 15.2051C36.7722 15.8636 36.8762 16.5194 36.9531 17.1875C37.2407 16.9357 37.4188 16.5994 37.6178 16.2779C37.8926 15.8408 38.1778 15.4406 38.6035 15.1367C38.6553 15.0993 38.707 15.0618 38.7604 15.0232C39.1331 14.7643 39.1331 14.7643 39.3115 14.7949C39.3583 14.811 39.405 14.8271 39.4531 14.8438C39.4102 16.4768 39.0058 17.8048 37.8708 19.0189C37.6562 19.2188 37.6562 19.2188 37.3993 19.3427C37.1471 19.5673 37.1513 19.6281 37.1274 19.9539C37.124 20.1271 37.123 20.3004 37.124 20.4736C37.1213 20.6566 37.1184 20.8396 37.1155 21.0226C37.1147 21.1135 37.114 21.2043 37.1132 21.2979C37.1077 21.6765 37.0877 22.0537 37.0654 22.4316C37.0588 22.5523 37.0522 22.6729 37.0456 22.7936C37.0409 22.8772 37.0361 22.9608 37.0312 23.0469C37.0842 22.9865 37.1372 22.926 37.1918 22.8638C37.9441 22.0165 38.7109 21.3764 39.7656 20.9375C39.843 20.9375 39.9203 20.9375 40 20.9375C40.0201 22.1343 39.2592 23.3555 38.4689 24.2017C37.943 24.7042 37.3374 25.1584 36.6406 25.3906C36.5626 25.5803 36.5626 25.5803 36.5118 25.8157C36.4899 25.9044 36.4679 25.993 36.4453 26.0843C36.4228 26.1793 36.4002 26.2742 36.377 26.3721C36.3293 26.5648 36.2814 26.7575 36.2332 26.9501C36.2098 27.0441 36.1863 27.1381 36.1621 27.235C36.0301 27.7467 35.8697 28.2486 35.7031 28.75C35.7525 28.7178 35.8018 28.6855 35.8527 28.6523C36.088 28.5004 36.3249 28.3514 36.5625 28.2031C36.6472 28.1497 36.7319 28.0964 36.8192 28.0414C37.5373 27.6077 38.3623 27.1875 39.2188 27.1875C39.2969 27.4219 39.2969 27.4219 39.2068 27.6224C38.3184 29.1135 37.1965 30.2516 35.5469 30.8594C35.4819 30.8736 35.4168 30.8878 35.3499 30.9024C34.9516 30.9867 34.9516 30.9867 34.6441 31.2359C34.5422 31.4207 34.4596 31.6064 34.3799 31.8018C34.3165 31.9425 34.2525 32.083 34.1879 32.2232C34.1553 32.2948 34.1227 32.3663 34.0892 32.4401C33.9179 32.7933 33.7139 33.1246 33.5059 33.457C33.4679 33.518 33.4299 33.5789 33.3908 33.6417C33.3028 33.7823 33.214 33.9225 33.125 34.0625C33.4132 34.0625 33.6223 33.9594 33.8818 33.8477C34.7993 33.4667 35.7961 33.1826 36.7969 33.1982C36.8565 33.1989 36.9161 33.1997 36.9775 33.2004C37.0428 33.2017 37.0428 33.2017 37.1094 33.2031C37.0233 33.8594 36.4642 34.2678 35.9668 34.6533C34.9267 35.403 33.6516 36.189 32.3288 36.1679C31.8051 36.1623 31.8051 36.1623 31.3663 36.4185C31.1862 36.6422 31.0234 36.8737 30.8594 37.1094C30.7362 37.2513 30.611 37.3914 30.4834 37.5293C30.2598 37.7728 30.0481 38.0213 29.8438 38.2812C29.5458 38.1571 29.3459 37.9682 29.1162 37.7441C29.0456 37.6767 28.975 37.6092 28.9023 37.5397C28.75 37.3438 28.75 37.3438 28.7393 37.1896C28.8722 36.9526 29.0616 36.7807 29.2578 36.5967C29.6457 36.2223 29.9909 35.836 30.325 35.4123C30.4688 35.2344 30.4688 35.2344 30.6024 35.1157C30.7857 34.9052 30.7479 34.6777 30.7422 34.4101C30.6765 33.9572 30.5093 33.5436 30.3445 33.1186C30.165 32.6404 30.1412 32.1803 30.1416 31.6748C30.1416 31.6135 30.1415 31.5522 30.1414 31.489C30.1462 30.9552 30.2088 30.4461 30.3125 29.9219C30.4156 29.8961 30.5187 29.8703 30.625 29.8438C31.3612 30.6142 31.6725 31.5227 31.6565 32.5754C31.6372 32.8643 31.587 33.1367 31.5186 33.4177C31.4812 33.6102 31.4789 33.7887 31.4844 33.9844C32.0595 33.1411 32.6114 32.2905 33.115 31.4024C33.1998 31.2557 33.2885 31.1121 33.3786 30.9686C33.7084 30.4306 33.7084 30.4306 33.7256 29.8193C33.6692 29.6296 33.6692 29.6296 33.5938 29.4531C33.5739 29.4023 33.5541 29.3514 33.5336 29.299C33.3817 28.9611 33.1723 28.6646 32.9639 28.3594C32.4707 27.6315 32.3293 26.9727 32.3389 26.1035C32.3392 26.0423 32.3396 25.9811 32.3399 25.918C32.3408 25.7682 32.3422 25.6185 32.3438 25.4688C32.5781 25.3906 32.5781 25.3906 32.7158 25.4553C33.4221 25.9768 33.9579 26.7114 34.1406 27.5781C34.1798 27.9308 34.1946 28.2838 34.205 28.6383C34.1881 28.893 34.1881 28.893 34.2969 28.9844C35.3463 26.8029 35.3463 26.8029 35.4937 24.5425C35.2977 24.1248 35.0609 23.8822 34.707 23.5938C33.877 22.8684 33.4091 21.8781 33.2812 20.7812C33.307 20.7555 33.3328 20.7297 33.3594 20.7031C34.0169 20.7168 34.4744 21.1118 34.9463 21.5381C35.2874 21.8947 35.4083 22.2694 35.5469 22.7344C35.6017 22.9131 35.6566 23.0919 35.7117 23.2706C35.7394 23.3607 35.7672 23.4509 35.7958 23.5438C35.8168 23.6118 35.8378 23.6799 35.8594 23.75C36.035 22.6252 36.1939 21.5041 36.25 20.3662C36.2577 20.2421 36.2577 20.2421 36.2655 20.1155C36.2883 19.5077 36.1723 19.1232 35.7947 18.6487C35.5767 18.4778 35.3501 18.3753 35.0977 18.2617C34.2476 17.8547 33.7528 17.2618 33.3594 16.4062C33.3028 16.1865 33.2856 16.0094 33.2812 15.7812C33.995 15.7844 34.6052 16.0071 35.1617 16.4597C35.5373 16.8512 35.7574 17.336 35.9857 17.822C36.0723 18.0341 36.0723 18.0341 36.1719 18.125C36.1917 17.3593 36.1382 16.6368 36.0254 15.8789C36.005 15.734 36.005 15.734 35.9842 15.5862C35.857 14.3669 35.857 14.3669 35.2344 13.3594C34.9058 13.1145 34.6652 13.0353 34.2627 12.9736C33.4889 12.8501 32.8476 12.3113 32.366 11.7068C32.0991 11.3098 32.0991 11.3098 32.1393 11.0754C32.1552 11.0299 32.1711 10.9844 32.1875 10.9375C32.9731 10.8925 33.5939 10.9731 34.2773 11.377C34.5055 11.6178 34.6828 11.8833 34.8636 12.1609C34.9991 12.3426 35.1298 12.4473 35.3125 12.5781C34.7132 9.94497 34.7132 9.94497 33.0469 7.96875C32.8126 7.85163 32.5991 7.89257 32.3389 7.90039C31.3239 7.91001 30.7352 7.53043 29.9747 6.87469C29.8438 6.71875 29.8438 6.71875 29.8438 6.40625C30.4968 6.14688 31.0863 6.06045 31.7603 6.30249C32.0614 6.46452 32.3132 6.68611 32.5656 6.91463C32.7769 7.10448 32.9256 7.21049 33.2031 7.26562C32.2459 5.57814 31.1586 4.00661 29.8438 2.57812C29.7391 2.46133 29.6349 2.34417 29.5312 2.22656C29.4877 2.17742 29.4442 2.12827 29.3994 2.07764C29.2969 1.95312 29.2969 1.95312 29.2188 1.79688Z" fill="var(--fill-0, #FCB645)"/>
<path id="Vector_3" d="M10.625 1.79688C10.7023 1.83555 10.7023 1.83555 10.7812 1.875C10.7481 1.90723 10.715 1.93945 10.6808 1.97266C9.12195 3.50757 7.87576 5.3715 6.79687 7.26562C7.12827 7.15536 7.33808 6.99381 7.59766 6.7627C8.12246 6.32513 8.58799 6.12627 9.2746 6.14807C9.58331 6.18923 9.86783 6.2917 10.1562 6.40625C10.1069 6.84322 9.90238 7.00037 9.57519 7.27081C8.95897 7.7358 8.45911 7.85997 7.69594 7.85536C7.27441 7.85871 6.98482 7.952 6.64062 8.20312C6.59331 8.23604 6.546 8.26896 6.49725 8.30288C6.104 8.60368 5.93196 8.9355 5.75195 9.38965C5.72321 9.45927 5.69446 9.52889 5.66484 9.60062C5.0026 11.0528 5.0026 11.0528 4.6875 12.5781C4.97934 12.3836 5.14874 12.1695 5.33691 11.8799C5.65452 11.4121 5.9842 11.2032 6.49902 10.9912C6.93674 10.9123 7.36901 10.9255 7.8125 10.9375C7.86774 11.0681 7.86774 11.0681 7.89062 11.25C7.52644 11.9543 6.88886 12.6115 6.13281 12.8809C5.94889 12.9341 5.77589 12.9694 5.58563 12.9919C5.0782 13.057 4.81985 13.2164 4.50134 13.6206C4.27924 13.9854 4.20862 14.3476 4.14062 14.7656C4.13069 14.8232 4.12076 14.8807 4.11053 14.94C3.92591 16.01 3.81402 17.0371 3.82812 18.125C4.03758 17.838 4.1792 17.5667 4.31152 17.2363C4.59848 16.5913 5.10282 16.1732 5.75378 15.9122C6.07088 15.821 6.39014 15.795 6.71875 15.7812C6.66153 16.6587 6.14631 17.3581 5.5191 17.9433C5.22467 18.1807 4.883 18.3237 4.53644 18.4689C4.26809 18.6087 4.15297 18.7357 3.98437 18.9844C3.94322 19.0441 3.90207 19.1038 3.85967 19.1653C3.73483 19.404 3.72363 19.5421 3.73138 19.8093C3.73354 19.8916 3.73569 19.974 3.73791 20.0589C3.75695 20.4582 3.78069 20.8564 3.81348 21.2549C3.82021 21.3386 3.82695 21.4222 3.83388 21.5085C3.89854 22.2624 4.0075 23.0054 4.14062 23.75C4.15956 23.6867 4.17849 23.6233 4.198 23.558C4.25293 23.3766 4.30895 23.1954 4.36584 23.0145C4.4187 22.8449 4.46939 22.6745 4.51599 22.5031C4.7303 21.7907 5.17046 21.3245 5.80078 20.9381C6.02655 20.8203 6.24398 20.7091 6.48437 20.625C6.53594 20.6508 6.5875 20.6766 6.64062 20.7031C6.67754 21.5576 6.3078 22.4542 5.78125 23.125C5.50954 23.4044 5.23145 23.6685 4.92187 23.9062C4.87031 23.9062 4.81875 23.9062 4.76562 23.9062C4.71202 24.0096 4.66032 24.114 4.60937 24.2188C4.56587 24.3058 4.56587 24.3058 4.52148 24.3945C4.33033 24.9953 4.51816 25.5639 4.6875 26.1475C4.71163 26.2323 4.73576 26.3171 4.76063 26.4044C5.01453 27.2745 5.2966 28.1713 5.70312 28.9844C5.80342 28.7838 5.79342 28.6026 5.79996 28.3817C5.83727 27.2131 6.2488 26.3596 7.10937 25.5469C7.38281 25.4248 7.38281 25.4248 7.57812 25.3906C7.71543 25.5279 7.67627 25.7115 7.68066 25.8984C7.6709 27.0077 7.37156 28.0903 6.66504 28.9551C6.36501 29.3257 6.23498 29.6366 6.26068 30.1248C6.35958 30.5146 6.54828 30.8415 6.74316 31.1914C6.78466 31.2667 6.82615 31.3421 6.8689 31.4197C7.24632 32.0946 7.66428 32.7376 8.10455 33.3728C8.24411 33.575 8.37993 33.7796 8.51562 33.9844C8.50448 33.8623 8.49303 33.7402 8.48144 33.6182C8.4751 33.5502 8.46876 33.4822 8.46222 33.4122C8.44073 33.2046 8.44073 33.2046 8.39722 33.0087C8.20314 32.0024 8.49738 30.9958 9.0625 30.1562C9.22363 29.9512 9.22363 29.9512 9.375 29.8438C9.54071 29.8761 9.54071 29.8761 9.6875 29.9219C9.94861 31.2414 9.93734 32.4554 9.43848 33.7158C9.28093 34.1522 9.1606 34.5432 9.29687 35C9.51997 35.3095 9.7733 35.5691 10.0484 35.8321C10.1914 35.9719 10.3203 36.1216 10.4492 36.2744C10.6683 36.5302 10.9055 36.7577 11.1572 36.9812C11.25 37.1094 11.25 37.1094 11.2527 37.2534C11.1315 37.506 10.9375 37.6806 10.7373 37.8711C10.6967 37.9107 10.656 37.9503 10.6142 37.991C10.5141 38.0883 10.4134 38.1849 10.3125 38.2812C10.0554 38.1955 10.0025 38.1369 9.83398 37.9346C9.56394 37.6153 9.28424 37.3066 9.00085 36.9992C8.82812 36.7969 8.82812 36.7969 8.74269 36.6541C8.55946 36.3524 8.49406 36.2638 8.13568 36.1761C8.01992 36.1694 7.90401 36.1649 7.78809 36.1621C6.27799 36.0568 4.96464 35.4468 3.82812 34.4531C3.75123 34.3903 3.75123 34.3903 3.67279 34.3262C3.37388 34.0804 3.11677 33.8309 2.89062 33.5156C2.89062 33.4125 2.89062 33.3094 2.89062 33.2031C4.2705 33.1257 5.6263 33.5886 6.875 34.1406C6.66482 33.7516 6.45342 33.3633 6.23505 32.9788C6.20557 32.9268 6.17609 32.8748 6.14572 32.8211C6.08469 32.7139 6.02323 32.6068 5.96136 32.5001C5.77629 32.1769 5.6341 31.8562 5.49805 31.5088C5.35538 31.2155 5.27641 31.1145 4.98077 30.9686C4.78001 30.8997 4.57656 30.845 4.37134 30.791C3.56833 30.5783 2.87818 30.0762 2.26562 29.5312C2.18526 29.4606 2.18526 29.4606 2.10327 29.3884C1.53017 28.8514 1.00875 28.1469 0.703124 27.4219C0.728906 27.3445 0.754687 27.2672 0.781249 27.1875C2.09473 27.2336 3.24147 28.04 4.29687 28.75C4.27958 28.6926 4.26228 28.6353 4.24446 28.5762C4.19303 28.4053 4.14178 28.2343 4.09065 28.0633C4.03262 27.8694 3.97417 27.6756 3.91533 27.4819C3.77441 27.0125 3.64873 26.5515 3.5639 26.0689C3.47627 25.5887 3.47627 25.5887 3.16254 25.2362C2.92545 25.1185 2.92545 25.1185 2.67395 25.0256C1.45227 24.5228 0.73718 23.2619 0.234374 22.1094C0.068809 21.7094 -0.0337718 21.3765 -5.20959e-07 20.9375C1.22327 21.1369 2.21481 22.1244 2.96875 23.0469C2.96402 22.9633 2.95928 22.8797 2.95441 22.7936C2.95133 22.737 2.94825 22.6804 2.94508 22.6221C2.93796 22.4931 2.93049 22.3642 2.92269 22.2352C2.89972 21.8323 2.889 21.4318 2.89001 21.0281C2.88887 20.8927 2.88887 20.8927 2.88771 20.7545C2.88641 20.5762 2.88753 20.3979 2.89125 20.2196C2.89449 19.7636 2.89449 19.7636 2.68085 19.3799C2.52151 19.2618 2.35897 19.1619 2.1875 19.0625C1.13386 18.1189 0.656282 16.792 0.571289 15.4102C0.561632 15.2214 0.553827 15.0327 0.546874 14.8438C0.67749 14.7885 0.67749 14.7885 0.859374 14.7656C1.7933 15.2485 2.33006 16.1178 2.84637 16.9928C2.90695 17.0892 2.90695 17.0892 2.96875 17.1875C2.99453 17.1875 3.02031 17.1875 3.04687 17.1875C3.05511 17.1317 3.06335 17.0759 3.07184 17.0184C3.11036 16.759 3.14932 16.4996 3.18848 16.2402C3.2095 16.1009 3.2095 16.1009 3.23095 15.9588C3.31877 15.3883 3.41986 14.8284 3.5611 14.2685C3.61265 13.9432 3.57405 13.7538 3.38226 13.4848C3.32798 13.4225 3.2737 13.3601 3.21777 13.2959C2.94549 12.9658 2.72974 12.6663 2.57812 12.2656C2.55486 12.2049 2.5316 12.1442 2.50763 12.0816C2.33454 11.5288 2.3217 10.9844 2.31934 10.4102C2.31891 10.3334 2.31848 10.2567 2.31804 10.1776C2.32243 9.73035 2.3525 9.33051 2.5 8.90625C2.57734 8.88047 2.65469 8.85469 2.73437 8.82812C3.19396 9.21111 3.51395 9.61528 3.7793 10.1465C3.80437 10.1961 3.82945 10.2457 3.85529 10.2968C4.06105 10.7287 4.18138 11.1775 4.29687 11.6406C4.32004 11.5825 4.34321 11.5243 4.36708 11.4643C4.47503 11.1941 4.58356 10.9242 4.69238 10.6543C4.71182 10.606 4.73126 10.5577 4.75129 10.5079C5.00994 9.8668 5.28183 9.24345 5.62134 8.64075C5.71959 8.39657 5.70804 8.29404 5.625 8.04688C5.53503 7.85189 5.43414 7.66522 5.33234 7.4762C5.1061 6.9899 5.04775 6.53872 5.04883 6.01074C5.04895 5.94585 5.04908 5.88097 5.04921 5.81411C5.06514 5.00249 5.26874 4.20793 5.70312 3.51562C5.86914 3.461 5.86914 3.461 6.01562 3.4375C6.10416 3.57054 6.19189 3.70411 6.2793 3.83789C6.32824 3.91221 6.37718 3.98654 6.42761 4.06311C6.71657 4.56388 6.75988 5.04956 6.80664 5.61523C6.81339 5.69137 6.82013 5.7675 6.82709 5.84595C6.84356 6.03268 6.85952 6.21944 6.875 6.40625C6.91961 6.33706 6.96423 6.26788 7.01019 6.19659C7.71963 5.10811 8.48944 4.07706 9.375 3.125C9.4665 3.01951 9.55766 2.91373 9.64844 2.80762C9.95638 2.4533 10.2898 2.12522 10.625 1.79688Z" fill="var(--fill-0, #FCB645)"/>
<path id="Vector_4" d="M19.9219 22.3438C19.9477 22.3438 19.9734 22.3438 20 22.3438C20.0346 23.0174 20.0609 23.6907 20.0769 24.3651C20.0846 24.6784 20.095 24.9911 20.112 25.304C20.2182 27.3162 20.2182 27.3162 19.8608 27.8731C19.5259 28.2206 19.1425 28.4438 18.7099 28.6504C18.3852 28.8168 18.1028 29.0384 17.8125 29.2578C17.6963 29.3419 17.58 29.4257 17.4634 29.5093C17.0961 29.7745 16.7315 30.0433 16.3672 30.3125C15.7136 30.7953 15.0559 31.2722 14.3964 31.7469C14.2116 31.8802 14.0271 32.0139 13.8428 32.1478C13.7806 32.1929 13.7185 32.2379 13.6545 32.2844C13.5372 32.3695 13.4199 32.4547 13.3027 32.54C12.9116 32.8234 12.513 33.094 12.1094 33.3594C12.173 33.0541 12.2778 32.9551 12.5 32.7344C12.6638 32.5116 12.8155 32.2809 12.9688 32.0508C13.2957 31.5659 13.6294 31.0897 13.9844 30.625C14.3248 30.1787 14.6467 29.7229 14.9609 29.2578C15.2752 28.7928 15.5971 28.337 15.9375 27.8906C16.3257 27.3813 16.6891 26.8581 17.048 26.3278C17.3409 25.8962 17.644 25.4741 17.9554 25.0558C18.2492 24.6587 18.527 24.2518 18.8037 23.8428C19.5285 22.7736 19.5285 22.7736 19.9219 22.3438Z" fill="var(--fill-0, #F3C156)"/>
<path id="Vector_5" d="M7.1875 18.2812C7.91574 18.4729 8.6356 18.6906 9.35547 18.9111C9.41671 18.9298 9.47795 18.9486 9.54105 18.9678C10.4518 19.2463 11.3592 19.5341 12.2646 19.8293C13.0373 20.0809 13.8135 20.3164 14.5935 20.5439C15.3196 20.757 16.0395 20.9873 16.759 21.2215C17.7838 21.5551 18.8126 21.8742 19.8438 22.1875C19.8438 22.2391 19.8438 22.2906 19.8438 22.3438C18.9441 22.6999 18.04 23.0384 17.1264 23.3572C16.9355 23.4239 16.7446 23.491 16.5538 23.5582C16.4303 23.6015 16.3067 23.6448 16.1832 23.688C16.0992 23.7176 16.0992 23.7176 16.0135 23.7477C15.8583 23.8018 15.7028 23.8543 15.5469 23.9062C15.4965 23.9237 15.4461 23.9411 15.3941 23.959C15.2485 24.006 15.2485 24.006 15 24.0625C14.7629 23.9343 14.7629 23.9343 14.5264 23.7305C14.4372 23.6563 14.3479 23.5824 14.2584 23.5086C14.213 23.4705 14.1676 23.4323 14.1209 23.393C13.9089 23.2194 13.6862 23.0625 13.4619 22.9053C13.3699 22.8401 13.278 22.7749 13.186 22.7097C13.1384 22.6759 13.0908 22.6422 13.0417 22.6074C12.2064 22.0136 11.3796 21.4084 10.5554 20.7995C10.1359 20.49 9.71477 20.1829 9.29199 19.8779C9.23531 19.837 9.17862 19.7961 9.12022 19.754C8.81163 19.5315 8.50253 19.3097 8.19305 19.0884C8.12775 19.0416 8.06245 18.9948 7.99517 18.9466C7.86892 18.856 7.74251 18.7657 7.61595 18.6757C7.55976 18.6353 7.50357 18.595 7.44568 18.5535C7.39571 18.5178 7.34575 18.4821 7.29427 18.4454C7.25904 18.417 7.2238 18.3886 7.1875 18.3594C7.1875 18.3336 7.1875 18.3078 7.1875 18.2812Z" fill="var(--fill-0, #F2C156)"/>
<path id="Vector_6" d="M20.0781 22.3438C20.6374 22.4544 21.1582 22.6223 21.6934 22.8174C21.8209 22.8633 21.8209 22.8633 21.9509 22.9102C22.1294 22.9746 22.3077 23.0392 22.4861 23.104C22.7591 23.2033 23.0325 23.3018 23.3058 23.4003C23.4796 23.4631 23.6534 23.526 23.8272 23.5889C23.9088 23.6183 23.9905 23.6478 24.0746 23.6782C24.1505 23.7058 24.2264 23.7334 24.3046 23.7619C24.3712 23.7861 24.4378 23.8102 24.5064 23.8351C24.5661 23.8586 24.6259 23.8821 24.6875 23.9062C24.7437 23.9262 24.8 23.9462 24.8579 23.9667C25.0656 24.1067 25.0877 24.2508 25.1567 24.4889C25.1967 24.6229 25.1967 24.6229 25.2375 24.7596C25.2653 24.857 25.2932 24.9545 25.322 25.0549C25.3678 25.2097 25.4141 25.3644 25.4605 25.5191C25.4927 25.6265 25.5248 25.734 25.5567 25.8415C25.7246 26.4055 25.9071 26.9644 26.0916 27.5232C26.1246 27.6234 26.1575 27.7236 26.1905 27.8239C26.2732 28.0756 26.3562 28.3273 26.4393 28.579C26.5228 28.8322 26.6062 29.0854 26.6896 29.3387C26.7143 29.4137 26.7143 29.4137 26.7395 29.4901C26.8842 29.9297 27.0282 30.3695 27.1722 30.8094C27.266 31.0949 27.361 31.3801 27.456 31.6652C27.5146 31.8429 27.5731 32.0207 27.6315 32.1985C27.659 32.2799 27.6865 32.3614 27.7148 32.4453C27.7514 32.5576 27.7514 32.5576 27.7888 32.6722C27.8105 32.7373 27.8321 32.8025 27.8544 32.8696C27.8938 33.0624 27.8756 33.175 27.8125 33.3594C27.6953 33.252 27.6953 33.252 27.5781 33.125C27.5781 33.0734 27.5781 33.0219 27.5781 32.9688C27.5191 32.8676 27.4551 32.7693 27.3889 32.6727C27.3479 32.6127 27.3069 32.5527 27.2647 32.4908C27.2199 32.4262 27.1751 32.3615 27.1289 32.2949C27.0829 32.2281 27.0369 32.1612 26.9894 32.0923C26.6636 31.622 26.3252 31.1629 25.9783 30.708C25.6317 30.2504 25.31 29.7776 24.9887 29.3021C24.7164 28.9011 24.4345 28.5103 24.1406 28.125C23.7579 27.6229 23.4 27.1072 23.0466 26.5842C22.7444 26.1392 22.4307 25.7047 22.1094 25.2734C21.3991 24.3195 20.7365 23.334 20.0781 22.3438Z" fill="var(--fill-0, #FECB5A)"/>
<path id="Vector_7" d="M19.9219 8.98438C19.9477 8.98438 19.9734 8.98438 20 8.98438C20 13.3414 20 17.6984 20 22.1875C19.5603 21.7478 19.5603 21.7478 19.3649 21.4951C19.3216 21.4393 19.2783 21.3835 19.2337 21.326C19.1885 21.2671 19.1433 21.2082 19.0967 21.1475C19.049 21.0858 19.0014 21.0241 18.9523 20.9605C18.5603 20.4517 18.1714 19.9407 17.7908 19.4232C17.6576 19.2431 17.5202 19.0706 17.3727 18.902C17.3132 18.8309 17.2537 18.7598 17.1924 18.6865C17.1401 18.628 17.0878 18.5695 17.034 18.5092C16.9392 18.2419 16.9687 18.1628 17.0463 17.8959C17.0797 17.7806 17.0797 17.7806 17.1138 17.663C17.2345 17.2683 17.3612 16.8759 17.4912 16.4841C17.5204 16.3952 17.5497 16.3063 17.5798 16.2147C17.6426 16.0241 17.7054 15.8335 17.7684 15.643C17.935 15.1384 18.1009 14.6336 18.2666 14.1287C18.2834 14.0774 18.3003 14.0262 18.3176 13.9733C18.6803 12.8687 19.0361 11.7619 19.3896 10.6543C19.4169 10.5688 19.4442 10.4833 19.4723 10.3953C19.6224 9.92505 19.7723 9.45475 19.9219 8.98438Z" fill="var(--fill-0, #F5C457)"/>
<path id="Vector_8" d="M22.9688 18.125C23.0074 18.2023 23.0074 18.2023 23.0469 18.2812C26.218 18.2812 29.3891 18.2812 32.6562 18.2812C32.4441 18.4227 32.2938 18.4888 32.0551 18.5654C31.9769 18.5905 31.8987 18.6157 31.8181 18.6417C31.7305 18.6694 31.643 18.6971 31.5527 18.7256C31.4593 18.7554 31.3658 18.7852 31.2695 18.8159C29.8764 19.2585 28.4767 19.6804 27.0786 20.1069C26.3634 20.3253 25.6492 20.5469 24.9353 20.7696C24.4482 20.9211 23.9606 21.0706 23.4723 21.218C23.4149 21.2353 23.3575 21.2526 23.2984 21.2705C23.0212 21.3541 22.744 21.4376 22.4666 21.5206C21.8487 21.706 21.8487 21.706 21.2368 21.9096C21.1837 21.9281 21.1305 21.9466 21.0758 21.9656C20.9284 22.0172 20.7815 22.0699 20.6346 22.1227C20.4009 22.1848 20.2983 22.1979 20.0781 22.1094C20.1369 22.0325 20.1958 21.9557 20.2563 21.8765C20.6448 21.3689 21.0331 20.8611 21.4203 20.3525C21.4748 20.2808 21.5294 20.2092 21.5855 20.1354C21.6913 19.9965 21.797 19.8575 21.9026 19.7186C21.9521 19.6535 22.0016 19.5885 22.0526 19.5215C22.1006 19.4582 22.1486 19.395 22.1981 19.3298C22.2973 19.201 22.3979 19.0733 22.4998 18.9465C22.5739 18.8541 22.5739 18.8541 22.6495 18.7598C22.694 18.7052 22.7385 18.6506 22.7843 18.5944C22.8922 18.4351 22.9356 18.313 22.9688 18.125Z" fill="var(--fill-0, #FECB5A)"/>
<path id="Vector_9" d="M23.2568 19.6875C23.3804 19.6906 23.5039 19.6932 23.6275 19.6954C24.8588 19.7313 24.8588 19.7313 25.2951 20.1254C25.379 20.2399 25.463 20.3543 25.5469 20.4687C25.3409 20.6747 25.1596 20.7068 24.8801 20.7892C24.8283 20.8046 24.7765 20.8201 24.7232 20.836C24.6117 20.8692 24.5 20.9022 24.3883 20.935C24.0949 21.0213 23.8019 21.1092 23.5089 21.1969C23.45 21.2145 23.3911 21.2321 23.3303 21.2502C22.7862 21.4131 22.2448 21.5837 21.7041 21.7578C21.625 21.7833 21.5459 21.8087 21.4644 21.8349C21.3909 21.8586 21.3174 21.8823 21.2418 21.9067C21.1411 21.9391 21.1411 21.9391 21.0384 21.972C20.8883 22.0217 20.7398 22.076 20.5917 22.1313C20.3749 22.1919 20.2881 22.1716 20.0781 22.1094C20.2311 21.9092 20.3841 21.709 20.5371 21.5088C20.579 21.454 20.6209 21.3991 20.6641 21.3426C20.7548 21.224 20.8466 21.1062 20.9395 20.9893C21.0565 20.8315 21.1553 20.6803 21.2543 20.5119C21.7838 19.6566 22.2984 19.6285 23.2568 19.6875Z" fill="var(--fill-0, #F2C156)"/>
<path id="Vector_10" d="M20.6787 24.5947C20.734 24.5938 20.7894 24.5928 20.8464 24.5918C21.3082 24.5905 21.6542 24.6238 21.9965 24.964C22.5467 25.6958 22.5467 25.6958 22.5684 26.0352C22.4724 26.4465 22.3414 26.7936 21.9827 27.0402C21.5553 27.2834 21.1869 27.3045 20.7031 27.2852C20.6351 27.2837 20.5672 27.2823 20.4971 27.2809C20.3314 27.2772 20.1657 27.2716 20 27.2656C19.9981 26.8999 19.9967 26.5342 19.9957 26.1684C19.9953 26.0439 19.9948 25.9194 19.9941 25.7949C19.9932 25.6163 19.9927 25.4377 19.9924 25.2591C19.992 25.2031 19.9916 25.1471 19.9911 25.0894C19.9911 24.9554 19.9952 24.8214 20 24.6875C20.1571 24.5304 20.4639 24.5949 20.6787 24.5947Z" fill="var(--fill-0, #F0AD42)"/>
<path id="Vector_11" d="M20 17.4219C20 18.1953 20 18.9688 20 19.7656C18.8158 19.7656 18.8158 19.7656 18.4375 19.4531C18.1571 19.0732 18.1356 18.6593 18.2031 18.2031C18.6244 17.3757 19.0869 17.4219 20 17.4219Z" fill="var(--fill-0, #FECB5A)"/>
<path id="Vector_12" d="M20 19.7656C20.6188 19.7656 21.2375 19.7656 21.875 19.7656C21.3468 20.5579 21.3468 20.5579 21.1322 20.834C21.0626 20.9237 21.0626 20.9237 20.9915 21.0152C20.9447 21.0749 20.8979 21.1347 20.8496 21.1963C20.8022 21.2576 20.7547 21.3189 20.7059 21.382C20.4808 21.6706 20.2604 21.9271 20 22.1875C20 21.3883 20 20.5891 20 19.7656Z" fill="var(--fill-0, #F0AD42)"/>
<path id="Vector_13" d="M19.9219 8.98438C19.9477 8.98438 19.9734 8.98438 20 8.98438C20 10.1445 20 11.3047 20 12.5C19.6133 12.5 19.2266 12.5 18.8281 12.5C19.0253 11.7429 19.2641 11.0021 19.5068 10.2588C19.5472 10.1347 19.5875 10.0107 19.6278 9.88663C19.7256 9.58581 19.8237 9.28507 19.9219 8.98438Z" fill="var(--fill-0, #F3C257)"/>
<path id="Vector_14" d="M19.9219 22.3438C19.9477 22.3438 19.9734 22.3438 20 22.3438C20 23.1172 20 23.8906 20 24.6875C19.8002 24.6891 19.6004 24.6907 19.3945 24.6924C19.3321 24.6931 19.2697 24.6938 19.2054 24.6945C18.9352 24.6956 18.697 24.6823 18.4375 24.6094C18.4677 24.1894 18.7101 23.9272 18.96 23.6084C19.0004 23.5558 19.0408 23.5032 19.0825 23.4489C19.1641 23.3428 19.2459 23.2369 19.3281 23.1312C19.4987 22.9095 19.664 22.6839 19.829 22.458C19.8597 22.4203 19.8903 22.3826 19.9219 22.3438Z" fill="var(--fill-0, #FECB5A)"/>
<path id="Vector_15" d="M20 27.2656C20.0366 27.4326 20.0366 27.4326 20 27.6562C19.825 27.8359 19.6214 27.9704 19.4141 28.1104C19.3582 28.1496 19.3023 28.1888 19.2447 28.2292C19.1066 28.3259 18.9675 28.4209 18.8281 28.5156C18.7427 28.2227 18.7427 28.2227 18.8086 28.0469C19.1084 27.5672 19.4001 27.2656 20 27.2656Z" fill="var(--fill-0, #FECB5A)"/>
<path id="Vector_16" d="M19.0723 22.3389C19.1724 22.3396 19.2725 22.3403 19.3756 22.341C19.4528 22.3419 19.5299 22.3428 19.6094 22.3437C19.5036 22.5552 19.4082 22.5587 19.1873 22.6349C19.1178 22.6591 19.0482 22.6832 18.9766 22.7081C18.9034 22.7329 18.8303 22.7577 18.7549 22.7832C18.682 22.8086 18.6092 22.834 18.5341 22.8601C17.9914 23.0469 17.9914 23.0469 17.8125 23.0469C18.0456 22.4536 18.4915 22.3336 19.0723 22.3389Z" fill="var(--fill-0, #FEC959)"/>
<path id="Vector_17" d="M13.0371 32.3828C13.1177 32.3957 13.1982 32.4086 13.2812 32.4219C13.2812 32.4734 13.2812 32.525 13.2812 32.5781C13.1014 32.718 12.9217 32.8494 12.7344 32.9785C12.6822 33.0151 12.63 33.0516 12.5763 33.0893C12.447 33.1798 12.3173 33.2696 12.1875 33.3594C12.1617 33.2562 12.1359 33.1531 12.1094 33.0469C12.1609 33.0469 12.2125 33.0469 12.2656 33.0469C12.339 32.9451 12.4084 32.8404 12.4756 32.7344C12.6948 32.427 12.6948 32.427 13.0371 32.3828Z" fill="var(--fill-0, #FECA59)"/>
<path id="Vector_18" d="M12.3438 32.3438C12.4727 32.3695 12.6016 32.3953 12.7344 32.4219C12.5797 32.6539 12.425 32.8859 12.2656 33.125C12.1795 32.7807 12.2198 32.6647 12.3438 32.3438Z" fill="var(--fill-0, #FBB848)"/>
<path id="Vector_19" d="M19.9219 8.98438C19.9477 8.98438 19.9734 8.98438 20 8.98438C20 9.29375 20 9.60313 20 9.92188C19.8969 9.92188 19.7938 9.92188 19.6875 9.92188C19.7648 9.6125 19.8422 9.30312 19.9219 8.98438Z" fill="var(--fill-0, #FECB5A)"/>
<path id="Vector_20" d="M20 8.98438C20.1487 9.2074 20.1923 9.32964 20.2441 9.58496C20.2572 9.6481 20.2703 9.71125 20.2838 9.77631C20.2933 9.82434 20.3027 9.87238 20.3125 9.92188C20.2094 9.92188 20.1063 9.92188 20 9.92188C20 9.6125 20 9.30312 20 8.98438Z" fill="var(--fill-0, #FCB948)"/>
</g>
<defs>
<clipPath id="clip0_0_333">
<rect width="40" height="40" fill="white"/>
</clipPath>
</defs>
</svg>
