<svg preserveAspectRatio="none" width="100%" height="100%" overflow="visible" style="display: block;" viewBox="0 0 40 40" fill="none" xmlns="http://www.w3.org/2000/svg">
<g id="instagram 1" clip-path="url(#clip0_0_309)">
<path id="Vector" d="M20.0098 -0.0244141C20.0874 -0.0242457 20.1651 -0.0240773 20.2451 -0.0239038C21.3755 -0.0199713 22.4833 0.00324085 23.5937 0.234375C23.67 0.249897 23.7463 0.265418 23.8249 0.28141C27.6046 1.07218 31.0411 2.78441 33.8281 5.46875C33.9054 5.54283 33.9054 5.54283 33.9842 5.6184C34.7255 6.33281 35.4083 7.05917 36.0156 7.89062C36.0827 7.98055 36.1497 8.07048 36.2167 8.1604C36.6885 8.80034 37.1071 9.46547 37.5 10.1562C37.5285 10.2056 37.5569 10.255 37.5863 10.3058C39.2655 13.2397 40.0372 16.5727 40.0244 19.9316C40.0242 20.0481 40.0242 20.0481 40.024 20.1669C40.0205 21.2992 39.9845 22.4017 39.7656 23.5156C39.753 23.5856 39.7405 23.6556 39.7275 23.7276C39.1112 27.1344 37.5729 30.3483 35.3125 32.9687C35.2629 33.027 35.2134 33.0852 35.1624 33.1451C34.2396 34.2002 33.2435 35.1902 32.1094 36.0156C32.0195 36.0825 31.9297 36.1495 31.8399 36.2164C31.1999 36.6884 30.5346 37.107 29.8437 37.5C29.7944 37.5285 29.745 37.557 29.6942 37.5863C27.6607 38.7502 25.3624 39.5037 23.0469 39.8437C22.9529 39.8575 22.859 39.8713 22.7622 39.8856C21.8469 40.0109 20.9376 40.0313 20.0146 40.0293C19.9375 40.0292 19.8605 40.0292 19.781 40.0291C14.7065 40.0143 9.83041 38.0549 6.17187 34.5312C6.12036 34.4819 6.06885 34.4325 6.01578 34.3816C5.27451 33.6672 4.5917 32.9408 3.98437 32.1094C3.91734 32.0194 3.8503 31.9295 3.78326 31.8396C3.31153 31.1997 2.89289 30.5345 2.5 29.8437C2.47152 29.7944 2.44305 29.745 2.41371 29.6942C1.24729 27.6563 0.506729 25.3644 0.156249 23.0469C0.135553 22.9153 0.135553 22.9153 0.11444 22.7811C-0.0150057 21.8739 -0.0311523 20.9741 -0.029298 20.0586C-0.0292556 19.9795 -0.0292131 19.9005 -0.0291693 19.819C-0.0259859 18.5273 0.0461809 17.2835 0.312499 16.0156C0.328826 15.9363 0.345153 15.857 0.361975 15.7753C1.04775 12.5478 2.53233 9.52965 4.6875 7.03125C4.73705 6.97304 4.7866 6.91483 4.83764 6.85486C5.76039 5.79978 6.75653 4.80983 7.89062 3.98438C7.98046 3.91746 8.07029 3.85053 8.16009 3.78357C8.80007 3.31165 9.46535 2.89296 10.1562 2.5C10.2056 2.47152 10.255 2.44305 10.3058 2.41371C12.3395 1.24972 14.6375 0.496605 16.9531 0.15625C17.0936 0.13547 17.0936 0.13547 17.2369 0.114269C18.1608 -0.0129599 19.0782 -0.028049 20.0098 -0.0244141ZM11.4697 12.0459C10.054 13.7169 9.97481 15.7108 9.97925 17.7979C9.97914 17.9749 9.97899 18.152 9.97879 18.3291C9.97856 18.6981 9.97889 19.0671 9.97963 19.4361C9.98052 19.9055 9.98 20.3748 9.97907 20.8441C9.9785 21.2092 9.97869 21.5742 9.97909 21.9392C9.97919 22.1121 9.97907 22.285 9.9787 22.458C9.97489 24.754 10.2283 26.6401 11.8817 28.374C13.5291 29.9418 15.6519 30.0253 17.7978 30.0208C17.9749 30.0209 18.152 30.021 18.3291 30.0212C18.6981 30.0214 19.0671 30.0211 19.4361 30.0204C19.9055 30.0195 20.3748 30.02 20.8441 30.0209C21.2092 30.0215 21.5742 30.0213 21.9392 30.0209C22.1121 30.0208 22.285 30.0209 22.458 30.0213C24.754 30.0251 26.6401 29.7717 28.374 28.1183C29.9418 26.4709 30.0253 24.3481 30.0207 22.2021C30.0209 22.0251 30.021 21.848 30.0212 21.6709C30.0214 21.3019 30.0211 20.9329 30.0204 20.5639C30.0195 20.0945 30.02 19.6252 30.0209 19.1559C30.0215 18.7908 30.0213 18.4258 30.0209 18.0608C30.0208 17.8879 30.0209 17.715 30.0213 17.542C30.0251 15.246 29.7717 13.3599 28.1183 11.626C26.4806 10.0674 24.3844 9.97482 22.251 9.97925C22.0701 9.97914 21.8892 9.97899 21.7083 9.97879C21.3312 9.97857 20.954 9.97889 20.5769 9.97963C20.0967 9.98052 19.6166 9.98001 19.1365 9.97907C18.7636 9.9785 18.3906 9.97869 18.0177 9.97909C17.8408 9.97919 17.6639 9.97907 17.487 9.9787C15.1472 9.97491 13.1669 10.2626 11.4697 12.0459Z" fill="var(--fill-0, #E8B600)"/>
<path id="Vector_2" d="M16.5084 11.9317C16.634 11.9311 16.634 11.9311 16.7621 11.9305C17.0363 11.9294 17.3104 11.9294 17.5845 11.9296C17.7769 11.9293 17.9692 11.929 18.1615 11.9286C18.5637 11.928 18.9659 11.9281 19.3682 11.9285C19.8812 11.9289 20.3941 11.9276 20.9071 11.9258C21.3041 11.9246 21.7011 11.9246 22.0981 11.9248C22.2871 11.9248 22.4761 11.9244 22.6652 11.9236C24.2534 11.9177 25.6604 11.9575 26.8994 13.0811C27.7843 14.0266 28.0714 15.173 28.0683 16.437C28.0687 16.5224 28.0691 16.6077 28.0695 16.6957C28.0706 16.9757 28.0706 17.2557 28.0704 17.5357C28.0707 17.7318 28.071 17.928 28.0714 18.1241C28.072 18.5345 28.072 18.9448 28.0715 19.3552C28.0711 19.7749 28.0717 20.1946 28.0731 20.6143C28.0749 21.1232 28.0755 21.6322 28.0752 22.1412C28.0752 22.3342 28.0756 22.5272 28.0764 22.7202C28.0821 24.3058 28.0468 25.6442 26.9006 26.8549C25.6163 28.1004 24.1353 28.0828 22.4414 28.078C22.2456 28.0782 22.0498 28.0784 21.854 28.0787C21.3929 28.0791 20.9318 28.0783 20.4707 28.077C20.1048 28.0761 19.7388 28.0764 19.3729 28.0774C18.8651 28.0788 18.3574 28.079 17.8497 28.0782C17.6573 28.0781 17.465 28.0783 17.2726 28.0788C15.6979 28.0823 14.3495 28.0489 13.15 26.904C12.2236 25.9573 11.942 24.8981 11.9405 23.5985C11.9401 23.5132 11.9398 23.4279 11.9394 23.34C11.9382 23.0582 11.9377 22.7765 11.9373 22.4948C11.9368 22.2982 11.9364 22.1017 11.9359 21.9051C11.9352 21.5455 11.9347 21.1859 11.9345 20.8263C11.9341 20.2995 11.9327 19.7728 11.9305 19.246C11.9286 18.7877 11.928 18.3293 11.9278 17.871C11.9276 17.6771 11.927 17.4832 11.926 17.2893C11.9181 15.7056 11.9592 14.3358 13.0811 13.1006C13.4042 12.7986 13.745 12.5838 14.1357 12.3828C14.1851 12.3573 14.2344 12.3318 14.2853 12.3055C14.9873 11.9714 15.7423 11.9297 16.5084 11.9317ZM24.3399 13.9426C24.0349 14.3 23.9561 14.5114 23.9627 14.9701C24.0099 15.3753 24.2059 15.6263 24.5166 15.8887C24.9052 16.0868 25.2176 16.1425 25.6348 16.0107C26.0084 15.8541 26.2251 15.5967 26.4063 15.2344C26.4487 14.8473 26.4503 14.5413 26.2744 14.1895C25.9547 13.8266 25.7025 13.6114 25.21 13.5742C24.8473 13.5988 24.5999 13.6798 24.3399 13.9426ZM15.9375 16.7969C15.1164 17.9466 14.6825 19.2506 14.8828 20.6668C15.1433 22.1218 15.8162 23.3622 17.037 24.234C18.3746 25.0919 19.7352 25.3298 21.2811 24.9921C22.6788 24.6434 23.7902 23.7127 24.5273 22.4896C25.244 21.2102 25.2658 19.8252 24.9219 18.4375C24.5312 17.1012 23.5349 16.0625 22.3438 15.3906C20.1004 14.3231 17.5385 14.888 15.9375 16.7969Z" fill="var(--fill-0, #E8B600)"/>
<path id="Vector_3" d="M21.7203 17.2418C22.5634 17.8116 23.0037 18.5378 23.2031 19.5312C23.3118 20.403 23.0982 21.2172 22.6074 21.9434C21.994 22.7195 21.2099 23.1107 20.2313 23.2327C19.3383 23.2692 18.5455 22.9938 17.847 22.4417C17.1462 21.7947 16.7967 20.9508 16.7578 20C16.7961 19.091 17.1182 18.3236 17.7344 17.6562C18.843 16.6385 20.4238 16.5139 21.7203 17.2418Z" fill="var(--fill-0, #E8B600)"/>
</g>
<defs>
<clipPath id="clip0_0_309">
<rect width="40" height="40" fill="white"/>
</clipPath>
</defs>
</svg>
